<svg width="22" height="22" viewBox="0 0 22 22" fill="none" xmlns="http://www.w3.org/2000/svg">
<g clip-path="url(#clip0)">
<path d="M22 17.874L22 4.12402C22 1.84567 20.1534 -0.000975682 17.875 -0.000975781L4.125 -0.000976382C1.84665 -0.000976482 -8.07196e-08 1.84567 -1.80309e-07 4.12402L-7.81341e-07 17.874C-8.80931e-07 20.1524 1.84665 21.999 4.125 21.999L17.875 21.999C20.1533 21.999 22 20.1524 22 17.874Z" fill="#D2F1FF"/>
<path d="M6.84783 10.5027L10.2099 13.3582C10.4374 13.5515 10.7189 13.648 11.0005 13.648C11.2817 13.648 11.5629 13.5515 11.791 13.3582L15.1531 10.5027C15.6673 10.066 15.7302 9.29535 15.2936 8.78115C14.8566 8.26696 14.086 8.20406 13.5718 8.641L11.0005 10.8245L8.4295 8.641C7.91469 8.20436 7.14431 8.26726 6.70767 8.78115C6.27103 9.29535 6.33393 10.066 6.84783 10.5027Z" fill="#54A2C7"/>
</g>
<defs>
<clipPath id="clip0">
<rect width="22" height="22" fill="white" transform="matrix(-4.37114e-08 1 1 4.37114e-08 0 -0.000976562)"/>
</clipPath>
</defs>
</svg>
