<svg width="22" height="22" viewBox="0 0 22 22" fill="none" xmlns="http://www.w3.org/2000/svg">
<g clip-path="url(#clip0)">
<path d="M22 4.125L22 17.875C22 20.1534 20.1534 22 17.875 22L4.125 22C1.84665 22 -8.07196e-08 20.1534 -1.80309e-07 17.875L-7.81341e-07 4.12501C-8.80931e-07 1.84666 1.84665 7.54867e-06 4.125 7.44909e-06L17.875 6.84805e-06C20.1533 6.74846e-06 22 1.84666 22 4.125Z" fill="#F5FCFF"/>
<path d="M6.84782 11.4964L10.2099 8.6408C10.4374 8.44752 10.7189 8.35103 11.0005 8.35103C11.2817 8.35103 11.5629 8.44752 11.791 8.6408L15.1531 11.4964C15.6673 11.933 15.7302 12.7037 15.2936 13.2179C14.8566 13.7321 14.086 13.795 13.5718 13.358L11.0005 11.1745L8.4295 13.358C7.91469 13.7947 7.14431 13.7318 6.70767 13.2179C6.27104 12.7037 6.33393 11.933 6.84782 11.4964Z" fill="#54A2C7"/>
<g clip-path="url(#clip1)">
<path d="M22 4.125L22 17.875C22 20.1534 20.1534 22 17.875 22L4.125 22C1.84665 22 -8.07196e-08 20.1534 -1.80309e-07 17.875L-7.81341e-07 4.12501C-8.80931e-07 1.84666 1.84665 7.54867e-06 4.125 7.44909e-06L17.875 6.84805e-06C20.1533 6.74846e-06 22 1.84666 22 4.125Z" fill="#54A2C7"/>
<path d="M6.84782 11.4964L10.2099 8.6408C10.4374 8.44752 10.7189 8.35103 11.0005 8.35103C11.2817 8.35103 11.5629 8.44752 11.791 8.6408L15.1531 11.4964C15.6673 11.933 15.7302 12.7037 15.2936 13.2179C14.8566 13.7321 14.086 13.795 13.5718 13.358L11.0005 11.1745L8.4295 13.358C7.91469 13.7947 7.14431 13.7318 6.70767 13.2179C6.27104 12.7037 6.33393 11.933 6.84782 11.4964Z" fill="#F5FCFF"/>
</g>
</g>
<defs>
<clipPath id="clip0">
<rect width="22" height="22" fill="white" transform="translate(0 22) rotate(-90)"/>
</clipPath>
<clipPath id="clip1">
<rect width="22" height="22" fill="white" transform="translate(0 22) rotate(-90)"/>
</clipPath>
</defs>
</svg>
