<svg width="46" height="40" viewBox="0 0 46 40" fill="none" xmlns="http://www.w3.org/2000/svg">
<path d="M17.5222 40.0002C15.2922 40.0002 13.4785 38.2056 13.4785 36.0001C13.4785 33.7942 15.2922 32 17.5222 32C19.7518 32 21.5655 33.7942 21.5655 36.0001C21.5655 38.2056 19.7518 40.0002 17.5222 40.0002Z" fill="#222222"/>
<path d="M17.5218 37.3331C16.7782 37.3331 16.1738 36.7356 16.1738 36C16.1738 35.2643 16.7782 34.6665 17.5218 34.6665C18.2655 34.6665 18.8695 35.2643 18.8695 36C18.8695 36.7356 18.2655 37.3331 17.5218 37.3331Z" fill="#2C597B"/>
<path d="M36.573 40.0002C34.3434 40.0002 32.5293 38.2056 32.5293 36.0001C32.5293 33.7942 34.3434 32 36.573 32C38.8026 32 40.6167 33.7942 40.6167 36.0001C40.6167 38.2056 38.8026 40.0002 36.573 40.0002Z" fill="#222222"/>
<path d="M36.5726 37.3331C35.8289 37.3331 35.2246 36.7356 35.2246 36C35.2246 35.2643 35.8289 34.6665 36.5726 34.6665C37.3163 34.6665 37.9203 35.2643 37.9203 36C37.9203 36.7356 37.3163 37.3331 36.5726 37.3331Z" fill="#2C597B"/>
<path d="M40.8308 30.6662C40.8308 31.4129 40.2376 31.9997 39.4831 31.9997H13.6941C11.4564 31.9997 9.65039 30.2128 9.65039 27.9996C9.65039 25.9732 11.1598 24.2929 13.1547 24.053C13.3164 23.9995 13.5053 23.9995 13.6941 23.9995C14.0173 23.9995 14.3409 24.1332 14.5567 24.3463L13.7478 26.6665C13.7211 26.6665 13.7211 26.6665 13.6941 26.6665C12.9392 26.6665 12.3461 27.2528 12.3461 27.9996C12.3461 28.7463 12.9392 29.3331 13.6941 29.3331H39.4831C40.2376 29.3331 40.8308 29.9194 40.8308 30.6662Z" fill="#2C597B"/>
<path d="M8.94508 5.33632C9.03071 5.4429 10.4822 6.09141 11.9436 6.72638C11.9489 6.61147 11.9636 6.4976 11.9373 6.38026L10.7514 1.04671C10.6156 0.434654 10.0681 0 9.43501 0H1.34801C0.602936 0 0 0.596435 0 1.33347C0 2.07016 0.602936 2.6666 1.34801 2.6666H8.35161L8.94508 5.33632Z" fill="#2C597B"/>
<path d="M40.8316 30.6661C40.8316 31.4129 40.2384 31.9996 39.4839 31.9996H26.8047V29.333H39.4839C40.2384 29.333 40.8316 29.9194 40.8316 30.6661Z" fill="#2C597B"/>
<path d="M45.7371 5.8666C45.4675 5.51978 45.0899 5.33301 44.6586 5.33301H8.94922L13.1547 24.053L13.7478 26.6665H39.2673C39.8604 26.6665 40.3994 26.2662 40.5612 25.7062L45.9526 7.03968C46.0607 6.63975 45.9796 6.18635 45.7371 5.8666Z" fill="#FA7272"/>
</svg>
