<svg width="60" height="60" viewBox="0 0 60 60"  xmlns="http://www.w3.org/2000/svg">
<g clip-path="url(#clip0)">
<path d="M55.447 4.10496C55.112 3.93797 47.029 0 29 0C11.628 0 5.21602 3.68496 4.50504 4.13004C1.68305 5.55598 0 7.74703 0 9.99996V33C0 33.552 0.448008 34 0.999961 34C1.55191 34 1.99992 33.552 1.99992 33V9.99996C1.99992 8.24402 3.78094 6.72797 5.44688 5.895C5.48086 5.87695 5.51883 5.85504 5.54988 5.835C5.60883 5.79703 11.6439 2.00004 28.9999 2.00004C46.4869 2.00004 54.4759 5.85609 54.5529 5.895C56.2189 6.72797 57.9998 8.24402 57.9998 9.99996V33C57.9998 33.552 58.4478 34 58.9998 34C59.5518 34 60 33.552 60 33V9.99996C60 7.73402 58.298 5.53102 55.447 4.10496Z" fill="#222222"/>
<path d="M6 31V33.0001C6 33.552 6.44801 34 6.99996 34C7.55191 34 7.99992 33.552 7.99992 33.0001V31C7.99992 29.3461 9.34594 28 10.9999 28H22.9999C24.6539 28 25.9999 29.3461 25.9999 31V33.0001C25.9999 33.552 26.4479 34 26.9999 34C27.5518 34 27.9998 33.552 27.9998 33.0001V31C27.9998 28.2431 25.7569 26 22.9998 26H10.9998C8.24297 26.0001 6 28.2431 6 31Z" fill="#222222"/>
<path d="M18.9999 14C18.9999 13.448 18.553 13 18 13C17.447 13 17 13.448 17 14C17 14.5519 17.447 14.9999 18 14.9999C18.553 14.9999 18.9999 14.5519 18.9999 14Z" fill="#222222"/>
<path d="M53 58H47C46.448 58 46 58.448 46 59C46 59.5519 46.448 59.9999 47 59.9999H53C53.5519 59.9999 53.9999 59.5519 53.9999 59C53.9999 58.448 53.5519 58 53 58Z" fill="#222222"/>
<path d="M13 58H6.99996C6.44801 58 6 58.448 6 59C6 59.5519 6.44801 60 6.99996 60H13C13.5519 60 13.9999 59.552 13.9999 59.0001C13.9999 58.4481 13.552 58 13 58Z" fill="#222222"/>
<path d="M24 20.9999C24.553 20.9999 24.9999 20.5519 24.9999 20C24.9999 19.448 24.553 19 24 19C23.447 19 23 19.448 23 20C23 20.5519 23.447 20.9999 24 20.9999Z" fill="#222222"/>
<path d="M59 36H0.999961C0.448008 36 0 36.448 0 37V43C0 43.5519 0.448008 43.9999 0.999961 43.9999H55C55.5519 43.9999 55.9999 43.5519 55.9999 43C55.9999 42.448 55.5519 42 55 42H2.00004V38H58.0001V51C58.0001 52.654 56.6541 54 55.0001 54H5.00004C3.34605 54 2.00004 52.654 2.00004 51V47C2.00004 46.4481 1.55203 46.0001 1.00008 46.0001C0.448125 46.0001 0 46.448 0 47V51C0 53.757 2.24297 56 5.00004 56H55.0001C57.757 56 60.0001 53.7571 60.0001 51V37C60 36.448 59.552 36 59 36Z" fill="#222222"/>
<path d="M12.9999 20C12.9999 19.448 12.553 19 12 19C11.447 19 11 19.448 11 20C11 20.5519 11.447 20.9999 12 20.9999C12.553 20.9999 12.9999 20.5519 12.9999 20Z" fill="#222222"/>
<path d="M42.9999 14C42.9999 13.448 42.553 13 42 13C41.447 13 41 13.448 41 14C41 14.5519 41.447 14.9999 42 14.9999C42.553 14.9999 42.9999 14.5519 42.9999 14Z" fill="#222222"/>
<path d="M32 31V33.0001C32 33.552 32.448 34 33 34C33.5519 34 33.9999 33.552 33.9999 33.0001V31C33.9999 29.3461 35.3459 28 36.9999 28H48.9999C50.6539 28 51.9999 29.3461 51.9999 31V33.0001C51.9999 33.552 52.4479 34 52.9999 34C53.5518 34 53.9998 33.552 53.9998 33.0001V31C53.9998 28.2431 51.7569 26 48.9998 26H36.9998C34.243 26.0001 32 28.2431 32 31Z" fill="#222222"/>
<path d="M48.9999 20C48.9999 19.448 48.553 19 48 19C47.447 19 47 19.448 47 20C47 20.5519 47.447 20.9999 48 20.9999C48.553 20.9999 48.9999 20.5519 48.9999 20Z" fill="#222222"/>
<path d="M24 8.99992C24.553 8.99992 24.9999 8.55191 24.9999 7.99996C24.9999 7.44801 24.553 7 24 7C23.447 7 23 7.44801 23 7.99996C23 8.55191 23.447 8.99992 24 8.99992Z" fill="#222222"/>
<path d="M36 8.99992C36.553 8.99992 36.9999 8.55191 36.9999 7.99996C36.9999 7.44801 36.553 7 36 7C35.447 7 35 7.44801 35 7.99996C35 8.55191 35.447 8.99992 36 8.99992Z" fill="#222222"/>
<path d="M30.9999 14C30.9999 13.448 30.553 13 30 13C29.447 13 29 13.448 29 14C29 14.5519 29.447 14.9999 30 14.9999C30.553 14.9999 30.9999 14.5519 30.9999 14Z" fill="#222222"/>
<path d="M36 20.9999C36.553 20.9999 36.9999 20.5519 36.9999 20C36.9999 19.448 36.553 19 36 19C35.447 19 35 19.448 35 20C35 20.5519 35.447 20.9999 36 20.9999Z" fill="#222222"/>
</g>
<defs>
<clipPath id="clip0">
<rect width="60" height="60" fill="white"/>
</clipPath>
</defs>
</svg>
