<svg width="23" height="16" viewBox="0 0 23 16" fill="none" xmlns="http://www.w3.org/2000/svg">
<path d="M16.0633 14.4167H4.38078C4.17899 14.4167 4.01562 14.2514 4.01562 14.0468V4.88914C4.01562 3.81682 4.87609 2.94482 5.93396 2.94482H14.5104C15.568 2.94482 16.4285 3.81682 16.4285 4.88914V14.0468C16.4283 14.2514 16.2651 14.4167 16.0633 14.4167ZM4.74573 13.6767H15.6982V4.88914C15.6982 4.22529 15.1651 3.6849 14.5102 3.6849H5.93396C5.27885 3.6849 4.74573 4.22529 4.74573 4.88914V13.6767Z" fill="#2B587A"/>
<path d="M22.6358 14.0464H16.0645V7.01514H19.4403C20.2617 7.01514 21.0269 7.43208 21.4719 8.12176L22.6358 9.92716V14.0464Z" fill="white"/>
<path d="M22.6358 14.4163H16.0644C15.8626 14.4163 15.6992 14.251 15.6992 14.0464V7.01516C15.6992 6.81061 15.8626 6.64502 16.0644 6.64502H19.4402C20.3897 6.64502 21.2631 7.12125 21.7772 7.91935L22.9412 9.72475C22.98 9.78489 23.0007 9.8554 23.0007 9.92718V14.0464C23.0007 14.251 22.8376 14.4163 22.6358 14.4163ZM16.4293 13.6763H22.2706V10.0375L21.1661 8.32401C20.7872 7.73618 20.1417 7.38531 19.4402 7.38531H16.4293V13.6763Z" fill="#2B587A"/>
<path d="M16.063 14.0466H3.28516V13.6813C3.28516 12.8612 3.9411 12.1963 4.75018 12.1963H16.063V14.0466Z" fill="white"/>
<path d="M16.0629 14.4166H3.28508C3.08349 14.4166 2.91992 14.2512 2.91992 14.0466V13.6811C2.91992 12.6584 3.7409 11.8262 4.74989 11.8262H16.0629C16.2647 11.8262 16.4279 11.9918 16.4279 12.1963V14.0466C16.4279 14.2512 16.2647 14.4166 16.0629 14.4166ZM3.65003 13.6765H15.6977V12.5662H4.74989C4.14512 12.5662 3.65254 13.0639 3.65003 13.6765Z" fill="#2B587A"/>
<path d="M21.0936 13.9541C21.0936 14.8797 20.3535 15.6299 19.4404 15.6299C18.5275 15.6299 17.7871 14.8797 17.7871 13.9541C17.7871 13.0286 18.5275 12.2783 19.4404 12.2783C20.3535 12.2783 21.0936 13.0286 21.0936 13.9541Z" fill="white"/>
<path d="M19.4401 15.9999C18.3275 15.9999 17.4219 15.0819 17.4219 13.9539C17.4219 12.8261 18.3275 11.9082 19.4401 11.9082C20.5527 11.9082 21.4583 12.8261 21.4583 13.9539C21.4583 15.0817 20.5527 15.9999 19.4401 15.9999ZM19.4401 12.6483C18.73 12.6483 18.152 13.234 18.152 13.9539C18.152 14.6737 18.73 15.2596 19.4401 15.2596C20.1503 15.2596 20.7281 14.6737 20.7281 13.9539C20.7281 13.234 20.1503 12.6483 19.4401 12.6483Z" fill="#2B587A"/>
<path d="M9.49203 7.3853H0.365158C0.16336 7.3853 0 7.21971 0 7.01516C0 6.81061 0.16336 6.64502 0.365158 6.64502H9.49203C9.69362 6.64502 9.85719 6.81061 9.85719 7.01516C9.85719 7.21971 9.69362 7.3853 9.49203 7.3853Z" fill="#2B587A"/>
<path d="M20.0382 13.954C20.0382 14.2884 19.7709 14.5594 19.441 14.5594C19.1111 14.5594 18.8438 14.2884 18.8438 13.954C18.8438 13.6197 19.1111 13.3486 19.441 13.3486C19.7709 13.3486 20.0382 13.6197 20.0382 13.954Z" fill="#2B587A"/>
<path d="M10.1422 13.9541C10.1422 14.8797 9.40208 15.6299 8.48897 15.6299C7.57607 15.6299 6.83594 14.8797 6.83594 13.9541C6.83594 13.0286 7.57607 12.2783 8.48897 12.2783C9.40208 12.2783 10.1422 13.0286 10.1422 13.9541Z" fill="white"/>
<path d="M8.48889 15.9999C7.37608 15.9999 6.4707 15.082 6.4707 13.9539C6.4707 12.8262 7.37608 11.9082 8.48889 11.9082C9.60191 11.9082 10.5073 12.8262 10.5073 13.9539C10.5073 15.082 9.60191 15.9999 8.48889 15.9999ZM8.48889 12.6483C7.77884 12.6483 7.20081 13.234 7.20081 13.9539C7.20081 14.6737 7.77884 15.2596 8.48889 15.2596C9.19915 15.2596 9.77697 14.6737 9.77697 13.9539C9.77697 13.234 9.19915 12.6483 8.48889 12.6483Z" fill="#2B587A"/>
<path d="M9.08491 13.954C9.08491 14.2884 8.81752 14.5594 8.48766 14.5594C8.15802 14.5594 7.89062 14.2884 7.89062 13.954C7.89062 13.6197 8.15802 13.3486 8.48766 13.3486C8.81752 13.3486 9.08491 13.6197 9.08491 13.954Z" fill="#2B587A"/>
<path d="M8.57527 3.62751C8.57527 5.42656 7.13657 6.8849 5.36175 6.8849C3.58714 6.8849 2.14844 5.42656 2.14844 3.62751C2.14844 1.82846 3.58714 0.370117 5.36175 0.370117C7.13657 0.370117 8.57527 1.82846 8.57527 3.62751Z" fill="white"/>
<path d="M5.36167 7.25464C3.3884 7.25464 1.7832 5.62732 1.7832 3.62732C1.7832 1.62732 3.3884 0 5.36167 0C7.33474 0 8.94035 1.62732 8.94035 3.62732C8.94035 5.62732 7.33474 7.25464 5.36167 7.25464ZM5.36167 0.740075C3.79116 0.740075 2.51331 2.03536 2.51331 3.62732C2.51331 5.21927 3.79116 6.51456 5.36167 6.51456C6.9324 6.51456 8.21004 5.21927 8.21004 3.62732C8.21004 2.03536 6.9324 0.740075 5.36167 0.740075Z" fill="#2B587A"/>
<path d="M4.65971 5.13062C4.58534 5.13062 4.50992 5.10733 4.44496 5.05926C4.28201 4.93899 4.24629 4.70775 4.36495 4.54259L5.1103 3.50648V2.00833C5.1103 1.80377 5.27366 1.63818 5.47525 1.63818C5.67705 1.63818 5.84041 1.80377 5.84041 2.00833V3.62718C5.84041 3.70574 5.81576 3.78197 5.77022 3.84507L4.95509 4.97837C4.88365 5.0779 4.77251 5.13062 4.65971 5.13062Z" fill="#2B587A"/>
<path d="M18.6191 8.12549V10.7159H21.0764C21.283 10.7159 21.4124 10.4897 21.31 10.308L20.4575 8.7959C20.2237 8.38129 19.7888 8.12549 19.3175 8.12549H18.6191Z" fill="white"/>
<path d="M21.0762 11.086H18.6191C18.4173 11.086 18.2539 10.9204 18.2539 10.7159V8.12551C18.2539 7.92096 18.4173 7.75537 18.6191 7.75537H19.3174C19.9182 7.75537 20.4764 8.08401 20.7743 8.61233L21.6266 10.1247C21.74 10.325 21.7396 10.5649 21.6249 10.7654C21.51 10.9662 21.3051 11.086 21.0762 11.086ZM18.9842 10.346H20.9105L20.1403 8.9793C19.9719 8.68094 19.6569 8.49545 19.3174 8.49545H18.9842V10.346Z" fill="#2B587A"/>
<path d="M7.30258 8.86556H2.55636C2.35477 8.86556 2.19141 8.69997 2.19141 8.49542C2.19141 8.29087 2.35477 8.12549 2.55636 8.12549H7.30258C7.50417 8.12549 7.66753 8.29087 7.66753 8.49542C7.66753 8.69997 7.50417 8.86556 7.30258 8.86556Z" fill="#2B587A"/>
<path d="M5.47612 10.3458H0.365159C0.16336 10.3458 0 10.1802 0 9.97561C0 9.77106 0.16336 9.60547 0.365159 9.60547H5.47612C5.67792 9.60547 5.84128 9.77106 5.84128 9.97561C5.84128 10.1802 5.67792 10.3458 5.47612 10.3458Z" fill="#2B587A"/>
</svg>
