<svg width="26" height="26" viewBox="0 0 26 26" fill="none" xmlns="http://www.w3.org/2000/svg">
<rect opacity="0.7" width="26" height="26" rx="3" fill="white"/>
<path d="M10.2963 18.8901L9.58887 21H16.4108L15.7034 18.8901H10.2963Z" fill="#A6A5A5"/>
<path d="M5 14.1428C5 15.4634 6.07847 16.534 7.40879 16.534C8.73915 16.534 9.81758 15.4634 9.81758 14.1428H5Z" fill="#A6A5A5"/>
<path d="M16.1826 14.1428C16.1826 15.4634 17.2611 16.534 18.5914 16.534C19.9218 16.534 21.0002 15.4634 21.0002 14.1428H16.1826Z" fill="#A6A5A5"/>
<path d="M7.40898 10.2212L8.62259 13.0879H9.76815L8.20508 9.3956H12.4727V17.8352H13.5277V9.3956H17.7953L16.2323 13.0879H17.3778L18.5914 10.2212L19.805 13.0879H20.9506L18.9409 8.34066H13.5277V6.96842C13.8429 6.78599 14.0551 6.44538 14.0551 6.05494C14.0551 5.4723 13.5828 5 13.0002 5C12.4175 5 11.9452 5.4723 11.9452 6.05494C11.9452 6.44534 12.1575 6.78599 12.4727 6.96842V8.34066H7.05948L5.0498 13.0879H6.1954L7.40898 10.2212Z" fill="#A6A5A5"/>
</svg>
