<?xml version="1.0" encoding="utf-8"?>
<!-- Generator: Adobe Illustrator 24.3.0, SVG Export Plug-In . SVG Version: 6.00 Build 0)  -->
<svg version="1.0" id="Слой_1" xmlns="http://www.w3.org/2000/svg" xmlns:xlink="http://www.w3.org/1999/xlink" x="0px" y="0px"
	 viewBox="0 0 26 26" style="enable-background:new 0 0 26 26;" xml:space="preserve">
<style type="text/css">
	.st0{opacity:0.7;fill:#FFFFFF;enable-background:new    ;}
	.st1{fill:none;stroke:#FA7272;stroke-width:2;}
</style>
<path class="st0" d="M3,0h20c1.7,0,3,1.3,3,3v20c0,1.7-1.3,3-3,3H3c-1.7,0-3-1.3-3-3V3C0,1.3,1.3,0,3,0z"/>
<path class="st1" d="M15,13.2 M14,8.3 M20.6,12.2c-0.2,0.5-0.5,1.1-0.9,1.7 M19.7,7.3c-1.4-1.4-3.9-1.7-5.6-0.6l0,0
	c-0.3,0.2-0.8,0.6-1.1,0.8c-0.3-0.2-0.8-0.7-1.1-0.8v0c-1.7-1.1-4.1-0.8-5.6,0.6l0,0c-0.4,0.4-0.7,0.9-1,1.4 M19.7,7.3
	c1.3,1.3,1.7,3.2,1,4.9 M8.9,16.8c1.4,1.2,2.5,2.1,3.8,2.9l0,0c0,0,0.3,0.2,0.3,0.2l0.3-0.2l0,0c0.1,0,1.9-1.2,3.8-2.9 M8.9,16.8
	c-1.1-1-2-2-2.6-3L8.9,16.8z M20.6,12.2l-0.9,1.7 M19.7,13.8c-0.6,0.9-1.5,1.9-2.6,3L19.7,13.8z M5.4,12.2c-0.5-1.2-0.5-2.3,0-3.5
	 M6.3,13.8c-0.4-0.6-0.7-1.2-0.9-1.7L6.3,13.8z"/>
</svg>
