<svg width="20" height="20" viewBox="0 0 20 20" fill="none" xmlns="http://www.w3.org/2000/svg">
<g clip-path="url(#clip0)">
<path d="M7.70833 8.33325H3.125C2.78 8.33325 2.5 8.05325 2.5 7.70825C2.5 7.36325 2.78 7.08325 3.125 7.08325H7.70833C8.05333 7.08325 8.33333 7.36325 8.33333 7.70825C8.33333 8.05325 8.05333 8.33325 7.70833 8.33325Z" fill="#2B587A"/>
<path d="M7.70833 10.8333H3.125C2.78 10.8333 2.5 10.5533 2.5 10.2083C2.5 9.86325 2.78 9.58325 3.125 9.58325H7.70833C8.05333 9.58325 8.33333 9.86325 8.33333 10.2083C8.33333 10.5533 8.05333 10.8333 7.70833 10.8333Z" fill="#2B587A"/>
<path d="M7.70833 13.3333H3.125C2.78 13.3333 2.5 13.0533 2.5 12.7083C2.5 12.3633 2.78 12.0833 3.125 12.0833H7.70833C8.05333 12.0833 8.33333 12.3633 8.33333 12.7083C8.33333 13.0533 8.05333 13.3333 7.70833 13.3333Z" fill="#2B587A"/>
<path d="M7.70833 15.8333H3.125C2.78 15.8333 2.5 15.5533 2.5 15.2083C2.5 14.8633 2.78 14.5833 3.125 14.5833H7.70833C8.05333 14.5833 8.33333 14.8633 8.33333 15.2083C8.33333 15.5533 8.05333 15.8333 7.70833 15.8333Z" fill="#2B587A"/>
<path d="M17.7083 19.1666H2.29167C1.0275 19.1666 0 18.1391 0 16.8749V3.12492C0 1.86075 1.0275 0.833252 2.29167 0.833252H17.7083C18.9725 0.833252 20 1.86075 20 3.12492V16.8749C20 18.1391 18.9725 19.1666 17.7083 19.1666ZM2.29167 2.08325C1.7175 2.08325 1.25 2.55075 1.25 3.12492V16.8749C1.25 17.4491 1.7175 17.9166 2.29167 17.9166H17.7083C18.2825 17.9166 18.75 17.4491 18.75 16.8749V3.12492C18.75 2.55075 18.2825 2.08325 17.7083 2.08325H2.29167Z" fill="#2B587A"/>
<path d="M19.375 5H0.625C0.28 5 0 4.72 0 4.375C0 4.03 0.28 3.75 0.625 3.75H19.375C19.72 3.75 20 4.03 20 4.375C20 4.72 19.72 5 19.375 5Z" fill="#2B587A"/>
<path d="M10.6248 15.125C10.4648 15.125 10.3048 15.0642 10.1831 14.9417C9.93896 14.6975 9.93896 14.3017 10.1831 14.0575L11.4665 12.7742C12.0373 12.2042 12.964 12.2059 13.5331 12.7742C13.579 12.8209 13.714 12.9242 13.8456 12.7592L14.279 12.2175C14.8273 11.5184 16.0015 11.5134 16.5581 12.2225L17.3623 13.2259C17.5781 13.495 17.5356 13.8883 17.2656 14.1042C16.9965 14.3217 16.6031 14.2775 16.3873 14.0075L15.579 12.9992C15.4673 12.8575 15.3615 12.8625 15.259 12.9942L14.8215 13.5409C14.3031 14.1883 13.2365 14.245 12.6498 13.6592C12.5681 13.5784 12.4315 13.5784 12.3498 13.6592L11.0665 14.9425C10.9448 15.0642 10.7848 15.125 10.6248 15.125Z" fill="#2B587A"/>
<path d="M16.0417 16.6667H11.4583C10.6542 16.6667 10 16.0126 10 15.2084V8.12508C10 7.32091 10.6542 6.66675 11.4583 6.66675H16.0417C16.8458 6.66675 17.5 7.32091 17.5 8.12508V15.2084C17.5 16.0126 16.8458 16.6667 16.0417 16.6667ZM11.4583 7.91675C11.3433 7.91675 11.25 8.01008 11.25 8.12508V15.2084C11.25 15.3234 11.3433 15.4167 11.4583 15.4167H16.0417C16.1567 15.4167 16.25 15.3234 16.25 15.2084V8.12508C16.25 8.01008 16.1567 7.91675 16.0417 7.91675H11.4583Z" fill="#2B587A"/>
</g>
<defs>
<clipPath id="clip0">
<rect width="20" height="20" fill="white"/>
</clipPath>
</defs>
</svg>
