<svg width="26" height="26" viewBox="0 0 26 26" fill="none" xmlns="http://www.w3.org/2000/svg">
<g clip-path="url(#clip0)">
<g clip-path="url(#clip1)">
<path d="M8.84424 22.0618L7.75586 25.3077H18.2512L17.1628 22.0618H8.84424Z" fill="#A6A5A5"/>
<path d="M0.695312 14.7583C0.695312 16.79 2.3545 18.4371 4.40115 18.4371C6.44785 18.4371 8.10698 16.79 8.10698 14.7583H0.695312Z" fill="#A6A5A5"/>
<path d="M17.8984 14.7583C17.8984 16.79 19.5576 18.4371 21.6043 18.4371C23.651 18.4371 25.3101 16.79 25.3101 14.7583H17.8984Z" fill="#A6A5A5"/>
<path d="M4.40098 8.72495L6.26807 13.1353H8.03048L5.62575 7.45485H12.1913V20.4388H13.8143V7.45485H20.38L17.9753 13.1353H19.7377L21.6047 8.72495L23.4717 13.1353H25.2342L22.1424 5.83186H13.8143V3.72072C14.2993 3.44005 14.6258 2.91604 14.6258 2.31538C14.6258 1.419 13.8992 0.692383 13.0028 0.692383C12.1065 0.692383 11.3799 1.419 11.3799 2.31538C11.3799 2.91599 11.7064 3.44005 12.1913 3.72072V5.83186H3.86329L0.771484 13.1353H2.53395L4.40098 8.72495Z" fill="#A6A5A5"/>
</g>
</g>
<defs>
<clipPath id="clip0">
<rect width="24.6154" height="24.6154" fill="white" transform="translate(0.695312 0.692383)"/>
</clipPath>
<clipPath id="clip1">
<rect width="24.6154" height="24.6154" fill="white" transform="translate(0.695312 0.692383)"/>
</clipPath>
</defs>
</svg>
