<svg width="16" height="16" viewBox="0 0 16 16" fill="none" xmlns="http://www.w3.org/2000/svg">
<g clip-path="url(#clip0)">
<path d="M15.8632 13.2111L13.1598 10.5077L14.4856 9.18187C14.6005 9.06699 14.6477 8.90083 14.6104 8.74271C14.573 8.58458 14.4565 8.45708 14.3024 8.40571L6.34748 5.75405C6.17907 5.6979 5.99332 5.74174 5.86779 5.8673C5.74223 5.99287 5.69839 6.17855 5.75454 6.34699L8.4062 14.302C8.4576 14.4561 8.5851 14.5726 8.7432 14.6099C8.90129 14.6473 9.06748 14.6001 9.18235 14.4852L10.5082 13.1594L13.2116 15.8627C13.3031 15.9542 13.4231 16 13.543 16C13.6629 16 13.7829 15.9543 13.8744 15.8627L15.8632 13.874C16.0463 13.6909 16.0463 13.3941 15.8632 13.2111ZM13.543 14.8683L10.8396 12.165C10.6566 11.9819 10.3597 11.9819 10.1767 12.165L9.05573 13.286L6.94038 6.93993L13.2864 9.05527L12.1654 10.1762C11.9825 10.3591 11.9824 10.6561 12.1654 10.8391L14.8688 13.5425L13.543 14.8683Z" fill="#2B587A"/>
<path d="M6.09375 3.75C6.35263 3.75 6.5625 3.54012 6.5625 3.28125V0.46875C6.5625 0.209875 6.35263 0 6.09375 0C5.83487 0 5.625 0.209875 5.625 0.46875V3.28125C5.625 3.54012 5.83487 3.75 6.09375 3.75Z" fill="#2B587A"/>
<path d="M2.44962 1.78476C2.26659 1.6017 1.96977 1.6017 1.78671 1.78476C1.60365 1.96782 1.60365 2.2646 1.78671 2.44766L3.77546 4.43641C3.95849 4.61947 4.25534 4.61947 4.43837 4.43641C4.62143 4.25335 4.62143 3.95656 4.43837 3.7735L2.44962 1.78476Z" fill="#2B587A"/>
<path d="M3.77546 7.75107L1.78671 9.73983C1.60365 9.92289 1.60365 10.2197 1.78671 10.4027C1.96974 10.5858 2.26659 10.5858 2.44962 10.4027L4.43837 8.41398C4.62143 8.23091 4.62143 7.93413 4.43837 7.75107C4.2553 7.568 3.95849 7.568 3.77546 7.75107Z" fill="#2B587A"/>
<path d="M8.413 4.43641L10.4017 2.44766C10.5848 2.2646 10.5848 1.96782 10.4017 1.78476C10.2187 1.6017 9.9219 1.6017 9.73884 1.78476L7.75009 3.7735C7.56703 3.95656 7.56703 4.25335 7.75009 4.43641C7.93312 4.61947 8.22996 4.61947 8.413 4.43641Z" fill="#2B587A"/>
<path d="M3.75 6.09375C3.75 5.83487 3.54012 5.625 3.28125 5.625H0.46875C0.209875 5.625 0 5.83487 0 6.09375C0 6.35263 0.209875 6.5625 0.46875 6.5625H3.28125C3.54012 6.5625 3.75 6.35263 3.75 6.09375Z" fill="#2B587A"/>
</g>
<defs>
<clipPath id="clip0">
<rect width="16" height="16" fill="white"/>
</clipPath>
</defs>
</svg>
