<svg width="50" height="50" viewBox="0 0 50 50" fill="none" xmlns="http://www.w3.org/2000/svg">
<rect width="50" height="50" rx="10" fill="#FFECEF"/>
<path d="M30.2734 28.6914C29.9499 28.6914 29.6875 28.9537 29.6875 29.2773V33.3203C29.6875 34.9357 28.3732 36.25 26.7578 36.25H20.4316C20.1081 36.25 19.8459 36.5121 19.8456 36.8355L19.8448 38.0005L18.4463 36.602C18.3558 36.3942 18.1486 36.25 17.9089 36.25H14.1016C12.4861 36.25 11.1719 34.9357 11.1719 33.3203V24.2969C11.1719 22.6814 12.4861 21.3672 14.1016 21.3672H20.0195C20.3431 21.3672 20.6055 21.1049 20.6055 20.7812C20.6055 20.4576 20.3431 20.1953 20.0195 20.1953H14.1016C11.84 20.1953 10 22.0353 10 24.2969V33.3203C10 35.5819 11.84 37.4219 14.1016 37.4219H17.6089L20.0154 39.8284C20.1275 39.9405 20.2773 40 20.4298 40C20.5052 40 20.5813 39.9854 20.6537 39.9555C20.8727 39.8649 21.0154 39.6514 21.0156 39.4145L21.017 37.4219H26.7578C29.0194 37.4219 30.8594 35.5819 30.8594 33.3203V29.2773C30.8594 28.9537 30.597 28.6914 30.2734 28.6914Z" fill="#FF6C81"/>
<path d="M31.4837 10H30.0007C25.3048 10 21.4844 13.8204 21.4844 18.5164C21.4844 23.2123 25.3048 27.0327 30.0007 27.0327H31.4836C32.2166 27.0327 32.942 26.9396 33.6452 26.7556L35.8358 28.945C35.9479 29.057 36.0977 29.1165 36.2501 29.1165C36.3256 29.1165 36.4018 29.1019 36.4743 29.0719C36.6932 28.9812 36.8359 28.7675 36.8359 28.5306V25.1406C37.7634 24.3895 38.5339 23.4406 39.0746 22.3807C39.6887 21.1768 40 19.8767 40 18.5164C40 13.8204 36.1796 10 31.4837 10ZM35.8974 24.3868C35.7505 24.4975 35.6641 24.6708 35.6641 24.8549V27.1166L34.2302 25.6835C34.1187 25.5721 33.969 25.512 33.816 25.512C33.7585 25.512 33.7005 25.5205 33.6439 25.5379C32.9465 25.7522 32.2197 25.8609 31.4837 25.8609H30.0007C25.9509 25.8609 22.6562 22.5661 22.6562 18.5164C22.6562 14.4666 25.951 11.1719 30.0007 11.1719H31.4837C35.5335 11.1719 38.8281 14.4666 38.8281 18.5164C38.8281 20.8444 37.76 22.9841 35.8974 24.3868Z" fill="#FF6C81"/>
<path d="M33.3811 16.4116C33.2966 15.1849 32.3077 14.1961 31.081 14.1116C30.3856 14.0638 29.722 14.2983 29.214 14.7725C28.7131 15.2402 28.4258 15.9012 28.4258 16.5863C28.4258 16.9099 28.6882 17.1722 29.0117 17.1722C29.3353 17.1722 29.5977 16.9099 29.5977 16.5863C29.5977 16.2195 29.7454 15.8796 30.0137 15.6292C30.2817 15.3791 30.632 15.2553 31.0005 15.2807C31.6467 15.3253 32.1675 15.8461 32.212 16.4922C32.257 17.1448 31.8289 17.7215 31.1941 17.8635C30.6798 17.9786 30.3206 18.4255 30.3206 18.9503V20.3581C30.3206 20.6817 30.583 20.944 30.9065 20.944C31.2301 20.944 31.4925 20.6817 31.4924 20.3581V18.9972C32.6731 18.7119 33.4652 17.6316 33.3811 16.4116Z" fill="#FF6C81"/>
<path d="M31.3205 22.2613C31.2115 22.1523 31.0604 22.0896 30.9062 22.0896C30.7521 22.0896 30.601 22.1523 30.492 22.2613C30.383 22.3703 30.3203 22.5214 30.3203 22.6755C30.3203 22.8302 30.3831 22.9814 30.492 23.0904C30.601 23.1994 30.7521 23.2615 30.9062 23.2615C31.0604 23.2615 31.2115 23.1994 31.3205 23.0904C31.4295 22.9808 31.4922 22.8302 31.4922 22.6755C31.4922 22.5214 31.4294 22.3703 31.3205 22.2613Z" fill="#FF6C81"/>
<path d="M26.1133 28.1641H13.75C13.4264 28.1641 13.1641 28.4264 13.1641 28.75C13.1641 29.0736 13.4264 29.3359 13.75 29.3359H26.1133C26.4369 29.3359 26.6992 29.0736 26.6992 28.75C26.6992 28.4264 26.4368 28.1641 26.1133 28.1641Z" fill="#FF6C81"/>
<path d="M26.5275 31.617C26.4186 31.508 26.2674 31.4453 26.1133 31.4453C25.9592 31.4453 25.808 31.508 25.699 31.617C25.59 31.726 25.5273 31.8771 25.5273 32.0312C25.5273 32.1854 25.59 32.3365 25.699 32.4455C25.808 32.5545 25.9592 32.6172 26.1133 32.6172C26.2674 32.6172 26.4186 32.5545 26.5275 32.4455C26.6365 32.3365 26.6992 32.1859 26.6992 32.0312C26.6992 31.8771 26.6365 31.726 26.5275 31.617Z" fill="#FF6C81"/>
<path d="M23.8086 31.4453H13.75C13.4264 31.4453 13.1641 31.7076 13.1641 32.0312C13.1641 32.3549 13.4264 32.6172 13.75 32.6172H23.8086C24.1322 32.6172 24.3946 32.3549 24.3946 32.0312C24.3946 31.7076 24.1322 31.4453 23.8086 31.4453Z" fill="#FF6C81"/>
<path d="M22.3047 24.8828H13.75C13.4264 24.8828 13.1641 25.1451 13.1641 25.4688C13.1641 25.7924 13.4264 26.0547 13.75 26.0547H22.3047C22.6283 26.0547 22.8906 25.7924 22.8906 25.4688C22.8906 25.1451 22.6282 24.8828 22.3047 24.8828Z" fill="#FF6C81"/>
</svg>
