<svg width="16" height="16" viewBox="0 0 16 16" fill="none" xmlns="http://www.w3.org/2000/svg">
<path d="M14.5947 1.90625H1.40716C1.19069 1.90625 0.988031 1.95947 0.804688 2.04719L7.96966 9.21216L9.57556 7.66881C9.57556 7.66881 9.57569 7.66866 9.57572 7.66859C9.57575 7.66853 9.57587 7.66847 9.57587 7.66847L15.1973 2.04731C15.014 1.95953 14.8112 1.90625 14.5947 1.90625Z" fill="#FA7272"/>
<path d="M15.8585 2.71021L10.5684 8.00002L15.8583 13.2899C15.946 13.1066 15.9992 12.9039 15.9992 12.6875V3.31246C15.9992 3.09611 15.9461 2.89349 15.8585 2.71021Z" fill="#FA7272"/>
<path d="M0.140938 2.70996C0.0532188 2.8933 0 3.09596 0 3.31243V12.6874C0 12.9038 0.0531562 13.1065 0.140813 13.2897L5.43091 7.99993L0.140938 2.70996Z" fill="#FA7272"/>
<path d="M9.90549 8.6629L8.29936 10.2064C8.2078 10.298 8.08786 10.3438 7.96795 10.3438C7.84805 10.3438 7.72808 10.298 7.63655 10.2064L6.09292 8.66284L0.802734 13.9527C0.986109 14.0405 1.18889 14.0937 1.40542 14.0937H14.5929C14.8094 14.0937 15.012 14.0405 15.1954 13.9528L9.90549 8.6629Z" fill="#FA7272"/>
</svg>
