<svg width="18" height="18" viewBox="0 0 18 18" fill="none" xmlns="http://www.w3.org/2000/svg">
<path d="M14.625 18H3.375C1.51089 18 0 16.4891 0 14.625V3.375C0 1.51089 1.51089 0 3.375 0H14.625C16.4891 0 18 1.51089 18 3.375V14.625C18 16.4891 16.4891 18 14.625 18Z" fill="#D2F1FF"/>
<path d="M8.59303 5.60248L10.9294 8.3533C11.0875 8.53942 11.1665 8.76976 11.1665 9.0001C11.1665 9.23019 11.0875 9.46028 10.9294 9.6469L8.59303 12.3977C8.23578 12.8184 7.60522 12.8699 7.18451 12.5126C6.76381 12.1551 6.71234 11.5246 7.06984 11.1039L8.85634 9.0001L7.06984 6.89657C6.71259 6.47537 6.76406 5.84506 7.18451 5.48781C7.60522 5.13056 8.23578 5.18202 8.59303 5.60248Z" fill="#54A2C7"/>
</svg>
