<svg width="60" height="60" viewBox="0 0 60 60" fill="none" xmlns="http://www.w3.org/2000/svg">
<path d="M59.787 39.805L55.895 20.78V5.415C55.896 4.704 55.757 4 55.485 3.344C55.214 2.686 54.816 2.09 54.314 1.586C53.811 1.084 53.214 0.685 52.558 0.412C51.902 0.139 51.199 0 50.488 0H9.432C8 0.002 6.628 0.571 5.615 1.584C4.603 2.596 4.034 3.969 4.032 5.4V20.985C4.029 21.024 4.029 21.063 4.032 21.102L0.234 39.775C0.115 40.106 0.037 40.45 0 40.8C0 40.8 0 40.844 0 40.859C0 40.874 0 41.071 0 41.181V59.269C0 59.463 0.077 59.649 0.214 59.786C0.352 59.923 0.538 60 0.732 60H8.049C8.243 60 8.429 59.923 8.567 59.785C8.704 59.648 8.781 59.463 8.781 59.268V52.683H51.22V59.268C51.22 59.462 51.297 59.648 51.434 59.785C51.57 59.923 51.758 60 51.951 60H59.267C59.462 60 59.648 59.923 59.785 59.785C59.923 59.648 60 59.463 60 59.269V41.21C60 41.1 60 40.998 60 40.888C60 40.865 60 40.855 60 40.848C60 40.838 60 40.835 60 40.839C60 40.836 60 40.837 60 40.829C59.971 40.48 59.898 40.137 59.787 39.805ZM57.762 37.258C57.043 36.82 56.217 36.587 55.375 36.586H30.5V32.75H56.838L57.762 37.258ZM56.53 31.25H30.5V27.75H55.812L56.53 31.25ZM55.505 26.25H30.5V22.75H54.787L55.505 26.25ZM30.5 21.25V17.129H50.4C51.283 17.127 52.142 17.42 52.839 17.963C53.536 18.505 54.032 19.265 54.248 20.122L54.479 21.25H30.5ZM5.495 5.4C5.495 4.356 5.91 3.354 6.648 2.616C7.386 1.878 8.388 1.464 9.432 1.464H50.489C51.532 1.465 52.532 1.881 53.27 2.619C54.008 3.356 54.422 4.356 54.424 5.4V17.43C53.915 16.873 53.295 16.43 52.606 16.126C51.915 15.822 51.169 15.665 50.415 15.666H49.859C49.861 15.663 49.862 15.659 49.865 15.656H33.691C33.698 15.666 33.703 15.678 33.71 15.688H26.341C26.347 15.678 26.352 15.666 26.358 15.656H9.271C8.602 15.7 7.945 15.862 7.335 16.147C6.627 16.48 6 16.962 5.495 17.561V5.4ZM29 17.129V21.25H5.519L5.744 20.151C5.955 19.289 6.45 18.521 7.149 17.973C7.848 17.425 8.711 17.128 9.6 17.128H29V17.129ZM5.212 22.75H29V26.25H4.495L5.212 22.75ZM4.188 27.75H29V31.25H3.47L4.188 27.75ZM3.163 32.75H29V36.586H4.625C3.783 36.587 2.958 36.82 2.24 37.258L3.163 32.75ZM7.317 58.537H1.463V52.683H7.317V58.537ZM58.537 58.537H52.683V52.683H58.537V58.537ZM58.537 51.22H1.463V41.21C1.465 40.372 1.798 39.569 2.391 38.977C2.983 38.385 3.786 38.051 4.624 38.049H55.374C56.212 38.051 57.015 38.385 57.607 38.977C58.2 39.57 58.534 40.373 58.536 41.21V51.22H58.537Z" fill="#222222"/>
</svg>
