<svg width="34" height="30" viewBox="0 0 34 30" fill="none" xmlns="http://www.w3.org/2000/svg">
<mask id="path-1-inside-1" fill="white">
<path d="M33.1774 6.1479C32.6499 4.94483 31.8892 3.85462 30.938 2.93829C29.9861 2.01924 28.8638 1.28887 27.6321 0.786925C26.3549 0.264367 24.985 -0.003108 23.602 2.72463e-05C21.6617 2.72463e-05 19.7687 0.523333 18.1236 1.5118C17.73 1.74826 17.3562 2.00797 17.0019 2.29094C16.6477 2.00797 16.2739 1.74826 15.8803 1.5118C14.2352 0.523333 12.3422 2.72463e-05 10.4019 2.72463e-05C9.00473 2.72463e-05 7.65088 0.263619 6.37179 0.786925C5.136 1.29085 4.02222 2.01572 3.06586 2.93829C2.11342 3.85358 1.35259 4.94406 0.826484 6.1479C0.27943 7.39996 0 8.72955 0 10.0979C0 11.3887 0.267623 12.7338 0.798934 14.1022C1.24366 15.2457 1.88123 16.4318 2.69591 17.6296C3.9868 19.5252 5.76177 21.5021 7.96573 23.5062C11.618 26.8282 15.2348 29.123 15.3883 29.216L16.3211 29.8052C16.7343 30.0649 17.2656 30.0649 17.6789 29.8052L18.6116 29.216C18.7651 29.1191 22.378 26.8282 26.0342 23.5062C28.2382 21.5021 30.0132 19.5252 31.3041 17.6296C32.1187 16.4318 32.7602 15.2457 33.201 14.1022C33.7323 12.7338 34 11.3887 34 10.0979C34.0039 8.72955 33.7245 7.39996 33.1774 6.1479Z"/>
</mask>
<path d="M30.938 2.93829L29.5489 4.37711L29.5505 4.37866L30.938 2.93829ZM27.6321 0.786925L26.8748 2.63799L26.8773 2.63903L27.6321 0.786925ZM23.602 2.72463e-05V2.00003L23.6065 2.00002L23.602 2.72463e-05ZM18.1236 1.5118L19.1536 3.22617L19.1537 3.22614L18.1236 1.5118ZM17.0019 2.29094L15.7536 3.85353L17.0019 4.85081L18.2503 3.85353L17.0019 2.29094ZM15.8803 1.5118L14.8502 3.22614L14.8503 3.22617L15.8803 1.5118ZM6.37179 0.786925L7.12697 2.63887L7.12912 2.638L6.37179 0.786925ZM3.06586 2.93829L4.45168 4.38035L4.45442 4.37771L3.06586 2.93829ZM0.826484 6.1479L-1.00615 5.347L-1.00622 5.34715L0.826484 6.1479ZM0.798934 14.1022L-1.06545 14.8261L-1.06506 14.8271L0.798934 14.1022ZM2.69591 17.6296L1.04217 18.7544L1.04284 18.7554L2.69591 17.6296ZM7.96573 23.5062L9.31147 22.0266L9.31125 22.0264L7.96573 23.5062ZM15.3883 29.216L16.4565 27.5251L16.4408 27.5152L16.425 27.5057L15.3883 29.216ZM16.3211 29.8052L15.253 31.4961L15.2568 31.4986L16.3211 29.8052ZM17.6789 29.8052L18.7431 31.4986L18.747 31.4961L17.6789 29.8052ZM18.6116 29.216L17.5439 27.5249L17.5435 27.5251L18.6116 29.216ZM26.0342 23.5062L27.3792 24.9864L27.3797 24.9859L26.0342 23.5062ZM31.3041 17.6296L32.9571 18.7554L32.9578 18.7544L31.3041 17.6296ZM33.201 14.1022L31.3366 13.3782L31.3349 13.3828L33.201 14.1022ZM34 10.0979L32 10.0921V10.0979H34ZM35.0091 5.34475C34.376 3.90096 33.464 2.59459 32.3256 1.49793L29.5505 4.37866C30.3145 5.11465 30.9238 5.9887 31.3458 6.95106L35.0091 5.34475ZM32.3272 1.49947C31.1911 0.402574 29.8532 -0.467634 28.3869 -1.06518L26.8773 2.63903C27.8744 3.04538 28.7812 3.6359 29.5489 4.37711L32.3272 1.49947ZM28.3894 -1.06414C26.8699 -1.68585 25.2411 -2.00369 23.5975 -1.99997L23.6065 2.00002C24.7289 1.99748 25.8399 2.21458 26.8748 2.63799L28.3894 -1.06414ZM23.602 -1.99997C21.302 -1.99997 19.0524 -1.37957 17.0935 -0.202537L19.1537 3.22614C20.4849 2.42623 22.0214 2.00003 23.602 2.00003V-1.99997ZM17.0936 -0.202573C16.6249 0.0790003 16.178 0.389305 15.7536 0.728362L18.2503 3.85353C18.5343 3.62664 18.8351 3.41751 19.1536 3.22617L17.0936 -0.202573ZM18.2503 0.728362C17.8259 0.389305 17.379 0.0790003 16.9103 -0.202573L14.8503 3.22617C15.1687 3.41751 15.4696 3.62664 15.7536 3.85353L18.2503 0.728362ZM16.9104 -0.202537C14.9514 -1.37957 12.7019 -1.99997 10.4019 -1.99997V2.00003C11.9825 2.00003 13.5189 2.42623 14.8502 3.22614L16.9104 -0.202537ZM10.4019 -1.99997C8.74906 -1.99997 7.13764 -1.68731 5.61447 -1.06415L7.12912 2.638C8.16411 2.21455 9.26041 2.00003 10.4019 2.00003V-1.99997ZM5.61662 -1.06502C4.14636 -0.465489 2.8174 0.399069 1.6773 1.49888L4.45442 4.37771C5.22704 3.63238 6.12565 3.04719 7.12697 2.63887L5.61662 -1.06502ZM1.68005 1.49624C0.539019 2.59277 -0.374126 3.90079 -1.00615 5.347L2.65912 6.94881C3.07931 5.98732 3.68783 5.1144 4.45167 4.38035L1.68005 1.49624ZM-1.00622 5.34715C-1.66304 6.85045 -2 8.45254 -2 10.0979H2C2 9.00656 2.2219 7.94948 2.65919 6.94865L-1.00622 5.34715ZM-2 10.0979C-2 11.6669 -1.67463 13.2572 -1.06545 14.8261L2.66332 13.3782C2.20988 12.2104 2 11.1106 2 10.0979H-2ZM-1.06506 14.8271C-0.556934 16.1336 0.157081 17.4531 1.04217 18.7544L4.34965 16.5048C3.60539 15.4106 3.04426 14.3577 2.66293 13.3772L-1.06506 14.8271ZM1.04284 18.7554C2.4443 20.8133 4.33371 22.9068 6.62021 24.9859L9.31125 22.0264C7.18984 20.0974 5.5293 18.237 4.34898 16.5039L1.04284 18.7554ZM6.61999 24.9857C10.3936 28.418 14.1227 30.7876 14.3517 30.9264L16.425 27.5057C16.4257 27.5061 16.2005 27.3651 15.7913 27.0907C15.3916 26.8226 14.8312 26.4372 14.1631 25.9528C12.8239 24.9817 11.068 23.6243 9.31147 22.0266L6.61999 24.9857ZM14.3202 30.9069L15.253 31.4961L17.3892 28.1143L16.4565 27.5251L14.3202 30.9069ZM15.2568 31.4986C16.3207 32.1671 17.6793 32.1671 18.7431 31.4986L16.6146 28.1119C16.852 27.9627 17.148 27.9627 17.3853 28.1119L15.2568 31.4986ZM18.747 31.4961L19.6797 30.9069L17.5435 27.5251L16.6108 28.1143L18.747 31.4961ZM19.6794 30.9072C19.8722 30.7854 23.5972 28.4227 27.3792 24.9864L24.6893 22.0259C21.1588 25.2337 17.6581 27.4528 17.5439 27.5249L19.6794 30.9072ZM27.3797 24.9859C29.6663 22.9068 31.5557 20.8133 32.9571 18.7554L29.651 16.5039C28.4707 18.237 26.8101 20.0974 24.6887 22.0264L27.3797 24.9859ZM32.9578 18.7544C33.8405 17.4566 34.5609 16.135 35.0672 14.8215L31.3349 13.3828C30.9596 14.3563 30.397 15.4071 29.6503 16.5048L32.9578 18.7544ZM35.0654 14.8261C35.6746 13.2572 36 11.6669 36 10.0979H32C32 11.1106 31.7901 12.2104 31.3366 13.3782L35.0654 14.8261ZM36 10.1036C36.0047 8.45439 35.6669 6.85041 35.0101 5.34715L31.3447 6.94865C31.782 7.94952 32.0031 9.00471 32 10.0921L36 10.1036Z" fill="#222222" mask="url(#path-1-inside-1)"/>
</svg>
