<svg width="20" height="20" viewBox="0 0 20 20" fill="none" xmlns="http://www.w3.org/2000/svg">
<g clip-path="url(#clip0)">
<path d="M18.4947 11.8747C18.8932 11.9483 19.3203 11.8318 19.6278 11.5249C19.8678 11.2855 20 10.9662 20 10.6258C20 10.2855 19.8678 9.96621 19.6279 9.72679C18.9247 9.0249 18.2213 8.32343 17.5181 7.62166V3.10216C17.8819 2.9493 18.1382 2.58964 18.1382 2.17135V1.66977C18.1382 1.11324 17.6847 0.66045 17.1274 0.66045H14.821C14.2637 0.66045 13.8103 1.11324 13.8103 1.66977V2.17135C13.8103 2.58964 14.0665 2.9493 14.4304 3.10216V4.54083C13.0455 3.15915 11.661 1.77716 10.2758 0.39556C10.1234 0.243446 9.87652 0.243485 9.72405 0.395599L0.372159 9.72675C0.132152 9.96621 0 10.2855 0 10.6258C0 10.9662 0.132152 11.2855 0.372159 11.5249C0.620408 11.7726 0.946471 11.8965 1.27253 11.8964C1.35086 11.8964 1.42914 11.8891 1.50641 11.8748V17.1684H1.25152C0.848695 17.1684 0.520952 17.4952 0.520952 17.8971V18.9897C0.520952 19.3915 0.848695 19.7184 1.25152 19.7184H8.24608C8.46183 19.7184 8.63672 19.5435 8.63672 19.3278C8.63672 19.112 8.46183 18.9371 8.24608 18.9371H1.30222V17.9496H18.6977V18.9371H11.7539C11.5382 18.9371 11.3633 19.112 11.3633 19.3278C11.3633 19.5435 11.5382 19.7184 11.7539 19.7184H18.7496C19.1518 19.7184 19.479 19.3915 19.479 18.9897V17.8971C19.479 17.4952 19.1518 17.1684 18.7496 17.1684H18.4947V11.8747ZM2.8448 10.8546H6.59209V11.8598H2.28768V11.4104L2.8448 10.8546ZM8.14854 5.56261H11.8517L12.8427 6.55124H10.8321C10.5926 6.39498 10.3068 6.30377 9.99996 6.30377C9.69312 6.30377 9.40737 6.39498 9.16787 6.55124H7.15769L8.14854 5.56261ZM8.93153 4.78134L10 3.71526L11.0686 4.78134H8.93153ZM9.25568 7.82682C9.25568 7.41778 9.58956 7.08504 10 7.08504C10.4104 7.08504 10.7443 7.41782 10.7443 7.82682C10.7443 8.23581 10.4104 8.56859 10 8.56859C9.5896 8.56859 9.25568 8.23585 9.25568 7.82682ZM11.4427 7.33251H13.6258L14.6156 8.31999H11.443C11.4963 8.16519 11.5255 7.9994 11.5255 7.82682C11.5256 7.6538 11.4961 7.48763 11.4427 7.33251ZM6.37471 7.33251H8.55734C8.50386 7.48763 8.47441 7.6538 8.47441 7.82682C8.47441 7.9994 8.50375 8.16522 8.55695 8.31999H5.38499L6.37471 7.33251ZM4.602 9.10127H9.16615C9.406 9.25822 9.69241 9.34987 9.99996 9.34987C10.3075 9.34987 10.594 9.25822 10.8338 9.10127H15.3987L16.3731 10.0733H13.0173H6.98269H3.62779L4.602 9.10127ZM13.4079 12.6411H17.7134V13.6286H13.4079V12.6411ZM13.4079 11.8598V10.8546H17.1562L17.7134 11.4105V11.8598H13.4079ZM6.59205 13.6286H2.28768V12.6411H6.59205V13.6286ZM2.28768 14.4098H6.59205V15.3985H2.28768V14.4098ZM7.37333 10.8546H9.60932V13.6286H9.26142C9.04568 13.6286 8.87079 13.8035 8.87079 14.0192C8.87079 14.235 9.04568 14.4098 9.26142 14.4098H9.60932V17.1684H7.37333V10.8546ZM10.3906 14.4098H10.7397C10.9554 14.4098 11.1303 14.235 11.1303 14.0192C11.1303 13.8035 10.9554 13.6286 10.7397 13.6286H10.3906V10.8546H12.6267V17.1683H10.3906V14.4098ZM13.4079 14.4098H17.7134V15.3985H13.4079V14.4098ZM14.5916 1.66977C14.5916 1.54614 14.6966 1.44172 14.821 1.44172H17.1274C17.2518 1.44172 17.3569 1.54614 17.3569 1.66977V2.17135C17.3569 2.29499 17.2518 2.3994 17.1274 2.3994H14.821C14.6966 2.3994 14.5916 2.29499 14.5916 2.17135V1.66977ZM15.2116 3.18067H16.7368V6.84214C16.2285 6.33486 15.72 5.82762 15.2116 5.32038V3.18067ZM0.923971 10.9719C0.831937 10.88 0.781271 10.7571 0.781271 10.6258C0.781271 10.4945 0.831937 10.3717 0.923971 10.2798L10 1.2239C12.2842 3.50225 18.3345 9.53972 19.076 10.2798C19.168 10.3717 19.2187 10.4945 19.2187 10.6258C19.2187 10.7571 19.168 10.88 19.076 10.9719C18.8841 11.1633 18.5718 11.1634 18.3799 10.9719L10.2759 2.88688C10.1234 2.73476 9.87652 2.73476 9.72405 2.88688L1.62114 10.9719C1.42898 11.1636 1.11624 11.1637 0.923971 10.9719ZM2.28768 16.1797H6.59205V17.1684H2.28768V16.1797ZM13.4079 17.1684V16.1797H17.7134V17.1684H13.4079Z" fill="#686868"/>
<path d="M9.99999 18.9373C9.78425 18.9373 9.60938 19.1121 9.60938 19.3279C9.60938 19.5436 9.78425 19.7185 9.99999 19.7185H10.0022C10.218 19.7185 10.3917 19.5436 10.3917 19.3279C10.3917 19.1121 10.2157 18.9373 9.99999 18.9373Z" fill="#686868"/>
</g>
<defs>
<clipPath id="clip0">
<rect width="20" height="20" fill="white"/>
</clipPath>
</defs>
</svg>
