<svg width="20" height="20" viewBox="0 0 20 20" fill="none" xmlns="http://www.w3.org/2000/svg">
<g clip-path="url(#clip0)">
<path d="M10 19.1667C7.10083 19.1667 4.46 17.7009 2.92917 15.2459C2.92 15.2342 2.91167 15.2226 2.905 15.2117C2.71583 14.9076 2.54083 14.5742 2.37 14.1959C1.9025 13.1234 1.66667 11.9942 1.66667 10.8334C1.65417 10.7809 1.25 8.07341 1.25 6.66675C1.25 2.64425 4.82583 2.15175 5.66083 2.09175C6.10667 1.69425 7.72 0.416748 10 0.416748C13.6333 0.416748 18.75 2.35591 18.75 6.66675C18.75 8.04758 18.3458 10.7792 18.3292 10.8942C18.3333 11.9901 18.0983 13.1226 17.6333 14.1984C17.4475 14.6076 17.2442 14.9817 17.025 15.3192C17.0092 15.3434 16.9908 15.3667 16.97 15.3867C15.4867 17.7301 12.8633 19.1667 10 19.1667ZM3.59667 14.7467C3.60583 14.7584 3.61417 14.7692 3.62083 14.7809C4.99667 17.0051 7.38083 18.3334 10 18.3334C12.5767 18.3334 14.9375 17.0409 16.315 14.8767C16.3317 14.8517 16.35 14.8267 16.3717 14.8059C16.5217 14.5634 16.705 14.2259 16.8708 13.8609C17.2875 12.8976 17.5 11.8759 17.5 10.8334C17.5083 10.7451 17.9167 7.98675 17.9167 6.66675C17.9167 2.93091 13.2875 1.25008 10 1.25008C7.69917 1.25008 6.14333 2.77925 6.12833 2.79508C6.05 2.87258 5.94417 2.91591 5.83417 2.91675C5.68083 2.91758 2.08333 2.97508 2.08333 6.66675C2.08333 8.01175 2.49167 10.7442 2.49583 10.7717C2.5 11.8784 2.7125 12.8967 3.1325 13.8584C3.28 14.1884 3.43333 14.4809 3.59667 14.7467Z" fill="#686868"/>
<path d="M17.7399 12.9165C17.5591 12.9165 17.3924 12.7973 17.3399 12.6148L16.3524 9.16484C10.3241 9.11484 7.88242 7.61318 6.91076 6.56401C6.28159 8.18068 4.35576 8.88568 3.66909 9.08984L2.66076 12.614C2.59742 12.8365 2.36576 12.9648 2.14576 12.8998C1.92492 12.8365 1.79659 12.6057 1.85992 12.3848L2.93326 8.63484C2.97409 8.48984 3.09159 8.37818 3.23826 8.34401C3.26909 8.33651 6.27909 7.60151 6.27909 5.46568C6.27909 5.25485 6.43659 5.07735 6.64576 5.05235C6.85576 5.02152 7.04992 5.16152 7.10076 5.36652C7.10742 5.38902 8.04909 8.33318 16.6666 8.33318C16.8524 8.33318 17.0158 8.45568 17.0666 8.63484L18.1399 12.3848C18.2033 12.6065 18.0749 12.8365 17.8541 12.8998C17.8166 12.9115 17.7774 12.9165 17.7399 12.9165Z" fill="#686868"/>
<path d="M17.9004 13.3334C17.8038 13.3334 17.7063 13.3243 17.6096 13.3159C17.3804 13.2934 17.2129 13.0893 17.2354 12.8601C17.2579 12.6318 17.4588 12.4743 17.6904 12.4859C17.7604 12.4926 17.8304 12.5001 17.9004 12.5001C18.5896 12.5001 19.1504 11.9393 19.1504 11.2501C19.1504 10.6151 18.6779 10.0809 18.0513 10.0051C17.8229 9.97842 17.6596 9.77092 17.6871 9.54176C17.7146 9.31426 17.9238 9.14509 18.1504 9.17759C19.1954 9.30259 19.9838 10.1943 19.9838 11.2493C19.9838 12.3993 19.0488 13.3334 17.9004 13.3334Z" fill="#686868"/>
<path d="M2.08333 13.3333C0.935 13.3333 0 12.3991 0 11.25C0 10.185 0.7975 9.2933 1.85417 9.17747C2.08917 9.15747 2.28833 9.31747 2.31417 9.5458C2.34 9.77413 2.17417 9.97997 1.94583 10.0058C1.32167 10.0741 0.833333 10.6208 0.833333 11.25C0.833333 11.9391 1.39417 12.5 2.08333 12.5C2.15 12.5 2.2125 12.4941 2.26583 12.4833C2.49 12.4316 2.71167 12.5825 2.7575 12.8075C2.80417 13.0333 2.65833 13.2525 2.43333 13.2991C2.325 13.3216 2.20667 13.3333 2.08333 13.3333Z" fill="#686868"/>
<path d="M6.66699 12.5C5.97783 12.5 5.41699 11.9392 5.41699 11.25C5.41699 10.5608 5.97783 10 6.66699 10C7.35616 10 7.91699 10.5608 7.91699 11.25C7.91699 11.9392 7.35616 12.5 6.66699 12.5ZM6.66699 10.8333C6.43699 10.8333 6.25033 11.0208 6.25033 11.25C6.25033 11.4792 6.43699 11.6667 6.66699 11.6667C6.89699 11.6667 7.08366 11.4792 7.08366 11.25C7.08366 11.0208 6.89699 10.8333 6.66699 10.8333Z" fill="#686868"/>
<path d="M13.333 12.5C12.6438 12.5 12.083 11.9392 12.083 11.25C12.083 10.5608 12.6438 10 13.333 10C14.0222 10 14.583 10.5608 14.583 11.25C14.583 11.9392 14.0222 12.5 13.333 12.5ZM13.333 10.8333C13.103 10.8333 12.9163 11.0208 12.9163 11.25C12.9163 11.4792 13.103 11.6667 13.333 11.6667C13.563 11.6667 13.7497 11.4792 13.7497 11.25C13.7497 11.0208 13.563 10.8333 13.333 10.8333Z" fill="#686868"/>
<path d="M9.99988 15.8525C9.14655 15.8525 8.29238 15.5275 7.64238 14.8775C7.47988 14.715 7.47988 14.4509 7.64238 14.2884C7.80488 14.1259 8.06905 14.1259 8.23155 14.2884C9.20655 15.2634 10.7924 15.2634 11.7674 14.2884C11.9299 14.1259 12.194 14.1259 12.3565 14.2884C12.5191 14.4509 12.5191 14.715 12.3565 14.8775C11.7074 15.5284 10.8532 15.8525 9.99988 15.8525Z" fill="#686868"/>
</g>
<defs>
<clipPath id="clip0">
<rect width="20" height="20" fill="white"/>
</clipPath>
</defs>
</svg>
