<svg width="20" height="20" viewBox="0 0 20 20" fill="none" xmlns="http://www.w3.org/2000/svg">
<g clip-path="url(#clip0)">
<path d="M7.95155 13.477L10.7137 5.19058C10.816 4.88359 10.6501 4.55175 10.3431 4.4494C10.0361 4.3471 9.70425 4.513 9.60191 4.81999L6.83979 13.1065C6.73748 13.4134 6.90338 13.7453 7.21037 13.8476C7.27182 13.8681 7.33432 13.8778 7.39573 13.8778C7.64104 13.8779 7.86967 13.7226 7.95155 13.477Z" fill="#686868"/>
<path d="M12.0908 10.9062C13.0601 10.9062 13.8486 10.1177 13.8486 9.14844C13.8486 8.17918 13.0601 7.39062 12.0908 7.39062C11.1216 7.39062 10.333 8.17918 10.333 9.14844C10.333 10.1177 11.1216 10.9062 12.0908 10.9062ZM12.0908 8.5625C12.4139 8.5625 12.6768 8.82535 12.6768 9.14844C12.6768 9.47152 12.4139 9.73437 12.0908 9.73437C11.7677 9.73437 11.5049 9.47152 11.5049 9.14844C11.5049 8.82535 11.7677 8.5625 12.0908 8.5625Z" fill="#686868"/>
<path d="M5.46191 7.39062C4.49265 7.39062 3.7041 8.17918 3.7041 9.14844C3.7041 10.1177 4.49265 10.9062 5.46191 10.9062C6.43116 10.9062 7.21972 10.1177 7.21972 9.14844C7.21972 8.17918 6.4312 7.39062 5.46191 7.39062ZM5.46191 9.73437C5.13882 9.73437 4.87597 9.47152 4.87597 9.14844C4.87597 8.82535 5.13882 8.5625 5.46191 8.5625C5.78499 8.5625 6.04784 8.82535 6.04784 9.14844C6.04784 9.47152 5.78503 9.73437 5.46191 9.73437Z" fill="#686868"/>
<path d="M19.8828 7.26586L17.8396 4.54152L17.9193 3.98359C17.9453 3.80102 17.884 3.6168 17.7535 3.48641L16.5106 2.24344L17.7535 1.00047C17.9823 0.77168 17.9823 0.400664 17.7535 0.171836C17.5247 -0.0569531 17.1537 -0.0569531 16.9249 0.171836L15.6819 1.4148L14.439 0.171836C14.3086 0.0414062 14.1244 -0.0197656 13.9418 0.00609374L8.14128 0.834727C8.01577 0.852656 7.89948 0.91082 7.80983 1.00047L0.628271 8.18203C-0.209424 9.01969 -0.209424 10.3827 0.628271 11.2204L6.70495 17.2971C6.82925 17.4214 6.96534 17.5268 7.10937 17.6142V17.8518C7.10937 19.0364 8.07315 20.0002 9.2578 20.0002H17.8516C19.0362 20.0002 20 19.0364 20 17.8518V7.61742C20 7.49066 19.9589 7.36727 19.8828 7.26586ZM1.4569 10.3918C1.07612 10.011 1.07612 9.39145 1.4569 9.01066L8.50034 1.96723L13.8175 1.20766L14.8533 2.24348L14.0246 3.07211L13.6103 2.65777C13.3815 2.42898 13.0105 2.42898 12.7817 2.65777C12.5528 2.88656 12.5528 3.25758 12.7817 3.48641L14.439 5.14371C14.5534 5.25813 14.7033 5.31535 14.8533 5.31535C15.0032 5.31535 15.1532 5.25813 15.2676 5.14371C15.4964 4.91492 15.4964 4.54391 15.2676 4.31508L14.8532 3.90074L15.6819 3.07211L16.7177 4.10793L15.9581 9.42504L8.91468 16.4685C8.73022 16.6529 8.48499 16.7545 8.22413 16.7545C7.96327 16.7545 7.71804 16.6529 7.53358 16.4685L1.4569 10.3918ZM18.8281 17.8518C18.8281 18.3903 18.39 18.8284 17.8516 18.8284H9.2578C8.74358 18.8284 8.32124 18.4288 8.28417 17.9239C8.81413 17.9092 9.33972 17.7007 9.74327 17.2971L16.9248 10.1155C17.0145 10.0259 17.0726 9.90961 17.0906 9.7841L17.6051 6.18215L18.8281 7.81273V17.8518Z" fill="#686868"/>
</g>
<defs>
<clipPath id="clip0">
<rect width="20" height="20" fill="white"/>
</clipPath>
</defs>
</svg>
