<svg width="20" height="20" viewBox="0 0 20 20" fill="none" xmlns="http://www.w3.org/2000/svg">
<path d="M17.703 16.776H2.29682C2.10185 16.776 1.94378 16.6179 1.94378 16.4229V12.6536C0.816152 12.3735 0 11.3541 0 10.1656C0 8.95249 0.846249 7.93334 1.97926 7.66741C2.10556 5.19574 4.15605 3.22363 6.65861 3.22363H13.1019C15.5892 3.22363 17.6302 5.17209 17.7786 7.62275C19.0312 7.7915 20 8.8675 20 10.1655C20 11.354 19.1838 12.3733 18.0561 12.6536V16.4228C18.056 16.6179 17.898 16.776 17.703 16.776ZM15.5746 16.0699H17.35V12.3603C17.35 12.1818 17.4832 12.0314 17.6605 12.0099C18.5917 11.8969 19.2939 11.104 19.2939 10.1656C19.2939 9.14014 18.4597 8.30589 17.4342 8.30589C16.4088 8.30589 15.5747 9.14014 15.5747 10.1655V16.0699H15.5746ZM5.13151 16.0699H14.8685V12.7666H5.13151V16.0699ZM2.64987 16.0699H4.42542V10.1656C4.42542 9.14014 3.59117 8.30598 2.56575 8.30598C2.50212 8.30598 2.43928 8.30925 2.37732 8.31542C2.36884 8.31666 2.36046 8.31754 2.35181 8.31816C1.42674 8.4246 0.70609 9.21251 0.70609 10.1656C0.70609 11.104 1.40821 11.8969 2.33936 12.0099C2.51668 12.0314 2.64996 12.1818 2.64996 12.3603V16.0699H2.64987ZM5.13151 12.0606H14.8685V11.8892C14.8685 11.3628 14.4402 10.9346 13.9139 10.9346H6.08605C5.55966 10.9346 5.13151 11.3628 5.13151 11.8892V12.0606ZM6.08605 10.2285H13.9138C14.2688 10.2285 14.5982 10.3405 14.8684 10.531V10.1656C14.8684 8.87403 15.8276 7.80236 17.0711 7.62549C16.9252 5.56309 15.2006 3.92981 13.1017 3.92981H6.65852C4.56734 3.92981 2.84766 5.55117 2.69082 7.60289C4.04775 7.66838 5.13142 8.79283 5.13142 10.1656V10.531C5.40168 10.3404 5.73107 10.2285 6.08605 10.2285Z" fill="#686868"/>
</svg>
