<svg width="17" height="16" viewBox="0 0 17 16" fill="none" xmlns="http://www.w3.org/2000/svg">
<path d="M15.8552 2.66639H5.90206L5.25721 0.637409C5.10456 0.164828 4.58042 -0.102857 4.0819 0.0371658L2.65397 0.43715C2.49667 0.481402 2.35404 0.563513 2.23987 0.67554L0.631102 2.26028C0.510135 2.38051 0.42666 2.53034 0.389984 2.69306C0.225968 3.41303 -0.22683 6.02306 0.846987 9.39946C1.9208 12.7759 3.81891 14.7262 4.37684 15.2432C4.50186 15.36 4.65837 15.4415 4.82908 15.479L7.09812 15.9768C7.16827 15.9922 7.24004 16 7.31204 16C7.40353 15.9999 7.49453 15.9875 7.58231 15.9629L8.3724 15.7413L9.00912 15.5627C9.25152 15.4963 9.4555 15.3396 9.5749 15.1283C9.69388 14.9205 9.72005 14.676 9.64752 14.4497L9.29229 13.3326H15.8552C16.4746 13.3326 16.9767 12.8551 16.9767 12.266V3.73302C16.9767 3.14394 16.4746 2.66639 15.8552 2.66639V2.66639ZM11.4394 7.91952L16.3814 3.55543C16.4037 3.61228 16.4153 3.67237 16.4159 3.73302V12.266C16.4151 12.3232 16.4046 12.3798 16.3848 12.4337L11.4394 7.91952ZM15.8552 3.19971C15.887 3.20015 15.9187 3.20318 15.95 3.20877L10.0796 8.39097C9.8645 8.58068 9.53204 8.58068 9.31696 8.39097L5.27964 4.83618L5.57711 4.75271C5.81905 4.68582 6.0226 4.52931 6.14205 4.31833C6.26087 4.11068 6.28684 3.86629 6.21411 3.64022L6.07308 3.19971H15.8552ZM4.56581 10.9943C3.98698 10.3204 3.55658 9.54259 3.30022 8.70722C2.93811 7.65462 2.88872 6.52735 3.15752 5.44975C3.1633 5.43522 3.17617 5.42427 3.192 5.42042L4.65189 5.0111L7.94455 7.90912L4.56581 10.9943ZM9.07977 14.8744C9.03116 14.9601 8.94828 15.0236 8.84987 15.0504L8.4781 15.1547L7.7954 13.006C7.76783 12.9132 7.68973 12.8418 7.59114 12.8192C7.49255 12.7967 7.38884 12.8265 7.31992 12.8972C7.25101 12.968 7.22762 13.0686 7.25877 13.1604L7.94175 15.3059L7.42419 15.451C7.35911 15.4693 7.29014 15.4714 7.224 15.4568L4.95497 14.9592C4.88466 14.9436 4.82024 14.9098 4.7688 14.8616C4.2361 14.367 2.41734 12.4996 1.38362 9.24533C0.349891 5.99106 0.7811 3.49303 0.937827 2.80559C0.952902 2.73962 0.986863 2.67889 1.03596 2.63013L2.64304 1.04619C2.6894 1.00049 2.74732 0.966886 2.81126 0.948596L3.33303 0.802469L4.01573 2.95092C4.05145 3.06346 4.16044 3.14047 4.28404 3.14051C4.31151 3.14064 4.33883 3.13677 4.36507 3.12904C4.51322 3.08644 4.59705 2.93772 4.55236 2.79679L3.8719 0.651808L4.2403 0.548612C4.44381 0.490269 4.65877 0.598615 4.72226 0.791536L5.67552 3.79408C5.70479 3.88413 5.69468 3.9816 5.64748 4.06447C5.59873 4.15011 5.51592 4.2136 5.41758 4.24073L5.04553 4.345L4.93534 3.99834C4.88773 3.86095 4.73362 3.78472 4.58801 3.82654C4.4424 3.86836 4.35841 4.01298 4.39871 4.15247L4.50778 4.49592L3.03359 4.90924C2.83148 4.96541 2.67398 5.11652 2.61668 5.30922C2.32094 6.48321 2.37188 7.71208 2.76388 8.86028C3.10814 10.0257 3.78192 11.079 4.71189 11.9055C4.87002 12.0381 5.08903 12.0835 5.29085 12.0255L6.76868 11.6111L6.87887 11.9578C6.90643 12.0506 6.98454 12.122 7.08313 12.1445C7.18172 12.1671 7.28542 12.1373 7.35434 12.0665C7.42326 11.9958 7.44664 11.8951 7.41549 11.8034L7.30643 11.4599L7.67456 11.3567C7.87808 11.2988 8.0928 11.407 8.15679 11.5996L9.11005 14.6025C9.13954 14.6931 9.12912 14.7912 9.08117 14.8744H9.07977ZM9.12267 12.7993L8.69314 11.4471C8.54025 10.9736 8.01478 10.7058 7.51559 10.8469L5.13244 11.5151C5.11533 11.52 5.09679 11.5168 5.08254 11.5066C5.04328 11.4738 4.99843 11.433 4.94656 11.3866L8.35698 8.27204L8.93566 8.78162C9.36663 9.15956 10.0305 9.15956 10.4614 8.78162L11.0278 8.28137L15.9643 12.7879C15.9284 12.7951 15.8919 12.7989 15.8552 12.7993H9.12267Z" fill="#2B587A"/>
<path d="M7.44443 4.26622H11.9304C12.0852 4.26622 12.2107 4.14684 12.2107 3.99957C12.2107 3.8523 12.0852 3.73291 11.9304 3.73291H7.44443C7.28959 3.73291 7.16406 3.8523 7.16406 3.99957C7.16406 4.14684 7.28959 4.26622 7.44443 4.26622Z" fill="#2B587A"/>
<path d="M15.5753 5.86621C15.4204 5.86621 15.2949 5.9856 15.2949 6.13287V9.86605C15.2949 10.0133 15.4204 10.1327 15.5753 10.1327C15.7301 10.1327 15.8557 10.0133 15.8557 9.86605V6.13287C15.8557 5.9856 15.7301 5.86621 15.5753 5.86621Z" fill="#2B587A"/>
</svg>
