<svg width="39" height="39" viewBox="0 0 39 39" fill="none" xmlns="http://www.w3.org/2000/svg">
<path d="M38.9996 19.5C38.9996 25.9381 33.7996 31.2 27.2996 31.2C20.8615 31.2 15.5996 25.9381 15.5996 19.5C15.5996 13.062 20.7996 7.80005 27.2377 7.80005C33.7996 7.80005 38.9996 13.062 38.9996 19.5Z" fill="#FFB600"/>
<path d="M27.2996 7.80005C33.7377 7.80005 38.9996 13.062 38.9996 19.5C38.9996 25.9381 33.7996 31.2 27.2996 31.2C20.8615 31.2 15.5996 25.9381 15.5996 19.5" fill="#F7981D"/>
<path d="M27.3008 7.80005C33.7389 7.80005 39.0008 13.062 39.0008 19.5C39.0008 25.9381 33.8008 31.2 27.3008 31.2" fill="#FF8500"/>
<path d="M11.5762 7.80005C5.2 7.86195 0 13.062 0 19.5C0 25.9381 5.2 31.2 11.7 31.2C14.7333 31.2 17.4571 30.0238 19.5619 28.1667C19.9952 27.7953 20.3667 27.3619 20.7381 26.9286H18.3238C18.0143 26.5572 17.7048 26.1238 17.4571 25.7524H21.6048C21.8524 25.381 22.1 24.9477 22.2857 24.5143H16.7762C16.5905 24.1429 16.4048 23.7096 16.2809 23.2762H22.719C23.0905 22.1 23.3381 20.8619 23.3381 19.5619C23.3381 18.6953 23.2143 17.8905 23.0905 17.0858H15.9095C15.9714 16.6524 16.0952 16.281 16.219 15.8477H22.6571C22.5333 15.4143 22.3476 14.981 22.1619 14.6096H16.7143C16.9 14.1762 17.1476 13.8048 17.3952 13.3715H21.5429C21.2952 12.9381 20.9857 12.5048 20.6143 12.1334H18.3238C18.6952 11.7 19.0667 11.3286 19.5 10.9572C17.4571 9.03814 14.6714 7.92386 11.6381 7.92386C11.6381 7.80005 11.6381 7.80005 11.5762 7.80005Z" fill="#FF5050"/>
<path d="M0 19.5C0 25.9381 5.2 31.2 11.7 31.2C14.7333 31.2 17.4571 30.0238 19.5619 28.1667C19.9952 27.7953 20.3667 27.3619 20.7381 26.9286H18.3238C18.0143 26.5572 17.7048 26.1238 17.4571 25.7524H21.6048C21.8524 25.381 22.1 24.9476 22.2857 24.5143H16.7762C16.5905 24.1429 16.4048 23.7095 16.2809 23.2762H22.719C23.0905 22.1 23.3381 20.8619 23.3381 19.5619C23.3381 18.6953 23.2143 17.8905 23.0905 17.0857H15.9095C15.9714 16.6524 16.0952 16.281 16.219 15.8476H22.6571C22.5333 15.4143 22.3476 14.981 22.1619 14.6095H16.7143C16.9 14.1762 17.1476 13.8048 17.3952 13.3714H21.5429C21.2952 12.9381 20.9857 12.5048 20.6143 12.1334H18.3238C18.6952 11.7 19.0667 11.3286 19.5 10.9572C17.4571 9.03811 14.6714 7.92383 11.6381 7.92383H11.5762" fill="#E52836"/>
<path d="M11.7 31.2C14.7333 31.2 17.4571 30.0238 19.5619 28.1667C19.9952 27.7953 20.3666 27.3619 20.7381 26.9286H18.3238C18.0143 26.5572 17.7047 26.1238 17.4571 25.7524H21.6047C21.8524 25.381 22.1 24.9476 22.2857 24.5143H16.7762C16.5905 24.1429 16.4047 23.7095 16.2809 23.2762H22.719C23.0905 22.1 23.3381 20.8619 23.3381 19.5619C23.3381 18.6953 23.2143 17.8905 23.0905 17.0857H15.9095C15.9714 16.6524 16.0952 16.281 16.219 15.8476H22.6571C22.5333 15.4143 22.3476 14.981 22.1619 14.6095H16.7143C16.9 14.1762 17.1476 13.8048 17.3952 13.3714H21.5428C21.2952 12.9381 20.9857 12.5048 20.6143 12.1334H18.3238C18.6952 11.7 19.0666 11.3286 19.5 10.9572C17.4571 9.03811 14.6714 7.92383 11.6381 7.92383H11.5762" fill="#CB2026"/>
<path d="M15.848 22.4713L16.0337 21.4189C15.9718 21.4189 15.848 21.4808 15.7242 21.4808C15.2908 21.4808 15.2289 21.2332 15.2908 21.1094L15.6622 18.9427H16.3432L16.5289 17.7665H15.9099L16.0337 17.0237H14.7956C14.7956 17.0237 14.0527 21.1094 14.0527 21.6046C14.0527 22.3475 14.4861 22.657 15.0432 22.657C15.4146 22.657 15.7242 22.5332 15.848 22.4713Z" fill="white"/>
<path d="M16.2812 20.4903C16.2812 22.2237 17.4574 22.657 18.4479 22.657C19.3765 22.657 19.7479 22.4713 19.7479 22.4713L19.9955 21.2951C19.9955 21.2951 19.3146 21.6046 18.6955 21.6046C17.3336 21.6046 17.5813 20.6141 17.5813 20.6141H20.1194C20.1194 20.6141 20.3051 19.8094 20.3051 19.4999C20.3051 18.6951 19.8717 17.7046 18.5098 17.7046C17.2098 17.5808 16.2812 18.9427 16.2812 20.4903ZM18.4479 18.6951C19.1289 18.6951 19.0051 19.4999 19.0051 19.5618H17.6432C17.6432 19.4999 17.767 18.6951 18.4479 18.6951Z" fill="white"/>
<path d="M26.311 22.4713L26.5586 21.1094C26.5586 21.1094 25.9396 21.4189 25.5062 21.4189C24.6396 21.4189 24.2682 20.738 24.2682 19.9951C24.2682 18.5094 25.011 17.7046 25.8777 17.7046C26.4967 17.7046 26.992 18.0761 26.992 18.0761L27.1777 16.7761C27.1777 16.7761 26.4348 16.4666 25.7539 16.4666C24.3301 16.4666 22.9062 17.7046 22.9062 20.057C22.9062 21.6047 23.6491 22.657 25.1348 22.657C25.6301 22.657 26.311 22.4713 26.311 22.4713Z" fill="white"/>
<path d="M9.03988 17.5808C8.17322 17.5808 7.55417 17.8284 7.55417 17.8284L7.36845 18.8808C7.36845 18.8808 7.9256 18.6332 8.73036 18.6332C9.16369 18.6332 9.53512 18.6951 9.53512 19.0665C9.53512 19.3141 9.47322 19.376 9.47322 19.376C9.47322 19.376 9.10179 19.376 8.91607 19.376C7.86369 19.376 6.6875 19.8094 6.6875 21.2332C6.6875 22.3475 7.43036 22.5951 7.86369 22.5951C8.73036 22.5951 9.10179 22.0379 9.16369 22.0379L9.10179 22.5332H10.2161L10.7113 19.1284C10.7113 17.6427 9.47322 17.5808 9.03988 17.5808ZM9.2875 20.3665C9.2875 20.5522 9.16369 21.5427 8.42083 21.5427C8.04941 21.5427 7.9256 21.2332 7.9256 21.0475C7.9256 20.7379 8.11131 20.3046 9.03988 20.3046C9.2256 20.3665 9.2875 20.3665 9.2875 20.3665Z" fill="white"/>
<path d="M11.8867 22.5952C12.1962 22.5952 13.7438 22.6571 13.7438 20.9857C13.7438 19.4381 12.2581 19.7476 12.2581 19.1286C12.2581 18.819 12.5057 18.6952 12.9391 18.6952C13.1248 18.6952 13.8057 18.7571 13.8057 18.7571L13.9915 17.6429C13.9915 17.6429 13.5581 17.519 12.8153 17.519C11.8867 17.519 10.9581 17.8905 10.9581 19.1286C10.9581 20.5524 12.5057 20.4286 12.5057 20.9857C12.5057 21.3571 12.0724 21.419 11.7629 21.419C11.2057 21.419 10.6486 21.2333 10.6486 21.2333L10.4629 22.3476C10.5248 22.4714 10.8343 22.5952 11.8867 22.5952Z" fill="white"/>
<path d="M36.5872 16.5903L36.3395 18.2618C36.3395 18.2618 35.8443 17.6427 35.1634 17.6427C34.0491 17.6427 33.0586 19.0046 33.0586 20.6141C33.0586 21.6046 33.5538 22.657 34.6062 22.657C35.3491 22.657 35.7824 22.1618 35.7824 22.1618L35.7205 22.5951H36.9586L37.8872 16.6522L36.5872 16.5903ZM36.03 19.8713C36.03 20.5522 35.7205 21.4189 35.0395 21.4189C34.6062 21.4189 34.3586 21.0475 34.3586 20.4284C34.3586 19.438 34.7919 18.8189 35.3491 18.8189C35.7824 18.8189 36.03 19.1284 36.03 19.8713Z" fill="white"/>
<path d="M2.29143 22.5332L3.03428 18.076L3.15809 22.5332H4.02476L5.63428 18.076L4.95333 22.5332H6.25333L7.24381 16.5903H5.20095L3.96285 20.2427L3.90095 16.5903H2.10571L1.11523 22.5332H2.29143Z" fill="white"/>
<path d="M21.481 22.5332C21.8525 20.4903 21.9144 18.8189 22.781 19.1284C22.9048 18.3236 23.0906 18.0141 23.2144 17.7046C23.2144 17.7046 23.1525 17.7046 22.9667 17.7046C22.4096 17.7046 21.9763 18.4474 21.9763 18.4474L22.1001 17.7665H20.9239L20.1191 22.5951H21.481V22.5332Z" fill="white"/>
<path d="M29.159 17.5808C28.2924 17.5808 27.6733 17.8284 27.6733 17.8284L27.4876 18.8808C27.4876 18.8808 28.0447 18.6332 28.8495 18.6332C29.2828 18.6332 29.6543 18.6951 29.6543 19.0665C29.6543 19.3141 29.5924 19.376 29.5924 19.376C29.5924 19.376 29.2209 19.376 29.0352 19.376C27.9828 19.376 26.8066 19.8094 26.8066 21.2332C26.8066 22.3475 27.5495 22.5951 27.9828 22.5951C28.8495 22.5951 29.2209 22.0379 29.2828 22.0379L29.2209 22.5332H30.3352L30.8305 19.1284C30.8924 17.6427 29.5924 17.5808 29.159 17.5808ZM29.4686 20.3665C29.4686 20.5522 29.3447 21.5427 28.6019 21.5427C28.2305 21.5427 28.1066 21.2332 28.1066 21.0475C28.1066 20.7379 28.2924 20.3046 29.2209 20.3046C29.4066 20.3665 29.4066 20.3665 29.4686 20.3665Z" fill="white"/>
<path d="M31.8814 22.5332C32.2529 20.4903 32.3148 18.8189 33.1814 19.1284C33.3052 18.3236 33.491 18.0141 33.6148 17.7046C33.6148 17.7046 33.5529 17.7046 33.3671 17.7046C32.81 17.7046 32.3767 18.4474 32.3767 18.4474L32.5005 17.7665H31.3243L30.5195 22.5951H31.8814V22.5332Z" fill="white"/>
<path d="M13.9297 21.6046C13.9297 22.3475 14.363 22.657 14.9202 22.657C15.3535 22.657 15.7249 22.5332 15.8487 22.4713L16.0344 21.4189C15.9725 21.4189 15.8487 21.4808 15.7249 21.4808C15.2916 21.4808 15.2297 21.2332 15.2916 21.1094L15.663 18.9427H16.344L16.5297 17.7665H15.9106L16.0344 17.0237" fill="#DCE5E5"/>
<path d="M16.9004 20.4903C16.9004 22.2237 17.4575 22.657 18.448 22.657C19.3766 22.657 19.748 22.4713 19.748 22.4713L19.9956 21.2951C19.9956 21.2951 19.3147 21.6046 18.6956 21.6046C17.3337 21.6046 17.5813 20.6141 17.5813 20.6141H20.1194C20.1194 20.6141 20.3052 19.8094 20.3052 19.4999C20.3052 18.6951 19.8718 17.7046 18.5099 17.7046C17.2099 17.5808 16.9004 18.9427 16.9004 20.4903ZM18.448 18.6951C19.129 18.6951 19.2528 19.4999 19.2528 19.5618H17.6432C17.6432 19.4999 17.7671 18.6951 18.448 18.6951Z" fill="#DCE5E5"/>
<path d="M26.3111 22.4713L26.5587 21.1094C26.5587 21.1094 25.9397 21.4189 25.5063 21.4189C24.6397 21.4189 24.2682 20.738 24.2682 19.9951C24.2682 18.5094 25.0111 17.7046 25.8778 17.7046C26.4968 17.7046 26.9921 18.0761 26.9921 18.0761L27.1778 16.7761C27.1778 16.7761 26.4349 16.4666 25.754 16.4666C24.3302 16.4666 23.5254 17.7046 23.5254 20.057C23.5254 21.6047 23.6492 22.657 25.1349 22.657C25.6302 22.657 26.3111 22.4713 26.3111 22.4713Z" fill="#DCE5E5"/>
<path d="M7.36845 18.9427C7.36845 18.9427 7.9256 18.6951 8.73036 18.6951C9.16369 18.6951 9.53512 18.757 9.53512 19.1284C9.53512 19.376 9.47322 19.4379 9.47322 19.4379C9.47322 19.4379 9.10179 19.4379 8.91607 19.4379C7.86369 19.4379 6.6875 19.8713 6.6875 21.2951C6.6875 22.4094 7.43036 22.657 7.86369 22.657C8.73036 22.657 9.10179 22.0998 9.16369 22.0998L9.10179 22.5951H10.2161L10.7113 19.1903C10.7113 17.7665 9.47322 17.7046 8.97798 17.7046L7.36845 18.9427ZM9.90655 20.3665C9.90655 20.5522 9.16369 21.5427 8.42083 21.5427C8.04941 21.5427 7.9256 21.2332 7.9256 21.0474C7.9256 20.7379 8.11131 20.3046 9.03988 20.3046C9.2256 20.3665 9.90655 20.3665 9.90655 20.3665Z" fill="#DCE5E5"/>
<path d="M10.5254 22.4714C10.5254 22.4714 10.8968 22.5952 11.9492 22.5952C12.2587 22.5952 13.8063 22.6571 13.8063 20.9857C13.8063 19.4381 12.3206 19.7476 12.3206 19.1286C12.3206 18.819 12.5682 18.6952 13.0016 18.6952C13.1873 18.6952 13.8682 18.7571 13.8682 18.7571L14.054 17.6429C14.054 17.6429 13.6206 17.519 12.8778 17.519C11.9492 17.519 11.6397 17.8905 11.6397 19.1286C11.6397 20.5524 12.5682 20.4286 12.5682 20.9857C12.5682 21.3571 12.1349 21.419 11.8254 21.419" fill="#DCE5E5"/>
<path d="M36.3383 18.2619C36.3383 18.2619 35.843 17.6428 35.1621 17.6428C34.0478 17.6428 33.6764 19.0047 33.6764 20.6142C33.6764 21.6047 33.5526 22.6571 34.6049 22.6571C35.3478 22.6571 35.7811 22.1619 35.7811 22.1619L35.7192 22.5952H36.9573L37.8859 16.6523L36.3383 18.2619ZM36.2764 19.8714C36.2764 20.5523 35.7192 21.419 35.0383 21.419C34.6049 21.419 34.3573 21.0476 34.3573 20.4285C34.3573 19.4381 34.7906 18.819 35.3478 18.819C35.7811 18.819 36.2764 19.1285 36.2764 19.8714Z" fill="#DCE5E5"/>
<path d="M2.29143 22.5332L3.03428 18.076L3.15809 22.5332H4.02476L5.63428 18.076L4.95333 22.5332H6.25333L7.24381 16.5903H5.69619L3.96285 20.2427L3.90095 16.5903H3.22L1.11523 22.5332H2.29143Z" fill="#DCE5E5"/>
<path d="M20.1816 22.5332H21.4816C21.8531 20.4903 21.915 18.8189 22.7816 19.1284C22.9054 18.3236 23.0912 18.0141 23.215 17.7046C23.215 17.7046 23.1531 17.7046 22.9674 17.7046C22.4102 17.7046 21.9769 18.4474 21.9769 18.4474L22.1007 17.7665" fill="#DCE5E5"/>
<path d="M27.4876 18.9427C27.4876 18.9427 28.0447 18.6951 28.8495 18.6951C29.2828 18.6951 29.6543 18.757 29.6543 19.1284C29.6543 19.376 29.5924 19.4379 29.5924 19.4379C29.5924 19.4379 29.2209 19.4379 29.0352 19.4379C27.9828 19.4379 26.8066 19.8713 26.8066 21.2951C26.8066 22.4094 27.5495 22.657 27.9828 22.657C28.8495 22.657 29.2209 22.0998 29.2828 22.0998L29.2209 22.5951H30.3352L30.8304 19.1903C30.8304 17.7665 29.5924 17.7046 29.0971 17.7046L27.4876 18.9427ZM30.0257 20.3665C30.0257 20.5522 29.2828 21.5427 28.54 21.5427C28.1685 21.5427 28.0447 21.2332 28.0447 21.0474C28.0447 20.7379 28.2304 20.3046 29.159 20.3046C29.4066 20.3665 30.0257 20.3665 30.0257 20.3665Z" fill="#DCE5E5"/>
<path d="M30.582 22.5332H31.882C32.2535 20.4903 32.3154 18.8189 33.182 19.1284C33.3058 18.3236 33.4916 18.0141 33.6154 17.7046C33.6154 17.7046 33.5535 17.7046 33.3677 17.7046C32.8106 17.7046 32.3773 18.4474 32.3773 18.4474L32.5011 17.7665" fill="#DCE5E5"/>
</svg>
