<svg width="73" height="60" viewBox="0 0 73 60" fill="none" xmlns="http://www.w3.org/2000/svg">
<path d="M69.1103 60H3.85877C1.73896 60 0.0117188 58.2727 0.0117188 56.1529V42.7537H1.75641V56.1529C1.75641 57.3131 2.69855 58.2553 3.85877 58.2553H69.1103C70.2705 58.2553 71.2126 57.3131 71.2126 56.1529V42.7537H72.9573V56.1529C72.9573 58.2727 71.2301 60 69.1103 60Z" fill="#222222"/>
<path d="M72.8176 41.9686L61.8435 2.6781C61.4073 1.10788 59.9679 0 58.3366 0H50.2587C49.5695 0 48.9327 0.261704 48.4617 0.697877C47.9906 0.261704 47.3538 0 46.6646 0H38.2814C37.5922 0 36.9554 0.261704 36.4843 0.697877C36.0133 0.261704 35.3765 0 34.6873 0H26.3041C25.6149 0 24.9781 0.261704 24.507 0.697877C24.036 0.261704 23.3991 0 22.71 0H14.6321C13.0008 0 11.5614 1.09916 11.1252 2.66938L0.151113 41.9686C0.0202606 42.4484 -0.0233566 42.9369 0.0115373 43.4167C0.0726016 44.1669 0.351752 44.8997 0.822819 45.519C1.09325 45.868 1.40729 46.1646 1.75623 46.4088C2.41921 46.8712 3.22177 47.1242 4.05923 47.1242H15.4085C16.4378 47.1242 17.284 47.9616 17.284 48.9997H19.0287C19.0287 47.9616 19.8661 47.1242 20.9042 47.1242H33.7277C34.7571 47.1242 35.6033 47.9616 35.6033 48.9997H37.348C37.348 47.9616 38.1854 47.1242 39.2235 47.1242H52.047C53.0851 47.1242 53.9226 47.9616 53.9226 48.9997H55.6672C55.6672 47.9616 56.5047 47.1242 57.5428 47.1242H68.9095C69.7469 47.1242 70.5495 46.8712 71.2125 46.4088C71.5614 46.1646 71.8754 45.868 72.1459 45.519C72.6169 44.891 72.8961 44.1669 72.9572 43.4167C73.0008 42.9369 72.9572 42.4484 72.8176 41.9686ZM71.2125 43.3207C71.1688 43.7307 71.0118 44.1233 70.7501 44.4635C70.3052 45.048 69.6335 45.3795 68.9095 45.3795H57.5428C56.4436 45.3795 55.4579 45.868 54.7949 46.6444C54.1319 45.868 53.1462 45.3795 52.047 45.3795H39.2235C38.1244 45.3795 37.1386 45.868 36.4756 46.6444C35.8126 45.868 34.8269 45.3795 33.7277 45.3795H20.9042C19.8051 45.3795 18.8193 45.868 18.1563 46.6444C17.4934 45.868 16.5076 45.3795 15.4085 45.3795H4.05923C3.32645 45.3795 2.65475 45.048 2.21857 44.4635C1.95687 44.1233 1.79985 43.7307 1.75623 43.3207C1.73878 43.155 1.73878 42.9892 1.75623 42.8148C1.76495 42.6839 1.79112 42.5618 1.82602 42.4397L12.8001 3.14045C13.0269 2.32044 13.7772 1.74469 14.6321 1.74469H22.71C23.216 1.74469 23.6347 2.16342 23.6347 2.66938H25.3794C25.3794 2.16342 25.7981 1.74469 26.3041 1.74469H34.6873C35.1933 1.74469 35.612 2.16342 35.612 2.66938H37.3567C37.3567 2.16342 37.7754 1.74469 38.2814 1.74469H46.6646C47.1706 1.74469 47.5893 2.16342 47.5893 2.66938H49.334C49.334 2.16342 49.7527 1.74469 50.2587 1.74469H58.3366C59.1915 1.74469 59.9417 2.32044 60.1686 3.14045L71.1427 42.4397C71.1776 42.5618 71.2037 42.6926 71.2125 42.8148C71.2299 42.9805 71.2299 43.155 71.2125 43.3207Z" fill="#222222"/>
<path d="M21.3488 34.7892C21.3488 35.4609 20.7992 36.0104 20.1275 36.0104C19.4558 36.0104 18.9062 35.4609 18.9062 34.7892C18.9062 34.1174 19.4558 33.5679 20.1275 33.5679C20.7992 33.5679 21.3488 34.1174 21.3488 34.7892Z" fill="#222222"/>
<path d="M37.7062 34.7892C37.7062 35.4609 37.1567 36.0104 36.485 36.0104C35.8133 36.0104 35.2637 35.4609 35.2637 34.7892C35.2637 34.1174 35.8133 33.5679 36.485 33.5679C37.1567 33.5679 37.7062 34.1174 37.7062 34.7892Z" fill="#222222"/>
<path d="M54.1496 34.7892C54.1496 35.4609 53.6 36.0104 52.9283 36.0104C52.2566 36.0104 51.707 35.4609 51.707 34.7892C51.707 34.1174 52.2566 33.5679 52.9283 33.5679C53.6 33.5679 54.1496 34.1174 54.1496 34.7892Z" fill="#222222"/>
<path d="M23.007 22.6637C23.007 23.3354 22.4574 23.885 21.7857 23.885C21.114 23.885 20.5645 23.3354 20.5645 22.6637C20.5645 21.992 21.114 21.4424 21.7857 21.4424C22.4574 21.4424 23.007 21.992 23.007 22.6637Z" fill="#222222"/>
<path d="M37.7062 22.6637C37.7062 23.3354 37.1567 23.885 36.485 23.885C35.8133 23.885 35.2637 23.3354 35.2637 22.6637C35.2637 21.992 35.8133 21.4424 36.485 21.4424C37.1567 21.4424 37.7062 21.992 37.7062 22.6637Z" fill="#222222"/>
<path d="M52.4914 22.6637C52.4914 23.3354 51.9418 23.885 51.2701 23.885C50.5984 23.885 50.0488 23.3354 50.0488 22.6637C50.0488 21.992 50.5984 21.4424 51.2701 21.4424C51.9418 21.4424 52.4914 21.992 52.4914 22.6637Z" fill="#222222"/>
<path d="M24.5773 11.0614C24.5773 11.7331 24.0278 12.2827 23.3561 12.2827C22.6843 12.2827 22.1348 11.7331 22.1348 11.0614C22.1348 10.3897 22.6843 9.84009 23.3561 9.84009C24.0278 9.84009 24.5773 10.3897 24.5773 11.0614Z" fill="#222222"/>
<path d="M37.7062 11.0614C37.7062 11.7331 37.1567 12.2827 36.485 12.2827C35.8133 12.2827 35.2637 11.7331 35.2637 11.0614C35.2637 10.3897 35.8133 9.84009 36.485 9.84009C37.1567 9.84009 37.7062 10.3897 37.7062 11.0614Z" fill="#222222"/>
<path d="M50.9211 11.0614C50.9211 11.7331 50.3715 12.2827 49.6998 12.2827C49.0281 12.2827 48.4785 11.7331 48.4785 11.0614C48.4785 10.3897 49.0281 9.84009 49.6998 9.84009C50.3715 9.84009 50.9211 10.3897 50.9211 11.0614Z" fill="#222222"/>
</svg>
