<svg width="46" height="60" viewBox="0 0 46 60" fill="none" xmlns="http://www.w3.org/2000/svg">
<path d="M38.8042 53.9348H36.8477V54.587H38.8042V53.9348Z" fill="#222222"/>
<path d="M34.8921 53.9348H32.9355V54.587H34.8921V53.9348Z" fill="#222222"/>
<path d="M30.978 53.9348H29.0215V54.587H30.978V53.9348Z" fill="#222222"/>
<path d="M27.0659 53.9348H25.1094V54.587H27.0659V53.9348Z" fill="#222222"/>
<path d="M23.1518 53.9348H21.1953V54.587H23.1518V53.9348Z" fill="#222222"/>
<path d="M19.2397 53.9348H17.2832V54.587H19.2397V53.9348Z" fill="#222222"/>
<path d="M41.2166 48.5869H40.5645V50.5434H41.2166V48.5869Z" fill="#222222"/>
<path d="M41.2166 44.6738H40.5645V46.6303H41.2166V44.6738Z" fill="#222222"/>
<path d="M41.2166 40.761H40.5645V42.7175H41.2166V40.761Z" fill="#222222"/>
<path d="M4.69514 37.8914H4.04297V39.8479H4.69514V37.8914Z" fill="#222222"/>
<path d="M41.2166 36.8479H40.5645V38.8044H41.2166V36.8479Z" fill="#222222"/>
<path d="M4.69514 33.9783H4.04297V35.9348H4.69514V33.9783Z" fill="#222222"/>
<path d="M41.2166 32.9348H40.5645V34.8913H41.2166V32.9348Z" fill="#222222"/>
<path d="M4.69514 30.0652H4.04297V32.0217H4.69514V30.0652Z" fill="#222222"/>
<path d="M41.2166 29.0217H40.5645V30.9783H41.2166V29.0217Z" fill="#222222"/>
<path d="M4.69514 26.1521H4.04297V28.1086H4.69514V26.1521Z" fill="#222222"/>
<path d="M41.2166 25.1086H40.5645V27.0652H41.2166V25.1086Z" fill="#222222"/>
<path d="M4.69514 22.239H4.04297V24.1955H4.69514V22.239Z" fill="#222222"/>
<path d="M41.2166 21.1956H40.5645V23.1521H41.2166V21.1956Z" fill="#222222"/>
<path d="M4.69514 18.3262H4.04297V20.2827H4.69514V18.3262Z" fill="#222222"/>
<path d="M41.2166 17.2827H40.5645V19.2392H41.2166V17.2827Z" fill="#222222"/>
<path d="M4.69514 14.4131H4.04297V16.3696H4.69514V14.4131Z" fill="#222222"/>
<path d="M41.2166 13.3696H40.5645V15.3262H41.2166V13.3696Z" fill="#222222"/>
<path d="M4.69514 10.5H4.04297V12.4565H4.69514V10.5Z" fill="#222222"/>
<path d="M41.2166 9.45654H40.5645V11.4131H41.2166V9.45654Z" fill="#222222"/>
<path d="M4.69514 6.58691H4.04297V8.54344H4.69514V6.58691Z" fill="#222222"/>
<path d="M38.7397 5.41309H36.7832V6.06526H38.7397V5.41309Z" fill="#222222"/>
<path d="M34.8257 5.41309H32.8691V6.06526H34.8257V5.41309Z" fill="#222222"/>
<path d="M30.9136 5.41309H28.957V6.06526H30.9136V5.41309Z" fill="#222222"/>
<path d="M26.9995 5.41309H25.043V6.06526H26.9995V5.41309Z" fill="#222222"/>
<path d="M23.0874 5.41309H21.1309V6.06526H23.0874V5.41309Z" fill="#222222"/>
<path d="M19.1733 5.41309H17.2168V6.06526H19.1733V5.41309Z" fill="#222222"/>
<path d="M15.2612 5.41309H13.3047V6.06526H15.2612V5.41309Z" fill="#222222"/>
<path d="M11.3471 5.41309H9.39062V6.06526H11.3471V5.41309Z" fill="#222222"/>
<path d="M7.43504 5.41309H5.47852V6.06526H7.43504V5.41309Z" fill="#222222"/>
<path d="M17.3476 58.0434C17.3476 58.0434 16.6302 57.7826 15.5215 57.1956L15.7824 56.6086C16.8258 57.1304 17.5432 57.3912 17.5432 57.3912L17.3476 58.0434Z" fill="#222222"/>
<path d="M13.7601 56.2825C13.1732 55.9564 12.6514 55.6303 12.0645 55.239L12.4558 54.7173C12.9775 55.0434 13.5645 55.4347 14.0862 55.7608L13.7601 56.2825Z" fill="#222222"/>
<path d="M10.5008 54.1305C9.97902 53.7392 9.45729 53.2827 8.93555 52.8914L9.39207 52.3696C9.84859 52.7609 10.3703 53.2175 10.8921 53.6088L10.5008 54.1305Z" fill="#222222"/>
<path d="M7.50042 51.5217C7.0439 51.0652 6.58738 50.5434 6.13086 50.0869L6.6526 49.6304C7.0439 50.0869 7.50042 50.6086 7.95695 51.0652L7.50042 51.5217Z" fill="#222222"/>
<path d="M4.95635 48.5217C4.56505 48 4.17374 47.413 3.84766 46.8913L4.43461 46.5652C4.7607 47.0869 5.08679 47.6739 5.47809 48.1956L4.95635 48.5217Z" fill="#222222"/>
<path d="M2.93495 45.0652C2.67408 44.4782 2.41321 43.8261 2.15234 43.2391L2.7393 43.0435C2.93495 43.6304 3.19582 44.2174 3.45669 44.8043L2.93495 45.0652Z" fill="#222222"/>
<path d="M40.6091 5.5236L41.1602 5.87231L42.2063 4.21905L41.6552 3.87034L40.6091 5.5236Z" fill="#222222"/>
<path d="M2.91947 4.37192L4.07812 5.94849L4.60365 5.56227L3.44499 3.9857L2.91947 4.37192Z" fill="#222222"/>
<path d="M43.4348 0H1.82609C0.782609 0 0 0.847826 0 1.82609V32.6087C0 56.413 1.63043 59.9348 26.3478 60C26.3478 60 26.3478 60 26.413 60H43.5C44.5435 60 45.3261 59.1522 45.3261 58.1739V1.8913C45.3261 0.847826 44.4783 0 43.4348 0ZM5.47826 54.9783L8.21739 52.2391L7.76087 51.7826L5.02174 54.5217C2.28261 51.7174 1.5 47.087 1.30435 39.4565C4.69565 48.1304 13.5652 55.5652 20.6739 58.5652C12.9783 58.3696 8.28261 57.4565 5.47826 54.9783ZM44.0217 58.1739V58.2391L43.3043 57.1304L42.7826 57.4565L43.5652 58.6304C43.5652 58.6304 43.5652 58.6304 43.5 58.6304H26.7391C26.6087 58.6304 26.4783 58.6304 26.2826 58.6304C18.3913 58.5652 1.23913 45.5217 1.23913 32.5435V2.02174L1.76087 2.67391L2.28261 2.28261L1.56522 1.23913C1.63044 1.17391 1.76087 1.17391 1.82609 1.17391H43.3696L42.7826 2.15217L43.3043 2.47826L43.9565 1.43478C44.0217 1.5 44.0217 1.56522 44.0217 1.69565V58.1739Z" fill="#222222"/>
<path d="M40.604 54.1763L41.6504 55.8296L42.2015 55.4808L41.1551 53.8275L40.604 54.1763Z" fill="#222222"/>
</svg>
