<svg width="17" height="16" viewBox="0 0 17 16" fill="none" xmlns="http://www.w3.org/2000/svg">
<path d="M15.597 11.7424L13.3595 9.50954C12.5604 8.71209 11.2019 9.0311 10.8822 10.0678C10.6425 10.7855 9.84335 11.1842 9.12414 11.0247C7.52589 10.626 5.36826 8.5526 4.9687 6.87797C4.72896 6.16024 5.20843 5.36279 5.92764 5.12359C6.9665 4.80461 7.28615 3.44895 6.48703 2.65151L4.24948 0.418659C3.61019 -0.139553 2.65124 -0.139553 2.09185 0.418659L0.573516 1.93381C-0.944818 3.5287 0.733341 7.75516 4.48922 11.5032C8.2451 15.2511 12.4805 17.0056 14.0787 15.4106L15.597 13.8955C16.1565 13.2575 16.1565 12.3006 15.597 11.7424Z" fill="#B9B9B9"/>
</svg>
