<svg width="14" height="16" viewBox="0 0 14 16" fill="none" xmlns="http://www.w3.org/2000/svg">
<path d="M6.89476 7.70721C8.00525 7.70721 8.96684 7.32746 9.75253 6.5782C10.5382 5.82906 10.9365 4.91244 10.9365 3.85349C10.9365 2.7949 10.5382 1.87816 9.7524 1.12878C8.96659 0.379758 8.00512 0 6.89476 0C5.78415 0 4.82281 0.379758 4.03713 1.1289C3.25144 1.87804 2.85303 2.79478 2.85303 3.85349C2.85303 4.91244 3.25144 5.82918 4.03726 6.57832C4.82307 7.32733 5.78454 7.70721 6.89476 7.70721Z" fill="#2B587A"/>
<path d="M13.9661 12.3031C13.9434 11.9913 13.8976 11.6512 13.8301 11.2921C13.762 10.9303 13.6743 10.5882 13.5693 10.2756C13.4609 9.9525 13.3134 9.63341 13.1311 9.32762C12.9419 9.01024 12.7196 8.73388 12.4702 8.50646C12.2094 8.26855 11.8902 8.07727 11.5209 7.93774C11.153 7.79895 10.7452 7.72864 10.3091 7.72864C10.1378 7.72864 9.97209 7.79565 9.65216 7.99426C9.45526 8.1167 9.22494 8.2583 8.96787 8.41491C8.74805 8.54846 8.45026 8.67358 8.08245 8.78686C7.72359 8.89757 7.35924 8.95373 6.99962 8.95373C6.63999 8.95373 6.27576 8.89757 5.91653 8.78686C5.5491 8.6737 5.25131 8.54858 5.03175 8.41503C4.77711 8.25988 4.54666 8.11828 4.34682 7.99414C4.02727 7.79553 3.86148 7.72852 3.69018 7.72852C3.25387 7.72852 2.84624 7.79895 2.47843 7.93786C2.10946 8.07715 1.79004 8.26843 1.529 8.50659C1.27973 8.73412 1.05736 9.01037 0.868391 9.32762C0.686212 9.63341 0.538727 9.95238 0.430163 10.2757C0.32531 10.5884 0.237614 10.9303 0.169505 11.2921C0.102036 11.6507 0.0562028 11.9909 0.0335425 12.3034C0.0112662 12.6096 0 12.9273 0 13.2483C0 14.0834 0.278453 14.7596 0.827551 15.2582C1.36986 15.7503 2.08744 15.9999 2.96006 15.9999H11.0399C11.9126 15.9999 12.6299 15.7504 13.1723 15.2582C13.7215 14.76 14 14.0837 14 13.2481C13.9999 12.9257 13.9885 12.6078 13.9661 12.3031Z" fill="#2B587A"/>
</svg>
