<svg width="20" height="20" viewBox="0 0 20 20" fill="none" xmlns="http://www.w3.org/2000/svg">
<g clip-path="url(#clip0)">
<path d="M6.95734 15.3086C6.95241 15.2836 6.94521 15.259 6.93573 15.2352C6.92625 15.2118 6.91449 15.1891 6.90084 15.168C6.88719 15.1465 6.87127 15.1266 6.85382 15.1086C6.83638 15.0907 6.81704 15.0743 6.79619 15.0602C6.77571 15.0461 6.75372 15.034 6.73059 15.0243C6.70784 15.0145 6.68395 15.0067 6.65968 15.002C6.61076 14.9918 6.56033 14.9918 6.51179 15.002C6.48752 15.0067 6.46364 15.0145 6.4405 15.0243C6.41775 15.034 6.39576 15.0461 6.37528 15.0602C6.35443 15.0743 6.33509 15.0907 6.31765 15.1086C6.3002 15.1266 6.28428 15.1465 6.27063 15.168C6.2566 15.1891 6.24522 15.2118 6.23574 15.2352C6.22626 15.259 6.21868 15.2836 6.21413 15.3086C6.2092 15.3336 6.20654 15.3594 6.20654 15.3848C6.20654 15.4102 6.2092 15.436 6.21413 15.461C6.21868 15.486 6.22626 15.5106 6.23574 15.534C6.24522 15.5579 6.2566 15.5805 6.27063 15.6016C6.28428 15.6231 6.3002 15.643 6.31765 15.661C6.33509 15.6789 6.35443 15.6954 6.37528 15.7094C6.39576 15.7235 6.41775 15.7356 6.4405 15.7454C6.46364 15.7552 6.48752 15.763 6.51179 15.7677C6.53606 15.7727 6.56109 15.7755 6.58574 15.7755C6.61038 15.7755 6.63541 15.7727 6.65968 15.7677C6.68395 15.763 6.70784 15.7552 6.73059 15.7454C6.75372 15.7356 6.77571 15.7235 6.79619 15.7094C6.81704 15.6954 6.83638 15.6789 6.85382 15.661C6.87127 15.643 6.88719 15.6231 6.90084 15.6016C6.91449 15.5805 6.92625 15.5579 6.93573 15.534C6.94521 15.5106 6.95241 15.486 6.95734 15.461C6.96227 15.436 6.96493 15.4102 6.96493 15.3848C6.96493 15.3594 6.96227 15.3336 6.95734 15.3086Z" fill="#2B587A"/>
<path d="M17.8566 15.4289C17.8552 15.425 17.8536 15.4211 17.852 15.4173C17.503 14.576 16.6845 14.265 15.7158 14.6058L13.0741 15.3584C12.9213 14.8819 12.5404 14.4765 12.0017 14.2705C11.9983 14.2693 11.995 14.268 11.9916 14.2669L9.08774 13.2516C8.84604 12.9297 8.08895 12.1062 6.67141 12.1062C5.68078 12.1062 4.80442 12.8063 4.30306 13.5694H0.793255C0.583827 13.5694 0.414062 13.7442 0.414062 13.96V18.8849C0.414062 19.1006 0.583827 19.2755 0.793255 19.2755H3.04782C3.25724 19.2755 3.42701 19.1006 3.42701 18.8849V18.5476H4.48431C4.69374 18.5476 4.8635 18.3727 4.8635 18.157V18.0446C5.47984 18.1 5.68256 18.2204 6.24862 18.5566C6.68393 18.8152 7.34186 19.206 8.52669 19.7548C8.53219 19.7574 8.53776 19.7598 8.54333 19.7621C8.77074 19.8542 9.21526 19.999 9.76331 19.999C10.1448 19.999 10.5765 19.9288 11.0196 19.7219L16.8588 17.5681C16.8692 17.5643 16.8795 17.56 16.8895 17.5552C17.4475 17.2907 18.2791 16.5453 17.8566 15.4289ZM2.66862 18.4942H1.17245V14.3506H2.66862V18.4942ZM4.10512 17.7663H3.42701V14.3506H4.10512V17.7663ZM16.5865 16.8387L10.7499 18.9915C10.7447 18.9934 10.7378 18.9962 10.7328 18.9983C10.7276 19.0004 10.7225 19.0027 10.7175 19.0051C9.9046 19.3899 9.13192 19.1595 8.82909 19.0382C7.68462 18.5077 7.07377 18.1449 6.62747 17.8798C6.00696 17.5112 5.70796 17.3335 4.8635 17.2617V14.1155C5.22294 13.5086 5.91997 12.8874 6.67145 12.8874C7.96017 12.8874 8.50625 13.7509 8.52771 13.7857C8.57401 13.8633 8.64518 13.9218 8.72887 13.951L11.7425 15.0047C12.2238 15.1908 12.4782 15.6154 12.3613 16.0389C12.3073 16.2344 12.1826 16.3966 12.0102 16.4955C11.8393 16.5936 11.6418 16.6179 11.4535 16.5642L8.05619 15.4551C7.85643 15.39 7.6434 15.5039 7.58015 15.7095C7.51686 15.9152 7.62743 16.1347 7.82708 16.1999L11.2303 17.3109C11.2339 17.3121 11.2375 17.3132 11.2411 17.3142C11.377 17.3541 11.5153 17.3737 11.6528 17.3737C11.9045 17.3737 12.1535 17.3077 12.3794 17.178C12.7287 16.9775 12.9814 16.6488 13.0907 16.2525C13.0994 16.2209 13.1072 16.1892 13.1139 16.1576L15.961 15.3451C16.3722 15.2004 16.912 15.1483 17.1523 15.7185C17.401 16.3879 16.7545 16.7561 16.5865 16.8387Z" fill="#2B587A"/>
<path d="M14.029 5.13823C14.0241 5.11323 14.0169 5.08862 14.007 5.06479C13.9975 5.04136 13.9862 5.0187 13.9721 4.99761C13.9585 4.97612 13.9426 4.9562 13.9251 4.93823C13.9077 4.92026 13.8883 4.90386 13.8675 4.88979C13.847 4.87573 13.825 4.86362 13.8023 4.85386C13.7791 4.84409 13.7552 4.83628 13.7313 4.83159C13.6824 4.82144 13.632 4.82144 13.5831 4.83159C13.5588 4.83628 13.5349 4.84409 13.5122 4.85386C13.489 4.86362 13.467 4.87573 13.4466 4.88979C13.4257 4.90386 13.4064 4.92026 13.3889 4.93823C13.3715 4.9562 13.3556 4.97612 13.3419 4.99761C13.3283 5.0187 13.3165 5.04136 13.307 5.06479C13.2975 5.08862 13.29 5.11323 13.2854 5.13823C13.2805 5.16323 13.2778 5.18901 13.2778 5.2144C13.2778 5.23979 13.2805 5.26558 13.2854 5.29058C13.29 5.31558 13.2975 5.34018 13.307 5.36362C13.3165 5.38745 13.3283 5.41011 13.3419 5.4312C13.3556 5.45268 13.3715 5.47261 13.3889 5.49058C13.4064 5.50854 13.4257 5.52495 13.4466 5.53901C13.467 5.55307 13.489 5.56518 13.5122 5.57495C13.5349 5.58472 13.5588 5.59214 13.5831 5.59722C13.6073 5.60229 13.6324 5.60503 13.657 5.60503C13.6817 5.60503 13.7067 5.60229 13.7313 5.59722C13.7552 5.59214 13.7791 5.58472 13.8023 5.57495C13.825 5.56518 13.847 5.55307 13.8675 5.53901C13.8883 5.52495 13.9077 5.50854 13.9251 5.49058C13.9426 5.47261 13.9585 5.45268 13.9721 5.4312C13.9862 5.41011 13.9975 5.38745 14.007 5.36362C14.0169 5.34018 14.0241 5.31558 14.029 5.29058C14.0339 5.26558 14.0362 5.23979 14.0362 5.2144C14.0362 5.18901 14.0339 5.16323 14.029 5.13823Z" fill="#2B587A"/>
<path d="M19.4501 1.32394H17.1956C16.9861 1.32394 16.8164 1.49882 16.8164 1.71456V2.05183H15.7591C15.5496 2.05183 15.3799 2.22671 15.3799 2.44245V2.55487C14.7635 2.49944 14.5608 2.37905 13.9948 2.0428C13.5595 1.78421 12.9015 1.39339 11.7167 0.8446C11.7112 0.842021 11.7057 0.839639 11.7 0.837373C11.3143 0.681045 10.3035 0.373467 9.22392 0.87749L7.69805 1.4403L6.41187 0.115381C6.26379 -0.0371582 6.02369 -0.0371582 5.87561 0.115381L1.65301 4.46526C1.51642 4.60601 1.49022 4.85003 1.65301 5.01772L8.86854 12.4508C8.984 12.5698 9.25437 12.6058 9.40483 12.4508L13.2599 8.47956C13.3601 8.48847 13.4641 8.49327 13.5719 8.49327C14.5626 8.49327 15.4389 7.79319 15.9402 7.03015H19.4501C19.6595 7.03015 19.8293 6.85526 19.8293 6.63952V1.71456C19.8293 1.49882 19.6595 1.32394 19.4501 1.32394ZM6.1437 0.944014L7.00796 1.83433C6.75105 1.998 6.45403 2.08558 6.1437 2.08558C5.83333 2.08558 5.53635 1.99804 5.27945 1.83433L6.1437 0.944014ZM3.32168 5.63183L2.45742 4.74147L3.32168 3.85116C3.48056 4.11581 3.56558 4.42179 3.56558 4.74147C3.56558 5.06116 3.4806 5.36714 3.32168 5.63183ZM9.1367 11.6221L8.2726 10.732C8.80017 10.3966 9.47316 10.3966 10.0008 10.732L9.1367 11.6221ZM10.5471 10.1692C9.70917 9.54308 8.56424 9.54308 7.7263 10.1692L3.86798 6.19456C4.16409 5.77503 4.32396 5.27108 4.32396 4.74147C4.32396 4.21183 4.16413 3.70792 3.86798 3.28839L4.73318 2.39714C5.14044 2.70218 5.62959 2.86687 6.14374 2.86687C6.65789 2.86687 7.14704 2.70218 7.5543 2.39714L8.37445 3.24202C8.19748 3.26894 8.02491 3.32901 7.86398 3.4214C7.59218 3.57741 7.37892 3.81104 7.24613 4.0937C6.8184 4.1753 6.42241 4.38862 6.11177 4.70858C5.26902 5.57679 5.26902 6.9894 6.11181 7.85761C6.53317 8.29167 7.08668 8.50874 7.64022 8.50874C8.19373 8.50874 8.74727 8.29171 9.16867 7.85761C9.44282 7.57519 9.63488 7.22808 9.73109 6.84979L11.0114 7.29741C10.8673 7.98522 11.0149 8.70882 11.4131 9.27718L10.5471 10.1692ZM8.2417 6.3289C8.24503 6.33015 8.24837 6.3314 8.25174 6.33257L9.00998 6.59769C8.95272 6.8639 8.82315 7.10866 8.63242 7.30519C8.08532 7.8687 7.19513 7.86878 6.6481 7.30519C6.101 6.74163 6.101 5.82464 6.6481 5.26104C6.78006 5.12503 6.9358 5.01874 7.10548 4.94667C7.17548 5.54675 7.59491 6.08163 8.2417 6.3289ZM11.9594 8.71429C11.8131 8.46858 11.7303 8.18815 11.7172 7.90194C11.8988 8.03722 12.1208 8.16976 12.3859 8.27495L11.9594 8.71429ZM15.3798 6.48378C15.0204 7.09073 14.3234 7.71194 13.5719 7.71194C13.4313 7.71194 13.2996 7.70163 13.1764 7.68327C13.1759 7.68319 13.1754 7.68312 13.1749 7.68304C12.356 7.5605 11.9155 7.08104 11.7703 6.8912C11.7625 6.87948 11.7296 6.83507 11.7247 6.82769C11.6805 6.74636 11.6081 6.68097 11.5157 6.64866L8.50084 5.59456C8.01972 5.40854 7.76539 4.98413 7.88196 4.56085C7.88203 4.56058 7.88211 4.5603 7.88218 4.56003C7.8823 4.55972 7.88237 4.55937 7.88245 4.55905C7.93664 4.36413 8.06109 4.20245 8.23309 4.10374C8.40395 4.00565 8.60147 3.98132 8.78986 4.03511L12.1872 5.14413C12.3868 5.2094 12.5999 5.09542 12.6632 4.88976C12.7264 4.68409 12.6159 4.46456 12.4163 4.39937L9.71433 3.51733L9.69074 3.49304C9.69051 3.4928 9.69029 3.49253 9.69002 3.4923L8.29118 2.05128L9.49352 1.60776C9.49758 1.60624 9.50258 1.60433 9.5066 1.60265C9.50763 1.60222 9.5096 1.60144 9.51059 1.60101C9.51574 1.59886 9.52082 1.59659 9.52587 1.59421C10.3387 1.20937 11.1113 1.43972 11.4142 1.56104C12.5587 2.09155 13.1696 2.4544 13.6159 2.71952C14.2364 3.08815 14.5354 3.26577 15.3798 3.33761V6.48378ZM16.8164 6.24882H16.1383V2.83308H16.8164V6.24882ZM19.0709 6.24882H17.5748V2.10519H19.0709V6.24882Z" fill="#2B587A"/>
</g>
<defs>
<clipPath id="clip0">
<rect width="19.4146" height="20" fill="white" transform="translate(0.414062)"/>
</clipPath>
</defs>
</svg>
