<svg width="50" height="50" viewBox="0 0 50 50" fill="none" xmlns="http://www.w3.org/2000/svg">
<path d="M39.0343 20.4992C37.8068 20.4992 36.8248 20.8266 36.0065 20.9902L35.761 22.8724C36.1701 22.7087 37.3158 22.3814 38.2978 22.2995C39.2798 22.2995 39.8526 22.4632 39.689 23.3634C36.743 23.3634 34.779 23.9362 34.3698 25.9002C33.797 29.1735 37.3976 29.2553 38.7888 27.7823L38.6251 28.6825H41.2438L42.3895 23.3634C42.7986 21.1539 40.8346 20.4174 39.0343 20.4992ZM39.198 25.982C39.0343 26.6367 38.4615 26.8822 37.8068 26.964C37.234 26.964 36.743 26.6367 37.0703 25.982C37.3976 25.491 38.1341 25.491 38.707 25.491C38.8706 25.491 39.1161 25.491 39.3616 25.491C39.2798 25.4092 39.198 25.7365 39.198 25.982Z" fill="#32A6CE"/>
<path d="M35.761 22.8724C36.1701 22.7087 37.3158 22.3814 38.2978 22.2995C39.2798 22.2995 39.8526 22.4632 39.6889 23.3634C36.743 23.3634 34.779 23.9362 34.3698 25.9002C33.797 29.1735 37.3976 29.2553 38.7888 27.7824L38.6251 28.6825H41.2438L42.3894 23.3634C42.8804 21.1539 40.8346 20.5811 39.0343 20.5811L35.761 22.8724ZM39.198 25.982C39.0343 26.6367 38.4615 26.8822 37.8068 26.964C37.234 26.964 36.743 26.6367 37.0703 25.982C37.3976 25.491 38.1341 25.491 38.707 25.491C38.8706 25.491 39.1161 25.491 39.3616 25.491C39.2798 25.4092 39.198 25.7365 39.198 25.982Z" fill="#1A80AD"/>
<path d="M44.5984 18.0442L42.4707 28.6825H45.0894L47.2988 18.0442H44.5984Z" fill="#32A6CE"/>
<path d="M46.4805 18.0442L42.4707 28.6825H45.0894L47.2988 18.0442H44.5984H46.4805Z" fill="#1A80AD"/>
<path d="M32.405 18.0442H27.5769L25.4492 28.6825H28.3134L29.0499 25.4092H31.0957C33.0597 25.4092 34.6964 24.2635 35.1055 22.2177C35.5147 19.8445 33.7962 18.0442 32.405 18.0442ZM32.3232 21.7267C32.1595 22.4632 31.423 22.9542 30.6865 22.9542H29.3772L29.95 20.4992H31.3412C32.0777 20.4992 32.4869 20.9902 32.3232 21.7267Z" fill="#32A6CE"/>
<path d="M32.4068 18.0442H29.1335L25.3691 28.6825H28.2333L28.9698 25.4092H31.0156C32.9796 25.4092 34.6163 24.2635 35.0254 22.2177C35.5164 19.8445 33.7979 18.0442 32.4068 18.0442ZM32.3249 21.7267C32.1613 22.4632 31.4248 22.9542 30.6883 22.9542H29.379L29.9518 20.4992H31.3429C32.0794 20.4992 32.4886 20.9902 32.3249 21.7267Z" fill="#1A80AD"/>
<path d="M13.5027 20.4992C12.2752 20.4992 11.2932 20.8266 10.5568 20.9902L10.3113 22.8724C10.6386 22.7087 11.8661 22.3814 12.8481 22.2995C13.8301 22.2995 14.4029 22.4632 14.2392 23.3634C11.3751 23.3634 9.41109 23.9362 9.00192 25.9002C8.42909 29.1735 11.9479 29.2553 13.3391 27.7823L13.1754 28.6825H15.7941L16.9397 23.3634C17.3489 21.1539 15.3031 20.4174 13.5027 20.4992ZM13.7482 25.982C13.5846 26.6367 13.0117 26.8822 12.3571 26.964C11.7842 26.964 11.2932 26.6367 11.7024 25.982C12.0297 25.491 12.7662 25.491 13.2572 25.491C13.5027 25.491 13.6664 25.491 13.9119 25.491C13.8301 25.4092 13.7482 25.7365 13.7482 25.982Z" fill="#21789E"/>
<path d="M10.3933 22.8724C10.7206 22.7087 11.9481 22.3814 12.9301 22.2995C13.9121 22.2995 14.4849 22.4632 14.3213 23.3634C11.4571 23.3634 9.49312 23.9362 9.08396 25.9002C8.51112 29.1735 12.0299 29.2553 13.4211 27.7824L13.1756 28.6825H15.7943L16.9399 23.3634C17.4309 21.1539 15.3851 20.5811 13.5848 20.5811L10.3933 22.8724ZM13.7484 25.982C13.5848 26.6367 13.0119 26.8822 12.3573 26.964C11.7844 26.964 11.2934 26.6367 11.7026 25.982C12.0299 25.491 12.7664 25.491 13.2574 25.491C13.5029 25.491 13.6666 25.491 13.9121 25.491C13.8303 25.4092 13.7484 25.7365 13.7484 25.982Z" fill="#1A5B80"/>
<path d="M18.0039 20.4993H20.6225L21.0317 25.0819L23.6504 20.4993H26.3508L20.1315 31.9559H17.1855L19.0677 28.5189L18.0039 20.4993Z" fill="#21789E"/>
<path d="M20.6225 20.6629L21.0317 25.1638L23.6504 20.4993H26.3508L20.1315 31.9559H17.1855L19.0677 28.6007" fill="#1A5B80"/>
<path d="M7.03764 18.0442H2.12766L0 28.6825H2.86416L3.60065 25.4092H5.64648C7.61047 25.4092 9.24714 24.2635 9.6563 22.2177C10.1473 19.8445 8.42881 18.0442 7.03764 18.0442ZM6.95581 21.7267C6.79214 22.4632 6.05565 22.9542 5.31915 22.9542H4.00982L4.58265 20.4992H5.97381C6.71031 20.4992 7.11948 20.9902 6.95581 21.7267Z" fill="#21789E"/>
<path d="M7.03764 18.0442H4.82815L0 28.6825H2.86416L3.60065 25.4092H5.64648C7.61047 25.4092 9.24714 24.2635 9.6563 22.2177C10.1473 19.8445 8.42881 18.0442 7.03764 18.0442ZM6.95581 21.7267C6.79214 22.4632 6.05565 22.9542 5.31915 22.9542H4.00982L4.58265 20.4992H5.97381C6.71031 20.4992 7.11948 20.9902 6.95581 21.7267Z" fill="#1A5B80"/>
<path d="M13.0117 23.3635C10.8023 23.5272 9.32926 24.1819 9.00192 25.8185C8.42909 29.0918 11.9479 29.1737 13.3391 27.7007L13.1754 28.6827H15.7941L16.2032 26.7187L13.0117 23.3635ZM13.7482 25.9822C13.5846 26.6368 13.0117 26.8823 12.3571 26.9642C11.7842 26.9642 11.2933 26.6368 11.7024 25.9822C12.0297 25.4912 12.7662 25.4912 13.2572 25.4912C13.5027 25.4912 13.6664 25.4912 13.9119 25.4912C13.8301 25.4094 13.7482 25.7367 13.7482 25.9822Z" fill="#06435E"/>
<path d="M21.1949 25.0001L21.0312 25.2456L22.7497 26.8822L26.3504 20.4993H23.6499L21.1949 25.0001Z" fill="#06435E"/>
<path d="M2.86475 28.6825L3.60125 25.4092L0.246094 28.6825H2.86475Z" fill="#06435E"/>
<path d="M28.232 28.6828L28.9685 25.2458V25.3277L25.6133 28.6828H28.232Z" fill="#2273AA"/>
<path d="M38.4617 23.3635C36.2522 23.5272 34.7792 24.1819 34.4518 25.8185C33.879 29.0918 37.4797 29.1737 38.8708 27.7007L38.6253 28.6827H41.244L41.6531 26.7187L38.4617 23.3635ZM39.1982 25.9822C39.0345 26.6368 38.4617 26.8823 37.807 26.9642C37.2342 26.9642 36.7432 26.6368 37.0705 25.9822C37.3978 25.4912 38.1343 25.4912 38.7072 25.4912C38.8708 25.4912 39.1163 25.4912 39.3618 25.4912C39.28 25.4093 39.1982 25.7367 39.1982 25.9822Z" fill="#2273AA"/>
<path d="M44.3529 23.8545L42.4707 28.6827H45.0894L45.8259 25.4093L44.3529 23.8545Z" fill="#2273AA"/>
<path d="M47.8721 19.7625V18.6168H47.4629V18.4531H48.5267V18.6168H48.1175V19.7625H47.8721Z" fill="#32A6CE"/>
<path d="M48.6895 19.7625V18.4532H48.935L49.2623 19.3533C49.2623 19.4352 49.3441 19.517 49.3441 19.517C49.3441 19.4352 49.3441 19.4352 49.426 19.2715L49.7533 18.3713H49.9988V19.6807H49.8351V18.535L49.426 19.6807H49.1805L48.7713 18.535V19.6807H48.6895V19.7625Z" fill="#32A6CE"/>
</svg>
