<svg width="60" height="60" viewBox="0 0 60 60" fill="none" xmlns="http://www.w3.org/2000/svg">
<g clip-path="url(#clip0)">
<path d="M47.6714 16.6766C47.714 17.1601 48.14 17.5177 48.624 17.4751C49.159 17.4281 49.6901 17.3775 50.2025 17.3246C50.493 17.2947 50.7499 17.1222 50.8876 16.8647C51.4044 15.8979 52.4054 15.2972 53.4999 15.2972C56.5726 15.33 57.588 19.3974 54.8921 20.868C54.6344 21.0057 54.4619 21.2625 54.4319 21.5532C54.0815 24.9545 53.8616 28.7841 53.7783 32.936C53.7684 33.4212 54.154 33.8226 54.6393 33.8323C55.1226 33.8426 55.5265 33.4569 55.5356 32.9712C55.6145 29.0441 55.8165 25.4123 56.1368 22.1681C57.4313 21.2962 58.2177 19.8378 58.2177 18.2565C58.1853 13.6115 52.1939 11.7951 49.5879 15.62C49.2208 15.6562 48.8465 15.691 48.47 15.7242C47.9864 15.7666 47.629 16.1931 47.6714 16.6766Z" fill="#222222"/>
<path d="M56.1364 51.3714C55.7129 47.0804 55.4982 42.1706 55.4982 36.7696C55.459 35.6082 53.781 35.6047 53.7404 36.7696C53.7404 42.4137 53.973 47.5333 54.4317 51.9862C54.4617 52.2768 54.6342 52.5336 54.8919 52.6714C55.8589 53.1879 56.4596 54.1887 56.4596 55.283C56.4266 58.3553 52.3581 59.3699 50.8874 56.6747C50.7497 56.417 50.4929 56.2446 50.2023 56.2148C44.3184 55.5839 36.0295 55.3904 29.2914 55.6082C28.8061 55.6231 28.4249 56.0286 28.4399 56.5137C28.4548 56.9989 28.8559 57.3787 29.3454 57.3652C35.8604 57.1553 43.8579 57.3317 49.5875 57.9194C50.4598 59.2138 51.9183 60 53.4997 60C58.1452 59.9677 59.9624 53.9772 56.1364 51.3714Z" fill="#222222"/>
<path d="M25.2227 55.7853C23.3024 55.895 21.4655 56.0395 19.7632 56.2148C19.4727 56.2447 19.2158 56.4172 19.0781 56.6748C18.5613 57.6416 17.5603 58.2423 16.4658 58.2423C13.3931 58.2093 12.3778 54.1419 15.0737 52.6714C15.3314 52.5337 15.5039 52.277 15.5338 51.9862C15.6864 50.5046 15.8161 48.9155 15.9193 47.2626C15.9496 46.7782 15.5814 46.3609 15.0969 46.3307C14.6125 46.2998 14.1952 46.6686 14.1649 47.1531C14.0732 48.6218 13.9603 50.0385 13.8289 51.3715C12.5344 52.2434 11.748 53.7017 11.748 55.2831C11.7805 59.9282 17.7717 61.7446 20.3777 57.9196C21.9305 57.7665 23.5916 57.6391 25.3228 57.5402C25.8075 57.5126 26.1778 57.0973 26.1503 56.6126C26.1226 56.128 25.7087 55.7576 25.2227 55.7853Z" fill="#222222"/>
<path d="M39.622 44.38C40.494 45.6743 41.9526 46.4605 43.5341 46.4605C48.1796 46.4282 49.9967 40.4377 46.1708 37.8319C45.3207 29.4993 45.3207 16.9611 46.1708 8.62852C47.4655 7.75664 48.2518 6.29824 48.2518 4.71691C48.2193 0.0718358 42.228 -1.74445 39.6219 2.08043C33.3532 2.72332 24.4877 2.87063 17.5423 2.56793C16.3786 2.55703 16.3077 4.23574 17.4682 4.3241C24.6397 4.63746 33.8074 4.4741 40.2366 3.78516C40.5271 3.75527 40.784 3.58289 40.9217 3.3252C41.4385 2.3584 42.4394 1.75781 43.5341 1.75781C46.6067 1.79062 47.6221 5.85809 44.9262 7.32867C44.6686 7.46637 44.4961 7.72313 44.466 8.01387C43.5453 16.6529 43.5453 29.8078 44.466 38.4469C44.4961 38.7375 44.6686 38.9943 44.9262 39.1321C45.8933 39.6488 46.494 40.6494 46.494 41.7437C46.4609 44.816 42.3923 45.8306 40.9217 43.1353C40.784 42.8776 40.5273 42.7052 40.2366 42.6754C31.5945 41.7546 18.4407 41.7546 9.79836 42.6754C9.50773 42.7052 9.25098 42.8777 9.11316 43.1353C8.59648 44.1021 7.59547 44.7028 6.50082 44.7028C3.42816 44.67 2.41273 40.6024 5.10875 39.132C5.36645 38.9943 5.53895 38.7375 5.56883 38.4468C6.48969 29.8062 6.48969 16.654 5.56883 8.01375C5.53895 7.72313 5.36645 7.46637 5.10875 7.32855C4.14172 6.81187 3.54102 5.81121 3.54102 4.71691C3.57395 1.64473 7.64281 0.63 9.11316 3.3252C9.25086 3.58289 9.50762 3.75527 9.79824 3.78516C10.9541 3.90422 12.182 4.00992 13.4476 4.09934C14.6103 4.13953 14.7294 2.46844 13.5714 2.34586C12.4821 2.26898 11.4219 2.1798 10.413 2.08043C9.54113 0.786094 8.0825 0 6.50094 0C1.85551 0.0323437 0.0383985 6.02285 3.86422 8.62863C4.71441 16.9623 4.71441 29.498 3.86422 37.832C2.56965 38.7039 1.7832 40.1623 1.7832 41.7436C1.81555 46.3887 7.80711 48.205 10.413 44.38C18.7489 43.53 31.2863 43.53 39.622 44.38Z" fill="#222222"/>
<path d="M39.1793 14.6849C38.9147 14.2778 38.3704 14.1623 37.9634 14.4268C36.54 15.3518 35.812 14.9712 33.915 13.7339C28.76 9.90466 21.2603 9.91533 16.1211 13.7339C14.2243 14.971 13.4959 15.3518 12.0727 14.4268C11.6657 14.1623 11.1214 14.2778 10.8569 14.6849C10.5924 15.0919 10.7079 15.6363 11.1149 15.9007C13.5705 17.4967 15.2758 16.3841 17.0814 15.2061C21.725 11.7539 28.3181 11.7585 32.9548 15.2061C34.929 16.5594 36.7084 17.3829 38.9213 15.9006C39.3282 15.6362 39.4438 15.0919 39.1793 14.6849Z" fill="#222222"/>
<path d="M10.8569 31.7759C11.1214 32.183 11.666 32.2984 12.0727 32.034C13.4961 31.1091 14.2243 31.4896 16.1211 32.7269C19.3938 35.1543 24.7415 36.629 30.0078 34.7848C30.4651 34.6224 30.7043 34.1199 30.5418 33.6624C30.3793 33.2049 29.8769 32.9658 29.4194 33.1284C24.7003 34.7448 20.0953 33.4728 17.0816 31.2545C15.2759 30.0768 13.5705 28.964 11.115 30.5601C10.7078 30.8246 10.5924 31.3689 10.8569 31.7759Z" fill="#222222"/>
<path d="M32.421 32.6484C32.6869 33.0591 33.2352 33.1695 33.6367 32.9074L33.9139 32.7268C35.8106 31.4895 36.5389 31.1087 37.9623 32.0338C38.3692 32.2983 38.9136 32.183 39.1781 31.7758C39.4427 31.3688 39.3272 30.8244 38.9202 30.5599C36.4649 28.9642 34.7592 30.0766 32.9536 31.2545L32.6799 31.4326C32.2727 31.6969 32.1568 32.2412 32.421 32.6484Z" fill="#222222"/>
<path d="M25.8959 23.2302C25.8959 22.7448 25.5024 22.3513 25.017 22.3513C23.8536 22.3915 23.8538 24.0692 25.017 24.1091C25.5024 24.1091 25.8959 23.7157 25.8959 23.2302Z" fill="#222222"/>
<path d="M20.3139 23.2302C20.3139 22.7448 19.9204 22.3513 19.435 22.3513C18.2716 22.3915 18.2718 24.0692 19.435 24.1091C19.9205 24.1091 20.3139 23.7157 20.3139 23.2302Z" fill="#222222"/>
<path d="M14.7319 23.2302C14.7319 22.7448 14.3383 22.3513 13.853 22.3513C12.6895 22.3915 12.6898 24.0692 13.853 24.1091C14.3383 24.1091 14.7319 23.7157 14.7319 23.2302Z" fill="#222222"/>
<path d="M31.478 23.2302C31.478 22.7448 31.0844 22.3513 30.5991 22.3513C29.4356 22.3915 29.4358 24.0692 30.5991 24.1091C31.0844 24.1091 31.478 23.7157 31.478 23.2302Z" fill="#222222"/>
<path d="M37.06 23.2302C37.06 22.7448 36.6665 22.3513 36.1811 22.3513C35.0176 22.3915 35.0179 24.0692 36.1811 24.1091C36.6665 24.1091 37.06 23.7157 37.06 23.2302Z" fill="#222222"/>
<path d="M22.2266 17.8049C21.7412 17.8049 21.3477 18.1984 21.3477 18.6838C21.3879 19.8473 23.0655 19.847 23.1055 18.6838C23.1055 18.1984 22.712 17.8049 22.2266 17.8049Z" fill="#222222"/>
<path d="M16.6445 17.8049C16.1591 17.8049 15.7656 18.1984 15.7656 18.6838C15.8058 19.8473 17.4835 19.847 17.5234 18.6838C17.5234 18.1984 17.1299 17.8049 16.6445 17.8049Z" fill="#222222"/>
<path d="M27.8066 17.8049C27.3212 17.8049 26.9277 18.1984 26.9277 18.6838C26.9679 19.8473 28.6456 19.847 28.6855 18.6838C28.6855 18.1984 28.292 17.8049 27.8066 17.8049Z" fill="#222222"/>
<path d="M33.3906 17.8049C32.9052 17.8049 32.5117 18.1984 32.5117 18.6838C32.5519 19.8473 34.2296 19.847 34.2695 18.6838C34.2695 18.1984 33.8761 17.8049 33.3906 17.8049Z" fill="#222222"/>
<path d="M21.3477 27.7522C21.3477 28.2376 21.7412 28.6311 22.2266 28.6311C23.39 28.5909 23.3898 26.9134 22.2266 26.8733C21.7412 26.8733 21.3477 27.2668 21.3477 27.7522Z" fill="#222222"/>
<path d="M15.7656 27.7522C15.7656 28.2376 16.1591 28.6311 16.6445 28.6311C17.808 28.5909 17.8077 26.9134 16.6445 26.8733C16.1591 26.8733 15.7656 27.2668 15.7656 27.7522Z" fill="#222222"/>
<path d="M26.9297 27.7522C26.9297 28.2376 27.3232 28.6311 27.8086 28.6311C28.972 28.5909 28.9718 26.9134 27.8086 26.8733C27.3232 26.8733 26.9297 27.2668 26.9297 27.7522Z" fill="#222222"/>
<path d="M32.5117 27.7522C32.5117 28.2376 32.9052 28.6311 33.3906 28.6311C34.5541 28.5909 34.5538 26.9134 33.3906 26.8733C32.9052 26.8733 32.5117 27.2668 32.5117 27.7522Z" fill="#222222"/>
</g>
<defs>
<clipPath id="clip0">
<rect width="60" height="60" fill="white"/>
</clipPath>
</defs>
</svg>
