<svg width="16" height="16" viewBox="0 0 16 16" fill="none" xmlns="http://www.w3.org/2000/svg">
<path d="M14.7896 4.66162L12 1.8667V13.0667H15.7333V6.93094C15.7333 6.07895 15.3936 5.26215 14.7896 4.66162Z" fill="white"/>
<path d="M2.446 11.0257L0.337205 5.55099C0.125473 5.0014 0.39935 4.38405 0.949202 4.17232L10.9031 0.338182C11.4527 0.12645 12.07 0.400326 12.2817 0.950178L14.3905 6.42484C14.6023 6.97443 14.3284 7.59178 13.7785 7.80351L3.82493 11.6376C3.27505 11.8494 2.65799 11.5752 2.446 11.0257Z" fill="white"/>
<path d="M13.0424 2.92285L1.10742 7.54899L1.9021 9.61193L13.8376 4.98792L13.0424 2.92285Z" fill="white"/>
<path d="M0.267578 7.19995V1.33327C0.267578 0.744205 0.745182 0.266602 1.33424 0.266602H12.0009C12.59 0.266602 13.0676 0.744205 13.0676 1.33327V7.19993C13.0676 7.78899 12.59 8.26659 12.0009 8.26659H1.33424C0.745182 8.26662 0.267578 7.78901 0.267578 7.19995Z" fill="white"/>
<path d="M12.0005 0.266602H10.8672L2.86719 8.26662H12.0005C12.5896 8.26662 13.0672 7.78901 13.0672 7.19995V1.33327C13.0672 0.744205 12.5896 0.266602 12.0005 0.266602Z" fill="#FA7272"/>
<path d="M2.40065 4.5332H1.33398V5.06655H2.40065V4.5332Z" fill="#FA7272"/>
<path d="M2.40065 6.1333H1.33398V6.66665H2.40065V6.1333Z" fill="#FA7272"/>
<path d="M7.19948 6.1333H6.13281V6.66665H7.19948V6.1333Z" fill="#FA7272"/>
<path d="M4.00026 4.5332H2.93359V5.06655H4.00026V4.5332Z" fill="#FA7272"/>
<path d="M5.59987 4.5332H4.5332V5.06655H5.59987V4.5332Z" fill="#FA7272"/>
<path d="M7.19948 4.5332H6.13281V5.06655H7.19948V4.5332Z" fill="#FA7272"/>
<path d="M11.7326 1.3335H11.1992V2.1335H11.7326V1.3335Z" fill="#FA7272"/>
<path d="M10.6662 1.3335H10.1328V2.1335H10.6662V1.3335Z" fill="#FA7272"/>
<path d="M9.59975 1.3335H9.06641V2.1335H9.59975V1.3335Z" fill="#FA7272"/>
<path d="M8.53334 1.3335H8V2.1335H8.53334V1.3335Z" fill="#FA7272"/>
<path d="M15.7336 13.0669H10.9336V15.7336H15.7336V13.0669Z" fill="white"/>
<path d="M10.1498 5.08421C9.69747 4.63353 8.96549 4.63487 8.51481 5.08715C8.07907 5.5245 8.06387 6.22716 8.48041 6.68288L10.6657 9.06688C10.009 10.2165 10.037 11.6341 10.7385 12.7568L10.9324 13.0669H14.3991V9.33354L10.1498 5.08421Z" fill="white"/>
<path d="M12.2658 13.8667H11.7324V14.4H12.2658V13.8667Z" fill="#6B962A"/>
<path d="M1.33398 3.04016V1.76016C1.33398 1.52442 1.52491 1.3335 1.76065 1.3335H3.04065C3.27639 1.3335 3.46731 1.52442 3.46731 1.76016V3.04016C3.46731 3.2759 3.27639 3.46682 3.04065 3.46682H1.76068C1.52493 3.46682 1.33398 3.27587 1.33398 3.04016Z" fill="white"/>
<path d="M2.13399 2.1333H1.33398V2.66665H2.13399V2.1333Z" fill="#AD7351"/>
<path d="M3.46602 2.1333H2.66602V2.66665H3.46602V2.1333Z" fill="#AD7351"/>
<path d="M14.1328 9.33346C14.0622 9.33346 13.9942 9.30546 13.9443 9.25534L12.8776 8.18868C12.7752 8.08281 12.7782 7.91401 12.8843 7.81161C12.9878 7.71189 13.1515 7.71189 13.2547 7.81161L14.3214 8.87827C14.4254 8.98254 14.4254 9.15133 14.3214 9.25534C14.2712 9.30546 14.2035 9.33346 14.1328 9.33346Z" fill="#F2A46F"/>
<path d="M13.3334 2.82508V1.33332C13.3325 0.597326 12.736 0.000787302 12 0H1.33332C0.597326 0.000787302 0.000787302 0.597326 0 1.33332V7.19998C0.00212572 7.88105 0.518123 8.45038 1.19573 8.51945L2.19812 11.1216C2.46292 11.8088 3.23439 12.1512 3.92158 11.8864L10.1813 9.47521C9.74877 10.6051 9.87172 11.8723 10.5136 12.8979L10.6667 13.1429V15.7333C10.6667 15.8805 10.7861 16 10.9333 16H15.7333C15.8805 16 16 15.8805 16 15.7333V6.93093C15.9976 6.00879 15.6304 5.12534 14.9784 4.47306L13.3334 2.82508ZM13.3334 4.41973L14.1427 6.5208C14.3014 6.93306 14.0958 7.39599 13.6835 7.55466L13.2208 7.73333C13.2947 7.56532 13.3331 7.38374 13.3334 7.19998V4.41973ZM0.533345 7.20001V1.33332C0.533345 0.891462 0.891488 0.533318 1.33335 0.533318H12C12.4419 0.533318 12.8 0.891462 12.8 1.33332V3.02825H12.7976L12.8 3.03439V7.20001C12.7979 7.24641 12.792 7.29281 12.7819 7.33815L10.3392 4.89521C9.77711 4.34614 8.87657 4.35654 8.3275 4.91867C7.80376 5.45467 7.78563 6.30479 8.28591 6.86268L9.32725 8.00001H1.33332C0.891462 8.00001 0.533345 7.64187 0.533345 7.20001ZM3.94961 8.53333L2.05334 9.26348L1.77279 8.53333H3.94961ZM3.72987 11.3888C3.31761 11.5477 2.85468 11.3421 2.69575 10.9299L2.24588 9.75997L5.42908 8.53331V8.53173H9.816L10.1627 8.90961L3.72987 11.3888ZM15.4667 15.4667H11.2V13.3334H15.4667V15.4667ZM15.4667 12.8H11.0813L10.9656 12.6152C10.3155 11.5763 10.2896 10.2637 10.8981 9.19999C10.9557 9.09919 10.9416 8.97307 10.8632 8.88746L8.67785 6.50346C8.34666 6.1408 8.37199 5.57838 8.73464 5.24692C9.08531 4.92665 9.62584 4.93838 9.9621 5.27359L14.2114 9.52187L14.5885 9.1448L13.6018 8.15813L13.8754 8.05145C14.5621 7.78665 14.9042 7.01573 14.64 6.32878L13.7373 3.98503L14.6013 4.85065C15.1533 5.40239 15.4645 6.15038 15.4666 6.93091L15.4667 12.8Z" fill="#FA7272"/>
<path d="M3.03973 3.73354C3.42267 3.73354 3.73305 3.42313 3.73305 3.04021V1.76022C3.73305 1.37728 3.42264 1.06689 3.03973 1.06689H1.75973C1.37679 1.06689 1.06641 1.3773 1.06641 1.76022V3.04021C1.06641 3.42316 1.37681 3.73354 1.75973 3.73354H3.03973ZM1.59972 3.04021V2.66688H2.13304V2.13353H1.59972V1.76022C1.59972 1.67196 1.67145 1.60021 1.75973 1.60021H3.03973C3.12798 1.60021 3.19973 1.67194 3.19973 1.76022V2.13353H2.66639V2.66688H3.19973V3.04021C3.19973 3.12847 3.12801 3.20022 3.03973 3.20022H1.75973C1.67145 3.20019 1.59972 3.12847 1.59972 3.04021Z" fill="#FA7272"/>
<path d="M2.40065 4.5332H1.33398V5.06655H2.40065V4.5332Z" fill="#FA7272"/>
<path d="M2.40065 6.1333H1.33398V6.66665H2.40065V6.1333Z" fill="#FA7272"/>
<path d="M7.19948 6.1333H6.13281V6.66665H7.19948V6.1333Z" fill="#FA7272"/>
<path d="M4.00026 4.5332H2.93359V5.06655H4.00026V4.5332Z" fill="#FA7272"/>
<path d="M5.59987 4.5332H4.5332V5.06655H5.59987V4.5332Z" fill="#FA7272"/>
<path d="M7.19948 4.5332H6.13281V5.06655H7.19948V4.5332Z" fill="#FA7272"/>
<path d="M11.7326 1.3335H11.1992V2.1335H11.7326V1.3335Z" fill="#FA7272"/>
<path d="M10.6662 1.3335H10.1328V2.1335H10.6662V1.3335Z" fill="#FA7272"/>
<path d="M9.59975 1.3335H9.06641V2.1335H9.59975V1.3335Z" fill="#FA7272"/>
<path d="M8.53334 1.3335H8V2.1335H8.53334V1.3335Z" fill="#FA7272"/>
<path d="M12.2658 13.8667H11.7324V14.4H12.2658V13.8667Z" fill="#FA7272"/>
</svg>
