<svg width="16" height="16" viewBox="0 0 16 16" fill="none" xmlns="http://www.w3.org/2000/svg">
<path d="M14.7896 4.66162L12 1.8667V13.0667H15.7333V6.93094C15.7333 6.07895 15.3936 5.26215 14.7896 4.66162Z" fill="white"/>
<path d="M2.44697 11.0259L0.338182 5.55123C0.12645 5.00164 0.400326 4.38429 0.950178 4.17256L10.904 0.338426C11.4536 0.126694 12.071 0.40057 12.2827 0.950422L14.3915 6.42508C14.6032 6.97467 14.3294 7.59202 13.7795 7.80375L3.82591 11.6379C3.27603 11.8496 2.65897 11.5755 2.44697 11.0259Z" fill="white"/>
<path d="M13.0429 2.92261L1.10791 7.54874L1.90259 9.61168L13.8381 4.98767L13.0429 2.92261Z" fill="white"/>
<path d="M0.266602 7.19995V1.33327C0.266602 0.744205 0.744205 0.266602 1.33326 0.266602H11.9999C12.589 0.266602 13.0666 0.744205 13.0666 1.33327V7.19993C13.0666 7.78899 12.589 8.26659 11.9999 8.26659H1.33326C0.744205 8.26662 0.266602 7.78901 0.266602 7.19995Z" fill="white"/>
<path d="M12 0.266602H10.8667L2.8667 8.26662H12C12.5891 8.26662 13.0667 7.78901 13.0667 7.19995V1.33327C13.0667 0.744205 12.5891 0.266602 12 0.266602Z" fill="#FA7272"/>
<path d="M2.40016 4.53345H1.3335V5.06679H2.40016V4.53345Z" fill="#FA7272"/>
<path d="M2.40016 6.1333H1.3335V6.66665H2.40016V6.1333Z" fill="#FA7272"/>
<path d="M7.19997 6.1333H6.1333V6.66665H7.19997V6.1333Z" fill="#FA7272"/>
<path d="M3.99977 4.53345H2.93311V5.06679H3.99977V4.53345Z" fill="#FA7272"/>
<path d="M5.59987 4.53345H4.5332V5.06679H5.59987V4.53345Z" fill="#FA7272"/>
<path d="M7.19997 4.53345H6.1333V5.06679H7.19997V4.53345Z" fill="#FA7272"/>
<path d="M11.7335 1.33325H11.2002V2.13326H11.7335V1.33325Z" fill="#FA7272"/>
<path d="M10.6666 1.33325H10.1333V2.13326H10.6666V1.33325Z" fill="#FA7272"/>
<path d="M9.60024 1.33325H9.06689V2.13326H9.60024V1.33325Z" fill="#FA7272"/>
<path d="M8.53334 1.33325H8V2.13326H8.53334V1.33325Z" fill="#FA7272"/>
<path d="M15.7331 13.0667H10.9331V15.7333H15.7331V13.0667Z" fill="white"/>
<path d="M10.1507 5.08397C9.69845 4.63329 8.96647 4.63463 8.51579 5.08691C8.08004 5.52425 8.06485 6.22692 8.48138 6.68264L10.6667 9.06664C10.0099 10.2162 10.0379 11.6338 10.7395 12.7565L10.9334 13.0667H14.4001V9.3333L10.1507 5.08397Z" fill="white"/>
<path d="M12.2667 13.8667H11.7334V14.4H12.2667V13.8667Z" fill="#6B962A"/>
<path d="M1.3335 3.03991V1.75992C1.3335 1.52417 1.52442 1.33325 1.76016 1.33325H3.04016C3.2759 1.33325 3.46682 1.52417 3.46682 1.75992V3.03991C3.46682 3.27566 3.2759 3.46658 3.04016 3.46658H1.76019C1.52444 3.46658 1.3335 3.27563 1.3335 3.03991Z" fill="white"/>
<path d="M2.1335 2.1333H1.3335V2.66665H2.1335V2.1333Z" fill="#AD7351"/>
<path d="M3.46651 2.1333H2.6665V2.66665H3.46651V2.1333Z" fill="#AD7351"/>
<path d="M14.1333 9.33322C14.0627 9.33322 13.9947 9.30522 13.9448 9.25509L12.8781 8.18843C12.7757 8.08257 12.7787 7.91377 12.8848 7.81137C12.9883 7.71164 13.152 7.71164 13.2552 7.81137L14.3219 8.87803C14.4259 8.98229 14.4259 9.15109 14.3219 9.25509C14.2717 9.30522 14.204 9.33322 14.1333 9.33322Z" fill="#F2A46F"/>
<path d="M13.3334 2.82508V1.33332C13.3325 0.597326 12.736 0.000787302 12 0H1.33332C0.597326 0.000787302 0.000787302 0.597326 0 1.33332V7.19998C0.00212572 7.88105 0.518123 8.45038 1.19573 8.51945L2.19812 11.1216C2.46292 11.8088 3.23439 12.1512 3.92158 11.8864L10.1813 9.47521C9.74877 10.6051 9.87172 11.8723 10.5136 12.8979L10.6667 13.1429V15.7333C10.6667 15.8805 10.7861 16 10.9333 16H15.7333C15.8805 16 16 15.8805 16 15.7333V6.93093C15.9976 6.00879 15.6304 5.12534 14.9784 4.47306L13.3334 2.82508ZM13.3334 4.41973L14.1427 6.5208C14.3014 6.93306 14.0958 7.39599 13.6835 7.55466L13.2208 7.73333C13.2947 7.56532 13.3331 7.38374 13.3334 7.19998V4.41973ZM0.533345 7.20001V1.33332C0.533345 0.891462 0.891488 0.533318 1.33335 0.533318H12C12.4419 0.533318 12.8 0.891462 12.8 1.33332V3.02825H12.7976L12.8 3.03439V7.20001C12.7979 7.24641 12.792 7.29281 12.7819 7.33815L10.3392 4.89521C9.77711 4.34614 8.87657 4.35654 8.3275 4.91867C7.80376 5.45467 7.78563 6.30479 8.28591 6.86268L9.32725 8.00001H1.33332C0.891462 8.00001 0.533345 7.64187 0.533345 7.20001ZM3.94961 8.53333L2.05334 9.26348L1.77279 8.53333H3.94961ZM3.72987 11.3888C3.31761 11.5477 2.85468 11.3421 2.69575 10.9299L2.24588 9.75997L5.42908 8.53331V8.53173H9.816L10.1627 8.90961L3.72987 11.3888ZM15.4667 15.4667H11.2V13.3334H15.4667V15.4667ZM15.4667 12.8H11.0813L10.9656 12.6152C10.3155 11.5763 10.2896 10.2637 10.8981 9.19999C10.9557 9.09919 10.9416 8.97307 10.8632 8.88746L8.67785 6.50346C8.34666 6.1408 8.37199 5.57838 8.73464 5.24692C9.08531 4.92665 9.62584 4.93838 9.9621 5.27359L14.2114 9.52187L14.5885 9.1448L13.6018 8.15813L13.8754 8.05145C14.5621 7.78665 14.9042 7.01573 14.64 6.32878L13.7373 3.98503L14.6013 4.85065C15.1533 5.40239 15.4645 6.15038 15.4666 6.93091L15.4667 12.8Z" fill="#FA7272"/>
<path d="M3.04021 3.7333C3.42316 3.7333 3.73354 3.42289 3.73354 3.03997V1.75998C3.73354 1.37703 3.42313 1.06665 3.04021 1.06665H1.76022C1.37728 1.06665 1.06689 1.37706 1.06689 1.75998V3.03997C1.06689 3.42291 1.3773 3.7333 1.76022 3.7333H3.04021ZM1.60021 3.03997V2.66663H2.13353V2.13329H1.60021V1.75998C1.60021 1.67172 1.67194 1.59997 1.76022 1.59997H3.04021C3.12847 1.59997 3.20022 1.67169 3.20022 1.75998V2.13329H2.66688V2.66663H3.20022V3.03997C3.20022 3.12823 3.1285 3.19998 3.04021 3.19998H1.76022C1.67194 3.19995 1.60021 3.12823 1.60021 3.03997Z" fill="#FA7272"/>
<path d="M2.40016 4.53345H1.3335V5.06679H2.40016V4.53345Z" fill="#FA7272"/>
<path d="M2.40016 6.1333H1.3335V6.66665H2.40016V6.1333Z" fill="#FA7272"/>
<path d="M7.19997 6.1333H6.1333V6.66665H7.19997V6.1333Z" fill="#FA7272"/>
<path d="M3.99977 4.53345H2.93311V5.06679H3.99977V4.53345Z" fill="#FA7272"/>
<path d="M5.59987 4.53345H4.5332V5.06679H5.59987V4.53345Z" fill="#FA7272"/>
<path d="M7.19997 4.53345H6.1333V5.06679H7.19997V4.53345Z" fill="#FA7272"/>
<path d="M11.7335 1.33325H11.2002V2.13326H11.7335V1.33325Z" fill="#FA7272"/>
<path d="M10.6666 1.33325H10.1333V2.13326H10.6666V1.33325Z" fill="#FA7272"/>
<path d="M9.60024 1.33325H9.06689V2.13326H9.60024V1.33325Z" fill="#FA7272"/>
<path d="M8.53334 1.33325H8V2.13326H8.53334V1.33325Z" fill="#FA7272"/>
<path d="M12.2667 13.8667H11.7334V14.4H12.2667V13.8667Z" fill="#FA7272"/>
</svg>
