<svg width="20" height="20" viewBox="0 0 20 20" fill="none" xmlns="http://www.w3.org/2000/svg">
<g clip-path="url(#clip0)">
<path d="M16.7749 2.98949C15.5796 1.75821 14.0679 0.904244 12.4174 0.528085C10.767 0.151925 9.04665 0.269222 7.45876 0.866173C5.87087 1.46312 4.48153 2.51489 3.45424 3.8977C2.42695 5.28051 1.80446 6.93683 1.66001 8.67175H1.09657C1.00916 8.67177 0.923612 8.69771 0.850143 8.74648C0.776673 8.79526 0.718395 8.8648 0.682275 8.94679C0.646154 9.02878 0.633721 9.11975 0.646462 9.20883C0.659203 9.29791 0.696578 9.38132 0.754119 9.4491L2.87759 11.9491C2.9203 11.9994 2.97295 12.0397 3.03201 12.0673C3.09108 12.0949 3.15518 12.1092 3.22004 12.1092C3.2849 12.1092 3.34901 12.0949 3.40807 12.0673C3.46713 12.0397 3.51978 11.9994 3.56249 11.9491L5.68597 9.4491C5.74351 9.38132 5.78088 9.29791 5.79362 9.20883C5.80636 9.11975 5.79393 9.02878 5.75781 8.94679C5.72169 8.8648 5.66341 8.79526 5.58994 8.74648C5.51647 8.69771 5.43092 8.67177 5.34352 8.67175H4.86285C5.04499 7.26498 5.71721 5.97434 6.75434 5.04014C7.79148 4.10594 9.12284 3.59187 10.5005 3.59363C13.6368 3.59363 16.1884 6.22214 16.1884 9.453C16.1884 11.5453 15.0774 13.4558 13.3902 14.4939C13.6374 13.9947 13.7855 13.4497 13.8259 12.8908C13.8663 12.332 13.7983 11.7704 13.6256 11.2389C13.453 10.7075 13.1793 10.2168 12.8206 9.79551C12.4618 9.37424 12.0251 9.03083 11.5361 8.78535C11.047 8.53987 10.5154 8.39724 9.97225 8.36579C9.42909 8.33434 8.88529 8.4147 8.37262 8.60218C7.85995 8.78966 7.38868 9.08049 6.98635 9.4577C6.58401 9.8349 6.25867 10.2909 6.02933 10.7991C5.50849 11.2125 5.09174 11.7488 4.8142 12.3628C4.36628 12.7183 3.9947 13.1656 3.72286 13.6765C3.45103 14.1873 3.28484 14.7505 3.23475 15.3308C3.18467 15.911 3.25178 16.4957 3.43186 17.0479C3.61194 17.6001 3.90109 18.1079 4.28109 18.5393C4.66108 18.9707 5.12369 19.3164 5.63977 19.5546C6.15584 19.7927 6.71421 19.9182 7.27968 19.923C7.84514 19.9279 8.40547 19.8121 8.92534 19.5829C9.44521 19.3537 9.91337 19.016 10.3003 18.5912C10.3666 18.5927 10.4333 18.5935 10.5005 18.5936C12.2555 18.5937 13.9711 18.0576 15.4303 17.0532C16.8895 16.0488 18.0268 14.6213 18.6984 12.951C19.37 11.2807 19.5457 9.44283 19.2033 7.66969C18.861 5.89655 18.0158 4.26783 16.7749 2.98949ZM10.3956 16.799C9.85835 17.2016 9.21152 17.4194 8.54716 17.4214C8.54189 17.4214 8.53662 17.4214 8.53131 17.4218H8.52873C8.00186 17.4215 7.48328 17.2866 7.01939 17.0293C6.55551 16.7719 6.16079 16.4001 5.87057 15.9471C5.58036 15.4942 5.40369 14.9741 5.35639 14.4335C5.30908 13.893 5.39262 13.3488 5.59951 12.8496L5.60016 12.8481C5.60129 12.8454 5.60262 12.8428 5.60368 12.84C5.61852 12.8046 5.63395 12.7696 5.64998 12.7349C5.67196 13.3404 5.82027 13.9339 6.08482 14.4751C6.34938 15.0162 6.72397 15.4924 7.18312 15.8711C7.64227 16.2498 8.17521 16.5222 8.74569 16.6697C9.31617 16.8173 9.91081 16.8365 10.4892 16.7262C10.4585 16.751 10.4273 16.7752 10.3956 16.799ZM9.74215 9.29675C10.3721 9.29675 10.988 9.48919 11.5118 9.84974C12.0356 10.2103 12.4438 10.7228 12.6849 11.3223C12.926 11.9219 12.9891 12.5816 12.8662 13.2181C12.7433 13.8546 12.4399 14.4393 11.9944 14.8982C11.549 15.3571 10.9814 15.6696 10.3636 15.7962C9.74568 15.9228 9.10524 15.8578 8.52322 15.6095C7.9412 15.3611 7.44373 14.9406 7.09374 14.401C6.74374 13.8614 6.55693 13.227 6.55693 12.578C6.55794 11.7081 6.89384 10.8741 7.49097 10.259C8.0881 9.64382 8.89768 9.29779 9.74215 9.29675ZM4.1301 15.703C4.13047 15.2183 4.23519 14.7397 4.43672 14.3017C4.47837 15.3914 4.92755 16.4223 5.69027 17.1786C6.45298 17.9349 7.47009 18.3579 8.52873 18.3593C8.53878 18.3593 8.54921 18.3593 8.55956 18.3588C8.80009 18.357 9.03999 18.3335 9.27654 18.2885C8.80621 18.6671 8.24207 18.902 7.64845 18.9663C7.05483 19.0306 6.45562 18.9218 5.91912 18.6522C5.38263 18.3827 4.93045 17.9633 4.61413 17.4419C4.29782 16.9204 4.1301 16.3179 4.1301 15.703ZM16.1315 15.2538C14.7518 16.683 12.9066 17.5342 10.9528 17.6429C10.9796 17.5896 11.005 17.5357 11.0296 17.4812C11.5198 17.0917 11.918 16.5929 12.1945 16.0223C13.5998 15.6359 14.8421 14.7827 15.7287 13.595C16.6154 12.4073 17.0968 10.9513 17.0985 9.453C17.0985 5.70519 14.1387 2.65613 10.5005 2.65613C8.80757 2.65806 7.17996 3.32954 5.95369 4.53194C4.72742 5.73434 3.99612 7.37587 3.91074 9.11765C3.90488 9.2415 3.94689 9.36271 4.02758 9.45472C4.10827 9.54673 4.22107 9.60206 4.34128 9.60859L3.22004 10.9287L2.09923 9.60925C2.21526 9.60644 2.32585 9.55805 2.4084 9.474C2.49094 9.38995 2.53918 9.27659 2.54326 9.1571C2.59016 7.82157 2.95312 6.51806 3.60054 5.35997C4.24797 4.20188 5.16026 3.22428 6.25807 2.51221C7.35587 1.80014 8.60594 1.37516 9.89953 1.27425C11.1931 1.17333 12.4911 1.39953 13.6804 1.93317C14.8698 2.46682 15.9146 3.29174 16.724 4.33618C17.5333 5.38062 18.0827 6.61296 18.3243 7.92599C18.5659 9.23901 18.4924 10.593 18.1103 11.8701C17.7281 13.1472 17.0488 14.3088 16.1315 15.2538Z" fill="#2B587A"/>
<path d="M9.40066 13.0469H10.0453C10.1659 13.047 10.2816 13.0964 10.3669 13.1843C10.4522 13.2722 10.5002 13.3913 10.5003 13.5156V13.5547C10.5002 13.679 10.4522 13.7981 10.3669 13.886C10.2816 13.9739 10.1659 14.0233 10.0453 14.0234H9.08938C8.98699 14.0173 8.94854 13.9421 8.95711 13.8438C8.95812 13.7805 8.94669 13.7176 8.92351 13.659C8.90034 13.6003 8.8659 13.5472 8.82226 13.5026C8.77862 13.458 8.72668 13.423 8.66957 13.3996C8.61246 13.3763 8.55136 13.365 8.48992 13.3666C8.42849 13.3682 8.36801 13.3826 8.3121 13.4088C8.25619 13.4351 8.20602 13.4728 8.1646 13.5195C8.12317 13.5663 8.09135 13.6212 8.07105 13.6809C8.05074 13.7407 8.04238 13.804 8.04645 13.8672C8.04397 14.0099 8.06911 14.1517 8.1204 14.2842C8.17169 14.4168 8.2481 14.5375 8.34518 14.6393C8.44225 14.7412 8.55804 14.822 8.68579 14.8773C8.81354 14.9325 8.95069 14.9609 9.08923 14.9609H9.2869V15.1172C9.2869 15.2415 9.33484 15.3607 9.42017 15.4486C9.50551 15.5366 9.62125 15.5859 9.74193 15.5859C9.86261 15.5859 9.97835 15.5366 10.0637 15.4486C10.149 15.3607 10.197 15.2415 10.197 15.1172V14.952C10.5305 14.9132 10.8385 14.7493 11.0622 14.4916C11.286 14.2339 11.4099 13.9004 11.4104 13.5547V13.5156C11.41 13.1428 11.266 12.7853 11.0101 12.5217C10.7542 12.2581 10.4072 12.1098 10.0453 12.1094H9.40066C9.27997 12.1094 9.16424 12.06 9.0789 11.9721C8.99357 11.8842 8.94563 11.7649 8.94563 11.6406C8.94563 11.5163 8.99357 11.3971 9.0789 11.3092C9.16424 11.2213 9.27997 11.1719 9.40066 11.1719H10.3415C10.4303 11.182 10.4684 11.2229 10.4742 11.3148C10.469 11.439 10.512 11.5602 10.5936 11.6518C10.6752 11.7434 10.7887 11.7979 10.9093 11.8032C11.0299 11.8086 11.1476 11.7644 11.2365 11.6803C11.3254 11.5963 11.3783 11.4793 11.3835 11.355C11.3895 11.2102 11.3671 11.0656 11.3174 10.9299C11.2678 10.7943 11.192 10.6704 11.0946 10.5657C10.9973 10.461 10.8804 10.3776 10.751 10.3207C10.6215 10.2638 10.4822 10.2344 10.3415 10.2344H10.197V10.0781C10.197 9.9538 10.149 9.83458 10.0637 9.74667C9.97835 9.65876 9.86261 9.60938 9.74193 9.60938C9.62125 9.60938 9.50551 9.65876 9.42017 9.74667C9.33484 9.83458 9.2869 9.9538 9.2869 10.0781V10.2396C8.93596 10.2699 8.60994 10.4386 8.37698 10.7107C8.14402 10.9827 8.02215 11.337 8.03683 11.6995C8.05152 12.0619 8.20163 12.4045 8.4558 12.6556C8.70996 12.9067 9.0485 13.0469 9.40066 13.0469Z" fill="#2B587A"/>
</g>
<defs>
<clipPath id="clip0">
<rect width="19.4146" height="20" fill="white" transform="translate(0.414062)"/>
</clipPath>
</defs>
</svg>
