<svg width="60" height="60" viewBox="0 0 60 60" fill="none" xmlns="http://www.w3.org/2000/svg">
<g opacity="0.4">
<path d="M33.9609 23.4609H28.1836V17.6836C28.1836 16.3594 27.1172 15.293 25.793 15.293C24.4688 15.293 23.4023 16.3594 23.4023 17.6836V23.4609H17.625C16.3008 23.4609 15.2344 24.5273 15.2344 25.8516C15.2344 27.1758 16.3008 28.2422 17.625 28.2422H23.4023V34.0195C23.4023 35.3437 24.4688 36.4102 25.793 36.4102C27.1172 36.4102 28.1836 35.3437 28.1836 34.0195V28.2422H33.9609C35.2852 28.2422 36.3516 27.1758 36.3516 25.8516C36.3516 24.5273 35.2734 23.4609 33.9609 23.4609Z" fill="white"/>
<path d="M25.8047 45.5508C14.918 45.5508 6.09375 36.7383 6.09375 25.8516C6.09375 14.9648 14.918 6.15234 25.8047 6.15234C36.6914 6.15234 45.5039 14.9766 45.5039 25.8516C45.5039 36.7266 36.6797 45.5508 25.8047 45.5508ZM58.0078 54.6914L44.7305 41.4141C48.2109 37.1836 50.3086 31.7578 50.3086 25.8516C50.3086 12.3164 39.3398 1.33594 25.793 1.33594C12.2461 1.33594 1.28906 12.3164 1.28906 25.8516C1.28906 39.3867 12.2578 50.3672 25.8047 50.3672C31.7109 50.3672 37.125 48.2813 41.3555 44.8008L54.6328 58.0781C55.2422 58.6992 57.1055 59.0039 58.0195 58.0781C58.9453 57.1406 58.9453 55.6289 58.0078 54.6914Z" fill="white"/>
</g>
</svg>
