<svg width="30" height="30" viewBox="0 0 30 30" fill="none" xmlns="http://www.w3.org/2000/svg">
<path d="M9.92998 26.0439L8.60352 30H21.3947L20.0683 26.0439H9.92998Z" fill="#222222"/>
<path d="M0 17.1431C0 19.6192 2.02213 21.6266 4.51648 21.6266C7.0109 21.6266 9.03297 19.6192 9.03297 17.1431H0Z" fill="#222222"/>
<path d="M20.9668 17.1431C20.9668 19.6192 22.9889 21.6266 25.4833 21.6266C27.9777 21.6266 29.9998 19.6192 29.9998 17.1431H20.9668Z" fill="#222222"/>
<path d="M4.5172 9.78969L6.79272 15.1648H8.94065L6.00988 8.24176H14.0117V24.0659H15.9897V8.24176H23.9916L21.0608 15.1648H23.2088L25.4842 9.78969L27.7597 15.1648H29.9077L26.1395 6.26374H15.9897V3.69079C16.5808 3.34873 16.9787 2.71009 16.9787 1.97802C16.9787 0.88556 16.0932 0 15.0007 0C13.9083 0 13.0227 0.88556 13.0227 1.97802C13.0227 2.71002 13.4207 3.34873 14.0117 3.69079V6.26374H3.86188L0.09375 15.1648H2.24175L4.5172 9.78969Z" fill="#222222"/>
</svg>
