<svg width="20" height="20" viewBox="0 0 20 20" fill="none" xmlns="http://www.w3.org/2000/svg">
<g clip-path="url(#clip0)">
<path d="M8.24564 16.4718C3.70435 16.4718 0.00976562 12.7772 0.00976562 8.23588C0.00976562 3.69459 3.70435 0 8.24564 0C12.7869 0 16.4815 3.69459 16.4815 8.23588C16.4815 12.7772 12.7869 16.4718 8.24564 16.4718ZM8.24564 1.5613C4.56526 1.5613 1.57107 4.5555 1.57107 8.23588C1.57107 11.9163 4.56526 14.9105 8.24564 14.9105C11.926 14.9105 14.9202 11.9163 14.9202 8.23588C14.9202 4.5555 11.926 1.5613 8.24564 1.5613Z" fill="white"/>
<path d="M19.2116 20.0001C19.0118 20.0001 18.812 19.9239 18.6595 19.7714L15.1661 16.278C14.8613 15.9731 14.8613 15.4788 15.1661 15.174C15.471 14.8691 15.9653 14.8691 16.2702 15.174L19.7636 18.6674C20.0684 18.9723 20.0684 19.4666 19.7636 19.7714C19.6112 19.9238 19.4114 20.0001 19.2116 20.0001Z" fill="white"/>
</g>
<defs>
<clipPath id="clip0">
<rect width="20" height="20" fill="white"/>
</clipPath>
</defs>
</svg>
