<svg width="12" height="12" viewBox="0 0 12 12" fill="none" xmlns="http://www.w3.org/2000/svg">
<path d="M11.4778 4.18644L8.1732 3.87397C7.96488 3.85503 7.78488 3.72246 7.69975 3.52362L6.51613 0.654524C6.32675 0.181077 5.65436 0.181077 5.46498 0.654524L4.29084 3.52362C4.21508 3.72246 4.0257 3.85503 3.81739 3.87397L0.512724 4.18644C0.0203391 4.23379 -0.178509 4.84927 0.19078 5.18068L2.68111 7.36801C2.84209 7.51004 2.90837 7.71836 2.86102 7.92668L2.11298 10.9945C1.99935 11.4775 2.52014 11.8751 2.95571 11.6196L5.71118 10.0003C5.89109 9.89612 6.10887 9.89612 6.28878 10.0003L9.04434 11.6196C9.47991 11.8751 10.0007 11.487 9.88698 10.9945L9.14841 7.92668C9.10106 7.71836 9.16734 7.51004 9.32832 7.36801L11.8187 5.18068C12.1785 4.84927 11.9702 4.23379 11.4778 4.18644Z" fill="#FA7272"/>
</svg>
