<svg width="16" height="16" viewBox="0 0 16 16" fill="none" xmlns="http://www.w3.org/2000/svg">
<path d="M15.4471 5.56874C15.223 5.37268 14.9471 5.2463 14.6492 5.20324L11.0021 4.67614L9.37107 1.38905C9.23784 1.12058 9.03172 0.898598 8.775 0.747184C8.53684 0.606737 8.26392 0.532471 7.98568 0.532471C7.70744 0.532471 7.43449 0.606711 7.19636 0.747184C6.93964 0.898598 6.73355 1.12055 6.60032 1.38905L4.9693 4.67616L1.3222 5.20324C1.0243 5.2463 0.748373 5.37268 0.524264 5.56874C0.316364 5.7506 0.161051 5.98585 0.0750633 6.24906C-0.0108974 6.51224 -0.0242632 6.79337 0.0364275 7.06206C0.101875 7.35167 0.250412 7.61525 0.465992 7.82423L3.10505 10.3829L2.48204 13.9957C2.40485 14.4434 2.52876 14.8986 2.82201 15.2446C3.11743 15.5931 3.54849 15.793 4.00462 15.793C4.25305 15.793 4.50168 15.7317 4.72364 15.6156L7.98571 13.9099L11.2478 15.6156C11.4697 15.7317 11.7183 15.793 11.9668 15.793C12.4229 15.793 12.854 15.5931 13.1494 15.2446C13.4427 14.8986 13.5666 14.4435 13.4894 13.9957L12.8664 10.3829L15.5054 7.82423C15.721 7.61522 15.8695 7.35167 15.935 7.06206C15.9957 6.79337 15.9823 6.51224 15.8964 6.24906C15.8104 5.98587 15.655 5.75062 15.4471 5.56874Z" fill="#54A2C7"/>
</svg>
