<svg width="16" height="16" viewBox="0 0 16 16" fill="none" xmlns="http://www.w3.org/2000/svg">
<path d="M15.4608 5.56874C15.2367 5.37268 14.9608 5.2463 14.6629 5.20324L11.0158 4.67614L9.38474 1.38905C9.25151 1.12058 9.04539 0.898598 8.78868 0.747184C8.55051 0.606737 8.27759 0.532471 7.99935 0.532471C7.72112 0.532471 7.44817 0.606711 7.21003 0.747184C6.95332 0.898598 6.74722 1.12055 6.61399 1.38905L4.98297 4.67616L1.33587 5.20324C1.03797 5.2463 0.762045 5.37268 0.537936 5.56874C0.330036 5.7506 0.174722 5.98585 0.0887352 6.24906C0.00277445 6.51224 -0.0105913 6.79337 0.0500993 7.06206C0.115546 7.35167 0.264084 7.61525 0.479664 7.82423L3.11872 10.3829L2.49571 13.9957C2.41852 14.4434 2.54243 14.8986 2.83568 15.2446C3.13111 15.5931 3.56216 15.793 4.0183 15.793C4.26672 15.793 4.51535 15.7317 4.73731 15.6156L7.99938 13.9099L11.2614 15.6156C11.4834 15.7317 11.732 15.793 11.9804 15.793C12.4366 15.793 12.8676 15.5931 13.1631 15.2446C13.4563 14.8986 13.5802 14.4435 13.503 13.9957L12.8801 10.3829L15.5191 7.82423C15.7347 7.61522 15.8832 7.35167 15.9487 7.06206C16.0094 6.79337 15.996 6.51224 15.91 6.24906C15.824 5.98587 15.6687 5.75062 15.4608 5.56874ZM14.7245 7.01345L11.8099 9.83924C11.7141 9.93214 11.6704 10.066 11.693 10.1971L12.3811 14.1872C12.4261 14.4486 12.2173 14.6608 11.9804 14.6608C11.9179 14.6608 11.8535 14.646 11.7912 14.6135L8.1886 12.7296C8.12937 12.6987 8.06437 12.6832 7.99941 12.6832C7.93444 12.6832 7.86944 12.6987 7.81021 12.7296L4.20762 14.6135C4.14536 14.646 4.08085 14.6608 4.01835 14.6608C3.78143 14.6608 3.57265 14.4486 3.61772 14.1872L4.30575 10.1971C4.32839 10.066 4.28465 9.93214 4.18884 9.83924L1.27422 7.01345C1.03292 6.77952 1.16607 6.37193 1.49953 6.32372L5.52738 5.74159C5.65979 5.72245 5.77426 5.63973 5.83349 5.52037L7.63481 1.89013C7.70937 1.73985 7.85437 1.66471 7.99938 1.66471C8.14441 1.66471 8.28939 1.73987 8.36392 1.89013L10.1652 5.52037C10.2245 5.6397 10.3389 5.72245 10.4714 5.74159L14.4992 6.32372C14.8327 6.37193 14.9658 6.77952 14.7245 7.01345Z" fill="#54A2C7"/>
</svg>
