<svg width="30" height="30" viewBox="0 0 30 30" fill="none" xmlns="http://www.w3.org/2000/svg">
<g clip-path="url(#clip0)">
<path d="M15.0018 29.9997C23.286 29.9997 30.0017 23.2841 30.0017 14.9999C30.0017 6.71567 23.286 0 15.0018 0C6.71762 0 0.00195312 6.71567 0.00195312 14.9999C0.00195312 23.2841 6.71762 29.9997 15.0018 29.9997Z" fill="#55ACEE"/>
<path d="M24.1888 10.78C23.546 11.065 22.8545 11.2578 22.1293 11.3439C22.8697 10.9003 23.4379 10.1984 23.7061 9.36067C23.0133 9.77165 22.2457 10.0698 21.4293 10.2305C20.7753 9.53394 19.8435 9.09863 18.8116 9.09863C16.8319 9.09863 15.2262 10.7043 15.2262 12.684C15.2262 12.965 15.258 13.2386 15.3195 13.5012C12.3398 13.3517 9.69773 11.9244 7.92923 9.75453C7.62067 10.284 7.44366 10.9003 7.44366 11.5573C7.44366 12.8009 8.0771 13.8988 9.03862 14.5416C8.45117 14.5231 7.89795 14.3619 7.41478 14.0926C7.41451 14.1079 7.41451 14.1231 7.41451 14.1381C7.41451 15.8753 8.65091 17.3243 10.2908 17.6534C9.99025 17.7358 9.67286 17.7793 9.34638 17.7793C9.11483 17.7793 8.89049 17.7572 8.67177 17.7154C9.12793 19.1395 10.4518 20.1762 12.0211 20.2053C10.7937 21.1671 9.24798 21.7401 7.56773 21.7401C7.27895 21.7401 6.99284 21.7233 6.71289 21.6899C8.29876 22.7076 10.1838 23.3009 12.2085 23.3009C18.8033 23.3009 22.4098 17.8376 22.4098 13.0993C22.4098 12.9439 22.4064 12.7891 22.3994 12.6356C23.1005 12.1303 23.7083 11.499 24.1888 10.78Z" fill="white"/>
</g>
<defs>
<clipPath id="clip0">
<rect width="30" height="30" fill="white"/>
</clipPath>
</defs>
</svg>
