<svg width="40" height="40" viewBox="0 0 40 40" fill="none" xmlns="http://www.w3.org/2000/svg">
<g clip-path="url(#clip0)">
<path d="M14.666 25.7462L16.6978 14.3176H19.8724L17.9041 25.7462H14.666Z" fill="#3C58BF"/>
<path d="M14.666 25.7462L17.2692 14.3176H19.8724L17.9041 25.7462H14.666Z" fill="#293688"/>
<path d="M29.3959 14.4445C28.761 14.1905 27.7451 13.9365 26.4753 13.9365C23.3007 13.9365 21.015 15.5238 21.015 17.8095C21.015 19.5238 22.6023 20.4127 23.8721 20.9841C25.142 21.5556 25.5229 21.9365 25.5229 22.4445C25.5229 23.2064 24.507 23.5873 23.6181 23.5873C22.3483 23.5873 21.6499 23.3968 20.5705 22.9524L20.1261 22.7619L19.6816 25.3651C20.4435 25.6826 21.8404 26 23.3007 26C26.6658 26 28.888 24.4127 28.888 22C28.888 20.6667 28.0626 19.6508 26.1578 18.8254C25.015 18.254 24.3166 17.9365 24.3166 17.3651C24.3166 16.8572 24.888 16.3492 26.1578 16.3492C27.2372 16.3492 27.9991 16.5397 28.5705 16.7937L28.888 16.9206L29.3959 14.4445Z" fill="#3C58BF"/>
<path d="M29.3959 14.4445C28.761 14.1905 27.7451 13.9365 26.4753 13.9365C23.3007 13.9365 21.5864 15.5238 21.5864 17.8095C21.5864 19.5238 22.6023 20.4127 23.8721 20.9841C25.142 21.5556 25.5229 21.9365 25.5229 22.4445C25.5229 23.2064 24.507 23.5873 23.6181 23.5873C22.3483 23.5873 21.6499 23.3968 20.5705 22.9524L20.1261 22.7619L19.6816 25.3651C20.4435 25.6826 21.8404 26 23.3007 26C26.6658 26 28.888 24.4127 28.888 22C28.888 20.6667 28.0626 19.6508 26.1578 18.8254C25.015 18.254 24.3166 17.9365 24.3166 17.3651C24.3166 16.8572 24.888 16.3492 26.1578 16.3492C27.2372 16.3492 27.9991 16.5397 28.5705 16.7937L28.888 16.9206L29.3959 14.4445Z" fill="#293688"/>
<path d="M34.858 14.3176C34.0961 14.3176 33.5247 14.3811 33.2072 15.143L28.4453 25.7462H31.8739L32.5088 23.8414H36.5723L36.9533 25.7462H40.0009L37.3342 14.3176H34.858ZM33.3977 21.9367C33.5882 21.3652 34.6675 18.5716 34.6675 18.5716C34.6675 18.5716 34.9215 17.8732 35.112 17.4287L35.3025 18.5081C35.3025 18.5081 35.9374 21.3652 36.0644 22.0002H33.3977V21.9367Z" fill="#3C58BF"/>
<path d="M35.6199 14.3176C34.858 14.3176 34.2866 14.3811 33.9691 15.143L28.4453 25.7462H31.8739L32.5088 23.8414H36.5723L36.9533 25.7462H40.0009L37.3342 14.3176H35.6199ZM33.3977 21.9367C33.6517 21.3018 34.6675 18.5716 34.6675 18.5716C34.6675 18.5716 34.9215 17.8732 35.112 17.4287L35.3025 18.5081C35.3025 18.5081 35.9374 21.3652 36.0644 22.0002H33.3977V21.9367Z" fill="#293688"/>
<path d="M8.82441 22.3173L8.50695 20.6666C7.93552 18.7618 6.09425 16.6666 4.0625 15.6507L6.91964 25.8094H10.3482L15.4911 14.3809H12.0625L8.82441 22.3173Z" fill="#3C58BF"/>
<path d="M8.82441 22.3173L8.50695 20.6666C7.93552 18.7618 6.09425 16.6666 4.0625 15.6507L6.91964 25.8094H10.3482L15.4911 14.3809H12.6974L8.82441 22.3173Z" fill="#293688"/>
<path d="M0 14.3176L0.571429 14.4446C4.63492 15.397 7.42857 17.8097 8.50794 20.6668L7.36508 15.27C7.1746 14.5081 6.60318 14.3176 5.90476 14.3176H0Z" fill="#FFBC00"/>
<path d="M0 14.3176C4.06349 15.27 7.42857 17.7462 8.50794 20.6033L7.42857 16.0954C7.2381 15.3335 6.60318 14.8891 5.90476 14.8891L0 14.3176Z" fill="#F7981D"/>
<path d="M0 14.3176C4.06349 15.27 7.42857 17.7462 8.50794 20.6033L7.74603 18.1272C7.55556 17.3652 7.30159 16.6033 6.4127 16.2859L0 14.3176Z" fill="#ED7C00"/>
<path d="M12 21.9366L9.84124 19.7779L8.82537 22.1906L8.5714 20.6033C7.99997 18.6985 6.1587 16.6033 4.12695 15.5874L6.9841 25.7461H10.4127L12 21.9366Z" fill="#051244"/>
<path d="M17.9041 25.7463L15.174 22.9526L14.666 25.7463H17.9041Z" fill="#051244"/>
<path d="M25.2055 21.8098C25.4594 22.0638 25.5864 22.2543 25.5229 22.5082C25.5229 23.2701 24.507 23.6511 23.6181 23.6511C22.3483 23.6511 21.6499 23.4606 20.5705 23.0162L20.1261 22.8257L19.6816 25.4289C20.4435 25.7463 21.8404 26.0638 23.3007 26.0638C25.3324 26.0638 26.9832 25.4924 27.9356 24.4765L25.2055 21.8098Z" fill="#051244"/>
<path d="M28.8887 25.7462H31.8728L32.5077 23.8414H36.5712L36.9522 25.7462H39.9998L38.9204 21.1113L35.1109 17.4287L35.3014 18.4446C35.3014 18.4446 35.9363 21.3017 36.0633 21.9366H33.3966C33.6506 21.3017 34.6664 18.5716 34.6664 18.5716C34.6664 18.5716 34.9204 17.8732 35.1109 17.4287" fill="#051244"/>
</g>
<defs>
<clipPath id="clip0">
<rect width="40" height="40" fill="white"/>
</clipPath>
</defs>
</svg>
