<svg width="25" height="32" viewBox="0 0 25 32" fill="none" xmlns="http://www.w3.org/2000/svg">
<path fill-rule="evenodd" clip-rule="evenodd" d="M0.000365787 15.8734C0.000365787 14.0766 0.151013 12.9362 3.87218 10.1585C6.95292 7.85875 16.8278 0 16.8278 0V13.1188H24.3373V32H2.34587C1.05587 32 0 30.9441 0 29.654L0.000365787 15.8735V15.8734Z" fill="#FFCF01"/>
<path fill-rule="evenodd" clip-rule="evenodd" d="M16.8287 13.1191V20.7205L3.0293 30.1214L20.4761 24.4447V13.1191H16.8287Z" fill="#D3AC06"/>
<path fill-rule="evenodd" clip-rule="evenodd" d="M10.5213 12.7252C11.3283 11.7637 12.5068 11.4243 13.154 11.9672C13.8011 12.5103 13.6717 13.7301 12.8647 14.6917C12.0583 15.6531 10.8793 15.9921 10.2322 15.449C9.58502 14.9061 9.71474 13.6865 10.5213 12.7251V12.7252Z" fill="#231F20"/>
</svg>
