<svg width="100" height="100" viewBox="0 0 100 100" fill="none" xmlns="http://www.w3.org/2000/svg">
<path d="M99.9995 40.9446C99.9995 61.1071 83.6545 77.4522 63.492 77.4522C43.3295 77.4522 26.9844 61.1071 26.9844 40.9446C26.9844 20.7812 43.3295 4.43616 63.492 4.43616C83.6545 4.43616 99.9995 20.7812 99.9995 40.9446Z" fill="#53A0C5"/>
<path d="M69.8424 86.9763H19.0488V47.6967C19.0488 43.9674 22.0715 40.9447 25.8008 40.9447H63.0886C66.8179 40.9447 69.8415 43.9674 69.8415 47.6967V86.9763H69.8424Z" fill="#FA7272"/>
<path d="M69.8421 88.5629H19.0486C18.1712 88.5629 17.4609 87.8535 17.4609 86.9762V47.6966C17.4609 43.0972 21.2021 39.3569 25.8015 39.3569H63.0901C67.6887 39.3569 71.4298 43.0972 71.4298 47.6966V86.9762C71.4289 87.8535 70.7195 88.5629 69.8421 88.5629ZM20.6353 85.3885H68.2545V47.6966C68.2545 44.8492 65.9366 42.5313 63.0892 42.5313H25.8015C22.9532 42.5313 20.6353 44.8492 20.6353 47.6966V85.3885Z" fill="#2C597B"/>
<path d="M98.413 86.9762H69.8418V56.8174H84.5193C88.0906 56.8174 91.4175 58.6057 93.3521 61.564L98.413 69.3078V86.9762Z" fill="white"/>
<path d="M98.4127 88.5629H69.8415C68.9642 88.5629 68.2539 87.8536 68.2539 86.9762V56.8174C68.2539 55.94 68.9642 55.2297 69.8415 55.2297H84.519C88.6471 55.2297 92.4445 57.2724 94.6797 60.6957L99.7406 68.4395C99.9095 68.6974 99.9994 68.9999 99.9994 69.3078V86.9762C99.9994 87.8536 99.2901 88.5629 98.4127 88.5629ZM71.4283 85.3886H96.825V69.781L92.0231 62.4313C90.3755 59.91 87.569 58.405 84.519 58.405H71.4283V85.3886Z" fill="#2C597B"/>
<path d="M69.8408 86.9762H14.2852V85.4094C14.2852 81.8917 17.1371 79.0398 20.6548 79.0398H69.8408V86.9762Z" fill="#9DC1E4"/>
<path d="M69.8425 88.563H14.2869C13.4104 88.563 12.6992 87.8536 12.6992 86.9762V85.4085C12.6992 81.0216 16.2687 77.4521 20.6556 77.4521H69.8425C70.7198 77.4521 71.4292 78.1624 71.4292 79.0398V86.9762C71.4292 87.8536 70.7198 88.563 69.8425 88.563ZM15.8736 85.3886H68.2548V80.6265H20.6556C18.0262 80.6265 15.8845 82.761 15.8736 85.3886Z" fill="#2C597B"/>
<path d="M91.7119 86.5793C91.7119 90.5493 88.4939 93.7673 84.5239 93.7673C80.5548 93.7673 77.3359 90.5493 77.3359 86.5793C77.3359 82.6093 80.5548 79.3914 84.5239 79.3914C88.4939 79.3914 91.7119 82.6093 91.7119 86.5793Z" fill="#478AAE"/>
<path d="M84.5228 95.3549C79.6854 95.3549 75.748 91.4176 75.748 86.5793C75.748 81.7419 79.6854 77.8046 84.5228 77.8046C89.3602 77.8046 93.2975 81.7419 93.2975 86.5793C93.2975 91.4167 89.3602 95.3549 84.5228 95.3549ZM84.5228 80.9789C81.4356 80.9789 78.9224 83.4912 78.9224 86.5793C78.9224 89.6664 81.4356 92.1796 84.5228 92.1796C87.6109 92.1796 90.1231 89.6664 90.1231 86.5793C90.1231 83.4912 87.6109 80.9789 84.5228 80.9789Z" fill="#2C597B"/>
<path d="M41.2696 58.405H1.58764C0.71026 58.405 0 57.6947 0 56.8174C0 55.94 0.71026 55.2297 1.58764 55.2297H41.2696C42.146 55.2297 42.8572 55.94 42.8572 56.8174C42.8572 57.6947 42.146 58.405 41.2696 58.405Z" fill="#2C597B"/>
<path d="M87.1212 86.5793C87.1212 88.0134 85.9586 89.176 84.5244 89.176C83.0903 89.176 81.9277 88.0134 81.9277 86.5793C81.9277 85.1451 83.0903 83.9825 84.5244 83.9825C85.9586 83.9825 87.1212 85.1451 87.1212 86.5793Z" fill="#2C597B"/>
<path d="M44.0919 86.5793C44.0919 90.5493 40.8739 93.7673 36.9039 93.7673C32.9348 93.7673 29.7168 90.5493 29.7168 86.5793C29.7168 82.6093 32.9348 79.3914 36.9039 79.3914C40.8739 79.3914 44.0919 82.6093 44.0919 86.5793Z" fill="#478AAE"/>
<path d="M36.9036 95.3549C32.0653 95.3549 28.1289 91.4176 28.1289 86.5793C28.1289 81.7419 32.0653 77.8046 36.9036 77.8046C41.7428 77.8046 45.6792 81.7419 45.6792 86.5793C45.6792 91.4176 41.7428 95.3549 36.9036 95.3549ZM36.9036 80.9789C33.8164 80.9789 31.3033 83.4912 31.3033 86.5793C31.3033 89.6665 33.8164 92.1796 36.9036 92.1796C39.9917 92.1796 42.5039 89.6665 42.5039 86.5793C42.5039 83.4912 39.9917 80.9789 36.9036 80.9789Z" fill="#2C597B"/>
<path d="M39.5011 86.5793C39.5011 88.0134 38.3385 89.176 36.9044 89.176C35.4712 89.176 34.3086 88.0134 34.3086 86.5793C34.3086 85.1451 35.4712 83.9825 36.9044 83.9825C38.3385 83.9825 39.5011 85.1451 39.5011 86.5793Z" fill="#2C597B"/>
<path d="M37.2806 42.2853C37.2806 50.0018 31.0254 56.257 23.3088 56.257C15.5931 56.257 9.33789 50.0018 9.33789 42.2853C9.33789 34.5687 15.5931 28.3135 23.3088 28.3135C31.0254 28.3135 37.2806 34.5687 37.2806 42.2853Z" fill="white"/>
<path d="M23.3105 57.8437C14.731 57.8437 7.75195 50.8637 7.75195 42.2852C7.75195 33.7067 14.731 26.7267 23.3105 26.7267C31.889 26.7267 38.8699 33.7067 38.8699 42.2852C38.8699 50.8637 31.889 57.8437 23.3105 57.8437ZM23.3105 29.9011C16.4822 29.9011 10.9263 35.4569 10.9263 42.2852C10.9263 49.1135 16.4822 54.6693 23.3105 54.6693C30.1397 54.6693 35.6946 49.1135 35.6946 42.2852C35.6946 35.4569 30.1397 29.9011 23.3105 29.9011Z" fill="#2C597B"/>
<path d="M20.2637 48.7339C19.9404 48.7339 19.6125 48.634 19.3301 48.4278C18.6216 47.9119 18.4663 46.9201 18.9822 46.2116L22.2229 41.7675V35.3415C22.2229 34.4642 22.9331 33.7539 23.8096 33.7539C24.687 33.7539 25.3972 34.4642 25.3972 35.3415V42.2852C25.3972 42.6222 25.2901 42.9492 25.0921 43.2198L21.548 48.0808C21.2374 48.5077 20.7542 48.7339 20.2637 48.7339Z" fill="#2C597B"/>
<path d="M80.9531 61.5795V72.6902H91.637C92.5353 72.6902 93.0975 71.7202 92.6524 70.9409L88.9458 64.455C87.9295 62.6766 86.0385 61.5795 83.9894 61.5795H80.9531Z" fill="#C1DBDC"/>
<path d="M91.6358 74.2779H80.9529C80.0755 74.2779 79.3652 73.5676 79.3652 72.6902V61.5795C79.3652 60.7021 80.0755 59.9918 80.9529 59.9918H83.9892C86.6014 59.9918 89.0282 61.4014 90.3234 63.6676L94.0291 70.1544C94.5223 71.0136 94.5205 72.0426 94.0218 72.9028C93.5223 73.7638 92.6313 74.2779 91.6358 74.2779ZM82.5405 71.1035H90.9156L87.5668 65.2416C86.8348 63.9618 85.4651 63.1662 83.9892 63.1662H82.5405V71.1035Z" fill="#2C597B"/>
<path d="M31.7459 64.7538H11.1102C10.2337 64.7538 9.52344 64.0436 9.52344 63.1662C9.52344 62.2888 10.2337 61.5795 11.1102 61.5795H31.7459C32.6223 61.5795 33.3326 62.2888 33.3326 63.1662C33.3326 64.0436 32.6223 64.7538 31.7459 64.7538Z" fill="#2C597B"/>
<path d="M23.8092 71.1035H1.58764C0.71026 71.1035 0 70.3932 0 69.5159C0 68.6385 0.71026 67.9282 1.58764 67.9282H23.8092C24.6865 67.9282 25.3968 68.6385 25.3968 69.5159C25.3968 70.3932 24.6865 71.1035 23.8092 71.1035Z" fill="#2C597B"/>
</svg>
