<svg width="100" height="100" viewBox="0 0 100 100" fill="none" xmlns="http://www.w3.org/2000/svg">
<path d="M74.4203 41.8821C74.4203 62.3698 57.8116 78.9785 37.3239 78.9785C16.8353 78.9785 0.226562 62.3698 0.226562 41.8821C0.226562 21.3944 16.8353 4.78479 37.3239 4.78479C57.8116 4.78479 74.4203 21.3944 74.4203 41.8821Z" fill="#FFA6A6"/>
<path d="M88.9314 47.5205L77.25 35.8168V82.7168H92.8834V57.0233C92.8834 53.4556 91.4608 50.0352 88.9314 47.5205Z" fill="#FFCBCB"/>
<path d="M37.2475 74.1708L28.4169 51.2457C27.5303 48.9443 28.6772 46.3591 30.9797 45.4725L72.6615 29.4171C74.9629 28.5304 77.548 29.6773 78.4347 31.9798L87.2652 54.9049C88.1519 57.2063 87.005 59.7915 84.7025 60.6781L43.0218 76.7336C40.7192 77.6202 38.1352 76.4722 37.2475 74.1708Z" fill="#FA7272"/>
<path d="M81.6163 40.2388L31.6387 59.6107L34.9664 68.2493L84.9462 48.8862L81.6163 40.2388Z" fill="#E75656"/>
<path d="M28.1172 58.15V33.5832C28.1172 31.1165 30.1172 29.1166 32.5838 29.1166H77.2506C79.7173 29.1166 81.7172 31.1165 81.7172 33.5832V58.1499C81.7172 60.6166 79.7173 62.6165 77.2506 62.6165H32.5838C30.1172 62.6166 28.1172 60.6167 28.1172 58.15Z" fill="#54A2C7"/>
<path d="M77.2497 29.1166H72.504L39.0039 62.6166H77.2497C79.7164 62.6166 81.7164 60.6167 81.7164 58.15V33.5832C81.7164 31.1165 79.7164 29.1166 77.2497 29.1166Z" fill="#2C597B"/>
<path d="M37.0506 46.9834H32.584V49.2168H37.0506V46.9834Z" fill="#2C648E"/>
<path d="M37.0506 53.6833H32.584V55.9167H37.0506V53.6833Z" fill="#2C648E"/>
<path d="M57.1503 53.6833H52.6836V55.9167H57.1503V53.6833Z" fill="#2C648E"/>
<path d="M43.7499 46.9834H39.2832V49.2168H43.7499V46.9834Z" fill="#2C648E"/>
<path d="M50.4491 46.9834H45.9824V49.2168H50.4491V46.9834Z" fill="#2C648E"/>
<path d="M57.1503 46.9834H52.6836V49.2168H57.1503V46.9834Z" fill="#2C648E"/>
<path d="M76.1338 33.5833H73.9004V36.9333H76.1338V33.5833Z" fill="#2C648E"/>
<path d="M71.667 33.5833H69.4336V36.9333H71.667V33.5833Z" fill="#2C648E"/>
<path d="M67.2002 33.5833H64.9668V36.9333H67.2002V33.5833Z" fill="#2C648E"/>
<path d="M62.7334 33.5833H60.5V36.9333H62.7334V33.5833Z" fill="#2C648E"/>
<path d="M92.8832 82.7167H72.7832V93.8834H92.8832V82.7167Z" fill="#FF8585"/>
<path d="M69.5059 49.2892C67.612 47.402 64.5468 47.4076 62.6596 49.3015C60.8349 51.1329 60.7712 54.0753 62.5155 55.9836L71.6666 65.9667C68.9163 70.7806 69.0335 76.7168 71.9715 81.418L72.7832 82.7167H87.3001V67.0833L69.5059 49.2892Z" fill="#FFCBCB"/>
<path d="M78.3662 86.0667H76.1328V88.3H78.3662V86.0667Z" fill="#6B962A"/>
<path d="M32.584 40.73V35.37C32.584 34.3829 33.3835 33.5834 34.3706 33.5834H39.7306C40.7178 33.5834 41.5173 34.3829 41.5173 35.37V40.73C41.5173 41.7172 40.7178 42.5167 39.7306 42.5167H34.3708C33.3836 42.5167 32.584 41.7171 32.584 40.73Z" fill="#FDB62F"/>
<path d="M35.934 36.9333H32.584V39.1667H35.934V36.9333Z" fill="#AD7351"/>
<path d="M41.516 36.9333H38.166V39.1667H41.516V36.9333Z" fill="#AD7351"/>
<path d="M86.1831 67.0833C85.8871 67.0833 85.6024 66.966 85.3936 66.7561L80.927 62.2895C80.4981 61.8462 80.5105 61.1393 80.9549 60.7105C81.3882 60.2929 82.0738 60.2929 82.5059 60.7105L86.9726 65.1772C87.4081 65.6138 87.4081 66.3206 86.9726 66.7561C86.7627 66.966 86.479 67.0833 86.1831 67.0833Z" fill="#F2A46F"/>
<path d="M82.8334 39.83V33.5833C82.83 30.5013 80.332 28.0033 77.25 28H32.5833C29.5013 28.0033 27.0033 30.5013 27 33.5833V58.1499C27.0089 61.0019 29.1696 63.3859 32.0071 63.6752L36.2046 74.5716C37.3135 77.4493 40.544 78.8831 43.4216 77.7743L69.6342 67.6774C67.823 72.4087 68.3378 77.7152 71.0256 82.0098L71.6666 83.036V93.8834C71.6666 94.4998 72.1669 95 72.7833 95H92.8832C93.4996 95 93.9999 94.4998 93.9999 93.8834V57.0233C93.9899 53.1618 92.4521 49.4623 89.7219 46.7309L82.8334 39.83ZM82.8334 46.5076L86.2226 55.3059C86.887 57.0322 86.0261 58.9707 84.2996 59.6351L82.3622 60.3833C82.6715 59.6798 82.8323 58.9194 82.8334 58.1499V46.5076ZM29.2334 58.15V33.5833C29.2334 31.733 30.7331 30.2333 32.5834 30.2333H77.2501C79.1004 30.2333 80.6001 31.733 80.6001 33.5833V40.6808H80.5901L80.6001 40.7065V58.15C80.5912 58.3443 80.5666 58.5386 80.5242 58.7285L70.2956 48.4987C67.9416 46.1995 64.1706 46.243 61.8714 48.5969C59.6783 50.8414 59.6023 54.4013 61.6972 56.7375L66.0578 61.5001H32.5833C30.733 61.5001 29.2334 60.0003 29.2334 58.15ZM43.539 63.7333L35.5983 66.7908L34.4236 63.7333H43.539ZM42.6188 75.6906C40.8925 76.3561 38.954 75.4952 38.2884 73.7688L36.4046 68.8699L49.7343 63.7332V63.7266H68.1045L69.5562 65.309L42.6188 75.6906ZM91.7667 92.7667H73.9V83.8334H91.7667V92.7667ZM91.7667 81.6H73.4031L72.9184 80.8262C70.196 76.4757 70.0877 70.9794 72.6359 66.525C72.8771 66.1029 72.8179 65.5747 72.4896 65.2162L63.3385 55.2332C61.9516 53.7146 62.0577 51.3595 63.5763 49.9715C65.0447 48.6303 67.3082 48.6795 68.7163 50.0831L86.5104 67.8728L88.0893 66.2939L83.9576 62.1622L85.1034 61.7154C87.9788 60.6066 89.4115 57.3784 88.3048 54.5018L84.5249 44.6873L88.143 48.3121C90.4545 50.6225 91.7576 53.7547 91.7665 57.0232L91.7667 81.6Z" fill="#2C597B"/>
<path d="M39.7301 43.6334C41.3337 43.6334 42.6334 42.3335 42.6334 40.7301V35.3701C42.6334 33.7665 41.3335 32.4668 39.7301 32.4668H34.3701C32.7665 32.4668 31.4668 33.7666 31.4668 35.3701V40.7301C31.4668 42.3337 32.7666 43.6334 34.3701 43.6334H39.7301ZM33.7001 40.7301V39.1667H35.9333V36.9333H33.7001V35.3701C33.7001 35.0005 34.0004 34.7001 34.3701 34.7001H39.7301C40.0996 34.7001 40.4001 35.0004 40.4001 35.3701V36.9333H38.1667V39.1667H40.4001V40.7301C40.4001 41.0997 40.0998 41.4001 39.7301 41.4001H34.3701C34.0004 41.4 33.7001 41.0997 33.7001 40.7301Z" fill="#2C597B"/>
<path d="M37.0506 46.9834H32.584V49.2168H37.0506V46.9834Z" fill="#2C597B"/>
<path d="M37.0506 53.6833H32.584V55.9167H37.0506V53.6833Z" fill="#2C597B"/>
<path d="M57.1503 53.6833H52.6836V55.9167H57.1503V53.6833Z" fill="#2C597B"/>
<path d="M43.7499 46.9834H39.2832V49.2168H43.7499V46.9834Z" fill="#2C597B"/>
<path d="M50.4491 46.9834H45.9824V49.2168H50.4491V46.9834Z" fill="#2C597B"/>
<path d="M57.1503 46.9834H52.6836V49.2168H57.1503V46.9834Z" fill="#2C597B"/>
<path d="M76.1338 33.5833H73.9004V36.9333H76.1338V33.5833Z" fill="#2C597B"/>
<path d="M71.667 33.5833H69.4336V36.9333H71.667V33.5833Z" fill="#2C597B"/>
<path d="M67.2002 33.5833H64.9668V36.9333H67.2002V33.5833Z" fill="#2C597B"/>
<path d="M62.7334 33.5833H60.5V36.9333H62.7334V33.5833Z" fill="#2C597B"/>
<path d="M78.3662 86.0667H76.1328V88.3H78.3662V86.0667Z" fill="#2C597B"/>
</svg>
