<svg width="100" height="100" viewBox="0 0 100 100" fill="none" xmlns="http://www.w3.org/2000/svg">
<g clip-path="url(#clip0)">
<path d="M77.4183 41.8821C77.4183 62.3698 60.8096 78.9785 40.3219 78.9785C19.8333 78.9785 3.22461 62.3698 3.22461 41.8821C3.22461 21.3944 19.8333 4.78479 40.3219 4.78479C60.8096 4.78479 77.4183 21.3944 77.4183 41.8821Z" fill="#82C8EA"/>
<path d="M54.8663 57.686L87.1755 42.9997L54.8663 31.2501L17.8262 45.4777L54.8663 57.686Z" fill="#99CAE2"/>
<path d="M54.8648 59.2993C54.695 59.2993 54.5243 59.2725 54.3591 59.219L17.3208 47.0107C16.6739 46.7966 16.2309 46.1995 16.2133 45.5174C16.1976 44.8354 16.612 44.2161 17.2488 43.9725L54.2871 29.7449C54.6479 29.6074 55.0494 29.6028 55.4158 29.7347L87.726 41.4852C88.3416 41.7095 88.7606 42.2826 88.7864 42.9379C88.8113 43.5932 88.4385 44.1977 87.8432 44.469L55.533 59.1553C55.3217 59.2503 55.0937 59.2993 54.8648 59.2993ZM22.6257 45.3615L54.7725 55.9574L82.913 43.1659L54.8805 32.9714L22.6257 45.3615Z" fill="#2C597B"/>
<path d="M87.1847 43.6992V75.7113L55.1736 93.4949L17.8262 79.2673V45.4777L55.1736 57.9268L87.1847 43.6992Z" fill="#54A2C7"/>
<path d="M55.1717 95.1082C54.9779 95.1082 54.7823 95.0731 54.5967 95.002L17.2512 80.7744C16.6254 80.5363 16.2129 79.9364 16.2129 79.2673V45.4777C16.2129 44.96 16.4621 44.4727 16.8829 44.169C17.3047 43.8654 17.8455 43.7796 18.3365 43.9485L55.0887 56.2001L86.5276 42.2254C87.0251 42.003 87.6028 42.05 88.0615 42.3472C88.5202 42.6444 88.7952 43.1529 88.7952 43.6993V75.7104C88.7952 76.2965 88.4777 76.8364 87.9655 77.1206L55.9543 94.9042C55.7125 95.0399 55.4431 95.1082 55.1717 95.1082ZM19.4394 78.1552L55.0444 91.7202L85.5696 74.7607V46.1819L55.827 59.4017C55.4587 59.5623 55.0425 59.5862 54.6614 59.457L19.4385 47.7158V78.1552H19.4394Z" fill="#2C597B"/>
<path d="M54.8389 95.1081C53.9474 95.1081 53.2266 94.3864 53.2266 93.4949V58.0108C53.2266 57.1193 53.9474 56.3976 54.8389 56.3976C55.7304 56.3976 56.4521 57.1193 56.4521 58.0108V93.4949C56.4521 94.3864 55.7304 95.1081 54.8389 95.1081Z" fill="#2C597B"/>
<path d="M45.161 79.2674L35.6098 68.5976L29.0312 73.9321V49.9465L45.161 54.37V79.2674Z" fill="#FA7272"/>
<path d="M45.162 80.8797C44.7116 80.8797 44.2714 80.6905 43.9603 80.3425L35.4336 70.8181L30.0484 75.1844C29.5648 75.5766 28.8984 75.6551 28.3401 75.3874C27.7771 75.1216 27.4199 74.555 27.4199 73.932V49.9465C27.4199 49.4444 27.6543 48.9682 28.0549 48.6645C28.4527 48.3572 28.976 48.2575 29.4596 48.3904L45.5884 52.813C46.2898 53.005 46.7743 53.6436 46.7743 54.3691V79.2664C46.7743 79.9346 46.3617 80.5345 45.7379 80.7735C45.5505 80.8455 45.3549 80.8797 45.162 80.8797ZM35.6098 66.9843C36.0528 66.9843 36.4931 67.1671 36.8115 67.5215L43.5487 75.0469V55.5993L30.6455 52.0618V70.5477L34.5946 67.3452C34.8918 67.1024 35.2508 66.9843 35.6098 66.9843Z" fill="#2C597B"/>
<path d="M70.9576 51.4886C70.7841 51.4886 70.6078 51.46 70.4343 51.4019L36.8662 39.8904C36.0227 39.6006 35.5742 38.6841 35.863 37.8415C36.1528 36.9989 37.0674 36.555 37.9119 36.8383L71.48 48.3489C72.3235 48.6396 72.7721 49.556 72.4832 50.3987C72.2534 51.0678 71.6267 51.4886 70.9576 51.4886Z" fill="#2C597B"/>
<path d="M85.9207 53.8605C79.034 53.8605 73.4531 59.4413 73.4531 66.3271C73.4531 73.213 85.9207 88.1457 85.9207 88.1457C85.9207 88.1457 98.3874 73.213 98.3874 66.3271C98.3874 59.4413 92.8066 53.8605 85.9207 53.8605Z" fill="#FA7272"/>
<path d="M85.9197 89.759C85.4407 89.759 84.9884 89.5458 84.682 89.1785C83.366 87.605 71.8379 73.5869 71.8379 66.3272C71.8379 58.5637 78.1543 52.2473 85.9197 52.2473C93.6832 52.2473 99.9996 58.5637 99.9996 66.3272C99.9996 73.5869 88.4724 87.605 87.1573 89.1785C86.8527 89.5458 86.3986 89.759 85.9197 89.759ZM85.9197 55.4738C79.9346 55.4738 75.0644 60.3422 75.0644 66.3272C75.0644 70.9455 82.0351 80.6905 85.9197 85.5865C89.8023 80.6896 96.774 70.9427 96.774 66.3272C96.774 60.3422 91.9047 55.4738 85.9197 55.4738Z" fill="#2C597B"/>
<path d="M90.253 66.3272C90.253 68.7212 88.313 70.6612 85.9199 70.6612C83.5259 70.6612 81.5859 68.7212 81.5859 66.3272C81.5859 63.9341 83.5259 61.9941 85.9199 61.9941C88.313 61.9941 90.253 63.9341 90.253 66.3272Z" fill="white"/>
<path d="M85.9209 72.2735C82.6418 72.2735 79.9746 69.6073 79.9746 66.3272C79.9746 63.0481 82.6418 60.3818 85.9209 60.3818C89.2 60.3818 91.8672 63.0481 91.8672 66.3272C91.8672 69.6073 89.2 72.2735 85.9209 72.2735ZM85.9209 63.6074C84.4212 63.6074 83.2011 64.8275 83.2011 66.3272C83.2011 67.827 84.4212 69.048 85.9209 69.048C87.4207 69.048 88.6407 67.827 88.6407 66.3272C88.6407 64.8275 87.4207 63.6074 85.9209 63.6074Z" fill="#2C597B"/>
</g>
<defs>
<clipPath id="clip0">
<rect width="100" height="100" fill="white"/>
</clipPath>
</defs>
</svg>
