<svg width="100" height="100" viewBox="0 0 100 100" fill="none" xmlns="http://www.w3.org/2000/svg">
<g clip-path="url(#clip0)">
<path d="M77.4183 41.8821C77.4183 62.3698 60.8096 78.9785 40.3219 78.9785C19.8333 78.9785 3.22461 62.3698 3.22461 41.8821C3.22461 21.3944 19.8333 4.78479 40.3219 4.78479C60.8096 4.78479 77.4183 21.3944 77.4183 41.8821Z" fill="#FF8585"/>
<g clip-path="url(#clip1)">
<path d="M77.3082 34.6367L58.9411 19.4156C57.228 17.9959 54.7476 17.9962 53.0349 19.4156L34.6678 34.6367C33.6072 35.5161 32.9927 36.8226 32.9927 38.2004L32.9927 82.469C32.9927 85.0251 35.0649 87.0972 37.621 87.0972L74.355 87.0972C76.9111 87.0972 78.9833 85.0251 78.9833 82.469V38.2004C78.9833 36.8226 78.3692 35.5157 77.3082 34.6367ZM60.0901 28.1045C60.0905 30.3698 58.2537 32.2066 55.988 32.2066C53.7223 32.2066 51.8855 30.3698 51.8859 28.1045C51.8859 25.8388 53.7227 24.002 55.988 24.0024C58.2534 24.002 60.0901 25.8388 60.0901 28.1045Z" fill="#FFACB3"/>
<path d="M75.0502 32.7658L75.0502 82.4691C75.0502 85.0252 72.978 87.0974 70.4219 87.0974L74.3543 87.0974C76.9104 87.0974 78.9826 85.0252 78.9826 82.4691L78.9826 38.2005C78.9826 36.8227 78.3685 35.5158 77.3075 34.6368L75.0502 32.7658Z" fill="#FA7272"/>
<path d="M71.5007 43.5078L71.5011 79.6139H40.4767V43.5081L71.5007 43.5078Z" fill="#EFEDEE"/>
<path d="M55.9879 10.7652C54.5082 10.7656 53.3089 11.9649 53.3086 13.4446L53.3086 25.7256C53.3089 27.2052 54.5082 28.4045 55.9875 28.4045C57.4675 28.4045 58.6668 27.2052 58.6668 25.7252L58.6668 13.4442C58.6668 11.9649 57.4671 10.7652 55.9879 10.7652Z" fill="#4F648F"/>
<path d="M39.4358 43.5123C39.4358 43.5123 39.4358 79.5897 39.4358 79.6189C39.4358 80.188 39.9097 80.6619 40.4785 80.6615C40.4785 80.6615 71.4852 80.6615 71.5033 80.6619C72.0528 80.6615 72.5463 80.1957 72.5463 79.6189C72.5463 79.6189 72.5459 43.5657 72.5459 43.5127C72.5463 42.9432 72.072 42.4697 71.5029 42.4697L40.4785 42.4697C39.9028 42.4693 39.4358 42.9363 39.4358 43.5123ZM70.4602 78.5759L41.5211 78.5759L41.5215 44.5549L70.4606 44.5549L70.4602 78.5759Z" fill="#2C597B"/>
<path d="M46.1793 37.9651L46.1793 36.0005C46.1793 35.4244 45.7123 34.9574 45.1367 34.9578C44.5606 34.9578 44.094 35.4244 44.094 36.0005L44.094 37.9651C44.0937 38.5408 44.5606 39.0077 45.1367 39.0077C45.4247 39.0077 45.685 38.891 45.874 38.7021C46.0625 38.5135 46.1797 38.2527 46.1793 37.9651Z" fill="#2C597B"/>
<path d="M67.8884 37.9651L67.8884 36.0004C67.8884 35.4244 67.4214 34.9574 66.8454 34.9574C66.2697 34.9578 65.8031 35.4244 65.8027 36L65.8027 37.9647C65.8027 38.5407 66.2697 39.0077 66.8457 39.0077C67.1338 39.0077 67.3941 38.891 67.5831 38.702C67.7716 38.5135 67.8884 38.2523 67.8884 37.9651Z" fill="#2C597B"/>
<path d="M52.6257 37.043C52.1914 37.4221 52.148 38.0807 52.527 38.5142C53.3834 39.4943 54.6457 40.0561 55.9913 40.0561C57.2347 40.0561 58.4075 39.576 59.2547 38.7289C59.3238 38.6598 59.3906 38.5883 59.4555 38.5142C59.8346 38.0807 59.79 37.4217 59.3565 37.0434C58.9229 36.6636 58.2635 36.7086 57.8853 37.1421C57.4248 37.6686 56.7343 37.9705 55.9913 37.9708C55.2478 37.9708 54.5577 37.6686 54.0969 37.1417C53.7179 36.7082 53.0593 36.664 52.6257 37.043Z" fill="#2C597B"/>
<path d="M50.4088 70.6547C50.4145 71.6919 52.123 72.2545 52.572 71.208L61.623 52.9543C62.0151 52.1697 61.2493 51.3702 60.4667 51.3702C60.0896 51.3702 59.7374 51.5465 59.5615 51.8982C59.5615 51.8982 50.5251 70.1965 50.5101 70.2269C50.4395 70.3697 50.4084 70.5145 50.4088 70.6547Z" fill="#2C597B"/>
<path d="M58.0784 63.9415L58.078 67.587C58.078 69.9757 59.6371 70.8305 61.674 70.8305C63.6851 70.8309 65.2439 69.9757 65.2439 67.587L65.2442 63.9415C65.2438 61.5779 63.6851 60.6981 61.6736 60.6981C59.6367 60.6981 58.0784 61.5782 58.0784 63.9415ZM63.1068 63.9415L63.1068 67.5874C63.1068 68.5175 62.5538 68.9446 61.674 68.9449C60.7938 68.9449 60.2658 68.5175 60.2654 67.587L60.2658 63.9415C60.2654 63.011 60.7934 62.5836 61.6736 62.5836C62.5538 62.5836 63.1068 63.0114 63.1068 63.9415Z" fill="#2C597B"/>
<path d="M46.7392 55.619L46.7392 59.2649C46.7392 61.6289 48.2983 62.5084 50.3344 62.5084C52.3459 62.5084 53.9047 61.6286 53.905 59.2649L53.9047 55.6194C53.905 53.2557 52.3459 52.3755 50.3348 52.3759C48.2979 52.3759 46.7392 53.2557 46.7392 55.619ZM50.3348 54.2615C51.2146 54.2619 51.7676 54.6889 51.768 55.6194L51.7676 59.2649C51.768 60.1954 51.2146 60.6228 50.3348 60.6224C49.4546 60.6224 48.9266 60.195 48.9266 59.2649L48.9266 55.619C48.9266 54.6889 49.4546 54.2615 50.3348 54.2615Z" fill="#2C597B"/>
<path d="M74.3587 88.1441C77.4451 88.1445 80.0296 85.5539 80.0296 82.4733L80.0296 48.0986C80.0296 47.5226 79.563 47.056 78.987 47.056C78.4109 47.056 77.944 47.523 77.944 48.099C77.944 48.099 77.944 82.4268 77.944 82.4736C77.944 84.4245 76.3057 86.0589 74.3587 86.0589L37.6247 86.0589C35.6477 86.0589 34.0391 84.4502 34.0391 82.4733L34.0387 74.8477C34.0391 74.2721 33.5721 73.8051 32.9961 73.8051C32.4204 73.8047 31.9534 74.2717 31.9534 74.8477L31.9534 82.4736C31.9534 85.6004 34.4976 88.1445 37.6243 88.1445C37.6243 88.1445 74.3284 88.1445 74.3587 88.1441Z" fill="#2C597B"/>
<path d="M55.9921 9.72679C53.9626 9.72717 52.2702 11.4211 52.2702 13.4487L52.2702 18.7029L34.0065 33.8384C32.7016 34.9198 31.9539 36.5108 31.9539 38.2051L31.9539 70.6765C31.9539 71.2526 32.4209 71.7195 32.9969 71.7195C33.5725 71.7191 34.0391 71.2526 34.0395 70.6769L34.0395 38.2047C34.0395 37.1341 34.5126 36.1279 35.3371 35.444L52.2698 21.4114L52.2698 24.5604C51.3524 25.5216 50.8466 26.7762 50.8466 28.1088C50.847 29.4832 51.3823 30.7751 52.3539 31.7466C53.3259 32.7186 54.6177 33.2539 55.9918 33.2539C57.3666 33.2539 58.658 32.719 59.63 31.747C60.602 30.7751 61.1373 29.4832 61.1369 28.1088C61.1373 26.7805 60.6231 25.5128 59.7137 24.5597L59.7137 21.4114L76.6468 35.4444C77.4713 36.1276 77.9444 37.1337 77.9444 38.2044L77.9444 43.9271C77.9444 44.5031 78.4114 44.9701 78.9874 44.9701C79.5381 44.9701 80.03 44.5081 80.03 43.9274V38.2047C80.03 36.5104 79.282 34.919 77.9774 33.838L59.7137 18.7025L59.7141 13.4487C59.7141 11.3965 58.0444 9.72679 55.9921 9.72679ZM59.0517 28.1088C59.0524 29.777 57.658 31.1683 55.9921 31.1683C54.324 31.1683 52.9326 29.7754 52.9326 28.1088C52.9326 28.0266 52.9361 27.9456 52.9422 27.8649C52.9472 27.8722 52.9534 27.8784 52.9588 27.8861C53.6577 28.8599 54.7917 29.4517 55.9921 29.4517C57.188 29.4517 58.3305 28.8553 59.0255 27.8861C59.0305 27.8788 59.0367 27.8718 59.0421 27.8649C59.0482 27.9456 59.0513 28.027 59.0517 28.1088ZM57.6281 13.4487L57.6281 25.7298C57.6285 26.6165 56.88 27.3657 55.9922 27.3657C55.1047 27.3661 54.3554 26.6161 54.3558 25.7294C54.3558 25.7294 54.3558 13.456 54.3558 13.4484C54.3554 12.5563 55.1016 11.8124 55.9921 11.812C56.8942 11.8124 57.6281 12.5463 57.6281 13.4487Z" fill="#2C597B"/>
</g>
</g>
<defs>
<clipPath id="clip0">
<rect width="100" height="100" fill="white"/>
</clipPath>
<clipPath id="clip1">
<rect width="71.1838" height="71.1838" fill="white" transform="translate(5.66602 58.3345) rotate(-45)"/>
</clipPath>
</defs>
</svg>
