<svg width="23" height="30" viewBox="0 0 23 30" fill="none" xmlns="http://www.w3.org/2000/svg">
<path d="M-1.19933e-06 2.5L-1.0903e-07 27.5C0.000759759 28.1628 0.26679 28.7983 0.739729 29.2669C1.21267 29.7356 1.85389 29.9992 2.52273 30L19.6773 30C20.3461 29.9992 20.9873 29.7356 21.4603 29.2669C21.9332 28.7983 22.1992 28.1628 22.2 27.5L22.2 2.5C22.1992 1.83719 21.9332 1.20174 21.4603 0.733062C20.9873 0.264382 20.3461 0.000750604 19.6773 -2.76943e-06L2.52273 -2.01787e-06C1.85389 0.000751414 1.21267 0.264383 0.739728 0.733063C0.266789 1.20174 0.00075861 1.83719 -1.19933e-06 2.5ZM21.1909 2.5L21.1909 27.5C21.1905 27.8977 21.0308 28.279 20.7471 28.5602C20.4633 28.8414 20.0786 28.9995 19.6773 29L19.1713 29C19.5002 28.5679 19.6778 28.0412 19.6773 27.5L19.6773 25.5L18.6682 25.5L18.6682 27.5C18.6677 27.8977 18.5081 28.279 18.2243 28.5602C17.9406 28.8414 17.5558 28.9995 17.1545 29L16.6486 29C16.9775 28.5679 17.1551 28.0412 17.1545 27.5L17.1545 2.5C17.1551 1.95876 16.9775 1.43212 16.6486 0.999997L17.1545 0.999997C17.5558 1.00045 17.9406 1.15863 18.2243 1.43984C18.5081 1.72104 18.6677 2.10231 18.6682 2.5L18.6682 10.5L19.6773 10.5L19.6773 2.5C19.6778 1.95876 19.5002 1.43212 19.1713 0.999997L19.6773 0.999997C20.0786 1.00045 20.4633 1.15863 20.7471 1.43984C21.0308 1.72104 21.1905 2.10231 21.1909 2.5ZM14.6318 0.999997C15.0331 1.00045 15.4179 1.15863 15.7016 1.43984C15.9854 1.72104 16.145 2.10231 16.1455 2.5L16.1455 27.5C16.145 27.8977 15.9854 28.279 15.7016 28.5602C15.4179 28.8414 15.0331 28.9995 14.6318 29L2.52273 29C2.12143 28.9995 1.73669 28.8414 1.45293 28.5602C1.16917 28.279 1.00955 27.8977 1.00909 27.5L1.00909 2.5C1.00955 2.10231 1.16917 1.72104 1.45293 1.43984C1.73669 1.15863 2.12143 1.00045 2.52273 0.999998L14.6318 0.999997Z" fill="black"/>
<path d="M18.668 24.5L18.668 23.5L19.6771 23.5L19.6771 24.5L18.668 24.5Z" fill="black"/>
<path d="M18.668 12.5L18.668 11.5L19.6771 11.5L19.6771 12.5L18.668 12.5Z" fill="black"/>
<path d="M3.53155 24.5L2.52246 24.5L2.52246 25.5L3.53155 25.5C3.66532 25.5002 3.79356 25.5529 3.88815 25.6466C3.98274 25.7403 4.03594 25.8674 4.0361 26L4.0361 27L5.04519 27L5.04519 26C5.04534 25.8674 5.09855 25.7403 5.19313 25.6466C5.28772 25.5529 5.41597 25.5002 5.54973 25.5L7.56792 25.5C7.70168 25.5002 7.82993 25.5529 7.92451 25.6466C8.0191 25.7403 8.07231 25.8674 8.07246 26L8.07246 27L9.08155 27L9.08155 26C9.08171 25.8674 9.13491 25.7403 9.2295 25.6466C9.32409 25.5529 9.45233 25.5002 9.5861 25.5L11.6043 25.5C11.738 25.5002 11.8663 25.5529 11.9609 25.6466C12.0555 25.7403 12.1087 25.8674 12.1088 26L12.1088 27L13.1179 27L13.1179 26C13.1181 25.8674 13.1713 25.7403 13.2659 25.6466C13.3604 25.5529 13.4887 25.5002 13.6225 25.5L14.6316 25.5L14.6316 24.5L13.6225 24.5C13.4887 24.4998 13.3604 24.4471 13.2659 24.3534C13.1713 24.2597 13.1181 24.1326 13.1179 24L13.1179 23L12.1088 23L12.1088 24C12.1087 24.1326 12.0555 24.2597 11.9609 24.3534C11.8663 24.4471 11.738 24.4998 11.6043 24.5L9.5861 24.5C9.45233 24.4998 9.32409 24.4471 9.2295 24.3534C9.13491 24.2597 9.0817 24.1326 9.08155 24L9.08155 23L8.07246 23L8.07246 24C8.07231 24.1326 8.0191 24.2597 7.92451 24.3534C7.82993 24.4471 7.70168 24.4998 7.56792 24.5L5.54973 24.5C5.41597 24.4998 5.28772 24.4471 5.19313 24.3534C5.09855 24.2597 5.04534 24.1326 5.04519 24L5.04519 23L4.0361 23L4.0361 24C4.03594 24.1326 3.98274 24.2597 3.88815 24.3534C3.79356 24.4471 3.66532 24.4998 3.53155 24.5Z" fill="black"/>
<path d="M3.53155 19.5L2.52246 19.5L2.52246 20.5L3.53155 20.5C3.66532 20.5002 3.79356 20.5529 3.88815 20.6466C3.98274 20.7403 4.03594 20.8674 4.0361 21L4.0361 22L5.04519 22L5.04519 21C5.04534 20.8674 5.09855 20.7403 5.19313 20.6466C5.28772 20.5529 5.41597 20.5002 5.54973 20.5L7.56792 20.5C7.70168 20.5002 7.82993 20.5529 7.92451 20.6466C8.0191 20.7403 8.07231 20.8674 8.07246 21L8.07246 22L9.08155 22L9.08155 21C9.08171 20.8674 9.13491 20.7403 9.2295 20.6466C9.32409 20.5529 9.45233 20.5002 9.5861 20.5L11.6043 20.5C11.738 20.5002 11.8663 20.5529 11.9609 20.6466C12.0555 20.7403 12.1087 20.8674 12.1088 21L12.1088 22L13.1179 22L13.1179 21C13.1181 20.8674 13.1713 20.7403 13.2659 20.6466C13.3604 20.5529 13.4887 20.5002 13.6225 20.5L14.6316 20.5L14.6316 19.5L13.6225 19.5C13.4887 19.4998 13.3604 19.4471 13.2659 19.3534C13.1713 19.2597 13.1181 19.1326 13.1179 19L13.1179 18L12.1088 18L12.1088 19C12.1087 19.1326 12.0555 19.2597 11.9609 19.3534C11.8663 19.4471 11.738 19.4998 11.6043 19.5L9.5861 19.5C9.45233 19.4998 9.32409 19.4471 9.2295 19.3534C9.13491 19.2597 9.0817 19.1326 9.08155 19L9.08155 18L8.07246 18L8.07246 19C8.07231 19.1326 8.0191 19.2597 7.92451 19.3534C7.82993 19.4471 7.70168 19.4998 7.56792 19.5L5.54973 19.5C5.41597 19.4998 5.28772 19.4471 5.19313 19.3534C5.09855 19.2597 5.04534 19.1326 5.04519 19L5.04519 18L4.0361 18L4.0361 19C4.03594 19.1326 3.98274 19.2597 3.88815 19.3534C3.79356 19.4471 3.66532 19.4998 3.53155 19.5Z" fill="black"/>
<path d="M3.53155 14.5L2.52246 14.5L2.52246 15.5L3.53155 15.5C3.66532 15.5002 3.79356 15.5529 3.88815 15.6466C3.98274 15.7403 4.03594 15.8674 4.0361 16L4.0361 17L5.04519 17L5.04519 16C5.04534 15.8674 5.09855 15.7403 5.19313 15.6466C5.28772 15.5529 5.41597 15.5002 5.54973 15.5L7.56792 15.5C7.70168 15.5002 7.82993 15.5529 7.92451 15.6466C8.0191 15.7403 8.07231 15.8674 8.07246 16L8.07246 17L9.08155 17L9.08155 16C9.08171 15.8674 9.13491 15.7403 9.2295 15.6466C9.32409 15.5529 9.45233 15.5002 9.5861 15.5L11.6043 15.5C11.738 15.5002 11.8663 15.5529 11.9609 15.6466C12.0555 15.7403 12.1087 15.8674 12.1088 16L12.1088 17L13.1179 17L13.1179 16C13.1181 15.8674 13.1713 15.7403 13.2659 15.6466C13.3604 15.5529 13.4887 15.5002 13.6225 15.5L14.6316 15.5L14.6316 14.5L13.6225 14.5C13.4887 14.4998 13.3604 14.4471 13.2659 14.3534C13.1713 14.2597 13.1181 14.1326 13.1179 14L13.1179 13L12.1088 13L12.1088 14C12.1087 14.1326 12.0555 14.2597 11.9609 14.3534C11.8663 14.4471 11.738 14.4998 11.6043 14.5L9.5861 14.5C9.45233 14.4998 9.32409 14.4471 9.2295 14.3534C9.13491 14.2597 9.0817 14.1326 9.08155 14L9.08155 13L8.07246 13L8.07246 14C8.07231 14.1326 8.0191 14.2597 7.92451 14.3534C7.82993 14.4471 7.70168 14.4998 7.56792 14.5L5.54973 14.5C5.41597 14.4998 5.28772 14.4471 5.19313 14.3534C5.09855 14.2597 5.04534 14.1326 5.04519 14L5.04519 13L4.0361 13L4.0361 14C4.03594 14.1326 3.98274 14.2597 3.88815 14.3534C3.79356 14.4471 3.66532 14.4998 3.53155 14.5Z" fill="black"/>
<path d="M3.53155 9.5L2.52246 9.5L2.52246 10.5L3.53155 10.5C3.66532 10.5002 3.79356 10.5529 3.88815 10.6466C3.98274 10.7403 4.03594 10.8674 4.0361 11L4.0361 12L5.04519 12L5.04519 11C5.04534 10.8674 5.09855 10.7403 5.19313 10.6466C5.28772 10.5529 5.41597 10.5002 5.54973 10.5L7.56792 10.5C7.70168 10.5002 7.82993 10.5529 7.92451 10.6466C8.0191 10.7403 8.07231 10.8674 8.07246 11L8.07246 12L9.08155 12L9.08155 11C9.08171 10.8674 9.13491 10.7403 9.2295 10.6466C9.32409 10.5529 9.45233 10.5002 9.5861 10.5L11.6043 10.5C11.738 10.5002 11.8663 10.5529 11.9609 10.6466C12.0555 10.7403 12.1087 10.8674 12.1088 11L12.1088 12L13.1179 12L13.1179 11C13.1181 10.8674 13.1713 10.7403 13.2659 10.6466C13.3604 10.5529 13.4887 10.5002 13.6225 10.5L14.6316 10.5L14.6316 9.5L13.6225 9.5C13.4887 9.49985 13.3604 9.44712 13.2659 9.35339C13.1713 9.25965 13.1181 9.13256 13.1179 9L13.1179 8L12.1088 8L12.1088 9C12.1087 9.13256 12.0555 9.25965 11.9609 9.35339C11.8663 9.44712 11.738 9.49985 11.6043 9.5L9.5861 9.5C9.45233 9.49985 9.32409 9.44712 9.2295 9.35339C9.13491 9.25965 9.0817 9.13256 9.08155 9L9.08155 8L8.07246 8L8.07246 9C8.07231 9.13256 8.0191 9.25965 7.92451 9.35339C7.82993 9.44712 7.70168 9.49985 7.56792 9.5L5.54973 9.5C5.41597 9.49985 5.28772 9.44712 5.19313 9.35339C5.09855 9.25965 5.04534 9.13256 5.04519 9L5.04519 8L4.0361 8L4.0361 9C4.03594 9.13256 3.98274 9.25965 3.88815 9.35339C3.79356 9.44712 3.66532 9.49985 3.53155 9.5Z" fill="black"/>
<path d="M3.53155 4.5L2.52246 4.5L2.52246 5.5L3.53155 5.5C3.66532 5.50015 3.79356 5.55288 3.88815 5.64661C3.98274 5.74035 4.03594 5.86744 4.0361 6L4.0361 7L5.04519 7L5.04519 6C5.04534 5.86744 5.09855 5.74035 5.19313 5.64661C5.28772 5.55288 5.41597 5.50015 5.54973 5.5L7.56792 5.5C7.70168 5.50015 7.82993 5.55288 7.92451 5.64661C8.0191 5.74035 8.07231 5.86744 8.07246 6L8.07246 7L9.08155 7L9.08155 6C9.08171 5.86744 9.13491 5.74035 9.2295 5.64661C9.32409 5.55288 9.45233 5.50015 9.5861 5.5L11.6043 5.5C11.738 5.50015 11.8663 5.55288 11.9609 5.64661C12.0555 5.74035 12.1087 5.86744 12.1088 6L12.1088 7L13.1179 7L13.1179 6C13.1181 5.86744 13.1713 5.74035 13.2659 5.64661C13.3604 5.55288 13.4887 5.50015 13.6225 5.5L14.6316 5.5L14.6316 4.5L13.6225 4.5C13.4887 4.49985 13.3604 4.44712 13.2659 4.35339C13.1713 4.25965 13.1181 4.13256 13.1179 4L13.1179 3L12.1088 3L12.1088 4C12.1087 4.13256 12.0555 4.25965 11.9609 4.35339C11.8663 4.44712 11.738 4.49985 11.6043 4.5L9.5861 4.5C9.45233 4.49985 9.32409 4.44712 9.2295 4.35339C9.13491 4.25965 9.0817 4.13256 9.08155 4L9.08155 3L8.07246 3L8.07246 4C8.07231 4.13256 8.0191 4.25965 7.92451 4.35339C7.82993 4.44712 7.70168 4.49985 7.56792 4.5L5.54973 4.5C5.41597 4.49985 5.28772 4.44712 5.19313 4.35339C5.09855 4.25965 5.04534 4.13256 5.04519 4L5.04519 3L4.0361 3L4.0361 4C4.03594 4.13256 3.98274 4.25965 3.88815 4.35339C3.79356 4.44712 3.66532 4.49985 3.53155 4.5Z" fill="black"/>
</svg>
