<svg width="50" height="50" viewBox="0 0 50 50" fill="none" xmlns="http://www.w3.org/2000/svg">
<path d="M9.31411 36.1982C9.45718 36.3412 9.64468 36.4128 9.83208 36.4128C10.0195 36.4128 10.207 36.3413 10.35 36.1982L10.8432 35.705L11.3364 36.1982C11.4794 36.3412 11.6669 36.4128 11.8543 36.4128C12.0417 36.4128 12.2292 36.3413 12.3723 36.1982C12.6583 35.9122 12.6583 35.4484 12.3723 35.1625L11.8791 34.6692L12.3723 34.1759C12.6583 33.8899 12.6583 33.4261 12.3723 33.1402C12.0862 32.8542 11.6225 32.8542 11.3365 33.1402L10.8433 33.6333L10.3501 33.1402C10.064 32.8542 9.60034 32.8542 9.31431 33.1402C9.02827 33.4262 9.02827 33.89 9.31431 34.1759L9.80757 34.6692L9.31431 35.1625C9.02808 35.4484 9.02808 35.9122 9.31411 36.1982Z" fill="black"/>
<path d="M23.4704 24.0474C23.6135 24.1905 23.8009 24.2619 23.9884 24.2619C24.1758 24.2619 24.3633 24.1905 24.5063 24.0474L24.9996 23.5541L25.4928 24.0474C25.6359 24.1904 25.8234 24.2619 26.0108 24.2619C26.1982 24.2619 26.3857 24.1905 26.5288 24.0474C26.8148 23.7614 26.8148 23.2976 26.5288 23.0116L26.0355 22.5184L26.5288 22.0251C26.8148 21.7391 26.8148 21.2754 26.5288 20.9894C26.2427 20.7033 25.7791 20.7032 25.4929 20.9894L24.9995 21.4824L24.5062 20.9892C24.2201 20.7031 23.7564 20.7031 23.4704 20.9892C23.1844 21.2752 23.1844 21.739 23.4704 22.0249L23.9636 22.5182L23.4704 23.0115C23.1844 23.2976 23.1844 23.7614 23.4704 24.0474Z" fill="black"/>
<path d="M47.3717 0H34.8587C34.2532 0 33.6621 0.21123 33.1945 0.594727C33.1114 0.662793 33.0041 0.662988 32.9208 0.594727C32.4531 0.21123 31.862 0 31.2565 0H18.7436C18.138 0 17.547 0.21123 17.0793 0.594727C16.9962 0.662793 16.8889 0.662988 16.8056 0.594727C16.3379 0.21123 15.7468 0 15.1413 0H2.62832C1.179 0 0 1.1791 0 2.62832V8.41084C0 8.81533 0.327832 9.14326 0.732422 9.14326C1.13701 9.14326 1.46484 8.81533 1.46484 8.41084V2.62832C1.46484 1.98682 1.98682 1.46484 2.62832 1.46484H15.1414C15.413 1.46484 15.6673 1.55557 15.8768 1.72734C16.5042 2.24199 17.3806 2.24199 18.0082 1.72734C18.2176 1.55566 18.472 1.46484 18.7436 1.46484H31.2565C31.5281 1.46484 31.7824 1.55557 31.9919 1.72734C32.6194 2.24199 33.4958 2.24199 34.1233 1.72734C34.3327 1.55566 34.5871 1.46484 34.8587 1.46484H47.3717C48.0132 1.46484 48.5352 1.98682 48.5351 2.62832V43.1515C48.1841 42.9774 47.7892 42.8791 47.3716 42.8791H40.5938C40.1892 42.8791 39.8613 43.207 39.8613 43.6115C39.8613 44.016 40.1892 44.3439 40.5938 44.3439H47.3716C48.0131 44.3439 48.5351 44.8659 48.5351 45.5074V46.4232V47.3717C48.5351 48.0132 48.0131 48.5352 47.3716 48.5352H34.8586C34.587 48.5352 34.3327 48.4444 34.1232 48.2727C33.4957 47.758 32.6193 47.758 31.9918 48.2727C31.7824 48.4443 31.528 48.5352 31.2564 48.5352H18.7435C18.4719 48.5352 18.2176 48.4444 18.0081 48.2727C17.3807 47.758 16.5043 47.758 15.8767 48.2727C15.6673 48.4443 15.4129 48.5352 15.1413 48.5352H2.62832C1.98682 48.5352 1.46484 48.0132 1.46484 47.3717V46.4232V45.5074C1.46484 44.8659 1.98682 44.3439 2.62832 44.3439H15.1414C15.413 44.3439 15.6673 44.4347 15.8768 44.6064C16.5042 45.1211 17.3806 45.1211 18.0082 44.6064C18.2176 44.4348 18.472 44.3439 18.7436 44.3439H31.2566C31.5282 44.3439 31.7825 44.4347 31.992 44.6064C32.6195 45.1211 33.4959 45.1211 34.1234 44.6064C34.3328 44.4348 34.5872 44.3439 34.8588 44.3439H37.7026C38.1072 44.3439 38.4351 44.016 38.4351 43.6115C38.4351 43.207 38.1072 42.8791 37.7026 42.8791H34.8588C34.2533 42.8791 33.6622 43.0903 33.1945 43.4738C33.1114 43.5419 33.0041 43.5421 32.9208 43.4738C32.4531 43.0903 31.862 42.8791 31.2565 42.8791H18.7436C18.1381 42.8791 17.547 43.0903 17.0793 43.4738C16.9962 43.5419 16.8889 43.5421 16.8056 43.4738C16.3379 43.0903 15.7468 42.8791 15.1413 42.8791H2.62832C2.21074 42.8791 1.81582 42.9774 1.46484 43.1515V11.2073C1.46484 10.8028 1.13701 10.4749 0.732422 10.4749C0.327832 10.4749 0 10.8028 0 11.2073V45.5074V46.4232V47.3717C0 48.8209 1.179 50 2.62832 50H15.1413C15.7468 50 16.3379 49.7888 16.8056 49.4053C16.8887 49.3372 16.996 49.337 17.0793 49.4053C17.547 49.7888 18.1381 50 18.7436 50H31.2564C31.8619 50 32.453 49.7888 32.9207 49.4053C33.0039 49.3372 33.1111 49.337 33.1944 49.4053C33.6621 49.7888 34.2532 50 34.8587 50H47.3717C48.821 50 50 48.8209 50 47.3717V46.4232V45.5074V2.62832C50 1.1791 48.821 0 47.3717 0Z" fill="black"/>
<path d="M9.31411 11.9306C9.45718 12.0735 9.64468 12.1451 9.83208 12.1451C10.0195 12.1451 10.207 12.0736 10.35 11.9306L10.8432 11.4374L11.3364 11.9306C11.4794 12.0735 11.6669 12.1451 11.8543 12.1451C12.0417 12.1451 12.2292 12.0736 12.3723 11.9306C12.6583 11.6445 12.6583 11.1807 12.3723 10.8948L11.8791 10.4015L12.3723 9.90829C12.6583 9.62225 12.6583 9.15848 12.3723 8.87255C12.0862 8.58651 11.6225 8.58651 11.3365 8.87255L10.8433 9.36571L10.3501 8.87255C10.064 8.58651 9.60034 8.58651 9.31431 8.87255C9.02827 9.15858 9.02827 9.62235 9.31431 9.90829L9.80757 10.4015L9.31431 10.8948C9.02808 11.1807 9.02808 11.6445 9.31411 11.9306Z" fill="black"/>
<path d="M9.31411 24.0476C9.45718 24.1906 9.64468 24.2621 9.83208 24.2621C10.0195 24.2621 10.207 24.1907 10.35 24.0476L10.8432 23.5544L11.3364 24.0476C11.4794 24.1907 11.6668 24.2621 11.8543 24.2621C12.0417 24.2621 12.2292 24.1907 12.3723 24.0476C12.6583 23.7616 12.6583 23.2979 12.3723 23.0119L11.8791 22.5186L12.3723 22.0253C12.6583 21.7393 12.6583 21.2755 12.3723 20.9896C12.0862 20.7036 11.6225 20.7036 11.3365 20.9896L10.8433 21.4828L10.3501 20.9896C10.0641 20.7036 9.60044 20.7035 9.31431 20.9896C9.02827 21.2756 9.02827 21.7394 9.31431 22.0253L9.80757 22.5186L9.31431 23.0119C9.02808 23.2978 9.02808 23.7616 9.31411 24.0476Z" fill="black"/>
<path d="M23.4704 11.9307C23.6134 12.0738 23.8008 12.1452 23.9883 12.1452C24.1757 12.1452 24.3632 12.0738 24.5062 11.9307L24.9996 11.4373L25.4929 11.9307C25.6359 12.0738 25.8234 12.1452 26.0108 12.1452C26.1982 12.1452 26.3857 12.0738 26.5288 11.9307C26.8148 11.6447 26.8148 11.1809 26.5287 10.8949L26.0354 10.4017L26.5287 9.90842C26.8148 9.62239 26.8148 9.15872 26.5288 8.87268C26.2427 8.58665 25.779 8.58665 25.493 8.87268L24.9995 9.36594L24.5061 8.87258C24.2202 8.58645 23.7564 8.58655 23.4704 8.87258C23.1843 9.15862 23.1843 9.62239 23.4705 9.90833L23.9637 10.4016L23.4705 10.8949C23.1843 11.1809 23.1843 11.6447 23.4704 11.9307Z" fill="black"/>
<path d="M37.6266 24.0476C37.7697 24.1906 37.9572 24.2621 38.1446 24.2621C38.332 24.2621 38.5195 24.1907 38.6625 24.0476L39.1557 23.5544L39.6489 24.0476C39.7919 24.1907 39.9793 24.2621 40.1668 24.2621C40.3542 24.2621 40.5417 24.1907 40.6848 24.0476C40.9708 23.7616 40.9708 23.2979 40.6848 23.0119L40.1915 22.5186L40.6848 22.0253C40.9708 21.7393 40.9708 21.2755 40.6848 20.9896C40.3987 20.7036 39.935 20.7036 39.649 20.9896L39.1558 21.4828L38.6626 20.9896C38.3765 20.7036 37.9128 20.7035 37.6268 20.9896C37.3408 21.2756 37.3408 21.7394 37.6268 22.0253L38.1201 22.5186L37.6268 23.0119C37.3406 23.2978 37.3406 23.7616 37.6266 24.0476Z" fill="black"/>
<path d="M37.6266 36.1982C37.7697 36.3412 37.9572 36.4128 38.1446 36.4128C38.332 36.4128 38.5195 36.3413 38.6625 36.1982L39.1557 35.705L39.6489 36.1982C39.7919 36.3412 39.9794 36.4128 40.1668 36.4128C40.3542 36.4128 40.5417 36.3413 40.6848 36.1982C40.9708 35.9122 40.9708 35.4484 40.6848 35.1625L40.1915 34.6692L40.6848 34.1759C40.9708 33.8899 40.9708 33.4261 40.6848 33.1402C40.3987 32.8542 39.935 32.8542 39.649 33.1402L39.1558 33.6333L38.6626 33.1402C38.3765 32.8542 37.9128 32.8542 37.6268 33.1402C37.3408 33.4262 37.3408 33.89 37.6268 34.1759L38.1201 34.6692L37.6268 35.1625C37.3406 35.4484 37.3406 35.9122 37.6266 36.1982Z" fill="black"/>
<path d="M23.4704 36.1982C23.6134 36.3412 23.8008 36.4127 23.9883 36.4127C24.1757 36.4127 24.3632 36.3412 24.5062 36.1982L24.9996 35.7048L25.4929 36.1982C25.6359 36.3412 25.8234 36.4127 26.0108 36.4127C26.1982 36.4127 26.3857 36.3412 26.5288 36.1982C26.8148 35.9121 26.8148 35.4484 26.5287 35.1624L26.0354 34.6692L26.5287 34.1759C26.8146 33.89 26.8146 33.4263 26.5286 33.1402C26.2425 32.8541 25.7788 32.854 25.4928 33.1402L24.9995 33.6335L24.5061 33.1402C24.2202 32.854 23.7564 32.8541 23.4704 33.1402C23.1843 33.4262 23.1843 33.89 23.4705 34.1759L23.9637 34.6692L23.4705 35.1624C23.1843 35.4485 23.1843 35.9121 23.4704 36.1982Z" fill="black"/>
<path d="M37.6266 11.9306C37.7697 12.0735 37.9572 12.1451 38.1446 12.1451C38.332 12.1451 38.5195 12.0736 38.6625 11.9306L39.1557 11.4374L39.6489 11.9306C39.7919 12.0735 39.9794 12.1451 40.1668 12.1451C40.3542 12.1451 40.5417 12.0736 40.6848 11.9306C40.9708 11.6445 40.9708 11.1807 40.6848 10.8948L40.1915 10.4015L40.6848 9.90829C40.9708 9.62225 40.9708 9.15848 40.6848 8.87255C40.3987 8.58651 39.935 8.58651 39.649 8.87255L39.1558 9.36571L38.6626 8.87255C38.3765 8.58651 37.9128 8.58651 37.6268 8.87255C37.3408 9.15858 37.3408 9.62235 37.6268 9.90829L38.1201 10.4015L37.6268 10.8948C37.3406 11.1807 37.3406 11.6445 37.6266 11.9306Z" fill="black"/>
</svg>
