<svg width="61" height="50" viewBox="0 0 61 50" fill="none" xmlns="http://www.w3.org/2000/svg">
<path d="M57.5917 49.9998H3.21563C1.44913 49.9998 0.00976562 48.5604 0.00976562 46.7939V35.6279H1.46367V46.7939C1.46367 47.7608 2.24878 48.5459 3.21563 48.5459H57.5917C58.5586 48.5459 59.3437 47.7608 59.3437 46.7939V35.6279H60.7976V46.7939C60.7976 48.5604 59.3582 49.9998 57.5917 49.9998Z" fill="black"/>
<path d="M60.6811 34.9737L51.536 2.23175C51.1726 0.92323 49.9731 0 48.6137 0H41.8821C41.3078 0 40.7771 0.218086 40.3846 0.581562C39.992 0.218086 39.4614 0 38.8871 0H31.901C31.3267 0 30.7961 0.218086 30.4035 0.581562C30.011 0.218086 29.4803 0 28.906 0H21.92C21.3457 0 20.815 0.218086 20.4225 0.581562C20.0299 0.218086 19.4992 0 18.9249 0H12.1933C10.8339 0 9.63447 0.91596 9.271 2.22448L0.125927 34.9737C0.0168838 35.3735 -0.0194637 35.7806 0.00961439 36.1805C0.0605011 36.8056 0.293126 37.4163 0.68568 37.9324C0.911036 38.2232 1.17274 38.4704 1.46352 38.6739C2.016 39.0592 2.6848 39.27 3.38268 39.27H12.8403C13.6981 39.27 14.4033 39.9679 14.4033 40.833H15.8572C15.8572 39.9679 16.5551 39.27 17.4201 39.27H28.1063C28.9642 39.27 29.6693 39.9679 29.6693 40.833H31.1232C31.1232 39.9679 31.8211 39.27 32.6862 39.27H43.3724C44.2374 39.27 44.9353 39.9679 44.9353 40.833H46.3892C46.3892 39.9679 47.0871 39.27 47.9522 39.27H57.4244C58.1222 39.27 58.791 39.0592 59.3435 38.6739C59.6343 38.4704 59.896 38.2232 60.1214 37.9324C60.5139 37.409 60.7465 36.8056 60.7974 36.1805C60.8338 35.7806 60.7974 35.3735 60.6811 34.9737ZM59.3435 36.1005C59.3072 36.4422 59.1763 36.7693 58.9582 37.0528C58.5875 37.5399 58.0277 37.8161 57.4244 37.8161H47.9522C47.0362 37.8161 46.2147 38.2232 45.6623 38.8702C45.1098 38.2232 44.2883 37.8161 43.3724 37.8161H32.6862C31.7702 37.8161 30.9487 38.2232 30.3962 38.8702C29.8438 38.2232 29.0223 37.8161 28.1063 37.8161H17.4201C16.5042 37.8161 15.6827 38.2232 15.1302 38.8702C14.5778 38.2232 13.7563 37.8161 12.8403 37.8161H3.38268C2.77204 37.8161 2.21228 37.5399 1.84881 37.0528C1.63072 36.7693 1.49987 36.4422 1.46352 36.1005C1.44898 35.9624 1.44898 35.8242 1.46352 35.6789C1.47079 35.5698 1.4926 35.468 1.52168 35.3663L10.6667 2.61703C10.8558 1.9337 11.4809 1.45391 12.1933 1.45391H18.9249C19.3466 1.45391 19.6955 1.80284 19.6955 2.22448H21.1494C21.1494 1.80284 21.4983 1.45391 21.92 1.45391H28.906C29.3276 1.45391 29.6766 1.80284 29.6766 2.22448H31.1305C31.1305 1.80284 31.4794 1.45391 31.901 1.45391H38.8871C39.3087 1.45391 39.6576 1.80284 39.6576 2.22448H41.1115C41.1115 1.80284 41.4605 1.45391 41.8821 1.45391H48.6137C49.3261 1.45391 49.9513 1.9337 50.1403 2.61703L59.2854 35.3663C59.3144 35.468 59.3362 35.5771 59.3435 35.6789C59.3581 35.817 59.3581 35.9624 59.3435 36.1005Z" fill="black"/>
<path d="M17.7913 28.9909C17.7913 29.5506 17.3333 30.0086 16.7736 30.0086C16.2138 30.0086 15.7559 29.5506 15.7559 28.9909C15.7559 28.4311 16.2138 27.9731 16.7736 27.9731C17.3333 27.9731 17.7913 28.4311 17.7913 28.9909Z" fill="black"/>
<path d="M31.4212 28.9909C31.4212 29.5506 30.9632 30.0086 30.4035 30.0086C29.8437 30.0086 29.3857 29.5506 29.3857 28.9909C29.3857 28.4311 29.8437 27.9731 30.4035 27.9731C30.9632 27.9731 31.4212 28.4311 31.4212 28.9909Z" fill="black"/>
<path d="M45.1243 28.9909C45.1243 29.5506 44.6664 30.0086 44.1066 30.0086C43.5468 30.0086 43.0889 29.5506 43.0889 28.9909C43.0889 28.4311 43.5468 27.9731 44.1066 27.9731C44.6664 27.9731 45.1243 28.4311 45.1243 28.9909Z" fill="black"/>
<path d="M19.1722 18.8859C19.1722 19.4457 18.7142 19.9036 18.1545 19.9036C17.5947 19.9036 17.1367 19.4457 17.1367 18.8859C17.1367 18.3261 17.5947 17.8682 18.1545 17.8682C18.7142 17.8682 19.1722 18.3261 19.1722 18.8859Z" fill="black"/>
<path d="M31.4212 18.8859C31.4212 19.4457 30.9632 19.9036 30.4035 19.9036C29.8437 19.9036 29.3857 19.4457 29.3857 18.8859C29.3857 18.3261 29.8437 17.8682 30.4035 17.8682C30.9632 17.8682 31.4212 18.3261 31.4212 18.8859Z" fill="black"/>
<path d="M43.7425 18.8859C43.7425 19.4457 43.2845 19.9036 42.7248 19.9036C42.165 19.9036 41.707 19.4457 41.707 18.8859C41.707 18.3261 42.165 17.8682 42.7248 17.8682C43.2845 17.8682 43.7425 18.3261 43.7425 18.8859Z" fill="black"/>
<path d="M20.4808 9.21793C20.4808 9.77768 20.0228 10.2357 19.463 10.2357C18.9033 10.2357 18.4453 9.77768 18.4453 9.21793C18.4453 8.65818 18.9033 8.2002 19.463 8.2002C20.0228 8.2002 20.4808 8.65818 20.4808 9.21793Z" fill="black"/>
<path d="M31.4212 9.21793C31.4212 9.77768 30.9632 10.2357 30.4035 10.2357C29.8437 10.2357 29.3857 9.77768 29.3857 9.21793C29.3857 8.65818 29.8437 8.2002 30.4035 8.2002C30.9632 8.2002 31.4212 8.65818 31.4212 9.21793Z" fill="black"/>
<path d="M42.4339 9.21793C42.4339 9.77768 41.9759 10.2357 41.4162 10.2357C40.8564 10.2357 40.3984 9.77768 40.3984 9.21793C40.3984 8.65818 40.8564 8.2002 41.4162 8.2002C41.9759 8.2002 42.4339 8.65818 42.4339 9.21793Z" fill="black"/>
</svg>
