<svg width="50" height="50" viewBox="0 0 50 50" fill="none" xmlns="http://www.w3.org/2000/svg">
<g clip-path="url(#clip0)">
<path d="M35.4869 6.34766H36.5234C37.5734 6.34766 38.4277 5.49336 38.4277 4.44336V1.9043C38.4277 0.854297 37.5734 0 36.5234 0H21.8075C21.403 0 21.0751 0.32793 21.0751 0.732422C21.0751 1.13691 21.403 1.46484 21.8075 1.46484H36.5234C36.7657 1.46484 36.9629 1.66201 36.9629 1.9043V4.44336C36.9629 4.68564 36.7657 4.88281 36.5234 4.88281H13.4766C13.2343 4.88281 13.0371 4.68564 13.0371 4.44336V1.9043C13.0371 1.66201 13.2343 1.46484 13.4766 1.46484H18.7144C19.1188 1.46484 19.4468 1.13691 19.4468 0.732422C19.4468 0.32793 19.1188 0 18.7144 0H13.4766C12.4266 0 11.5723 0.854297 11.5723 1.9043V4.44336C11.5723 5.49336 12.4266 6.34766 13.4766 6.34766H14.9994C14.9411 6.4083 14.885 6.47148 14.8332 6.53936C14.4772 7.00576 14.3241 7.58301 14.4021 8.16465C14.5186 9.0334 15.1413 9.72998 15.9463 9.97422C16.0024 9.99668 16.061 10.018 16.1293 10.039L23.0365 12.0912L16.2869 12.9983C15.0862 13.1597 14.2405 14.2679 14.4019 15.4687C14.48 16.0505 14.7801 16.5669 15.2467 16.9229C15.4618 17.087 15.701 17.2062 15.9527 17.2813C16.0147 17.3055 16.0737 17.3264 16.1292 17.3427L23.0366 19.3949L16.2869 20.3021C15.0862 20.4634 14.2405 21.5716 14.4019 22.7725C14.5197 23.6491 15.1427 24.3349 15.9374 24.5792C16.0053 24.6061 16.069 24.6287 16.1292 24.6464L23.0357 26.6988L16.2869 27.6059C15.0862 27.7672 14.2405 28.8754 14.4019 30.0763C14.48 30.658 14.7801 31.1744 15.2467 31.5304C15.4642 31.6963 15.7062 31.8164 15.9609 31.8913C16.0194 31.9144 16.077 31.9352 16.1293 31.9502L23.0359 34.0026L16.287 34.9097C15.0863 35.071 14.2406 36.1792 14.402 37.3801C14.5196 38.2555 15.1411 38.9404 15.9342 39.1857C15.9952 39.2105 16.0584 39.2335 16.1293 39.2549L23.0352 41.3066L16.2872 42.2137C15.4576 42.3252 14.7846 42.8995 14.5132 43.6524H13.4766C12.4266 43.6524 11.5723 44.5067 11.5723 45.5567V48.0958C11.5723 49.1458 12.4266 50.0001 13.4766 50.0001H31.2552C31.6598 50.0001 31.9876 49.6722 31.9876 49.2677C31.9876 48.8632 31.6598 48.5353 31.2552 48.5353H13.4766C13.2343 48.5353 13.0371 48.3381 13.0371 48.0958V45.5567C13.0371 45.3145 13.2343 45.1173 13.4766 45.1173H36.5234C36.7657 45.1173 36.9629 45.3145 36.9629 45.5567V48.0958C36.9629 48.3381 36.7657 48.5353 36.5234 48.5353H34.4347C34.0301 48.5353 33.7022 48.8632 33.7022 49.2677C33.7022 49.6722 34.0301 50.0001 34.4347 50.0001H36.5234C37.5734 50.0001 38.4277 49.1458 38.4277 48.0958V45.5567C38.4277 44.5067 37.5734 43.6524 36.5234 43.6524H35.0006C35.0589 43.5918 35.115 43.5286 35.1668 43.4607C35.5229 42.9943 35.6759 42.4171 35.5979 41.8354C35.4781 40.9423 34.8234 40.2309 33.9855 40.0062C33.8845 39.9582 33.7799 39.9151 33.6694 39.882L27.0085 37.9028L33.713 37.0018C34.2947 36.9236 34.8111 36.6235 35.1672 36.1569C35.5232 35.6903 35.6762 35.1131 35.598 34.5313C35.4761 33.6239 34.8134 32.9196 33.9787 32.6992C33.8797 32.6527 33.7774 32.6106 33.6694 32.5783L27.0084 30.5991L33.713 29.698C34.2947 29.6199 34.8111 29.3198 35.1672 28.8532C35.5232 28.3866 35.6762 27.8094 35.598 27.2276C35.4761 26.3202 34.8135 25.6161 33.9788 25.3956C33.8797 25.349 33.7774 25.307 33.6694 25.2746L27.0083 23.2954L29.5743 22.9506C29.9752 22.8967 30.2565 22.528 30.2027 22.1271C30.1488 21.7262 29.7799 21.445 29.3792 21.4988L16.6772 23.206C16.2771 23.26 15.9075 22.9779 15.8537 22.5776C15.7999 22.1773 16.0818 21.8079 16.4821 21.7541L26.6347 20.3896C26.6362 20.3894 26.6378 20.3893 26.6394 20.3891L33.3229 19.4908C33.724 19.4366 34.0925 19.7189 34.1463 20.1191C34.1725 20.3131 34.1214 20.5056 34.0027 20.661C33.884 20.8166 33.7118 20.9166 33.518 20.9427L32.4774 21.0825C32.0767 21.1363 31.7953 21.5051 31.849 21.906C31.903 22.3069 32.2724 22.5881 32.6726 22.5344L33.7131 22.3945C34.2948 22.3164 34.8112 22.0163 35.1673 21.5497C35.5233 21.0831 35.6763 20.5059 35.5981 19.9241C35.4762 19.0165 34.8131 18.3118 33.978 18.0917C33.8792 18.0453 33.7772 18.0034 33.6695 17.9712L27.0083 15.9919L33.7131 15.0908C34.2948 15.0127 34.8112 14.7126 35.1673 14.246C35.5233 13.7794 35.6763 13.2021 35.5981 12.6204C35.4762 11.7128 34.8131 11.0083 33.9781 10.7881C33.8795 10.7418 33.7775 10.6999 33.6695 10.6675L27.0079 8.68809L33.7128 7.78682C34.5425 7.6749 35.2155 7.10059 35.4869 6.34766ZM16.5792 43.6523L33.3216 41.402C33.354 41.3977 33.3868 41.3956 33.4219 41.3956C33.7862 41.3956 34.0977 41.6684 34.1461 42.0301C34.1722 42.224 34.121 42.4165 34.0023 42.572C33.8837 42.7273 33.7116 42.8273 33.5176 42.8533L27.5722 43.6523H16.5792ZM30.1173 40.3546L26.5764 40.8306L19.9258 38.8547L23.4673 38.3787L30.1173 40.3546ZM34.0027 35.2683C33.884 35.4238 33.7118 35.5238 33.518 35.5499L23.4462 36.9035C23.4439 36.9038 23.4416 36.9042 23.4394 36.9044L16.6772 37.8132C16.2771 37.8672 15.9075 37.5852 15.8537 37.1849C15.7999 36.7846 16.0818 36.4151 16.4821 36.3613L33.3229 34.0979C33.3559 34.0936 33.3886 34.0914 33.4209 34.0914C33.7817 34.0914 34.097 34.359 34.1463 34.7263C34.1724 34.9203 34.1213 35.1128 34.0027 35.2683ZM30.1173 33.0509L26.577 33.5267L19.9273 31.5507L23.4672 31.0749L30.1173 33.0509ZM34.0027 27.9645C33.884 28.12 33.7118 28.22 33.518 28.2461L23.4458 29.5998C23.4439 29.6 23.4421 29.6003 23.4402 29.6006L16.6772 30.5095C16.5858 30.5216 16.4949 30.5161 16.4079 30.4952C16.3982 30.4922 16.3884 30.4902 16.3786 30.4876C16.2918 30.4628 16.2093 30.4223 16.1354 30.3658C15.9798 30.2472 15.8798 30.075 15.8537 29.8812C15.7999 29.4809 16.0818 29.1114 16.4821 29.0576L33.3229 26.7942C33.3559 26.7898 33.3886 26.7877 33.4209 26.7877C33.7817 26.7877 34.097 27.0553 34.1463 27.4226C34.1724 27.6165 34.1213 27.809 34.0027 27.9645ZM30.1172 25.7472L26.5769 26.2229L19.9273 24.247L23.4671 23.7712L30.1172 25.7472ZM33.4208 6.34766L16.6785 8.59805C16.646 8.60234 16.6132 8.60439 16.5781 8.60439C16.5108 8.60439 16.4455 8.59502 16.3832 8.57754C16.3818 8.57715 16.3806 8.57685 16.3792 8.57656C16.1058 8.49844 15.8933 8.26357 15.8539 7.97002C15.8279 7.77607 15.8789 7.5835 15.9977 7.42803C16.1162 7.27256 16.2883 7.17266 16.4823 7.14668L22.4278 6.34766H33.4208ZM30.1171 18.4434L26.578 18.919L19.9276 16.9432L23.467 16.4675L30.1171 18.4434ZM34.0027 13.3569C33.884 13.5125 33.7118 13.6125 33.518 13.6386L16.6772 15.902C16.4832 15.9278 16.2908 15.877 16.1354 15.7583C15.9798 15.6396 15.8798 15.4675 15.8537 15.2736C15.7999 14.8733 16.0818 14.5039 16.4821 14.4501L26.6338 13.0857C26.6357 13.0854 26.6378 13.0853 26.6398 13.085L33.3229 12.1867C33.356 12.1823 33.3887 12.1802 33.421 12.1802C33.4687 12.1802 33.5153 12.1852 33.5608 12.194C33.5617 12.1942 33.5627 12.1944 33.5636 12.1946C33.8618 12.2543 34.1037 12.4972 34.1464 12.815C34.1724 13.009 34.1213 13.2015 34.0027 13.3569ZM30.117 11.1396L26.5779 11.6153L19.9275 9.63945L23.4668 9.16367L30.117 11.1396Z" fill="black"/>
</g>
<defs>
<clipPath id="clip0">
<rect width="50" height="50" fill="white"/>
</clipPath>
</defs>
</svg>
