<svg width="37" height="50" viewBox="0 0 37 50" fill="none" xmlns="http://www.w3.org/2000/svg">
<path d="M-2.00344e-06 4.16666L-1.82131e-07 45.8333C0.00126626 46.938 0.444651 47.9971 1.23288 48.7782C2.02111 49.5594 3.08982 49.9987 4.20455 50L32.7955 50C33.9102 49.9987 34.9789 49.5594 35.7671 48.7782C36.5554 47.9971 36.9987 46.938 37 45.8333L37 4.16666C36.9987 3.06198 36.5553 2.0029 35.7671 1.22177C34.9789 0.440638 33.9102 0.00124974 32.7955 -5.24823e-06L4.20454 -3.99848e-06C3.08982 0.00125109 2.02111 0.440639 1.23288 1.22177C0.444648 2.0029 0.00126435 3.06198 -2.00344e-06 4.16666ZM35.3182 4.16666L35.3182 45.8333C35.3174 46.4961 35.0514 47.1316 34.5784 47.6003C34.1055 48.0689 33.4643 48.3326 32.7955 48.3333L31.9522 48.3333C32.5003 47.6131 32.7964 46.7354 32.7955 45.8333L32.7955 42.5L31.1136 42.5L31.1136 45.8333C31.1129 46.4961 30.8469 47.1316 30.3739 47.6003C29.901 48.0689 29.2597 48.3326 28.5909 48.3333L27.7477 48.3333C28.2958 47.6131 28.5918 46.7354 28.5909 45.8333L28.5909 4.16666C28.5918 3.2646 28.2958 2.38686 27.7477 1.66666L28.5909 1.66666C29.2597 1.66742 29.901 1.93106 30.3739 2.39973C30.8468 2.86841 31.1129 3.50386 31.1136 4.16666L31.1136 17.5L32.7955 17.5L32.7955 4.16666C32.7964 3.2646 32.5003 2.38686 31.9522 1.66666L32.7955 1.66666C33.4643 1.66742 34.1055 1.93106 34.5784 2.39973C35.0514 2.86841 35.3174 3.50386 35.3182 4.16666ZM24.3864 1.66666C25.0552 1.66742 25.6964 1.93106 26.1694 2.39973C26.6423 2.86841 26.9083 3.50386 26.9091 4.16666L26.9091 45.8333C26.9083 46.4961 26.6423 47.1316 26.1694 47.6003C25.6964 48.0689 25.0552 48.3326 24.3864 48.3333L4.20455 48.3333C3.53571 48.3326 2.89449 48.0689 2.42155 47.6003C1.94862 47.1316 1.68258 46.4961 1.68182 45.8333L1.68182 4.16666C1.68258 3.50386 1.94861 2.86841 2.42155 2.39973C2.89449 1.93106 3.53571 1.66742 4.20454 1.66666L24.3864 1.66666Z" fill="black"/>
<path d="M31.1133 40.8333L31.1133 39.1666L32.7951 39.1666L32.7951 40.8333L31.1133 40.8333Z" fill="black"/>
<path d="M31.1133 20.8333L31.1133 19.1666L32.7951 19.1666L32.7951 20.8333L31.1133 20.8333Z" fill="black"/>
<path d="M5.8869 40.8333L4.20508 40.8333L4.20508 42.5L5.8869 42.5C6.10984 42.5003 6.32358 42.5881 6.48123 42.7444C6.63887 42.9006 6.72755 43.1124 6.72781 43.3333L6.72781 45L8.40962 45L8.40962 43.3333C8.40988 43.1124 8.49856 42.9006 8.6562 42.7444C8.81385 42.5881 9.02759 42.5003 9.25053 42.5L12.6142 42.5C12.8371 42.5003 13.0509 42.5881 13.2085 42.7444C13.3661 42.9006 13.4548 43.1124 13.4551 43.3333L13.4551 45L15.1369 45L15.1369 43.3333C15.1372 43.1124 15.2258 42.9006 15.3835 42.7444C15.5411 42.5881 15.7549 42.5003 15.9778 42.5L19.3414 42.5C19.5644 42.5003 19.7781 42.5881 19.9358 42.7444C20.0934 42.9006 20.1821 43.1124 20.1824 43.3333L20.1824 45L21.8642 45L21.8642 43.3333C21.8644 43.1124 21.9531 42.9006 22.1107 42.7444C22.2684 42.5881 22.4821 42.5003 22.7051 42.5L24.3869 42.5L24.3869 40.8333L22.7051 40.8333C22.4821 40.8331 22.2684 40.7452 22.1107 40.589C21.9531 40.4328 21.8644 40.2209 21.8642 40L21.8642 38.3333L20.1823 38.3333L20.1823 40C20.1821 40.2209 20.0934 40.4328 19.9358 40.589C19.7781 40.7452 19.5644 40.8331 19.3414 40.8333L15.9778 40.8333C15.7549 40.8331 15.5411 40.7452 15.3835 40.589C15.2258 40.4328 15.1372 40.2209 15.1369 40L15.1369 38.3333L13.4551 38.3333L13.4551 40C13.4548 40.2209 13.3661 40.4328 13.2085 40.589C13.0509 40.7452 12.8371 40.8331 12.6142 40.8333L9.25053 40.8333C9.02759 40.8331 8.81385 40.7452 8.6562 40.589C8.49856 40.4328 8.40988 40.2209 8.40962 40L8.40962 38.3333L6.72781 38.3333L6.72781 40C6.72755 40.2209 6.63887 40.4328 6.48123 40.589C6.32358 40.7452 6.10984 40.8331 5.8869 40.8333Z" fill="black"/>
<path d="M5.8869 32.5L4.20508 32.5L4.20508 34.1667L5.8869 34.1667C6.10984 34.1669 6.32358 34.2548 6.48123 34.411C6.63887 34.5673 6.72755 34.7791 6.72781 35L6.72781 36.6667L8.40962 36.6667L8.40962 35C8.40988 34.7791 8.49856 34.5673 8.6562 34.411C8.81385 34.2548 9.02759 34.1669 9.25053 34.1667L12.6142 34.1667C12.8371 34.1669 13.0509 34.2548 13.2085 34.411C13.3661 34.5673 13.4548 34.7791 13.4551 35L13.4551 36.6667L15.1369 36.6667L15.1369 35C15.1372 34.7791 15.2258 34.5673 15.3835 34.411C15.5411 34.2548 15.7549 34.1669 15.9778 34.1667L19.3414 34.1667C19.5644 34.1669 19.7781 34.2548 19.9358 34.411C20.0934 34.5673 20.1821 34.7791 20.1824 35L20.1824 36.6667L21.8642 36.6667L21.8642 35C21.8644 34.7791 21.9531 34.5673 22.1107 34.411C22.2684 34.2548 22.4821 34.1669 22.7051 34.1667L24.3869 34.1667L24.3869 32.5L22.7051 32.5C22.4821 32.4998 22.2684 32.4119 22.1107 32.2557C21.9531 32.0994 21.8644 31.8876 21.8642 31.6667L21.8642 30L20.1823 30L20.1823 31.6667C20.1821 31.8876 20.0934 32.0994 19.9358 32.2557C19.7781 32.4119 19.5644 32.4998 19.3414 32.5L15.9778 32.5C15.7549 32.4998 15.5411 32.4119 15.3835 32.2557C15.2258 32.0994 15.1372 31.8876 15.1369 31.6667L15.1369 30L13.4551 30L13.4551 31.6667C13.4548 31.8876 13.3661 32.0994 13.2085 32.2557C13.0509 32.4119 12.8371 32.4998 12.6142 32.5L9.25053 32.5C9.02759 32.4998 8.81385 32.4119 8.6562 32.2557C8.49856 32.0994 8.40988 31.8876 8.40962 31.6667L8.40962 30L6.72781 30L6.72781 31.6667C6.72755 31.8876 6.63887 32.0994 6.48123 32.2557C6.32358 32.4119 6.10984 32.4998 5.8869 32.5Z" fill="black"/>
<path d="M5.8869 24.1666L4.20508 24.1666L4.20508 25.8333L5.8869 25.8333C6.10984 25.8336 6.32358 25.9214 6.48123 26.0777C6.63887 26.2339 6.72755 26.4457 6.72781 26.6666L6.72781 28.3333L8.40962 28.3333L8.40962 26.6666C8.40988 26.4457 8.49856 26.2339 8.6562 26.0777C8.81385 25.9214 9.02759 25.8336 9.25053 25.8333L12.6142 25.8333C12.8371 25.8336 13.0509 25.9214 13.2085 26.0777C13.3661 26.2339 13.4548 26.4457 13.4551 26.6666L13.4551 28.3333L15.1369 28.3333L15.1369 26.6666C15.1372 26.4457 15.2258 26.2339 15.3835 26.0777C15.5411 25.9214 15.7549 25.8336 15.9778 25.8333L19.3414 25.8333C19.5644 25.8336 19.7781 25.9214 19.9358 26.0777C20.0934 26.2339 20.1821 26.4457 20.1824 26.6666L20.1824 28.3333L21.8642 28.3333L21.8642 26.6666C21.8644 26.4457 21.9531 26.2339 22.1107 26.0777C22.2684 25.9214 22.4821 25.8336 22.7051 25.8333L24.3869 25.8333L24.3869 24.1666L22.7051 24.1666C22.4821 24.1664 22.2684 24.0785 22.1107 23.9223C21.9531 23.7661 21.8644 23.5542 21.8642 23.3333L21.8642 21.6666L20.1823 21.6666L20.1823 23.3333C20.1821 23.5542 20.0934 23.7661 19.9358 23.9223C19.7781 24.0785 19.5644 24.1664 19.3414 24.1666L15.9778 24.1666C15.7549 24.1664 15.5411 24.0785 15.3835 23.9223C15.2258 23.7661 15.1372 23.5542 15.1369 23.3333L15.1369 21.6666L13.4551 21.6666L13.4551 23.3333C13.4548 23.5542 13.3661 23.7661 13.2085 23.9223C13.0509 24.0785 12.8371 24.1664 12.6142 24.1666L9.25053 24.1666C9.02759 24.1664 8.81385 24.0785 8.6562 23.9223C8.49856 23.7661 8.40988 23.5542 8.40962 23.3333L8.40962 21.6666L6.72781 21.6666L6.72781 23.3333C6.72755 23.5542 6.63887 23.7661 6.48123 23.9223C6.32358 24.0785 6.10984 24.1664 5.8869 24.1666Z" fill="black"/>
<path d="M5.8869 15.8333L4.20508 15.8333L4.20508 17.5L5.8869 17.5C6.10984 17.5003 6.32358 17.5881 6.48123 17.7444C6.63887 17.9006 6.72755 18.1124 6.72781 18.3333L6.72781 20L8.40962 20L8.40962 18.3333C8.40988 18.1124 8.49856 17.9006 8.6562 17.7444C8.81385 17.5881 9.02759 17.5003 9.25053 17.5L12.6142 17.5C12.8371 17.5003 13.0509 17.5881 13.2085 17.7444C13.3661 17.9006 13.4548 18.1124 13.4551 18.3333L13.4551 20L15.1369 20L15.1369 18.3333C15.1372 18.1124 15.2258 17.9006 15.3835 17.7444C15.5411 17.5881 15.7549 17.5003 15.9778 17.5L19.3414 17.5C19.5644 17.5003 19.7781 17.5881 19.9358 17.7444C20.0934 17.9006 20.1821 18.1124 20.1824 18.3333L20.1824 20L21.8642 20L21.8642 18.3333C21.8644 18.1124 21.9531 17.9006 22.1107 17.7444C22.2684 17.5881 22.4821 17.5003 22.7051 17.5L24.3869 17.5L24.3869 15.8333L22.7051 15.8333C22.4821 15.8331 22.2684 15.7452 22.1107 15.589C21.9531 15.4328 21.8644 15.2209 21.8642 15L21.8642 13.3333L20.1823 13.3333L20.1823 15C20.1821 15.2209 20.0934 15.4328 19.9358 15.589C19.7781 15.7452 19.5644 15.8331 19.3414 15.8333L15.9778 15.8333C15.7549 15.8331 15.5411 15.7452 15.3835 15.589C15.2258 15.4328 15.1372 15.2209 15.1369 15L15.1369 13.3333L13.4551 13.3333L13.4551 15C13.4548 15.2209 13.3661 15.4328 13.2085 15.589C13.0509 15.7452 12.8371 15.8331 12.6142 15.8333L9.25053 15.8333C9.02759 15.8331 8.81385 15.7452 8.6562 15.589C8.49856 15.4328 8.40988 15.2209 8.40962 15L8.40962 13.3333L6.72781 13.3333L6.72781 15C6.72755 15.2209 6.63887 15.4328 6.48123 15.589C6.32358 15.7452 6.10984 15.8331 5.8869 15.8333Z" fill="black"/>
<path d="M5.8869 7.50002L4.20508 7.50002L4.20508 9.16669L5.8869 9.16669C6.10984 9.16694 6.32358 9.25482 6.48123 9.41104C6.63887 9.56727 6.72755 9.77908 6.72781 10L6.72781 11.6667L8.40962 11.6667L8.40962 10C8.40988 9.77908 8.49856 9.56727 8.6562 9.41104C8.81385 9.25482 9.02759 9.16694 9.25053 9.16669L12.6142 9.16669C12.8371 9.16694 13.0509 9.25482 13.2085 9.41104C13.3661 9.56727 13.4548 9.77908 13.4551 10L13.4551 11.6667L15.1369 11.6667L15.1369 10C15.1372 9.77908 15.2258 9.56727 15.3835 9.41104C15.5411 9.25482 15.7549 9.16694 15.9778 9.16669L19.3414 9.16669C19.5644 9.16694 19.7781 9.25482 19.9358 9.41104C20.0934 9.56727 20.1821 9.77908 20.1824 10L20.1824 11.6667L21.8642 11.6667L21.8642 10C21.8644 9.77908 21.9531 9.56727 22.1107 9.41104C22.2684 9.25482 22.4821 9.16694 22.7051 9.16669L24.3869 9.16669L24.3869 7.50002L22.7051 7.50002C22.4821 7.49977 22.2684 7.41189 22.1107 7.25566C21.9531 7.09944 21.8644 6.88762 21.8642 6.66669L21.8642 5.00002L20.1823 5.00002L20.1823 6.66669C20.1821 6.88762 20.0934 7.09944 19.9358 7.25566C19.7781 7.41189 19.5644 7.49977 19.3414 7.50002L15.9778 7.50002C15.7549 7.49977 15.5411 7.41189 15.3835 7.25566C15.2258 7.09944 15.1372 6.88762 15.1369 6.66669L15.1369 5.00002L13.4551 5.00002L13.4551 6.66669C13.4548 6.88762 13.3661 7.09944 13.2085 7.25566C13.0509 7.41189 12.8371 7.49977 12.6142 7.50002L9.25053 7.50002C9.02759 7.49977 8.81385 7.41189 8.6562 7.25566C8.49856 7.09944 8.40988 6.88762 8.40962 6.66669L8.40962 5.00002L6.72781 5.00002L6.72781 6.66669C6.72755 6.88762 6.63887 7.09944 6.48123 7.25566C6.32358 7.41189 6.10984 7.49977 5.8869 7.50002Z" fill="black"/>
</svg>
