<svg width="50" height="50" viewBox="0 0 50 50" fill="none" xmlns="http://www.w3.org/2000/svg">
<path fill-rule="evenodd" clip-rule="evenodd" d="M30.9068 2.29113C38.5321 3.17104 36.8578 2.15684 41.4101 8.35009C47.5757 12.9402 46.6307 11.2213 47.489 18.8703C50.5427 25.9409 50.5805 23.9779 47.5149 31.033C46.6386 38.6894 47.6487 37.0083 41.4806 41.5792C36.9092 47.7699 38.6211 46.821 31.0032 47.6829C23.9613 50.749 25.9163 50.7869 18.8899 47.7089C11.2646 46.829 12.9389 47.8432 8.38662 41.6499C2.22103 37.0598 3.16603 38.7787 2.30771 31.1297C-0.745925 24.0591 -0.783752 26.0221 2.28182 18.967C3.15815 11.3106 2.14807 12.9917 8.31614 8.42085C12.8876 2.23009 11.1757 3.17895 18.7936 2.31713C25.8355 -0.74897 23.8804 -0.786951 30.9068 2.29113ZM30.4957 3.84543C37.5988 4.6652 36.0394 3.72019 40.28 9.48976C46.0235 13.7658 45.1433 12.1645 45.9428 19.2899C48.7875 25.8765 48.8227 24.0477 45.9669 30.6201C45.1505 37.7523 46.0917 36.1865 40.3456 40.4445C36.0869 46.2113 37.6817 45.3276 30.5853 46.1304C24.0254 48.9867 25.8468 49.0219 19.3011 46.1546C12.1979 45.3348 13.7574 46.2798 9.5167 40.5102C3.77329 36.2342 4.65344 37.8355 3.8539 30.7101C1.00921 24.1235 0.974082 25.9522 3.8298 19.3799C4.64624 12.2477 3.70506 13.8135 9.45118 9.55555C13.7099 3.78869 12.1151 4.67244 19.2115 3.86963C25.7713 1.01333 23.95 0.978058 30.4957 3.84543Z" fill="black"/>
<path d="M30.1217 44.5748C19.3547 47.4713 8.28734 41.0556 5.40234 30.2447L6.41174 29.9731C9.14745 40.2245 19.6418 46.3081 29.8513 43.5613L30.1217 44.5748Z" fill="black"/>
<path d="M19.6748 5.42446C30.4418 2.52792 41.5091 8.94363 44.3941 19.7546L43.3847 20.0261C40.649 9.7747 30.1547 3.69133 19.9452 6.43798L19.6748 5.42446Z" fill="black"/>
<path d="M24.8981 9.0498C33.6712 9.0498 40.7834 16.191 40.7834 25C40.7834 33.809 33.6712 40.9502 24.8981 40.9502C16.1249 40.9502 9.0127 33.809 9.0127 25C9.0127 16.191 16.1249 9.0498 24.8981 9.0498ZM24.8981 10.1908C16.7528 10.1908 10.1491 16.8215 10.1491 25C10.1491 33.1785 16.7528 39.8092 24.8981 39.8092C33.0433 39.8092 39.647 33.1785 39.647 25C39.647 16.8215 33.0433 10.1908 24.8981 10.1908Z" fill="black"/>
<path d="M13.384 24.744V22.928H14.904C15.0693 22.928 15.224 22.9387 15.368 22.96C15.5173 22.976 15.648 23.016 15.76 23.08C15.872 23.144 15.96 23.2347 16.024 23.352C16.088 23.4693 16.12 23.6293 16.12 23.832C16.12 24.136 16.024 24.3653 15.832 24.52C15.6453 24.6693 15.336 24.744 14.904 24.744H13.384ZM12.624 22.288V28H15.384C15.6667 28 15.9147 27.9547 16.128 27.864C16.3467 27.768 16.528 27.6453 16.672 27.496C16.8213 27.3413 16.9333 27.1653 17.008 26.968C17.0827 26.7707 17.12 26.568 17.12 26.36C17.12 26.008 17.0267 25.7093 16.84 25.464C16.6533 25.2187 16.384 25.0587 16.032 24.984V24.968C16.304 24.8613 16.512 24.6987 16.656 24.48C16.8053 24.256 16.88 23.992 16.88 23.688C16.88 23.4 16.8133 23.1573 16.68 22.96C16.552 22.7627 16.3947 22.608 16.208 22.496C16.1227 22.4427 16.0187 22.4027 15.896 22.376C15.7787 22.3493 15.6507 22.3307 15.512 22.32C15.3733 22.304 15.232 22.296 15.088 22.296C14.9493 22.2907 14.8187 22.288 14.696 22.288H12.624ZM13.384 27.36V25.384H15.12C15.28 25.384 15.4347 25.4 15.584 25.432C15.7333 25.4587 15.864 25.5093 15.976 25.584C16.0933 25.6533 16.1867 25.7493 16.256 25.872C16.3253 25.9947 16.36 26.1493 16.36 26.336C16.36 26.656 16.264 26.9067 16.072 27.088C15.8853 27.2693 15.624 27.36 15.288 27.36H13.384ZM17.7006 22.288V28H18.4606V25.56H20.3166C20.5032 25.56 20.6526 25.5893 20.7646 25.648C20.8766 25.7013 20.9672 25.776 21.0366 25.872C21.1059 25.9627 21.1566 26.072 21.1886 26.2C21.2206 26.3227 21.2472 26.4533 21.2686 26.592C21.2952 26.7307 21.3112 26.872 21.3166 27.016C21.3219 27.16 21.3272 27.296 21.3326 27.424C21.3379 27.5467 21.3486 27.6587 21.3646 27.76C21.3859 27.8613 21.4232 27.9413 21.4766 28H22.3246C22.2446 27.904 22.1832 27.7947 22.1406 27.672C22.1032 27.544 22.0739 27.4107 22.0526 27.272C22.0312 27.1333 22.0179 26.992 22.0126 26.848C22.0072 26.704 21.9992 26.5627 21.9886 26.424C21.9726 26.2853 21.9486 26.152 21.9166 26.024C21.8899 25.896 21.8446 25.7813 21.7806 25.68C21.7219 25.5733 21.6392 25.4827 21.5326 25.408C21.4312 25.3333 21.2979 25.28 21.1326 25.248V25.232C21.4792 25.136 21.7299 24.9573 21.8846 24.696C22.0446 24.4347 22.1246 24.1307 22.1246 23.784C22.1246 23.32 21.9699 22.9547 21.6606 22.688C21.3566 22.4213 20.9326 22.288 20.3886 22.288H17.7006ZM20.0446 24.92H18.4606V22.928H20.3486C20.7059 22.928 20.9646 23.0187 21.1246 23.2C21.2846 23.3813 21.3646 23.616 21.3646 23.904C21.3646 24.112 21.3272 24.2827 21.2526 24.416C21.1832 24.544 21.0872 24.648 20.9646 24.728C20.8472 24.8027 20.7086 24.8533 20.5486 24.88C20.3886 24.9067 20.2206 24.92 20.0446 24.92ZM23.7611 25.64L24.7291 22.976H24.7451L25.6971 25.64H23.7611ZM24.3291 22.288L22.1051 28H22.8811L23.5211 26.28H25.9371L26.5611 28H27.4011L25.1691 22.288H24.3291ZM27.5566 22.288V28H28.2766V23.416H28.2926L31.2766 28H32.1086V22.288H31.3886V26.92H31.3726L28.3646 22.288H27.5566ZM33.6981 27.36V22.928H34.9781C35.3301 22.928 35.6261 22.9787 35.8661 23.08C36.1061 23.176 36.3007 23.32 36.4501 23.512C36.6047 23.6987 36.7141 23.928 36.7781 24.2C36.8474 24.4667 36.8821 24.7707 36.8821 25.112C36.8821 25.464 36.8447 25.7653 36.7701 26.016C36.7007 26.2613 36.6101 26.4667 36.4981 26.632C36.3861 26.7973 36.2581 26.928 36.1141 27.024C35.9754 27.12 35.8341 27.1947 35.6901 27.248C35.5461 27.296 35.4101 27.328 35.2821 27.344C35.1541 27.3547 35.0474 27.36 34.9621 27.36H33.6981ZM32.9381 22.288V28H34.8981C35.3727 28 35.7834 27.9333 36.1301 27.8C36.4767 27.6667 36.7621 27.4747 36.9861 27.224C37.2101 26.968 37.3754 26.656 37.4821 26.288C37.5887 25.9147 37.6421 25.488 37.6421 25.008C37.6421 24.0907 37.4047 23.408 36.9301 22.96C36.4554 22.512 35.7781 22.288 34.8981 22.288H32.9381Z" fill="black"/>
</svg>
