<svg width="30" height="21" viewBox="0 0 30 21" fill="none" xmlns="http://www.w3.org/2000/svg">
<path d="M20.9527 18.8047H5.71457C5.45136 18.8047 5.23828 18.589 5.23828 18.3221V6.37737C5.23828 4.9787 6.36062 3.84131 7.74046 3.84131H18.9271C20.3066 3.84131 21.429 4.9787 21.429 6.37737V18.3221C21.4287 18.589 21.2159 18.8047 20.9527 18.8047ZM6.1906 17.8393H20.4764V6.37737C20.4764 5.51148 19.781 4.80662 18.9268 4.80662H7.74046C6.88596 4.80662 6.1906 5.51148 6.1906 6.37737V17.8393Z" fill="black"/>
<path d="M29.5245 18.3216H20.9531V9.15039H25.3564C26.4278 9.15039 27.4259 9.69423 28.0063 10.5938L29.5245 12.9487V18.3216Z" fill="white"/>
<path d="M29.5242 18.804H20.9529C20.6896 18.804 20.4766 18.5883 20.4766 18.3215V9.15028C20.4766 8.88347 20.6896 8.66748 20.9529 8.66748H25.3561C26.5945 8.66748 27.7338 9.28865 28.4043 10.3296L29.9226 12.6845C29.9733 12.763 30.0002 12.8549 30.0002 12.9486V18.3215C30.0002 18.5883 29.7874 18.804 29.5242 18.804ZM21.4289 17.8387H29.0479V13.0925L27.6073 10.8575C27.1131 10.0907 26.2711 9.63307 25.3561 9.63307H21.4289V17.8387Z" fill="black"/>
<path d="M20.9529 18.3216H4.28613V17.8452C4.28613 16.7755 5.14172 15.9082 6.19703 15.9082H20.9529V18.3216Z" fill="white"/>
<path d="M20.9526 18.804H4.28586C4.02292 18.804 3.80957 18.5883 3.80957 18.3215V17.8448C3.80957 16.5108 4.88041 15.4253 6.19649 15.4253H20.9526C21.2158 15.4253 21.4286 15.6413 21.4286 15.9081V18.3215C21.4286 18.5883 21.2158 18.804 20.9526 18.804ZM4.76188 17.8387H20.4763V16.3906H6.19649C5.40766 16.3906 4.76515 17.0397 4.76188 17.8387Z" fill="black"/>
<path d="M27.514 18.201C27.514 19.4082 26.5486 20.3868 25.3576 20.3868C24.1668 20.3868 23.2012 19.4082 23.2012 18.201C23.2012 16.9937 24.1668 16.0151 25.3576 16.0151C26.5486 16.0151 27.514 16.9937 27.514 18.201Z" fill="white"/>
<path d="M25.357 20.8692C23.9058 20.8692 22.7246 19.6719 22.7246 18.2006C22.7246 16.7295 23.9058 15.5322 25.357 15.5322C26.8083 15.5322 27.9895 16.7295 27.9895 18.2006C27.9895 19.6716 26.8083 20.8692 25.357 20.8692ZM25.357 16.4975C24.4309 16.4975 23.6769 17.2615 23.6769 18.2006C23.6769 19.1394 24.4309 19.9036 25.357 19.9036C26.2835 19.9036 27.0371 19.1394 27.0371 18.2006C27.0371 17.2615 26.2835 16.4975 25.357 16.4975Z" fill="black"/>
<path d="M12.3809 9.63306H0.476294C0.213079 9.63306 0 9.41708 0 9.15027C0 8.88347 0.213079 8.66748 0.476294 8.66748H12.3809C12.6439 8.66748 12.8572 8.88347 12.8572 9.15027C12.8572 9.41708 12.6439 9.63306 12.3809 9.63306Z" fill="black"/>
<path d="M26.1362 18.2008C26.1362 18.6369 25.7874 18.9904 25.3571 18.9904C24.9269 18.9904 24.5781 18.6369 24.5781 18.2008C24.5781 17.7647 24.9269 17.4111 25.3571 17.4111C25.7874 17.4111 26.1362 17.7647 26.1362 18.2008Z" fill="black"/>
<path d="M13.2276 18.201C13.2276 19.4082 12.2622 20.3868 11.0712 20.3868C9.88043 20.3868 8.91504 19.4082 8.91504 18.201C8.91504 16.9937 9.88043 16.0151 11.0712 16.0151C12.2622 16.0151 13.2276 16.9937 13.2276 18.201Z" fill="white"/>
<path d="M11.0719 20.8692C9.62038 20.8692 8.43945 19.6719 8.43945 18.2006C8.43945 16.7296 9.62038 15.5322 11.0719 15.5322C12.5236 15.5322 13.7046 16.7296 13.7046 18.2006C13.7046 19.6719 12.5236 20.8692 11.0719 20.8692ZM11.0719 16.4975C10.1457 16.4975 9.39177 17.2615 9.39177 18.2006C9.39177 19.1394 10.1457 19.9036 11.0719 19.9036C11.9983 19.9036 12.752 19.1394 12.752 18.2006C12.752 17.2615 11.9983 16.4975 11.0719 16.4975Z" fill="black"/>
<path d="M11.8507 18.2008C11.8507 18.6369 11.502 18.9904 11.0717 18.9904C10.6417 18.9904 10.293 18.6369 10.293 18.2008C10.293 17.7647 10.6417 17.4111 11.0717 17.4111C11.502 17.4111 11.8507 17.7647 11.8507 18.2008Z" fill="black"/>
<path d="M11.1846 4.73168C11.1846 7.07827 9.30802 8.98045 6.99304 8.98045C4.67832 8.98045 2.80176 7.07827 2.80176 4.73168C2.80176 2.38509 4.67832 0.48291 6.99304 0.48291C9.30802 0.48291 11.1846 2.38509 11.1846 4.73168Z" fill="white"/>
<path d="M6.99277 9.46257C4.41893 9.46257 2.3252 7.33998 2.3252 4.73129C2.3252 2.12259 4.41893 0 6.99277 0C9.56633 0 11.6606 2.12259 11.6606 4.73129C11.6606 7.33998 9.56633 9.46257 6.99277 9.46257ZM6.99277 0.965315C4.94427 0.965315 3.27751 2.65482 3.27751 4.73129C3.27751 6.80775 4.94427 8.49726 6.99277 8.49726C9.04154 8.49726 10.708 6.80775 10.708 4.73129C10.708 2.65482 9.04154 0.965315 6.99277 0.965315Z" fill="black"/>
<path d="M6.07932 6.69207C5.98232 6.69207 5.88395 6.66169 5.79921 6.599C5.58668 6.44211 5.54008 6.1405 5.69485 5.92507L6.66706 4.57363V2.61952C6.66706 2.35271 6.88014 2.13672 7.14308 2.13672C7.40629 2.13672 7.61937 2.35271 7.61937 2.61952V4.73106C7.61937 4.83353 7.58722 4.93296 7.52782 5.01527L6.46461 6.49349C6.37142 6.6233 6.22646 6.69207 6.07932 6.69207Z" fill="black"/>
<path d="M24.2852 10.5986V13.9774H27.4903C27.7598 13.9774 27.9285 13.6824 27.795 13.4454L26.683 11.4731C26.3781 10.9323 25.8108 10.5986 25.1961 10.5986H24.2852Z" fill="white"/>
<path d="M27.4908 14.4601H24.2859C24.0226 14.4601 23.8096 14.2441 23.8096 13.9773V10.5985C23.8096 10.3317 24.0226 10.1157 24.2859 10.1157H25.1968C25.9804 10.1157 26.7085 10.5444 27.097 11.2335L28.2087 13.2061C28.3567 13.4674 28.3562 13.7803 28.2066 14.0419C28.0567 14.3037 27.7894 14.4601 27.4908 14.4601ZM24.7622 13.4947H27.2747L26.2701 11.7122C26.0504 11.323 25.6395 11.081 25.1968 11.081H24.7622V13.4947Z" fill="black"/>
<path d="M9.52417 11.5639H3.33344C3.0705 11.5639 2.85742 11.348 2.85742 11.0812C2.85742 10.8143 3.0705 10.5986 3.33344 10.5986H9.52417C9.78712 10.5986 10.0002 10.8143 10.0002 11.0812C10.0002 11.348 9.78712 11.5639 9.52417 11.5639Z" fill="black"/>
<path d="M7.14277 13.4944H0.476294C0.213079 13.4944 0 13.2784 0 13.0116C0 12.7448 0.213079 12.5288 0.476294 12.5288H7.14277C7.40599 12.5288 7.61906 12.7448 7.61906 13.0116C7.61906 13.2784 7.40599 13.4944 7.14277 13.4944Z" fill="black"/>
</svg>
