<svg width="30" height="30" viewBox="0 0 30 30" fill="none" xmlns="http://www.w3.org/2000/svg">
<g clip-path="url(#clip0)">
<path d="M28.765 12.534L28.3791 12.2454C27.8984 11.8856 27.7279 11.2488 27.9641 10.697L28.1541 10.2541C28.54 9.35301 28.4802 8.34937 27.9902 7.50068C27.4999 6.65176 26.6609 6.0981 25.6874 5.98206L25.2091 5.92484C24.6128 5.85366 24.1466 5.38743 24.0754 4.79143L24.0184 4.31284C23.9022 3.33964 23.3485 2.50033 22.4998 2.0103C21.6509 1.52004 20.6473 1.4603 19.7464 1.84642L19.3033 2.03616C18.7515 2.2726 18.1147 2.10185 17.7549 1.6212L17.4663 1.23554C16.879 0.450711 15.9802 0.000732422 14.9999 0.000732422C14.0196 0.000732422 13.1208 0.450711 12.5335 1.23554L12.2446 1.6212C11.8848 2.10208 11.2483 2.2726 10.6963 2.03616L10.2534 1.84642C9.35227 1.46053 8.34863 1.52004 7.49994 2.0103C6.65103 2.50033 6.09736 3.33964 5.98132 4.31284L5.9241 4.7912C5.85292 5.38743 5.38669 5.85366 4.79046 5.92484L4.3121 5.98206C3.3389 6.0981 2.4996 6.65176 2.00957 7.50068C1.51931 8.34937 1.4598 9.35301 1.84569 10.2541L2.03543 10.697C2.27186 11.2488 2.10112 11.8856 1.62047 12.2454L1.23481 12.534C0.450207 13.1213 0 14.0203 0 15.0004C0 15.9807 0.450207 16.8797 1.23481 17.467L1.6207 17.7557C2.10135 18.1155 2.27186 18.7522 2.03566 19.304L1.84569 19.7469C1.4598 20.648 1.51953 21.6517 2.00957 22.5003C2.49983 23.3493 3.3389 23.9029 4.31233 24.019L4.79069 24.0762C5.38692 24.1474 5.85315 24.6136 5.92433 25.2096L5.98132 25.6882C6.09759 26.6614 6.65125 27.5007 7.49994 27.9907C8.34886 28.4808 9.3525 28.5405 10.2534 28.1546L10.6965 27.9649C11.2483 27.7284 11.8851 27.8992 12.2449 28.3798L12.5335 28.7655C13.1208 29.5503 14.0198 30.0005 15.0001 30.0005C15.9802 30.0005 16.8792 29.5503 17.4665 28.7655L17.7551 28.3798C18.1149 27.8992 18.7515 27.7284 19.3037 27.9651L19.7466 28.1546C20.6475 28.5405 21.6511 28.481 22.5001 27.991C23.3487 27.5007 23.9024 26.6614 24.0187 25.6882L24.0757 25.2098C24.1468 24.6136 24.6131 24.1474 25.2093 24.0762L25.6877 24.0192C26.6609 23.9029 27.5004 23.3493 27.9904 22.5006C28.4805 21.6517 28.5402 20.648 28.1541 19.7469L27.9646 19.3043C27.7281 18.7522 27.8986 18.1155 28.3795 17.7557L28.7652 17.467C29.55 16.8797 30 15.9807 30 15.0006C29.9998 14.0203 29.5496 13.1213 28.765 12.534ZM28.0628 16.5289L27.6771 16.8175C26.7618 17.5023 26.4368 18.7147 26.8872 19.7657L27.0767 20.2083C27.3159 20.7666 27.2788 21.3884 26.9753 21.9144C26.6716 22.4406 26.1516 22.7835 25.5485 22.8556L25.0701 22.9126C23.9349 23.0481 23.0475 23.9357 22.912 25.0709L22.8548 25.5493C22.7827 26.1524 22.4399 26.6724 21.9139 26.9761C21.3879 27.2796 20.7661 27.3167 20.2078 27.0775L19.7649 26.8878C18.7139 26.4375 17.5018 26.7626 16.8167 27.6778L16.5281 28.0635C16.1642 28.5497 15.6071 28.8287 14.9999 28.8287C14.3924 28.8287 13.8353 28.5497 13.4714 28.0635L13.1828 27.6778C12.7042 27.0381 11.9681 26.6868 11.2096 26.6868C10.8826 26.6868 10.5514 26.7523 10.2348 26.8878L9.79195 27.0775C9.23348 27.3167 8.61184 27.2796 8.08565 26.9761C7.55968 26.6724 7.21682 26.1524 7.14472 25.5493L7.08773 25.0709C6.952 23.9357 6.06463 23.0483 4.92939 22.9128L4.45103 22.8556C3.84793 22.7835 3.32792 22.4406 3.02419 21.9146C2.7207 21.3887 2.68362 20.7668 2.9228 20.2086L3.11254 19.7657C3.56275 18.7149 3.23774 17.5025 2.32267 16.8175L1.93678 16.5289C1.45064 16.1649 1.17187 15.6078 1.17187 15.0004C1.17187 14.3932 1.45064 13.8361 1.93701 13.4722L2.32267 13.1835C3.23797 12.4985 3.56298 11.2861 3.11254 10.2353L2.92303 9.79246C2.68385 9.23422 2.72093 8.61235 3.02442 8.08639C3.32814 7.56042 3.84816 7.21756 4.45126 7.14546L4.92962 7.08824C6.06486 6.95274 6.95223 6.06537 7.08773 4.93013L7.14495 4.45177C7.21705 3.84867 7.55991 3.32865 8.08587 3.02493C8.61184 2.7212 9.23371 2.68435 9.79195 2.92353L10.2348 3.11305C11.2856 3.56325 12.498 3.23847 13.183 2.32318L13.4717 1.93752C13.8356 1.45138 14.3927 1.17237 14.9999 1.17237C15.6071 1.17237 16.1642 1.45138 16.5281 1.93752L16.817 2.32341C17.5018 3.2387 18.7144 3.56348 19.7649 3.11328L20.2078 2.92353C20.7661 2.68435 21.3879 2.72143 21.9139 3.02493C22.4399 3.32865 22.7829 3.84867 22.8548 4.45177L22.912 4.93013C23.0475 6.06537 23.9351 6.95274 25.0701 7.08824L25.5485 7.14546C26.1516 7.21756 26.6716 7.56042 26.9753 8.08639C27.2791 8.61235 27.3159 9.23422 27.077 9.79246L26.8872 10.2353C26.437 11.2864 26.7618 12.4985 27.6771 13.1835L28.0628 13.4722C28.5491 13.8361 28.8279 14.3932 28.8279 15.0006C28.8279 15.6078 28.5491 16.1649 28.0628 16.5289Z" fill="black"/>
<path d="M14.9997 3.40564C13.232 3.40564 11.5346 3.79336 9.95491 4.55805C9.66354 4.69904 9.54178 5.04946 9.68254 5.34059C9.82353 5.63196 10.1742 5.75372 10.4653 5.61273C11.8846 4.92586 13.4101 4.57751 14.9997 4.57751C20.7466 4.57751 25.4222 9.25307 25.4222 15.0002C25.4222 20.7472 20.7466 25.4228 14.9997 25.4228C9.25247 25.4228 4.57691 20.7472 4.57691 15.0002C4.57691 12.6462 5.34251 10.4252 6.7911 8.57696C6.99068 8.32221 6.94605 7.95394 6.6913 7.75413C6.43656 7.55455 6.06829 7.59941 5.86871 7.85392C4.25716 9.91064 3.40527 12.3816 3.40527 15.0002C3.40527 21.3933 8.60657 26.5946 14.9997 26.5946C21.3927 26.5946 26.594 21.3933 26.594 15.0002C26.594 8.60694 21.3927 3.40564 14.9997 3.40564Z" fill="black"/>
<path d="M6.43262 12.0168L5.98629 12.5858C5.78648 12.8405 5.83111 13.2088 6.08563 13.4084C6.34038 13.6082 6.70865 13.5638 6.90823 13.3091L7.15337 12.9969V16.8721H6.76106C6.43742 16.8721 6.17512 17.1344 6.17512 17.458C6.17512 17.7816 6.43742 18.0439 6.76106 18.0439H8.69741C9.02082 18.0439 9.28334 17.7816 9.28334 17.458C9.28334 17.1344 9.02082 16.8721 8.69741 16.8721H8.32524V12.3784C8.32524 12.0548 8.06272 11.7925 7.7393 11.7925H6.89358C6.71368 11.7925 6.54362 11.8751 6.43262 12.0168Z" fill="black"/>
<path d="M11.1416 18.0438H11.446C12.4137 18.0438 13.2008 17.2567 13.2008 16.289V13.4488C13.2008 12.4811 12.4135 11.6937 11.446 11.6937H11.1416C10.1738 11.6937 9.38672 12.4811 9.38672 13.4488V16.289C9.38672 17.2567 10.1738 18.0438 11.1416 18.0438ZM10.5586 13.4488C10.5586 13.1272 10.8202 12.8656 11.1416 12.8656H11.446C11.7673 12.8656 12.0289 13.1272 12.0289 13.4488V16.289C12.0289 16.6103 11.7673 16.8719 11.446 16.8719H11.1416C10.8202 16.8719 10.5586 16.6103 10.5586 16.289V13.4488Z" fill="black"/>
<path d="M15.8639 18.0438C16.8316 18.0438 17.6188 17.2567 17.6188 16.289V13.4488C17.6188 12.4811 16.8314 11.6937 15.8639 11.6937H15.5595C14.5918 11.6937 13.8047 12.4811 13.8047 13.4488V16.289C13.8047 17.2567 14.5918 18.0438 15.5595 18.0438H15.8639ZM14.9766 16.289V13.4488C14.9766 13.1272 15.2382 12.8656 15.5595 12.8656H15.8639C16.1853 12.8656 16.4469 13.1272 16.4469 13.4488V16.289C16.4469 16.6103 16.1853 16.8719 15.8639 16.8719H15.5595C15.2382 16.8719 14.9766 16.6106 14.9766 16.289Z" fill="black"/>
<path d="M23.6019 11.6229C23.3403 11.4327 22.9738 11.4906 22.7834 11.7522L19.0604 16.872C18.87 17.1339 18.9279 17.5003 19.1897 17.6905C19.2936 17.7661 19.4143 17.8027 19.5337 17.8027C19.7148 17.8027 19.8935 17.7189 20.0082 17.5612L23.7312 12.4413C23.9216 12.1797 23.8635 11.8133 23.6019 11.6229Z" fill="black"/>
<path d="M9.72203 9.39151C9.85867 9.39151 9.996 9.3439 10.107 9.24708C11.4615 8.06423 13.1989 7.41284 14.9995 7.41284C16.6841 7.41284 18.2728 7.96169 19.5939 8.99989C19.8484 9.19993 20.2166 9.15576 20.4167 8.90125C20.6165 8.64696 20.5723 8.27846 20.318 8.07865C18.7882 6.87634 16.9491 6.24097 14.9995 6.24097C12.9156 6.24097 10.9042 6.99513 9.33636 8.36429C9.09261 8.57715 9.06743 8.94725 9.28029 9.19101C9.3961 9.32376 9.55861 9.39151 9.72203 9.39151Z" fill="black"/>
<path d="M9.6146 21.6313C11.144 22.8334 12.9833 23.4688 14.9329 23.4688C16.2855 23.4688 17.5805 23.1639 18.7822 22.5629C19.0715 22.4182 19.1887 22.0662 19.044 21.7767C18.8991 21.4874 18.5473 21.3702 18.2578 21.5148C17.2205 22.034 16.1017 22.2969 14.9329 22.2969C13.2485 22.2969 11.6596 21.7483 10.3385 20.7099C10.0843 20.5101 9.71576 20.5542 9.51595 20.8085C9.31591 21.063 9.36008 21.4313 9.6146 21.6313Z" fill="black"/>
<path d="M20.7535 20.6291C20.624 20.435 20.3813 20.3343 20.1522 20.3801C19.9092 20.4288 19.7178 20.6321 19.6855 20.8781C19.654 21.1171 19.778 21.3576 19.9904 21.4712C20.2037 21.5854 20.472 21.554 20.6539 21.3945C20.8727 21.202 20.9117 20.871 20.7535 20.6291Z" fill="black"/>
<path d="M19.7589 11.5107C18.9986 11.5107 18.3799 12.1292 18.3799 12.8895C18.3799 13.6499 18.9986 14.2685 19.7589 14.2685C20.519 14.2685 21.1377 13.6499 21.1377 12.8895C21.1377 12.1292 20.519 11.5107 19.7589 11.5107ZM19.7589 13.0967C19.6447 13.0967 19.5518 13.0037 19.5518 12.8895C19.5518 12.7753 19.6447 12.6824 19.7589 12.6824C19.8731 12.6824 19.9658 12.7753 19.9658 12.8895C19.9658 13.0037 19.8731 13.0967 19.7589 13.0967Z" fill="black"/>
<path d="M21.6318 16.4606C21.6318 17.2209 22.2505 17.8396 23.0106 17.8396C23.771 17.8396 24.3896 17.2209 24.3896 16.4606C24.3896 15.7002 23.771 15.0815 23.0106 15.0815C22.2505 15.0815 21.6318 15.7002 21.6318 16.4606ZM23.2178 16.4606C23.2178 16.5748 23.1251 16.6677 23.0108 16.6677C22.8966 16.6677 22.8037 16.5748 22.8037 16.4606C22.8037 16.3463 22.8966 16.2534 23.0108 16.2534C23.1251 16.2534 23.2178 16.3463 23.2178 16.4606Z" fill="black"/>
<path d="M7.58632 6.64759C7.68062 6.87395 7.91088 7.01998 8.15578 7.00853C8.39748 6.99709 8.60988 6.83184 8.6845 6.6025C8.7598 6.37087 8.67786 6.10628 8.48377 5.95866C8.28578 5.80805 8.00929 5.79935 7.80193 5.93645C7.57076 6.08912 7.48195 6.39284 7.58632 6.64759Z" fill="black"/>
</g>
<defs>
<clipPath id="clip0">
<rect width="30" height="30" fill="white"/>
</clipPath>
</defs>
</svg>
