<?xml version="1.0" encoding="utf-8"?>
<svg version="1.1" id="Слой_1" xmlns="http://www.w3.org/2000/svg" xmlns:xlink="http://www.w3.org/1999/xlink" x="0px" y="0px"
	 viewBox="0 0 26 26" style="enable-background:new 0 0 26 26;" xml:space="preserve">
<style type="text/css">
	.st0{fill:#FFFFFF;}
	.st1{fill:none;stroke:#FA7272;stroke-width:2;}
</style>
<path class="st0" d="M3,0h20c1.7,0,3,1.3,3,3v20c0,1.7-1.3,3-3,3H3c-1.7,0-3-1.3-3-3V3C0,1.3,1.3,0,3,0z"/>
<path class="st1" d="M19.7,7.3c-0.4-0.4-0.9-0.7-1.4-0.9l0,0C17.7,6.1,17.1,6,16.5,6l0,0c-0.8,0-1.7,0.2-2.4,0.7l0,0
	c-0.2,0.1-0.3,0.2-0.5,0.3L13,7.5L12.4,7c-0.2-0.1-0.3-0.2-0.5-0.3v0C11.2,6.2,10.4,6,9.5,6C8.9,6,8.3,6.1,7.8,6.3l0,0
	c-0.5,0.2-1,0.5-1.4,0.9l0,0v0C4.6,8.4,5,10.9,5,10.8 M19.7,7.3c0.4,0.4,0.7,0.9,1,1.4c0.2,0.5,0.4,1.1,0.4,1.7v0
	c0,0.6-0.1,1.1-0.4,1.8l0,0c-0.2,0.5-0.5,1.1-0.9,1.7c-0.6,0.9-1.5,1.9-2.6,3c-1.9,1.7-3.7,2.9-3.8,2.9l0,0L13,19.9l-0.3-0.2l0,0
	l0,0c0,0,0,0,0,0c0,0,0,0-0.1-0.1c-0.1,0-0.1-0.1-0.2-0.2c-0.2-0.1-0.5-0.3-0.9-0.6c-0.7-0.5-1.6-1.2-2.6-2.1l0,0 M8.9,16.8
	 M19.7,7.3 M8.9,16.8c-1.1-1-2-2-2.6-3L8.9,16.8z M5.4,12.2C5.1,11.5,5,10.9,5,10.4 M6.3,13.8c-0.4-0.6-0.7-1.2-0.9-1.7L6.3,13.8z"
	/>
</svg>
