<svg width="26" height="26" viewBox="0 0 26 26" fill="none" xmlns="http://www.w3.org/2000/svg">
<rect width="26" height="26" rx="3" fill="white"/>
<path d="M10.2973 18.8901L9.58984 21H16.4118L15.7044 18.8901H10.2973Z" fill="#A6A5A5"/>
<path d="M5 14.1428C5 15.4634 6.07847 16.534 7.40879 16.534C8.73915 16.534 9.81758 15.4634 9.81758 14.1428H5Z" fill="#A6A5A5"/>
<path d="M16.1816 14.1428C16.1816 15.4634 17.2601 16.534 18.5904 16.534C19.9208 16.534 20.9992 15.4634 20.9992 14.1428H16.1816Z" fill="#A6A5A5"/>
<path d="M7.408 10.2212L8.62161 13.0879H9.76718L8.2041 9.3956H12.4717V17.8352H13.5267V9.3956H17.7944L16.2313 13.0879H17.3768L18.5904 10.2212L19.804 13.0879H20.9496L18.9399 8.34066H13.5267V6.96842C13.8419 6.78599 14.0542 6.44538 14.0542 6.05494C14.0542 5.4723 13.5819 5 12.9992 5C12.4166 5 11.9443 5.4723 11.9443 6.05494C11.9443 6.44534 12.1565 6.78599 12.4717 6.96842V8.34066H7.0585L5.04883 13.0879H6.19443L7.408 10.2212Z" fill="#A6A5A5"/>
</svg>
