<svg width="26" height="26" viewBox="0 0 26 26" fill="none" xmlns="http://www.w3.org/2000/svg">
<rect width="26" height="26" rx="3" fill="white"/>
<path d="M14.0562 11.2563H12.5156V9.71562C12.5156 9.3625 12.2313 9.07812 11.8781 9.07812C11.525 9.07812 11.2406 9.3625 11.2406 9.71562V11.2563H9.7C9.34687 11.2563 9.0625 11.5406 9.0625 11.8938C9.0625 12.2469 9.34687 12.5313 9.7 12.5313H11.2406V14.0719C11.2406 14.425 11.525 14.7094 11.8781 14.7094C12.2313 14.7094 12.5156 14.425 12.5156 14.0719V12.5313H14.0562C14.4094 12.5313 14.6938 12.2469 14.6938 11.8938C14.6938 11.5406 14.4062 11.2563 14.0562 11.2563Z" fill="#A6A5A5"/>
<path d="M11.8812 17.1468C8.97812 17.1468 6.625 14.7968 6.625 11.8937C6.625 8.99058 8.97812 6.64058 11.8812 6.64058C14.7844 6.64058 17.1344 8.9937 17.1344 11.8937C17.1344 14.7937 14.7812 17.1468 11.8812 17.1468ZM20.4688 19.5843L16.9281 16.0437C17.8563 14.9156 18.4156 13.4687 18.4156 11.8937C18.4156 8.28433 15.4906 5.3562 11.8781 5.3562C8.26563 5.3562 5.34375 8.28433 5.34375 11.8937C5.34375 15.5031 8.26875 18.4312 11.8812 18.4312C13.4563 18.4312 14.9 17.875 16.0281 16.9468L19.5688 20.4875C19.7313 20.6531 20.2281 20.7343 20.4719 20.4875C20.7188 20.2375 20.7188 19.8343 20.4688 19.5843Z" fill="#A6A5A5"/>
</svg>
