<svg width="28" height="28" viewBox="0 0 28 28" fill="none" xmlns="http://www.w3.org/2000/svg">
<path d="M5.21582 20.2709C5.29594 20.3509 5.40094 20.391 5.50589 20.391C5.61083 20.391 5.71583 20.351 5.79595 20.2709L6.07212 19.9947L6.34829 20.2709C6.42841 20.3509 6.53341 20.391 6.63836 20.391C6.7433 20.391 6.8483 20.351 6.92842 20.2709C7.0886 20.1107 7.0886 19.851 6.92842 19.6908L6.65219 19.4146L6.92842 19.1384C7.0886 18.9782 7.0886 18.7185 6.92842 18.5584C6.76818 18.3982 6.50853 18.3982 6.34835 18.5584L6.07218 18.8345L5.796 18.5584C5.63577 18.3982 5.37611 18.3982 5.21593 18.5584C5.05575 18.7185 5.05575 18.9783 5.21593 19.1384L5.49216 19.4146L5.21593 19.6908C5.05564 19.851 5.05564 20.1107 5.21582 20.2709Z" fill="#54A2C7"/>
<path d="M13.1436 13.4665C13.2237 13.5466 13.3286 13.5867 13.4336 13.5867C13.5386 13.5867 13.6436 13.5466 13.7237 13.4665L13.9999 13.1903L14.2762 13.4665C14.3563 13.5466 14.4613 13.5867 14.5662 13.5867C14.6712 13.5867 14.7762 13.5466 14.8563 13.4665C15.0165 13.3063 15.0165 13.0466 14.8563 12.8865L14.58 12.6103L14.8563 12.334C15.0165 12.1739 15.0165 11.9142 14.8563 11.754C14.6961 11.5939 14.4364 11.5938 14.2762 11.754L13.9999 12.0302L13.7236 11.7539C13.5634 11.5937 13.3038 11.5937 13.1436 11.7539C12.9834 11.9141 12.9834 12.1738 13.1436 12.3339L13.4198 12.6102L13.1436 12.8864C12.9834 13.0466 12.9834 13.3063 13.1436 13.4665Z" fill="#54A2C7"/>
<path d="M26.5281 0H19.5209C19.1818 0 18.8508 0.118289 18.5889 0.333047C18.5424 0.371164 18.4823 0.371273 18.4356 0.333047C18.1737 0.118289 17.8427 0 17.5037 0H10.4964C10.1573 0 9.8263 0.118289 9.56441 0.333047C9.51787 0.371164 9.45777 0.371273 9.41112 0.333047C9.14922 0.118289 8.8182 0 8.47913 0H1.47186C0.660242 0 0 0.660297 0 1.47186V4.71007C0 4.93659 0.183586 5.12023 0.410156 5.12023C0.636727 5.12023 0.820312 4.93659 0.820312 4.71007V1.47186C0.820312 1.11262 1.11262 0.820312 1.47186 0.820312H8.47919C8.63127 0.820312 8.77368 0.871117 8.89098 0.967312C9.24235 1.25552 9.73312 1.25552 10.0846 0.967312C10.2018 0.871172 10.3443 0.820312 10.4964 0.820312H17.5037C17.6557 0.820312 17.7982 0.871117 17.9155 0.967312C18.2669 1.25552 18.7576 1.25552 19.1091 0.967312C19.2263 0.871172 19.3688 0.820312 19.5209 0.820312H26.5281C26.8874 0.820312 27.1797 1.11262 27.1796 1.47186V24.1648C26.9831 24.0674 26.7619 24.0123 26.5281 24.0123H22.7325C22.5059 24.0123 22.3223 24.1959 22.3223 24.4225C22.3223 24.649 22.5059 24.8326 22.7325 24.8326H26.5281C26.8873 24.8326 27.1796 25.1249 27.1796 25.4842V25.997V26.5281C27.1796 26.8874 26.8873 27.1797 26.5281 27.1797H19.5208C19.3687 27.1797 19.2263 27.1289 19.109 27.0327C18.7576 26.7445 18.2668 26.7445 17.9154 27.0327C17.7982 27.1288 17.6557 27.1797 17.5036 27.1797H10.4963C10.3442 27.1797 10.2018 27.1289 10.0845 27.0327C9.73317 26.7445 9.24241 26.7445 8.89093 27.0327C8.77368 27.1288 8.63122 27.1797 8.47913 27.1797H1.47186C1.11262 27.1797 0.820312 26.8874 0.820312 26.5281V25.997V25.4842C0.820312 25.1249 1.11262 24.8326 1.47186 24.8326H8.47919C8.63127 24.8326 8.77368 24.8834 8.89098 24.9796C9.24235 25.2678 9.73312 25.2678 10.0846 24.9796C10.2018 24.8835 10.3443 24.8326 10.4964 24.8326H17.5037C17.6558 24.8326 17.7982 24.8834 17.9155 24.9796C18.2669 25.2678 18.7577 25.2678 19.1091 24.9796C19.2264 24.8835 19.3688 24.8326 19.5209 24.8326H21.1135C21.34 24.8326 21.5236 24.649 21.5236 24.4225C21.5236 24.1959 21.34 24.0123 21.1135 24.0123H19.5209C19.1819 24.0123 18.8508 24.1306 18.5889 24.3453C18.5424 24.3835 18.4823 24.3836 18.4356 24.3453C18.1737 24.1306 17.8427 24.0123 17.5037 24.0123H10.4964C10.1573 24.0123 9.8263 24.1306 9.56441 24.3453C9.51787 24.3835 9.45777 24.3836 9.41112 24.3453C9.14922 24.1306 8.8182 24.0123 8.47913 24.0123H1.47186C1.23802 24.0123 1.01686 24.0674 0.820312 24.1648V6.2761C0.820312 6.04959 0.636727 5.86595 0.410156 5.86595C0.183586 5.86595 0 6.04959 0 6.2761V25.4842V25.997V26.5281C0 27.3397 0.660242 28 1.47186 28H8.47913C8.8182 28 9.14922 27.8817 9.41112 27.667C9.45766 27.6288 9.51776 27.6287 9.56441 27.667C9.8263 27.8817 10.1573 28 10.4964 28H17.5036C17.8427 28 18.1737 27.8817 18.4356 27.667C18.4822 27.6288 18.5422 27.6287 18.5889 27.667C18.8508 27.8817 19.1818 28 19.5209 28H26.5281C27.3398 28 28 27.3397 28 26.5281V25.997V25.4842V1.47186C28 0.660297 27.3398 0 26.5281 0Z" fill="#54A2C7"/>
<path d="M5.21582 6.68125C5.29594 6.76131 5.40094 6.8014 5.50589 6.8014C5.61083 6.8014 5.71583 6.76137 5.79595 6.68125L6.07212 6.40508L6.34829 6.68125C6.42841 6.76131 6.53341 6.8014 6.63836 6.8014C6.7433 6.8014 6.8483 6.76137 6.92842 6.68125C7.0886 6.52107 7.0886 6.26136 6.92842 6.10123L6.65219 5.82501L6.92842 5.54878C7.0886 5.3886 7.0886 5.12889 6.92842 4.96877C6.76818 4.80859 6.50853 4.80859 6.34835 4.96877L6.07218 5.24494L5.796 4.96877C5.63577 4.80859 5.37611 4.80859 5.21593 4.96877C5.05575 5.12895 5.05575 5.38866 5.21593 5.54878L5.49216 5.82501L5.21593 6.10123C5.05564 6.26136 5.05564 6.52107 5.21582 6.68125Z" fill="#54A2C7"/>
<path d="M5.21582 13.4667C5.29594 13.5467 5.40094 13.5868 5.50589 13.5868C5.61083 13.5868 5.71583 13.5468 5.79595 13.4667L6.07212 13.1905L6.34829 13.4667C6.42841 13.5468 6.53336 13.5868 6.63836 13.5868C6.7433 13.5868 6.8483 13.5468 6.92842 13.4667C7.0886 13.3065 7.0886 13.0468 6.92842 12.8867L6.65219 12.6104L6.92842 12.3342C7.0886 12.174 7.0886 11.9143 6.92842 11.7542C6.76818 11.594 6.50853 11.594 6.34835 11.7542L6.07218 12.0304L5.796 11.7542C5.63582 11.594 5.37617 11.594 5.21593 11.7542C5.05575 11.9144 5.05575 12.1741 5.21593 12.3342L5.49216 12.6104L5.21593 12.8867C5.05564 13.0468 5.05564 13.3065 5.21582 13.4667Z" fill="#54A2C7"/>
<path d="M13.1436 6.68108C13.2237 6.7612 13.3286 6.80123 13.4336 6.80123C13.5386 6.80123 13.6436 6.7612 13.7236 6.68108L13.9999 6.4048L14.2762 6.68108C14.3563 6.7612 14.4613 6.80123 14.5662 6.80123C14.6712 6.80123 14.7762 6.7612 14.8563 6.68108C15.0165 6.5209 15.0165 6.26119 14.8562 6.10107L14.58 5.82484L14.8562 5.54861C15.0165 5.38843 15.0165 5.12878 14.8563 4.9686C14.6961 4.80842 14.4364 4.80842 14.2763 4.9686L13.9999 5.24483L13.7236 4.96854C13.5635 4.80831 13.3037 4.80836 13.1436 4.96854C12.9834 5.12872 12.9834 5.38843 13.1436 5.54856L13.4198 5.82479L13.1436 6.10101C12.9834 6.26119 12.9834 6.5209 13.1436 6.68108Z" fill="#54A2C7"/>
<path d="M21.0713 13.4667C21.1514 13.5467 21.2564 13.5868 21.3614 13.5868C21.4663 13.5868 21.5713 13.5468 21.6514 13.4667L21.9276 13.1905L22.2038 13.4667C22.2839 13.5468 22.3888 13.5868 22.4938 13.5868C22.5988 13.5868 22.7038 13.5468 22.7839 13.4667C22.9441 13.3065 22.9441 13.0468 22.7839 12.8867L22.5077 12.6104L22.7839 12.3342C22.9441 12.174 22.9441 11.9143 22.7839 11.7542C22.6236 11.594 22.364 11.594 22.2038 11.7542L21.9276 12.0304L21.6515 11.7542C21.4912 11.594 21.2316 11.594 21.0714 11.7542C20.9112 11.9144 20.9112 12.1741 21.0714 12.3342L21.3476 12.6104L21.0714 12.8867C20.9111 13.0468 20.9111 13.3065 21.0713 13.4667Z" fill="#54A2C7"/>
<path d="M21.0713 20.2709C21.1514 20.3509 21.2564 20.391 21.3614 20.391C21.4663 20.391 21.5713 20.351 21.6514 20.2709L21.9276 19.9947L22.2038 20.2709C22.2839 20.3509 22.3889 20.391 22.4938 20.391C22.5988 20.391 22.7038 20.351 22.7839 20.2709C22.9441 20.1107 22.9441 19.851 22.7839 19.6908L22.5077 19.4146L22.7839 19.1384C22.9441 18.9782 22.9441 18.7185 22.7839 18.5584C22.6236 18.3982 22.364 18.3982 22.2038 18.5584L21.9276 18.8345L21.6515 18.5584C21.4912 18.3982 21.2316 18.3982 21.0714 18.5584C20.9112 18.7185 20.9112 18.9783 21.0714 19.1384L21.3476 19.4146L21.0714 19.6908C20.9111 19.851 20.9111 20.1107 21.0713 20.2709Z" fill="#54A2C7"/>
<path d="M13.1436 20.2709C13.2237 20.351 13.3286 20.391 13.4336 20.391C13.5386 20.391 13.6436 20.351 13.7236 20.2709L13.9999 19.9946L14.2762 20.2709C14.3563 20.351 14.4613 20.391 14.5662 20.391C14.6712 20.391 14.7762 20.351 14.8563 20.2709C15.0165 20.1107 15.0165 19.851 14.8562 19.6909L14.58 19.4146L14.8562 19.1384C15.0163 18.9783 15.0163 18.7186 14.8562 18.5584C14.696 18.3982 14.4363 18.3982 14.2761 18.5584L13.9999 18.8347L13.7236 18.5584C13.5635 18.3982 13.3037 18.3982 13.1436 18.5584C12.9834 18.7186 12.9834 18.9783 13.1436 19.1384L13.4198 19.4146L13.1436 19.6909C12.9834 19.851 12.9834 20.1107 13.1436 20.2709Z" fill="#54A2C7"/>
<path d="M21.0713 6.68125C21.1514 6.76131 21.2564 6.8014 21.3614 6.8014C21.4663 6.8014 21.5713 6.76137 21.6514 6.68125L21.9276 6.40508L22.2038 6.68125C22.2839 6.76131 22.3889 6.8014 22.4938 6.8014C22.5988 6.8014 22.7038 6.76137 22.7839 6.68125C22.9441 6.52107 22.9441 6.26136 22.7839 6.10123L22.5077 5.82501L22.7839 5.54878C22.9441 5.3886 22.9441 5.12889 22.7839 4.96877C22.6236 4.80859 22.364 4.80859 22.2038 4.96877L21.9276 5.24494L21.6515 4.96877C21.4912 4.80859 21.2316 4.80859 21.0714 4.96877C20.9112 5.12895 20.9112 5.38866 21.0714 5.54878L21.3476 5.82501L21.0714 6.10123C20.9111 6.26136 20.9111 6.52107 21.0713 6.68125Z" fill="#54A2C7"/>
</svg>
