<svg width="30" height="30" viewBox="0 0 30 30" fill="none" xmlns="http://www.w3.org/2000/svg">
<path d="M10.1104 22.9628C10.1027 22.9253 10.0916 22.8884 10.077 22.8527C10.0623 22.8175 10.0441 22.7835 10.023 22.7519C10.002 22.7197 9.97734 22.6898 9.95039 22.6628C9.92344 22.6359 9.89355 22.6113 9.86133 22.5902C9.82969 22.5691 9.7957 22.5509 9.75996 22.5363C9.72481 22.5216 9.68789 22.5099 9.65039 22.5029C9.5748 22.4876 9.49688 22.4876 9.42188 22.5029C9.38438 22.5099 9.34746 22.5216 9.31172 22.5363C9.27656 22.5509 9.24258 22.5691 9.21094 22.5902C9.17871 22.6113 9.14883 22.6359 9.12187 22.6628C9.09492 22.6898 9.07031 22.7197 9.04922 22.7519C9.02754 22.7835 9.00996 22.8175 8.99531 22.8527C8.98066 22.8884 8.96895 22.9253 8.96191 22.9628C8.9543 23.0003 8.9502 23.039 8.9502 23.0771C8.9502 23.1152 8.9543 23.1539 8.96191 23.1914C8.96895 23.2289 8.98066 23.2658 8.99531 23.3009C9.00996 23.3367 9.02754 23.3706 9.04922 23.4023C9.07031 23.4345 9.09492 23.4644 9.12187 23.4913C9.14883 23.5183 9.17871 23.5429 9.21094 23.564C9.24258 23.5852 9.27656 23.6033 9.31172 23.618C9.34746 23.6326 9.38438 23.6443 9.42188 23.6514C9.45938 23.659 9.49805 23.6631 9.53613 23.6631C9.57422 23.6631 9.61289 23.659 9.65039 23.6514C9.68789 23.6443 9.72481 23.6326 9.75996 23.618C9.7957 23.6033 9.82969 23.5851 9.86133 23.564C9.89355 23.5429 9.92344 23.5183 9.95039 23.4913C9.97734 23.4644 10.002 23.4345 10.023 23.4023C10.0441 23.3706 10.0623 23.3367 10.077 23.3009C10.0916 23.2658 10.1027 23.2289 10.1104 23.1914C10.118 23.1539 10.1221 23.1152 10.1221 23.0771C10.1221 23.039 10.118 23.0003 10.1104 22.9628Z" fill="black"/>
<path d="M26.9527 23.1433C26.9504 23.1375 26.9481 23.1317 26.9456 23.1259C26.4063 21.864 25.1415 21.3976 23.6447 21.9088L19.5626 23.0377C19.3266 22.323 18.7379 21.7148 17.9055 21.4059C17.9003 21.404 17.8952 21.4021 17.89 21.4004L13.4028 19.8774C13.0293 19.3946 11.8594 18.1594 9.66902 18.1594C8.13826 18.1594 6.7841 19.2095 6.00937 20.3541H0.585938C0.262324 20.3541 0 20.6164 0 20.94V28.3274C0 28.651 0.262324 28.9133 0.585938 28.9133H4.06975C4.39336 28.9133 4.65568 28.651 4.65568 28.3274V27.8215H6.28945C6.61307 27.8215 6.87539 27.5591 6.87539 27.2355V27.0669C7.82777 27.15 8.14102 27.3306 9.0157 27.835C9.68836 28.2229 10.705 28.8091 12.5358 29.6323C12.5443 29.6361 12.5529 29.6398 12.5616 29.6432C12.9129 29.7814 13.5998 29.9985 14.4467 29.9985C15.0362 29.9985 15.7032 29.8932 16.388 29.5829L25.4109 26.3522C25.4269 26.3465 25.4428 26.34 25.4582 26.3329C26.3205 25.9362 27.6056 24.818 26.9527 23.1433ZM3.48381 27.7414H1.17188V21.5259H3.48381V27.7414ZM5.70352 26.6495H4.65568V21.5259H5.70352V26.6495ZM24.99 25.2581L15.9711 28.4873C15.9632 28.4901 15.9525 28.4943 15.9447 28.4975C15.9368 28.5007 15.9289 28.5041 15.9211 28.5077C14.665 29.0849 13.4711 28.7393 13.0031 28.5574C11.2346 27.7616 10.2908 27.2174 9.60111 26.8197C8.64228 26.2668 8.18027 26.0003 6.87539 25.8926V21.1733C7.4308 20.263 8.50787 19.3312 9.66908 19.3312C11.6604 19.3312 12.5043 20.6264 12.5374 20.6787C12.609 20.795 12.7189 20.8827 12.8483 20.9266L17.505 22.5071C18.2487 22.7863 18.6418 23.4232 18.4611 24.0583C18.3778 24.3517 18.1851 24.5949 17.9187 24.7434C17.6546 24.8905 17.3494 24.9269 17.0584 24.8464L11.8088 23.1828C11.5001 23.085 11.171 23.2558 11.0732 23.5643C10.9754 23.8728 11.1463 24.2021 11.4548 24.2999L16.7135 25.9664C16.7191 25.9682 16.7246 25.9699 16.7303 25.9714C16.9402 26.0311 17.154 26.0607 17.3664 26.0607C17.7554 26.0607 18.14 25.9616 18.4891 25.7671C19.029 25.4663 19.4193 24.9733 19.5883 24.3789C19.6018 24.3314 19.6137 24.2839 19.6241 24.2365L24.0235 23.0177C24.6589 22.8007 25.493 22.7225 25.8643 23.5778C26.2487 24.5819 25.2497 25.1342 24.99 25.2581Z" fill="black"/>
<path d="M21.0387 7.70753C21.0311 7.67003 21.0199 7.63312 21.0047 7.59737C20.99 7.56222 20.9725 7.52823 20.9508 7.49659C20.9297 7.46437 20.9051 7.43448 20.8781 7.40753C20.8512 7.38058 20.8213 7.35597 20.7891 7.33488C20.7574 7.31378 20.7234 7.29562 20.6883 7.28097C20.6525 7.26632 20.6156 7.2546 20.5787 7.24757C20.5031 7.23234 20.4252 7.23234 20.3496 7.24757C20.3121 7.2546 20.2752 7.26632 20.24 7.28097C20.2043 7.29562 20.1703 7.31378 20.1387 7.33488C20.1064 7.35597 20.0766 7.38058 20.0496 7.40753C20.0227 7.43448 19.998 7.46437 19.977 7.49659C19.9559 7.52823 19.9377 7.56222 19.923 7.59737C19.9084 7.63312 19.8967 7.67003 19.8896 7.70753C19.882 7.74503 19.8779 7.7837 19.8779 7.82179C19.8779 7.85987 19.882 7.89855 19.8896 7.93605C19.8967 7.97355 19.9084 8.01046 19.923 8.04562C19.9377 8.08136 19.9559 8.11534 19.977 8.14698C19.998 8.17921 20.0227 8.20909 20.0496 8.23605C20.0766 8.263 20.1064 8.28761 20.1387 8.3087C20.1703 8.3298 20.2043 8.34796 20.24 8.36261C20.2752 8.37726 20.3121 8.38839 20.3496 8.39601C20.3871 8.40362 20.4258 8.40773 20.4639 8.40773C20.502 8.40773 20.5406 8.40362 20.5787 8.39601C20.6156 8.38839 20.6525 8.37726 20.6883 8.36261C20.7234 8.34796 20.7574 8.3298 20.7891 8.3087C20.8213 8.28761 20.8512 8.263 20.8781 8.23605C20.9051 8.20909 20.9297 8.17921 20.9508 8.14698C20.9725 8.11534 20.99 8.08136 21.0047 8.04562C21.0199 8.01046 21.0311 7.97355 21.0387 7.93605C21.0463 7.89855 21.0498 7.85987 21.0498 7.82179C21.0498 7.7837 21.0463 7.74503 21.0387 7.70753Z" fill="black"/>
<path d="M29.4136 1.9859H25.9298C25.6062 1.9859 25.3439 2.24823 25.3439 2.57184V3.07774H23.7101C23.3865 3.07774 23.1242 3.34006 23.1242 3.66368V3.83231C22.1718 3.74917 21.8586 3.56858 20.9839 3.0642C20.3113 2.67631 19.2946 2.09008 17.4637 1.2669C17.4552 1.26303 17.4467 1.25946 17.4379 1.25606C16.842 1.02157 15.2801 0.5602 13.6118 1.31624L11.254 2.16045L9.26658 0.173071C9.03777 -0.0557373 8.66675 -0.0557373 8.43795 0.173071L1.91306 6.6979C1.70201 6.90901 1.66152 7.27504 1.91306 7.52659L13.0627 18.6762C13.2411 18.8547 13.6589 18.9087 13.8914 18.6762L19.8483 12.7193C20.0032 12.7327 20.1639 12.7399 20.3305 12.7399C21.8613 12.7399 23.2154 11.6898 23.9901 10.5452H29.4136C29.7372 10.5452 29.9996 10.2829 29.9996 9.95928V2.57184C29.9996 2.24823 29.7372 1.9859 29.4136 1.9859ZM8.8522 1.41602L10.1877 2.75149C9.7907 2.997 9.33174 3.12836 8.8522 3.12836C8.37261 3.12836 7.91371 2.99706 7.51673 2.75149L8.8522 1.41602ZM4.49154 8.44774L3.15607 7.11221L4.49154 5.77674C4.73705 6.17372 4.86841 6.63268 4.86841 7.11221C4.86841 7.59174 4.73711 8.05071 4.49154 8.44774ZM13.4771 17.4332L12.1418 16.098C12.957 15.5949 13.997 15.5949 14.8122 16.098L13.4771 17.4332ZM15.6565 15.2539C14.3617 14.3146 12.5925 14.3146 11.2977 15.2539L5.3357 9.29184C5.79326 8.66254 6.04029 7.90663 6.04029 7.11221C6.04029 6.31774 5.79332 5.56188 5.3357 4.93258L6.67263 3.59571C7.30193 4.05327 8.05779 4.3003 8.85226 4.3003C9.64673 4.3003 10.4026 4.05327 11.0319 3.59571L12.2992 4.86303C12.0258 4.9034 11.7591 4.99352 11.5104 5.13209C11.0904 5.36612 10.7609 5.71657 10.5557 6.14055C9.89476 6.26295 9.28287 6.58293 8.80287 7.06288C7.50062 8.36518 7.50062 10.4841 8.80293 11.7864C9.45402 12.4375 10.3093 12.7631 11.1647 12.7631C12.02 12.7631 12.8753 12.4376 13.5265 11.7864C13.9501 11.3628 14.2469 10.8421 14.3955 10.2747L16.3739 10.9461C16.1512 11.9778 16.3793 13.0632 16.9946 13.9158L15.6565 15.2539ZM12.0941 9.49335C12.0992 9.49522 12.1044 9.49709 12.1096 9.49885L13.2812 9.89653C13.1928 10.2958 12.9926 10.663 12.6978 10.9578C11.8524 11.8031 10.4769 11.8032 9.63162 10.9578C8.78623 10.1124 8.78623 8.73696 9.63162 7.89157C9.83552 7.68754 10.0762 7.52811 10.3384 7.42001C10.4465 8.32012 11.0946 9.12245 12.0941 9.49335ZM17.8388 13.0714C17.6127 12.7029 17.4847 12.2822 17.4645 11.8529C17.7452 12.0558 18.0882 12.2546 18.4978 12.4124L17.8388 13.0714ZM23.1241 9.72567C22.5688 10.6361 21.4917 11.5679 20.3305 11.5679C20.1132 11.5679 19.9096 11.5524 19.7192 11.5249C19.7185 11.5248 19.7177 11.5247 19.7169 11.5246C18.4516 11.3407 17.7709 10.6216 17.5465 10.3368C17.5346 10.3192 17.4836 10.2526 17.4761 10.2415C17.4078 10.1195 17.2959 10.0215 17.1532 9.97299L12.4945 8.39184C11.7511 8.11282 11.3581 7.4762 11.5382 6.84127C11.5383 6.84086 11.5384 6.84045 11.5386 6.84004C11.5387 6.83958 11.5388 6.83905 11.539 6.83858C11.6227 6.5462 11.815 6.30368 12.0808 6.15561C12.3448 6.00848 12.65 5.97198 12.9411 6.05266L18.1907 7.7162C18.4993 7.81411 18.8286 7.64313 18.9263 7.33463C19.024 7.02614 18.8532 6.69684 18.5447 6.59905L14.3696 5.276L14.3332 5.23956C14.3328 5.2392 14.3325 5.23879 14.3321 5.23844L12.1705 3.07692L14.0284 2.41165C14.0347 2.40936 14.0424 2.40649 14.0486 2.40397C14.0502 2.40333 14.0533 2.40215 14.0548 2.40151C14.0628 2.39829 14.0706 2.39489 14.0784 2.39131C15.3344 1.81405 16.5283 2.15957 16.9963 2.34157C18.7649 3.13733 19.7088 3.68161 20.3985 4.07928C21.3573 4.63223 21.8193 4.89866 23.1241 5.00641V9.72567ZM25.3439 9.37323H24.2961V4.24961H25.3439V9.37323ZM28.8277 9.37323H26.5158V3.15778H28.8277V9.37323Z" fill="black"/>
</svg>
