<svg width="20" height="20" viewBox="0 0 20 20" fill="none" xmlns="http://www.w3.org/2000/svg">
<g clip-path="url(#clip0)">
<path d="M7.4131 15.8409C7.77162 16.0901 8.21991 16.1711 8.65105 16.1711C9.18581 16.1711 9.69417 16.0465 9.972 15.964C12.5611 15.1952 15.1915 12.5648 15.9603 9.97566C16.1516 9.33145 16.487 7.75701 15.4721 7.05163C14.6687 6.4932 13.4149 6.77954 12.9131 6.92852C12.1548 7.15369 11.3877 7.53609 10.6333 8.06511C10.4567 8.18896 10.4139 8.43254 10.5378 8.60917C10.6616 8.78579 10.9052 8.82864 11.0818 8.70471C11.7672 8.22416 12.4581 7.87852 13.1355 7.6774C13.7683 7.48949 14.5973 7.39497 15.0262 7.69311C15.5133 8.03167 15.4413 8.97933 15.2115 9.75333C14.522 12.0755 12.0718 14.5257 9.74959 15.2152C9.11683 15.403 8.28783 15.4977 7.859 15.1995C7.37185 14.8608 7.44388 13.9132 7.6737 13.1392C7.87482 12.4619 8.22042 11.771 8.70093 11.0857C8.82474 10.909 8.78194 10.6655 8.60531 10.5416C8.42872 10.4177 8.18515 10.4605 8.06125 10.6372C7.53235 11.3916 7.14999 12.1586 6.92485 12.9168C6.73362 13.5609 6.39829 15.1353 7.4131 15.8409Z" fill="#222222"/>
<path d="M17.7882 7.12463L16.7768 6.11318C15.8655 5.20189 14.4458 4.92949 12.7791 5.3461C12.716 5.36188 12.6528 5.37891 12.5895 5.39652C12.1253 4.43219 11.4493 3.49242 10.6187 2.66182C9.36871 1.4118 7.89493 0.527031 6.46883 0.170536C4.97215 -0.203653 3.69546 0.0425381 2.87419 0.863801L1.97509 1.76283C-0.655758 4.39371 -0.655758 8.67454 1.97509 11.3054C2.88744 12.2177 4.01992 12.8398 5.26818 13.1181C4.967 14.6386 5.26088 15.9295 6.10976 16.7789C6.10995 16.7791 6.11015 16.7793 6.11034 16.7795L7.12182 17.7909C8.54636 19.2155 10.4404 20 12.455 20C14.4696 20 16.3636 19.2155 17.7882 17.7909C19.2127 16.3664 19.9972 14.4724 19.9972 12.4578C19.9972 10.4432 19.2127 8.54916 17.7882 7.12463ZM6.27935 0.928405C7.57007 1.25107 8.915 2.06288 10.0663 3.21424C10.8095 3.95742 11.4178 4.79134 11.8425 5.64564C11.6035 5.73833 11.3646 5.84309 11.1268 5.95984C10.6481 5.00777 9.99882 4.25154 9.51394 3.76661C8.53386 2.78654 7.3929 2.06827 6.30122 1.74412C5.7558 1.58218 4.42477 1.29529 3.84603 2.12761C3.38193 2.79521 3.62738 3.86282 3.75448 4.29083C4.07863 5.38258 4.79689 6.52354 5.77697 7.50354C6.30154 8.02815 6.88313 8.48581 7.47785 8.84437C7.3056 9.04576 7.14159 9.25086 6.98621 9.45893C6.36454 9.07529 5.77306 8.60439 5.22459 8.05592C4.07324 6.90457 3.26147 5.55967 2.9388 4.26892C2.63378 3.04886 2.80701 2.03574 3.42657 1.41618C4.04609 0.796579 5.05929 0.623429 6.27935 0.928405ZM8.13319 8.13599C8.09385 8.17533 8.05495 8.21493 8.01624 8.25465C7.42914 7.91863 6.84989 7.47167 6.32939 6.95117C5.43965 6.06147 4.79115 5.03772 4.50336 4.06847C4.3115 3.42235 4.30529 2.83556 4.48742 2.57355C4.70768 2.25681 5.44532 2.30486 6.07886 2.49297C7.04804 2.78076 8.07179 3.42926 8.96156 4.31899C9.5762 4.93367 10.0928 5.63881 10.4398 6.33204C9.6326 6.80981 8.85008 7.41906 8.13319 8.13599ZM2.01856 2.89418C1.99313 3.30595 2.02832 3.74853 2.12527 4.21443C1.87552 4.58061 1.65671 4.96261 1.47438 5.35223C1.38295 5.54761 1.4672 5.78013 1.66257 5.87156C1.71612 5.89664 1.77245 5.90847 1.82787 5.90847C1.97477 5.90847 2.1155 5.8252 2.18191 5.68334C2.25479 5.52757 2.33443 5.37313 2.41989 5.22044C2.64609 5.82266 2.96012 6.42476 3.35029 7.00675C3.04168 7.41316 2.76834 7.8109 2.53625 8.19146C2.42392 8.37562 2.48212 8.61599 2.66632 8.72833C2.72983 8.76707 2.80002 8.78551 2.86931 8.78551C3.00098 8.78551 3.12956 8.71887 3.20315 8.59826C3.38599 8.29856 3.59703 7.98639 3.83244 7.66665C4.08957 7.99104 4.37005 8.30629 4.67214 8.60838C5.25287 9.18907 5.87985 9.68989 6.53976 10.1012C6.06476 10.839 5.69928 11.6027 5.46223 12.3603C4.73803 12.2018 4.05746 11.9129 3.44649 11.5062C3.81451 11.4055 4.23159 11.2282 4.69374 10.9738C4.88274 10.8698 4.95165 10.6323 4.84759 10.4433C4.74362 10.2543 4.50602 10.1854 4.31709 10.2894C3.16745 10.9221 2.64367 10.8693 2.52746 10.753C2.52735 10.7529 2.52723 10.7529 2.52715 10.7528C0.385487 8.61072 0.216008 5.23204 2.01856 2.89418ZM6.10116 12.9714C6.46633 11.5109 7.38415 9.98983 8.68556 8.68841C9.98698 7.38695 11.5081 6.46913 12.9686 6.10401C13.415 5.99241 13.8371 5.93722 14.2282 5.93722C15.0549 5.93722 15.7426 6.18388 16.2243 6.6656C16.934 7.37519 17.1334 8.53143 16.7859 9.92132C16.4208 11.3819 15.5029 12.9029 14.2015 14.2044C12.9001 15.5058 11.379 16.4236 9.91851 16.7888C8.52859 17.1362 7.37239 16.9368 6.6628 16.2272C5.95317 15.5175 5.75373 14.3613 6.10116 12.9714ZM8.20209 17.7142C8.34985 17.7287 8.50097 17.7369 8.65607 17.7369C9.03601 17.7369 9.43742 17.6925 9.85547 17.6042C10.2704 17.8885 10.7037 18.1375 11.146 18.3445C11.1995 18.3696 11.2558 18.3815 11.3113 18.3815C11.4582 18.3815 11.5989 18.2982 11.6652 18.1564C11.7567 17.961 11.6725 17.7285 11.4771 17.637C11.2697 17.5399 11.0643 17.4323 10.862 17.3157C12.2155 16.8266 13.5735 15.9371 14.7539 14.7567C15.108 14.4026 15.4357 14.0326 15.7345 13.6514C16.0156 14.0304 16.2666 14.4001 16.4827 14.7544C16.5563 14.8751 16.6848 14.9417 16.8166 14.9417C16.8858 14.9417 16.956 14.9232 17.0195 14.8845C17.2037 14.7721 17.2619 14.5318 17.1496 14.3476C16.8842 13.9125 16.5703 13.457 16.2153 12.9912C16.6825 12.2991 17.0539 11.5813 17.3129 10.8648C17.4295 11.0671 17.5371 11.2725 17.6342 11.4799C17.7005 11.6217 17.8413 11.705 17.9882 11.705C18.0436 11.705 18.1 11.6931 18.1535 11.6681C18.3489 11.5767 18.4331 11.3441 18.3416 11.1488C18.1347 10.7066 17.8858 10.2734 17.6015 9.85843C17.7257 9.27016 17.7621 8.71524 17.7122 8.20595C18.6863 9.40577 19.2159 10.891 19.2159 12.4578C19.2159 14.2636 18.5128 15.9613 17.2359 17.2383C17.2358 17.2384 17.2357 17.2385 17.2356 17.2386C17.0344 17.4397 16.3159 17.359 15.1642 16.7252C14.9753 16.6213 14.7377 16.6901 14.6337 16.8791C14.5297 17.0681 14.5986 17.3056 14.7875 17.4097C15.3492 17.7187 15.85 17.9259 16.2841 18.0316C15.166 18.8032 13.8425 19.2189 12.4549 19.2189C10.8877 19.2188 9.40207 18.6889 8.20209 17.7142Z" fill="#222222"/>
<path d="M9.5138 9.90765C9.72948 9.90765 9.90439 9.73279 9.90439 9.51706C9.90439 9.30133 9.72948 9.12646 9.5138 9.12646H9.51348C9.2978 9.12646 9.12305 9.30133 9.12305 9.51706C9.12305 9.73279 9.29811 9.90765 9.5138 9.90765Z" fill="#222222"/>
</g>
<defs>
<clipPath id="clip0">
<rect width="20" height="20" fill="white"/>
</clipPath>
</defs>
</svg>
