<svg width="20" height="20" viewBox="0 0 20 20" fill="none" xmlns="http://www.w3.org/2000/svg">
<g clip-path="url(#clip0)">
<path d="M19.6241 3.03961L19.8875 2.7763C20.04 2.62376 20.04 2.37642 19.8875 2.22384C19.7349 2.07134 19.4876 2.07134 19.335 2.22384L19.0717 2.48716L18.8085 2.224C18.7353 2.15076 18.6359 2.10958 18.5323 2.10958H18.1027L16.1075 0.114413C16.0342 0.0411714 15.9349 0 15.8313 0H1.40873C0.633039 0 0.00195312 0.631047 0.00195312 1.40678V8.72705C0.00195312 9.50274 0.633039 10.1338 1.40873 10.1338H4.81182L2.52337 12.4223C2.25767 12.688 2.11134 13.0413 2.11134 13.4171C2.11134 13.7928 2.25767 14.1461 2.52337 14.4118L7.69956 19.588C7.96526 19.8537 8.31853 20 8.69431 20C9.07009 20 9.42336 19.8537 9.68906 19.588L13.5659 15.7113C13.7184 15.5587 13.7184 15.3114 13.5659 15.1588C13.4133 15.0063 13.166 15.0063 13.0134 15.1588L9.13661 19.0356C9.01849 19.1537 8.86138 19.2188 8.69431 19.2188C8.52724 19.2188 8.37013 19.1537 8.25201 19.0356L3.07578 13.8594C2.95766 13.7412 2.89258 13.5841 2.89258 13.4171C2.89258 13.25 2.95766 13.0929 3.07578 12.9748L13.1596 2.8909H18.3706L18.5193 3.03965L17.616 3.94292C17.463 3.86956 17.2918 3.82843 17.1111 3.82843C16.465 3.82843 15.9393 4.35413 15.9393 5.00029C15.9393 5.64646 16.465 6.17215 17.1111 6.17215C17.7573 6.17215 18.283 5.64646 18.283 5.00029C18.283 4.81959 18.2418 4.64834 18.1685 4.49538L19.0717 3.59211L19.2205 3.74085V8.95173L15.4993 12.673C15.3467 12.8255 15.3467 13.0729 15.4993 13.2254C15.6518 13.3779 15.8991 13.3779 16.0517 13.2254L19.8873 9.38981C19.9606 9.31653 20.0018 9.2172 20.0018 9.1136V3.57898C20.0018 3.47539 19.9606 3.37605 19.8873 3.30277L19.6241 3.03961ZM7.01667 7.0091C6.80121 7.0091 6.62594 6.83383 6.62594 6.61836C6.62594 6.40285 6.80121 6.22758 7.01667 6.22758C7.23214 6.22758 7.40741 6.40285 7.40741 6.61836C7.40741 6.83379 7.23214 7.0091 7.01667 7.0091ZM12.9979 2.10962C12.8943 2.10962 12.7949 2.15079 12.7216 2.22404L8.17896 6.76668C8.18514 6.71805 8.18869 6.66859 8.18869 6.61832C8.18869 5.97208 7.66295 5.4463 7.01671 5.4463C6.37051 5.4463 5.84473 5.97208 5.84473 6.61832C5.84473 7.26456 6.37047 7.7903 7.01671 7.7903C7.06698 7.7903 7.11644 7.78674 7.16507 7.78057L5.5931 9.35255H1.40873C1.06382 9.35255 0.783194 9.07192 0.783194 8.72701V1.40678C0.783194 1.06186 1.06382 0.781241 1.40873 0.781241H15.6695L16.9978 2.10962H12.9979ZM17.1111 5.39083C16.8957 5.39083 16.7205 5.2156 16.7205 5.00021C16.7205 4.78483 16.8957 4.60959 17.1111 4.60959C17.2003 4.60959 17.2823 4.63995 17.3481 4.69041C17.3585 4.70393 17.3695 4.71713 17.3818 4.72948C17.3942 4.74182 17.4074 4.75283 17.4209 4.76319C17.4714 4.82901 17.5017 4.91104 17.5017 5.00017C17.5017 5.2156 17.3265 5.39083 17.1111 5.39083Z" fill="#222222"/>
<path d="M12.9929 11.5558C13.0965 11.5558 13.1959 11.5147 13.2691 11.4414L14.153 10.5575C14.3055 10.405 14.3055 10.1577 14.153 10.0051C14.0004 9.85258 13.7531 9.85258 13.6005 10.0051L12.9929 10.6128L11.0594 8.67932C10.9069 8.52682 10.6595 8.52682 10.507 8.67932C10.3544 8.83185 10.3544 9.07919 10.507 9.23177L12.7167 11.4414C12.79 11.5147 12.8893 11.5558 12.9929 11.5558Z" fill="#222222"/>
<path d="M16.0308 8.12704C15.8783 7.97454 15.6309 7.97454 15.4784 8.12704L14.9812 8.62422L14.4288 8.07184L14.9259 7.57466C15.0785 7.42212 15.0785 7.17478 14.9259 7.02221C14.7734 6.86971 14.5261 6.86971 14.3735 7.02221L13.8763 7.51939L13.3239 6.96697L13.8211 6.46979C13.9736 6.31725 13.9737 6.06991 13.8211 5.91734C13.6685 5.76488 13.4212 5.76484 13.2687 5.91734L12.4953 6.69073C12.422 6.76397 12.3809 6.86334 12.3809 6.96693C12.3809 7.07053 12.422 7.16986 12.4953 7.24314L14.705 9.4528C14.7812 9.52905 14.8812 9.56722 14.9812 9.56722C15.0811 9.56722 15.1811 9.52905 15.2574 9.4528L16.0308 8.67941C16.1834 8.52692 16.1834 8.27957 16.0308 8.12704Z" fill="#222222"/>
<path d="M11.7095 12.6182C11.9016 12.7161 12.1369 12.6396 12.2349 12.4474C12.3328 12.2552 12.2564 12.02 12.0641 11.9221L9.13629 10.4305C8.98551 10.3537 8.80243 10.3827 8.68278 10.5024C8.56313 10.622 8.53411 10.8051 8.61094 10.9559L10.1025 13.8837C10.1715 14.0192 10.3086 14.0971 10.4508 14.0971C10.5105 14.0971 10.5711 14.0834 10.6278 14.0544C10.8201 13.9565 10.8965 13.7213 10.7986 13.5291L10.6788 13.2939L11.4744 12.4984L11.7095 12.6182ZM10.3059 12.562L9.85265 11.6722L10.7425 12.1255L10.3059 12.562Z" fill="#222222"/>
<path d="M7.96481 15.6399C7.81227 15.7924 7.81223 16.0397 7.96481 16.1923C8.0411 16.2686 8.14106 16.3067 8.24102 16.3067C8.34098 16.3067 8.44098 16.2686 8.51723 16.1923L9.06968 15.6399C9.52659 15.183 9.52659 14.4396 9.06968 13.9826C8.63539 13.5483 7.94247 13.5272 7.48251 13.9184C7.46821 13.9292 7.45431 13.9407 7.4413 13.9538L7.4124 13.9826C7.33861 14.0564 7.24052 14.097 7.13619 14.097C7.03185 14.097 6.93377 14.0564 6.85998 13.9826C6.70768 13.8303 6.70768 13.5825 6.85998 13.4302L7.4124 12.8778C7.56493 12.7252 7.56497 12.4779 7.4124 12.3253C7.25986 12.1728 7.01252 12.1728 6.85998 12.3253L6.30753 12.8777C5.85062 13.3346 5.85062 14.0781 6.30753 14.535C6.52889 14.7564 6.82314 14.8782 7.13615 14.8782C7.44872 14.8782 7.74263 14.7567 7.96395 14.5358C7.96422 14.5355 7.96454 14.5353 7.96481 14.535C8.11707 14.3827 8.36492 14.3827 8.51723 14.535C8.59101 14.6088 8.63164 14.7069 8.63164 14.8112C8.63164 14.9156 8.59101 15.0137 8.51723 15.0874L7.96481 15.6399Z" fill="#222222"/>
<path d="M6.69206 2.52171C6.50421 2.41569 6.26593 2.48194 6.15988 2.66983L3.64038 7.13283C3.53433 7.32072 3.60061 7.55896 3.7885 7.66501C3.8492 7.69927 3.9151 7.71556 3.98018 7.71556C4.11651 7.71556 4.24889 7.64407 4.32068 7.51689L6.84019 3.05389C6.94624 2.866 6.87995 2.62772 6.69206 2.52171Z" fill="#222222"/>
<path d="M4.88895 3.5155C4.88895 2.86925 4.3632 2.34351 3.71695 2.34351C3.0707 2.34351 2.54492 2.86925 2.54492 3.5155C2.54492 4.16175 3.07066 4.68753 3.71691 4.68753C4.36316 4.68753 4.88895 4.16175 4.88895 3.5155ZM3.32617 3.5155C3.32617 3.30003 3.50145 3.12476 3.71691 3.12476C3.93238 3.12476 4.10766 3.30003 4.10766 3.5155C4.10766 3.73101 3.93238 3.90628 3.71691 3.90628C3.50145 3.90628 3.32617 3.73101 3.32617 3.5155Z" fill="#222222"/>
<path d="M14.5312 13.8013C14.4281 13.8013 14.3277 13.8431 14.2551 13.9158C14.1824 13.9884 14.1406 14.0892 14.1406 14.1919C14.1406 14.2947 14.1824 14.3954 14.2551 14.4681C14.3277 14.5407 14.4281 14.5825 14.5312 14.5825C14.634 14.5825 14.7348 14.5408 14.8074 14.4681C14.8801 14.3954 14.9219 14.2947 14.9219 14.1919C14.9219 14.0892 14.8801 13.9884 14.8074 13.9158C14.7348 13.8431 14.634 13.8013 14.5312 13.8013Z" fill="#222222"/>
</g>
<defs>
<clipPath id="clip0">
<rect width="20" height="20" fill="white"/>
</clipPath>
</defs>
</svg>
