<svg width="16" height="20" viewBox="0 0 16 20" fill="none" xmlns="http://www.w3.org/2000/svg">
<path d="M1.49971 5.26317H2.92471L10.7497 7.73159L9.42471 7.95264C9.2921 7.96311 9.16887 8.0286 9.08214 8.13471C8.9954 8.24081 8.95226 8.37884 8.96221 8.51843C8.97215 8.65802 9.03437 8.78773 9.13517 8.87903C9.23597 8.97033 9.3671 9.01574 9.49971 9.00527H9.57971L13.0797 8.42632C13.213 8.43749 13.345 8.39247 13.4467 8.30117C13.5485 8.20987 13.6116 8.07977 13.6222 7.93948C13.6328 7.7992 13.59 7.66022 13.5033 7.55313C13.4166 7.44603 13.293 7.3796 13.1597 7.36843L6.41971 5.26317H9.02971C9.02448 5.30685 9.02448 5.35106 9.02971 5.39475C9.04887 5.51929 9.1099 5.63243 9.20168 5.71358C9.29345 5.79473 9.40986 5.83847 9.52971 5.83685H9.60971L13.0547 5.26317H14.4997C14.6225 5.2641 14.7414 5.2174 14.8336 5.13198C14.9259 5.04655 14.985 4.92838 14.9997 4.80001L15.4997 0.589487C15.5082 0.515258 15.5016 0.439968 15.4804 0.368633C15.4591 0.297298 15.4236 0.231555 15.3763 0.175781C15.329 0.120008 15.2709 0.0754844 15.206 0.0451769C15.1411 0.0148694 15.0707 -0.000526775 14.9997 1.3755e-05H0.999708C0.928679 -0.000526775 0.858356 0.0148694 0.793421 0.0451769C0.728487 0.0754844 0.670433 0.120008 0.623125 0.175781C0.575817 0.231555 0.540342 0.297298 0.519061 0.368633C0.49778 0.439968 0.491183 0.515258 0.499708 0.589487L0.999708 4.80001C1.01445 4.92838 1.07356 5.04655 1.16578 5.13198C1.258 5.2174 1.37687 5.2641 1.49971 5.26317ZM14.4497 1.05264L14.0747 4.21054H1.95471L1.57971 1.05264H14.4497Z" fill="#222222"/>
<path d="M13.1609 10.5264L5.2559 8.0527L6.6359 7.82113C6.76851 7.79949 6.88752 7.72329 6.96675 7.60929C7.04599 7.49528 7.07895 7.35282 7.0584 7.21323C7.03785 7.07364 6.96545 6.94837 6.85715 6.86496C6.74885 6.78156 6.61351 6.74686 6.4809 6.76849L2.9359 7.36849C2.80329 7.35942 2.67269 7.40617 2.57283 7.49846C2.47296 7.59075 2.41202 7.72101 2.4034 7.8606C2.39478 8.00019 2.43919 8.13766 2.52687 8.24278C2.61454 8.3479 2.73829 8.41205 2.8709 8.42112L10.7659 10.9159L9.4409 11.1369C9.30829 11.1474 9.18507 11.2129 9.09833 11.319C9.01159 11.4251 8.96845 11.5631 8.9784 11.7027C8.98835 11.8423 9.05056 11.972 9.15136 12.0633C9.25216 12.1546 9.38329 12.2 9.5159 12.1895H9.5959L13.0959 11.6106C13.1635 11.6151 13.2313 11.6055 13.2955 11.5824C13.3596 11.5593 13.4187 11.5232 13.4696 11.476C13.5204 11.4288 13.5619 11.3716 13.5918 11.3076C13.6216 11.2435 13.6391 11.1739 13.6434 11.1027C13.6477 11.0315 13.6386 10.9601 13.6166 10.8926C13.5947 10.8252 13.5603 10.7629 13.5155 10.7094C13.4707 10.6558 13.4164 10.6121 13.3555 10.5807C13.2947 10.5493 13.2285 10.5309 13.1609 10.5264Z" fill="#222222"/>
<path d="M9.00052 14.8684C9.01969 14.9929 9.08072 15.106 9.17249 15.1872C9.26426 15.2683 9.38068 15.3121 9.50052 15.3105H9.58052L13.0805 14.7315C13.2079 14.7343 13.3315 14.6857 13.426 14.5957C13.5206 14.5058 13.5789 14.3812 13.5891 14.2475C13.5993 14.1138 13.5607 13.981 13.481 13.8763C13.4013 13.7716 13.2867 13.7029 13.1605 13.6842L5.27052 11.2157L6.56552 11.0052C6.63118 10.9945 6.6942 10.9703 6.75096 10.9339C6.80773 10.8976 6.85714 10.8498 6.89638 10.7934C6.93561 10.7369 6.96389 10.6729 6.97962 10.6049C6.99534 10.537 6.9982 10.4664 6.98802 10.3973C6.97784 10.3282 6.95483 10.2619 6.9203 10.2021C6.88577 10.1424 6.8404 10.0903 6.78677 10.049C6.73315 10.0077 6.67232 9.97797 6.60776 9.96142C6.5432 9.94487 6.47618 9.94186 6.41052 9.95257L2.94052 10.5263C2.80791 10.5165 2.67705 10.5626 2.57672 10.6544C2.47638 10.7462 2.4148 10.8761 2.40552 11.0157C2.39624 11.1553 2.44001 11.2931 2.52722 11.3987C2.61442 11.5043 2.73791 11.5691 2.87052 11.5789L10.7655 14.0736L9.44052 14.2947C9.31041 14.3106 9.19142 14.3796 9.10914 14.4869C9.02686 14.5941 8.98786 14.7311 9.00052 14.8684Z" fill="#222222"/>
<path d="M0.5 20H15.5C15.6326 20 15.7598 19.9445 15.8536 19.8458C15.9473 19.7471 16 19.6132 16 19.4736V17.3684C16 17.2288 15.9473 17.0949 15.8536 16.9962C15.7598 16.8975 15.6326 16.8421 15.5 16.8421H13.09L5.255 14.3684L6.635 14.1368C6.76761 14.1152 6.88662 14.039 6.96585 13.925C7.04509 13.811 7.07805 13.6685 7.0575 13.5289C7.03695 13.3893 6.96455 13.264 6.85625 13.1806C6.74795 13.0972 6.61261 13.0625 6.48 13.0842L2.935 13.6842C2.80239 13.6751 2.67179 13.7218 2.57193 13.8141C2.47206 13.9064 2.41112 14.0367 2.4025 14.1763C2.39388 14.3159 2.43829 14.4533 2.52597 14.5585C2.61364 14.6636 2.73739 14.7277 2.87 14.7368L9.605 16.8421H7.045C7.05157 16.7932 7.05157 16.7436 7.045 16.6947C7.02405 16.5625 6.956 16.4438 6.85473 16.3626C6.75346 16.2814 6.6266 16.244 6.5 16.2578L3 16.8421H0.5C0.367392 16.8421 0.240215 16.8975 0.146447 16.9962C0.0526785 17.0949 0 17.2288 0 17.3684V19.4736C0 19.6132 0.0526785 19.7471 0.146447 19.8458C0.240215 19.9445 0.367392 20 0.5 20ZM1 17.8947H15V18.9473H1V17.8947Z" fill="#222222"/>
</svg>
