<svg width="20" height="20" viewBox="0 0 20 20" fill="none" xmlns="http://www.w3.org/2000/svg">
<g clip-path="url(#clip0)">
<path d="M10 16.8479C9.78422 16.8479 9.60938 17.0228 9.60938 17.2385V17.257C9.60938 17.4728 9.78422 17.6477 10 17.6477C10.2157 17.6477 10.3906 17.4728 10.3906 17.257V17.2385C10.3906 17.0228 10.2157 16.8479 10 16.8479Z" fill="#222222"/>
<path d="M0.399727 19.2188H0.390625C0.174883 19.2188 0 19.3936 0 19.6094C0 19.8251 0.174883 20 0.390625 20H0.399727C0.615469 20 0.790352 19.8251 0.790352 19.6094C0.790352 19.3936 0.615508 19.2188 0.399727 19.2188Z" fill="#222222"/>
<path d="M18.477 19.2187H18.1928C18.0629 16.4858 16.5762 14.0046 14.2212 12.5842C14.6935 11.879 14.9941 11.0497 15.0624 10.1563H15.0773C15.9388 10.1563 16.6397 9.45539 16.6397 8.59383C16.6397 7.86707 16.141 7.25465 15.4679 7.08074V5.46875C15.4679 2.45324 13.0146 0 9.99918 0C6.98371 0 4.53047 2.45328 4.53047 5.46875V7.08078C3.85734 7.25469 3.35859 7.86711 3.35859 8.59387C3.35859 9.45543 4.05949 10.1563 4.92109 10.1563H4.93598C5.00426 11.0497 5.30492 11.8791 5.77719 12.5843C3.42215 14.0046 1.93551 16.4858 1.80559 19.2187H1.52148C1.3057 19.2187 1.13086 19.3936 1.13086 19.6093C1.13086 19.8251 1.3057 20 1.52148 20H2.18523C2.18574 20 2.18621 20 2.18672 20C2.18723 20 2.1877 20 2.1882 20H4.52906C4.52957 20 4.53004 20 4.53055 20C4.53105 20 4.53152 20 4.53203 20H15.4665C15.467 20 15.4675 20 15.468 20C15.4686 20 15.469 20 15.4695 20H17.8102C17.8107 20 17.8112 20 17.8118 20C17.8123 20 17.8127 20 17.8132 20H18.4771C18.6928 20 18.8677 19.8251 18.8677 19.6093C18.8676 19.3936 18.6927 19.2187 18.477 19.2187ZM4.13984 19.2187H2.58762C2.6682 17.6861 3.2209 16.2425 4.13988 15.0625V19.2187H4.13984ZM5.31168 5.46879C5.31168 2.88406 7.41449 0.78125 9.99918 0.78125C12.5839 0.78125 14.6866 2.88406 14.6866 5.46875V7.03133C14.1298 7.03129 13.5884 6.35633 13.3393 5.35168C13.3106 5.23613 13.2308 5.13992 13.1225 5.09043C13.0142 5.0409 12.8892 5.04352 12.7831 5.0975C11.9158 5.53844 10.9791 5.76199 9.99922 5.76199C9.01945 5.76199 8.08277 5.5384 7.21516 5.09742C7.10902 5.04348 6.98406 5.0409 6.87582 5.09039C6.7675 5.13988 6.6877 5.23609 6.65906 5.35164C6.40992 6.35629 5.86848 7.03133 5.31164 7.03137V5.46879H5.31168ZM5.7023 9.7657C5.7023 9.54996 5.52742 9.37508 5.31168 9.37508H4.92105C4.49027 9.37508 4.1398 9.02461 4.1398 8.59387C4.1398 8.16305 4.49027 7.81258 4.92105 7.81258H5.31168C6.14199 7.81258 6.88578 7.11156 7.28246 5.99078C8.14023 6.35762 9.05199 6.54324 9.99926 6.54324C10.9466 6.54324 11.8583 6.35766 12.7159 5.9909C13.1127 7.11164 13.8564 7.81258 14.6867 7.81258H15.0773C15.508 7.81258 15.8585 8.16305 15.8585 8.59387C15.8585 9.02461 15.508 9.37508 15.0773 9.37508H14.6867C14.471 9.37508 14.2961 9.54996 14.2961 9.7657C14.2961 10.768 13.9511 11.6911 13.3737 12.4228C13.3502 12.4452 13.3293 12.471 13.3116 12.4998C12.5228 13.4537 11.3307 14.0625 9.99906 14.0625C8.66758 14.0625 7.47562 13.4537 6.68687 12.4999C6.6691 12.4711 6.6482 12.4452 6.62461 12.4228C6.04727 11.691 5.7023 10.7679 5.7023 9.7657ZM15.0773 19.2187H4.92109V14.2066C5.32512 13.8276 5.77481 13.4903 6.265 13.2032C7.11094 14.1213 8.28996 14.728 9.60848 14.8289L9.60863 16.1025C9.60863 16.3182 9.78352 16.4931 9.99926 16.493C10.215 16.493 10.3899 16.3181 10.3899 16.1024L10.3897 14.8289C11.7083 14.7281 12.8874 14.1214 13.7334 13.2032C14.2236 13.4903 14.6733 13.8276 15.0773 14.2066V19.2187ZM15.8586 19.2187V15.0627C16.7775 16.2426 17.3302 17.6863 17.4107 19.2187H15.8586Z" fill="#222222"/>
<path d="M19.6088 19.2188H19.5996C19.3839 19.2188 19.209 19.3936 19.209 19.6094C19.209 19.8251 19.3839 20 19.5996 20H19.6088C19.8246 20 19.9995 19.8251 19.9995 19.6094C19.9995 19.3936 19.8246 19.2188 19.6088 19.2188Z" fill="#222222"/>
<path d="M7.46109 9.53224C7.63886 9.42954 7.8414 9.37529 8.04691 9.37529C8.25241 9.37529 8.45499 9.42954 8.63273 9.53224C8.69429 9.56779 8.76144 9.58466 8.82777 9.58466C8.96269 9.58466 9.09398 9.51466 9.1664 9.38935C9.27429 9.20255 9.21035 8.96364 9.02351 8.85571C8.72714 8.6845 8.38945 8.59399 8.04691 8.59399C7.70437 8.59399 7.36671 8.6845 7.0703 8.85571C6.88351 8.96364 6.81952 9.20255 6.92745 9.38935C7.03534 9.57619 7.27433 9.64013 7.46109 9.53224Z" fill="#222222"/>
<path d="M11.3673 9.53219C11.5451 9.4295 11.7477 9.37524 11.9533 9.37524C12.1587 9.37524 12.3613 9.42953 12.5391 9.53219C12.6006 9.56774 12.6678 9.58461 12.7341 9.58461C12.8691 9.58461 13.0004 9.51457 13.0727 9.3893C13.1806 9.20247 13.1166 8.96356 12.9298 8.85567C12.6333 8.68446 12.2957 8.59399 11.9533 8.59399C11.6108 8.59399 11.273 8.68446 10.9766 8.85567C10.7898 8.96356 10.7258 9.20247 10.8337 9.3893C10.9416 9.5761 11.1805 9.64016 11.3673 9.53219Z" fill="#222222"/>
<path d="M8.8805 11.6668C8.77265 11.8537 8.83671 12.0926 9.02355 12.2004C9.32015 12.3716 9.65777 12.4621 10.0001 12.4621C10.3424 12.4621 10.68 12.3716 10.9766 12.2004C11.1635 12.0926 11.2275 11.8537 11.1197 11.6668C11.0118 11.48 10.7729 11.416 10.5861 11.5238C10.4081 11.6265 10.2055 11.6808 10.0001 11.6808C9.79469 11.6808 9.59207 11.6265 9.4141 11.5238C9.22722 11.416 8.98835 11.48 8.8805 11.6668Z" fill="#222222"/>
<path d="M7.15381 4.20606C7.60038 4.5695 8.13761 4.80559 8.70737 4.88876C8.72652 4.89157 8.74554 4.89293 8.76429 4.89293C8.95503 4.89293 9.12195 4.75301 9.15034 4.55868C9.18148 4.3452 9.0337 4.14688 8.82023 4.11571C8.38991 4.0529 7.98425 3.87461 7.64702 3.60012C7.47971 3.46395 7.23366 3.48919 7.09749 3.65649C6.96124 3.82383 6.98651 4.06985 7.15381 4.20606Z" fill="#222222"/>
<path d="M9.88864 4.82785C9.91704 4.82785 9.94595 4.82472 9.97481 4.8182C9.98704 4.81546 10.0027 4.81121 10.0145 4.8073C10.2195 4.73999 10.3311 4.51925 10.2638 4.31429C10.199 4.11691 9.99185 4.00609 9.79368 4.05827C9.58837 4.10956 9.46087 4.31574 9.50775 4.52324C9.54876 4.70468 9.71009 4.82785 9.88864 4.82785Z" fill="#222222"/>
</g>
<defs>
<clipPath id="clip0">
<rect width="20" height="20" fill="white"/>
</clipPath>
</defs>
</svg>
