<svg width="20" height="20" viewBox="0 0 20 20" fill="none" xmlns="http://www.w3.org/2000/svg">
<path d="M19.5652 20C19.3252 20 19.1304 19.776 19.1304 19.5V16H0.869565V19.5C0.869565 19.776 0.674783 20 0.434783 20C0.194783 20 0 19.776 0 19.5V15.5C0 15.224 0.194783 15 0.434783 15H19.5652C19.8052 15 20 15.224 20 15.5V19.5C20 19.776 19.8052 20 19.5652 20Z" fill="#222222"/>
<path d="M19.5652 19H0.434783C0.194783 19 0 18.776 0 18.5C0 18.224 0.194783 18 0.434783 18H19.5652C19.8052 18 20 18.224 20 18.5C20 18.776 19.8052 19 19.5652 19Z" fill="#222222"/>
<path d="M19.5656 16.0001C19.3969 16.0001 19.2395 15.8861 19.1682 15.7031L15.6899 6.70311C15.5925 6.45111 15.6908 6.15511 15.9108 6.04311C16.1308 5.92911 16.3865 6.04411 16.4847 6.29711L19.1308 13.1441V11.5001C19.1308 11.2241 19.3256 11.0001 19.5656 11.0001C19.8056 11.0001 20.0004 11.2241 20.0004 11.5001V15.5001C20.0004 15.7361 19.8569 15.9401 19.656 15.9891C19.6256 15.9971 19.5951 16.0001 19.5656 16.0001Z" fill="#222222"/>
<path d="M0.434783 16C0.405217 16 0.374783 15.997 0.344348 15.989C0.143478 15.94 0 15.736 0 15.5V11.5C0 11.224 0.194783 11 0.434783 11C0.674783 11 0.869565 11.224 0.869565 11.5V13.144L3.51565 6.297C3.58609 6.116 3.74087 6 3.91304 6H5.21739C5.45739 6 5.65217 6.224 5.65217 6.5C5.65217 6.776 5.45739 7 5.21739 7H4.19565L0.832174 15.703C0.76087 15.886 0.603478 16 0.434783 16Z" fill="#222222"/>
<path d="M16.0872 7H14.7829C14.5429 7 14.3481 6.776 14.3481 6.5C14.3481 6.224 14.5429 6 14.7829 6H15.6524V2.5C15.6524 1.673 15.0672 1 14.3481 1H5.65243C4.9333 1 4.34808 1.673 4.34808 2.5V6.5C4.34808 6.776 4.1533 7 3.9133 7C3.6733 7 3.47852 6.776 3.47852 6.5V2.5C3.47852 1.122 4.45417 0 5.65243 0H14.3481C15.5463 0 16.522 1.122 16.522 2.5V6.5C16.522 6.776 16.3272 7 16.0872 7Z" fill="#222222"/>
<path d="M8.26088 9H6.20262C5.8287 9 5.47218 8.815 5.22436 8.493C4.9774 8.17 4.86175 7.741 4.9087 7.314L5.12609 5.314C5.20696 4.565 5.76349 4 6.42001 4H8.26088C8.98001 4 9.56523 4.673 9.56523 5.5V7.5C9.56523 8.327 8.98001 9 8.26088 9ZM6.42001 5C6.20088 5 6.01566 5.188 5.9887 5.438L5.77131 7.438C5.75566 7.583 5.79305 7.722 5.87653 7.831C5.96001 7.94 6.07566 8 6.20262 8H8.26088C8.50088 8 8.69566 7.776 8.69566 7.5V5.5C8.69566 5.224 8.50088 5 8.26088 5H6.42001Z" fill="#222222"/>
<path d="M13.7982 9H11.7399C11.0208 9 10.4355 8.327 10.4355 7.5V5.5C10.4355 4.673 11.0208 4 11.7399 4H13.5808C14.2373 4 14.7938 4.565 14.8747 5.314L15.0921 7.314C15.1382 7.741 15.0234 8.17 14.7755 8.493C14.5286 8.815 14.1721 9 13.7982 9ZM11.7399 5C11.4999 5 11.3051 5.224 11.3051 5.5V7.5C11.3051 7.776 11.4999 8 11.7399 8H13.7982C13.9251 8 14.0408 7.94 14.1242 7.831C14.2077 7.722 14.2451 7.582 14.2295 7.438L14.0121 5.438C13.9851 5.188 13.7999 5 13.5808 5H11.7399Z" fill="#222222"/>
<path d="M10.8692 7H9.1301C8.8901 7 8.69531 6.776 8.69531 6.5C8.69531 6.224 8.8901 6 9.1301 6H10.8692C11.1092 6 11.304 6.224 11.304 6.5C11.304 6.776 11.1092 7 10.8692 7Z" fill="#222222"/>
</svg>
