<svg width="20" height="20" viewBox="0 0 20 20" fill="none" xmlns="http://www.w3.org/2000/svg">
<g clip-path="url(#clip0)">
<path d="M7.95057 13.477L10.7127 5.19058C10.815 4.88359 10.6491 4.55175 10.3421 4.4494C10.0352 4.3471 9.70328 4.513 9.60093 4.81999L6.83881 13.1065C6.7365 13.4134 6.9024 13.7453 7.2094 13.8476C7.27084 13.8681 7.33334 13.8778 7.39475 13.8778C7.64006 13.8779 7.8687 13.7226 7.95057 13.477Z" fill="#222222"/>
<path d="M12.0918 10.9062C13.0611 10.9062 13.8496 10.1177 13.8496 9.14844C13.8496 8.17918 13.0611 7.39062 12.0918 7.39062C11.1225 7.39062 10.334 8.17918 10.334 9.14844C10.334 10.1177 11.1225 10.9062 12.0918 10.9062ZM12.0918 8.5625C12.4149 8.5625 12.6777 8.82535 12.6777 9.14844C12.6777 9.47152 12.4149 9.73437 12.0918 9.73437C11.7687 9.73437 11.5059 9.47152 11.5059 9.14844C11.5059 8.82535 11.7687 8.5625 12.0918 8.5625Z" fill="#222222"/>
<path d="M5.46093 7.39062C4.49168 7.39062 3.70312 8.17918 3.70312 9.14844C3.70312 10.1177 4.49168 10.9062 5.46093 10.9062C6.43019 10.9062 7.21874 10.1177 7.21874 9.14844C7.21874 8.17918 6.43023 7.39062 5.46093 7.39062ZM5.46093 9.73437C5.13785 9.73437 4.875 9.47152 4.875 9.14844C4.875 8.82535 5.13785 8.5625 5.46093 8.5625C5.78402 8.5625 6.04687 8.82535 6.04687 9.14844C6.04687 9.47152 5.78406 9.73437 5.46093 9.73437Z" fill="#222222"/>
<path d="M19.8828 7.26586L17.8396 4.54152L17.9193 3.98359C17.9453 3.80102 17.884 3.6168 17.7535 3.48641L16.5106 2.24344L17.7535 1.00047C17.9823 0.77168 17.9823 0.400664 17.7535 0.171836C17.5247 -0.0569531 17.1537 -0.0569531 16.9249 0.171836L15.6819 1.4148L14.439 0.171836C14.3086 0.0414062 14.1244 -0.0197656 13.9418 0.00609374L8.14128 0.834727C8.01577 0.852656 7.89948 0.91082 7.80983 1.00047L0.628271 8.18203C-0.209424 9.01969 -0.209424 10.3827 0.628271 11.2204L6.70495 17.2971C6.82925 17.4214 6.96534 17.5268 7.10937 17.6142V17.8518C7.10937 19.0364 8.07315 20.0002 9.2578 20.0002H17.8516C19.0362 20.0002 20 19.0364 20 17.8518V7.61742C20 7.49066 19.9589 7.36727 19.8828 7.26586ZM1.4569 10.3918C1.07612 10.011 1.07612 9.39145 1.4569 9.01066L8.50034 1.96723L13.8175 1.20766L14.8533 2.24348L14.0246 3.07211L13.6103 2.65777C13.3815 2.42898 13.0105 2.42898 12.7817 2.65777C12.5528 2.88656 12.5528 3.25758 12.7817 3.48641L14.439 5.14371C14.5534 5.25813 14.7033 5.31535 14.8533 5.31535C15.0032 5.31535 15.1532 5.25813 15.2676 5.14371C15.4964 4.91492 15.4964 4.54391 15.2676 4.31508L14.8532 3.90074L15.6819 3.07211L16.7177 4.10793L15.9581 9.42504L8.91468 16.4685C8.73022 16.6529 8.48499 16.7545 8.22413 16.7545C7.96327 16.7545 7.71804 16.6529 7.53358 16.4685L1.4569 10.3918ZM18.8281 17.8518C18.8281 18.3903 18.39 18.8284 17.8516 18.8284H9.2578C8.74358 18.8284 8.32124 18.4288 8.28417 17.9239C8.81413 17.9092 9.33972 17.7007 9.74327 17.2971L16.9248 10.1155C17.0145 10.0259 17.0726 9.90961 17.0906 9.7841L17.6051 6.18215L18.8281 7.81273V17.8518Z" fill="#222222"/>
</g>
<defs>
<clipPath id="clip0">
<rect width="20" height="20" fill="white"/>
</clipPath>
</defs>
</svg>
