<svg width="20" height="20" viewBox="0 0 20 20" fill="none" xmlns="http://www.w3.org/2000/svg">
<path d="M15.3125 20H4.6875C3.4443 20 2.25201 19.5061 1.37294 18.6271C0.49386 17.748 0 16.5557 0 15.3125L0 8.4375C0 8.35462 0.032924 8.27513 0.0915291 8.21653C0.150134 8.15792 0.22962 8.125 0.3125 8.125C0.39538 8.125 0.474866 8.15792 0.533471 8.21653C0.592076 8.27513 0.625 8.35462 0.625 8.4375V15.3125C0.625 16.3899 1.05301 17.4233 1.81488 18.1851C2.57675 18.947 3.61006 19.375 4.6875 19.375H15.3125C16.3899 19.375 17.4233 18.947 18.1851 18.1851C18.947 17.4233 19.375 16.3899 19.375 15.3125V4.6875C19.375 3.61006 18.947 2.57675 18.1851 1.81488C17.4233 1.05301 16.3899 0.625 15.3125 0.625H8.4375C8.35462 0.625 8.27513 0.592076 8.21653 0.533471C8.15792 0.474866 8.125 0.39538 8.125 0.3125C8.125 0.22962 8.15792 0.150134 8.21653 0.0915291C8.27513 0.032924 8.35462 0 8.4375 0L15.3125 0C16.5557 0 17.748 0.49386 18.6271 1.37294C19.5061 2.25201 20 3.4443 20 4.6875V15.3125C20 16.5557 19.5061 17.748 18.6271 18.6271C17.748 19.5061 16.5557 20 15.3125 20Z" fill="#222222"/>
<path d="M4.06314 8.74991H0.313141C0.251526 8.74965 0.191362 8.73118 0.140212 8.69683C0.089063 8.66247 0.0492113 8.61376 0.0256671 8.55682C0.00212279 8.49988 -0.00406324 8.43725 0.0078866 8.37681C0.0198365 8.31636 0.0493888 8.26079 0.0928287 8.2171L8.21783 0.0920963C8.26153 0.0486564 8.31709 0.019104 8.37754 0.00715418C8.43798 -0.00479567 8.50061 0.00139037 8.55755 0.0249346C8.61449 0.0484789 8.6632 0.0883306 8.69756 0.13948C8.73191 0.190629 8.75038 0.250793 8.75064 0.312409V4.06241C8.75064 5.30561 8.25678 6.4979 7.3777 7.37697C6.49863 8.25605 5.30634 8.74991 4.06314 8.74991ZM1.06783 8.12491H4.06314C5.14058 8.12491 6.1739 7.6969 6.93576 6.93503C7.69763 6.17316 8.12564 5.13985 8.12564 4.06241V1.0671L1.06783 8.12491Z" fill="#222222"/>
</svg>
