<svg width="20" height="20" viewBox="0 0 20 20" fill="none" xmlns="http://www.w3.org/2000/svg">
<path d="M4.88889 16.4444C4.88889 15.7089 4.29111 15.1111 3.55556 15.1111C2.82 15.1111 2.22222 15.7089 2.22222 16.4444C2.22222 17.18 2.82 17.7778 3.55556 17.7778C4.29111 17.7778 4.88889 17.18 4.88889 16.4444ZM3.11111 16.4444C3.11111 16.2 3.31111 16 3.55556 16C3.8 16 4 16.2 4 16.4444C4 16.6889 3.8 16.8889 3.55556 16.8889C3.31111 16.8889 3.11111 16.6889 3.11111 16.4444ZM19.5556 3.55556H7.11111C7.11111 1.59556 5.51556 0 3.55556 0C1.59556 0 0 1.59556 0 3.55556V16.4444C0 18.4044 1.59556 20 3.55556 20H19.5556C19.8 20 20 19.8 20 19.5556V4C20 3.75556 19.8 3.55556 19.5556 3.55556ZM7.11111 16.4444V6.66667H16.8889V16.8889H7.08C7.09778 16.7422 7.11111 16.5956 7.11111 16.4444ZM0.888889 3.55556C0.888889 2.08444 2.08444 0.888889 3.55556 0.888889C5.02667 0.888889 6.22222 2.08444 6.22222 3.55556V14.1C5.57111 13.36 4.61778 12.8889 3.55556 12.8889C2.49333 12.8889 1.54 13.36 0.888889 14.1V3.55556ZM0.888889 16.4444C0.888889 14.9733 2.08444 13.7778 3.55556 13.7778C5.02667 13.7778 6.22222 14.9733 6.22222 16.4444C6.22222 17.9156 5.02667 19.1111 3.55556 19.1111C2.08444 19.1111 0.888889 17.9156 0.888889 16.4444ZM19.1111 19.1111H5.9C6.31111 18.7489 6.64 18.2933 6.84889 17.7778H17.3333C17.5778 17.7778 17.7778 17.5778 17.7778 17.3333V6.22222C17.7778 5.97778 17.5778 5.77778 17.3333 5.77778H7.11111V4.44444H19.1111V19.1111Z" fill="#222222"/>
</svg>
