<svg width="120" height="80" viewBox="0 0 120 80" fill="none" xmlns="http://www.w3.org/2000/svg">
<path fill-rule="evenodd" clip-rule="evenodd" d="M66.8056 80C66.8056 80 84.2194 73.3858 93.4013 53.2283C78.5204 53.2283 66.8056 41.2599 66.8056 26.7717C66.8056 11.9685 78.837 0 93.4013 0C107.966 0 119.997 11.9685 119.997 26.7717C120.313 56.063 96.5674 80 66.8056 80ZM0 80C0 80 17.4138 73.3858 26.5956 53.2283C11.7147 53.2283 0 41.2599 0 26.7717C0 11.9685 12.0314 0 26.9122 0C41.7931 0 53.5078 11.9685 53.5078 26.7717C53.5078 56.063 29.7618 80 0 80Z" fill="#F3F3F3"/>
</svg>
