<svg width="30" height="30" viewBox="0 0 30 30" fill="none" xmlns="http://www.w3.org/2000/svg">
<path d="M25.2811 4.48423C23.4342 2.63731 21.0982 1.35637 18.5479 0.792127C15.9976 0.227888 13.3393 0.403833 10.8856 1.29926C8.43196 2.19469 6.28512 3.77233 4.69773 5.84655C3.11034 7.92077 2.14844 10.4052 1.92523 13.0076H1.05459C0.919528 13.0076 0.787333 13.0466 0.673806 13.1197C0.560279 13.1929 0.470225 13.2972 0.414411 13.4202C0.358598 13.5432 0.339386 13.6796 0.359073 13.8132C0.37876 13.9469 0.436513 14.072 0.525427 14.1736L3.80668 17.9236C3.87267 17.9991 3.95403 18.0595 4.04529 18.1009C4.13655 18.1423 4.23562 18.1638 4.33584 18.1638C4.43606 18.1638 4.53512 18.1423 4.62638 18.1009C4.71765 18.0595 4.799 17.9991 4.865 17.9236L8.14625 14.1736C8.23516 14.072 8.29291 13.9469 8.3126 13.8132C8.33229 13.6796 8.31308 13.5432 8.25726 13.4202C8.20145 13.2972 8.1114 13.1929 7.99787 13.1197C7.88434 13.0466 7.75215 13.0076 7.61709 13.0076H6.87435C7.1558 10.8975 8.19453 8.9615 9.79713 7.56021C11.3997 6.15891 13.457 5.3878 15.5858 5.39044C20.4321 5.39044 24.3749 9.33321 24.3749 14.1795C24.3749 17.3179 22.6581 20.1837 20.051 21.7408C20.433 20.992 20.6618 20.1745 20.7243 19.3362C20.7868 18.4979 20.6816 17.6556 20.4148 16.8584C20.1481 16.0612 19.7252 15.3252 19.1708 14.6933C18.6164 14.0614 17.9417 13.5462 17.186 13.178C16.4303 12.8098 15.6088 12.5959 14.7695 12.5487C13.9302 12.5015 13.0899 12.6221 12.2977 12.9033C11.5055 13.1845 10.7773 13.6207 10.1556 14.1865C9.53392 14.7523 9.0312 15.4364 8.67681 16.1986C7.872 16.8187 7.22803 17.6231 6.79918 18.5441C6.10704 19.0775 5.53286 19.7484 5.11281 20.5147C4.69276 21.2809 4.43596 22.1258 4.35857 22.9962C4.28118 23.8666 4.38488 24.7435 4.66315 25.5718C4.94141 26.4002 5.38821 27.1619 5.97539 27.809C6.56257 28.4561 7.2774 28.9746 8.07486 29.3318C8.87231 29.6891 9.73511 29.8772 10.6089 29.8846C11.4827 29.8919 12.3485 29.7181 13.1518 29.3743C13.9551 29.0305 14.6785 28.524 15.2765 27.8868C15.3789 27.8891 15.482 27.8903 15.5858 27.8904C18.2977 27.8905 20.9486 27.0864 23.2034 25.5798C25.4582 24.0733 27.2156 21.9319 28.2534 19.4265C29.2912 16.9211 29.5627 14.1642 29.0337 11.5045C28.5046 8.84483 27.1987 6.40174 25.2811 4.48423ZM15.4236 25.1985C14.5935 25.8024 13.594 26.1291 12.5674 26.132C12.5593 26.132 12.5511 26.132 12.5429 26.1326H12.539C11.7248 26.1322 10.9235 25.9299 10.2067 25.5439C9.48988 25.1579 8.87996 24.6002 8.43151 23.9207C7.98306 23.2412 7.71007 22.4612 7.63697 21.6503C7.56387 20.8395 7.69295 20.0231 8.01265 19.2744L8.01365 19.2722C8.01541 19.2681 8.01746 19.2642 8.0191 19.26C8.04203 19.207 8.06588 19.1544 8.09064 19.1023C8.1246 20.0106 8.35378 20.9008 8.76257 21.7126C9.17137 22.5244 9.7502 23.2385 10.4597 23.8066C11.1692 24.3747 11.9927 24.7832 12.8742 25.0046C13.7557 25.2259 14.6746 25.2548 15.5683 25.0892C15.5208 25.1264 15.4726 25.1628 15.4236 25.1985ZM14.414 13.9451C15.3874 13.9451 16.339 14.2338 17.1484 14.7746C17.9578 15.3154 18.5887 16.0841 18.9612 16.9835C19.3337 17.8828 19.4312 18.8725 19.2413 19.8272C19.0514 20.782 18.5826 21.659 17.8943 22.3473C17.2059 23.0356 16.3289 23.5044 15.3742 23.6943C14.4194 23.8842 13.4298 23.7867 12.5304 23.4142C11.6311 23.0417 10.8624 22.4108 10.3216 21.6014C9.78075 20.7921 9.49209 19.8405 9.49209 18.867C9.49364 17.5621 10.0127 16.3111 10.9354 15.3884C11.8581 14.4657 13.1091 13.9467 14.414 13.9451ZM5.74209 23.5545C5.74265 22.8274 5.90447 22.1095 6.21588 21.4525C6.28023 23.0871 6.97433 24.6334 8.15289 25.7678C9.33145 26.9023 10.9031 27.5369 12.539 27.5389C12.5545 27.5389 12.5706 27.5389 12.5866 27.5382C12.9583 27.5355 13.329 27.5002 13.6945 27.4328C12.9677 28.0007 12.096 28.3529 11.1787 28.4494C10.2615 28.5459 9.33553 28.3827 8.50653 27.9784C7.67752 27.5741 6.9788 26.945 6.49002 26.1628C6.00124 25.3806 5.74208 24.4768 5.74209 23.5545ZM24.287 22.8807C22.155 25.0245 19.3037 26.3014 16.2847 26.4644C16.3261 26.3845 16.3654 26.3035 16.4033 26.2218C17.1608 25.6375 17.7762 24.8894 18.2034 24.0334C20.3749 23.4539 22.2945 22.1741 23.6646 20.3925C25.0347 18.6109 25.7786 16.427 25.7812 14.1795C25.7812 8.55778 21.2076 3.98419 15.5858 3.98419C12.9698 3.98709 10.4548 4.99431 8.55994 6.79791C6.66508 8.60151 5.53505 11.0638 5.40312 13.6765C5.39406 13.8623 5.45898 14.0441 5.58367 14.1821C5.70836 14.3201 5.88265 14.4031 6.0684 14.4129L4.33584 16.393L2.60392 14.4139C2.78321 14.4097 2.95411 14.3371 3.08166 14.211C3.2092 14.0849 3.28375 13.9149 3.29006 13.7357C3.36253 11.7324 3.92337 9.77709 4.9238 8.03996C5.92422 6.30282 7.33392 4.83643 9.03027 3.76832C10.7266 2.70021 12.6583 2.06275 14.6572 1.91137C16.656 1.76 18.6617 2.0993 20.4995 2.89976C22.3374 3.70022 23.9518 4.93761 25.2024 6.50427C26.4531 8.07094 27.302 9.91944 27.6753 11.889C28.0486 13.8585 27.9351 15.8895 27.3446 17.8051C26.7541 19.7208 25.7044 21.4632 24.287 22.8807Z" fill="black"/>
<path d="M13.8866 19.5703H14.8827C15.0691 19.5705 15.2478 19.6447 15.3797 19.7765C15.5115 19.9083 15.5856 20.087 15.5858 20.2734V20.332C15.5856 20.5184 15.5115 20.6972 15.3797 20.829C15.2478 20.9608 15.0691 21.035 14.8827 21.0352H13.4056C13.2474 21.026 13.188 20.9131 13.2012 20.7656C13.2028 20.6707 13.1851 20.5764 13.1493 20.4885C13.1135 20.4005 13.0603 20.3207 12.9928 20.2539C12.9254 20.187 12.8452 20.1345 12.7569 20.0995C12.6687 20.0644 12.5742 20.0476 12.4793 20.0499C12.3844 20.0523 12.2909 20.0738 12.2045 20.1133C12.1181 20.1527 12.0406 20.2091 11.9766 20.2793C11.9126 20.3494 11.8634 20.4318 11.832 20.5214C11.8007 20.611 11.7877 20.706 11.794 20.8008C11.7902 21.0148 11.8291 21.2275 11.9083 21.4263C11.9876 21.6252 12.1056 21.8063 12.2556 21.959C12.4056 22.1117 12.5846 22.2331 12.782 22.3159C12.9794 22.3987 13.1913 22.4414 13.4054 22.4414H13.7108V22.6758C13.7108 22.8623 13.7849 23.0411 13.9168 23.173C14.0486 23.3048 14.2275 23.3789 14.4139 23.3789C14.6004 23.3789 14.7793 23.3048 14.9111 23.173C15.043 23.0411 15.1171 22.8623 15.1171 22.6758V22.428C15.6324 22.3698 16.1083 22.124 16.4541 21.7375C16.7999 21.3509 16.9914 20.8507 16.9921 20.332V20.2734C16.9914 19.7142 16.769 19.178 16.3736 18.7826C15.9781 18.3871 15.4419 18.1647 14.8827 18.1641H13.8866C13.7001 18.1641 13.5213 18.09 13.3894 17.9581C13.2575 17.8263 13.1835 17.6474 13.1835 17.4609C13.1835 17.2745 13.2575 17.0956 13.3894 16.9638C13.5213 16.8319 13.7001 16.7578 13.8866 16.7578H15.3404C15.4777 16.7729 15.5365 16.8343 15.5455 16.9721C15.5375 17.1585 15.6038 17.3403 15.7299 17.4777C15.856 17.6152 16.0315 17.6969 16.2178 17.7049C16.4041 17.7129 16.586 17.6465 16.7234 17.5205C16.8608 17.3944 16.9425 17.2189 16.9505 17.0326C16.9599 16.8153 16.9251 16.5984 16.8484 16.3949C16.7717 16.1914 16.6546 16.0055 16.5042 15.8485C16.3538 15.6914 16.1731 15.5664 15.9731 15.481C15.7731 15.3956 15.5579 15.3516 15.3404 15.3516H15.1171V15.1172C15.1171 14.9307 15.043 14.7519 14.9111 14.62C14.7793 14.4881 14.6004 14.4141 14.4139 14.4141C14.2275 14.4141 14.0486 14.4881 13.9168 14.62C13.7849 14.7519 13.7108 14.9307 13.7108 15.1172V15.3595C13.1685 15.4048 12.6648 15.6579 12.3048 16.066C11.9448 16.4741 11.7565 17.0055 11.7792 17.5492C11.8019 18.0929 12.0338 18.6068 12.4266 18.9834C12.8193 19.3601 13.3424 19.5704 13.8866 19.5703Z" fill="black"/>
</svg>
