<svg width="28" height="28" viewBox="0 0 28 28" fill="none" xmlns="http://www.w3.org/2000/svg">
<g clip-path="url(#clip0)">
<path d="M7.33384 24.6834C6.91329 24.6834 6.49274 24.5501 6.12563 24.2835C5.39052 23.7497 5.09734 22.8466 5.37887 21.9828L7.47849 15.5396L1.98567 11.5739C1.24876 11.0418 0.953284 10.1393 1.23285 9.27445C1.51241 8.40963 2.28033 7.85083 3.18924 7.85083H9.95982L12.0255 1.42669C12.3038 0.561148 13.0712 0.00114844 13.9804 0H13.9831C14.8911 0 15.6586 0.557867 15.9388 1.42198L18.023 7.85083H18.7571C19.0591 7.85083 19.3039 8.09572 19.3039 8.3977C19.3039 8.69969 19.0591 8.94458 18.7571 8.94458H17.6254C17.3884 8.94458 17.1782 8.79184 17.1051 8.56636L14.8983 1.7593C14.7392 1.26853 14.3213 1.09375 13.9829 1.09375C13.9825 1.09375 13.9821 1.09375 13.9817 1.09375C13.643 1.09419 13.2248 1.26979 13.0667 1.76148L10.8791 8.5651C10.8063 8.79123 10.596 8.94458 10.3584 8.94458H3.18924C2.67293 8.94458 2.37767 9.28878 2.27355 9.61089C2.16942 9.93305 2.20732 10.3849 2.6259 10.6872L8.44214 14.8864C8.63485 15.0255 8.71563 15.2732 8.64196 15.4992L6.41875 22.3217C6.25885 22.8125 6.49444 23.1998 6.76831 23.3985C7.04214 23.5974 7.48341 23.7015 7.90046 23.3977L13.7 19.1722C13.8917 19.0325 14.1517 19.0322 14.3436 19.1718L20.1227 23.3722C20.5403 23.6757 20.9815 23.5709 21.2551 23.3715C21.5287 23.1721 21.7638 22.7843 21.6028 22.2937L19.3758 15.5054C19.3018 15.2795 19.382 15.0317 19.5744 14.8922L25.3756 10.6859C25.7931 10.3832 25.8304 9.93158 25.7261 9.60991C25.6217 9.28823 25.3265 8.94452 24.8107 8.94452H23.679C23.377 8.94452 23.1321 8.69963 23.1321 8.39765C23.1321 8.09566 23.377 7.85077 23.679 7.85077H24.8107C25.7186 7.85077 26.4863 8.4088 26.7664 9.27243C27.0466 10.1361 26.7527 11.0385 26.0176 11.5714L20.5394 15.5434L22.6421 21.9528C22.9255 22.8164 22.6339 23.7203 21.8993 24.2555C21.1647 24.7907 20.2149 24.7913 19.4797 24.2568L14.0224 20.2904L8.54457 24.2815C8.17696 24.5494 7.75542 24.6834 7.33384 24.6834Z" fill="#54A2C7"/>
<path d="M14 28.0001C13.698 28.0001 13.4531 27.7552 13.4531 27.4532V23.0303C13.4531 22.7283 13.698 22.4834 14 22.4834C14.3021 22.4834 14.5469 22.7283 14.5469 23.0303V27.4532C14.5469 27.7552 14.3021 28.0001 14 28.0001Z" fill="#54A2C7"/>
<path d="M27.3395 18.3081C27.2835 18.3081 27.2266 18.2994 27.1704 18.2812L22.964 16.9145C22.6767 16.8211 22.5195 16.5126 22.6129 16.2254C22.7062 15.9382 23.0147 15.7811 23.302 15.8742L27.5084 17.241C27.7956 17.3343 27.9529 17.6429 27.8595 17.9301C27.7844 18.1612 27.57 18.3081 27.3395 18.3081Z" fill="#54A2C7"/>
<path d="M19.6441 6.2041C19.5327 6.2041 19.4202 6.17014 19.3231 6.09959C19.0788 5.92207 19.0246 5.58006 19.2021 5.33571L21.8019 1.75746C21.9794 1.51311 22.3213 1.45892 22.5657 1.63649C22.8101 1.814 22.8642 2.15602 22.6867 2.40036L20.087 5.97862C19.98 6.12595 19.8132 6.2041 19.6441 6.2041Z" fill="#54A2C7"/>
<path d="M8.3561 6.20407C8.18696 6.20407 8.02021 6.12586 7.91319 5.97859L5.31345 2.40039C5.13593 2.15604 5.19013 1.81403 5.43442 1.63651C5.67882 1.45889 6.02078 1.51314 6.1983 1.75748L8.79803 5.33574C8.97555 5.58008 8.92136 5.9221 8.67707 6.09961C8.58005 6.1701 8.46756 6.20407 8.3561 6.20407Z" fill="#54A2C7"/>
<path d="M0.660204 18.308C0.429642 18.308 0.215321 18.1611 0.140181 17.9299C0.0468839 17.6427 0.204056 17.3342 0.491274 17.2408L4.69773 15.8741C4.98506 15.7808 5.29349 15.9379 5.38684 16.2252C5.4802 16.5124 5.32297 16.821 5.03575 16.9143L0.829353 18.2811C0.773189 18.2993 0.716204 18.308 0.660204 18.308Z" fill="#54A2C7"/>
<path d="M21.2188 8.94458C21.0749 8.94458 20.9338 8.88612 20.8321 8.78435C20.7304 8.68263 20.6719 8.54153 20.6719 8.3977C20.6719 8.25388 20.7304 8.11278 20.8321 8.01112C20.9338 7.9094 21.0744 7.85083 21.2188 7.85083C21.3626 7.85083 21.5037 7.90935 21.6054 8.01112C21.7071 8.11278 21.7656 8.25388 21.7656 8.3977C21.7656 8.54153 21.7071 8.68263 21.6054 8.78435C21.5037 8.88606 21.3626 8.94458 21.2188 8.94458Z" fill="#54A2C7"/>
</g>
<defs>
<clipPath id="clip0">
<rect width="28" height="28" fill="white"/>
</clipPath>
</defs>
</svg>
