<svg width="77" height="70" viewBox="0 0 77 70" fill="none" xmlns="http://www.w3.org/2000/svg">
<path d="M66.993 28.1085C66.993 43.632 54.4087 56.2164 38.8852 56.2164C23.3617 56.2164 10.7773 43.632 10.7773 28.1085C10.7773 12.5844 23.3617 0 38.8852 0C54.4087 0 66.993 12.5844 66.993 28.1085Z" fill="#3E6D91"/>
<path d="M53.771 63.5492H14.6641V33.3071C14.6641 30.4359 16.9913 28.1086 19.8626 28.1086H48.5711C51.4423 28.1086 53.7703 30.4359 53.7703 33.3071V63.5492H53.771Z" fill="#FA7272"/>
<path d="M53.7726 64.7708H14.6657C13.9902 64.7708 13.4434 64.2246 13.4434 63.5491V33.3071C13.4434 29.7659 16.3237 26.8862 19.8649 26.8862H48.5741C52.1146 26.8862 54.9949 29.7659 54.9949 33.3071V63.5491C54.9942 64.2246 54.4481 64.7708 53.7726 64.7708ZM15.8874 62.3268H52.5502V33.3071C52.5502 31.1148 50.7657 29.3302 48.5734 29.3302H19.8649C17.6719 29.3302 15.8874 31.1148 15.8874 33.3071V62.3268Z" fill="#2C597B"/>
<path d="M75.768 63.5492H53.7705V40.3293H65.071C67.8206 40.3293 70.3821 41.7062 71.8715 43.9838L75.768 49.9459V63.5492Z" fill="white"/>
<path d="M75.7696 64.7708H53.7722C53.0966 64.7708 52.5498 64.2246 52.5498 63.5491V40.3293C52.5498 39.6538 53.0966 39.1069 53.7722 39.1069H65.0726C68.2509 39.1069 71.1746 40.6796 72.8955 43.3152L76.7919 49.2774C76.922 49.476 76.9912 49.7088 76.9912 49.9459V63.5491C76.9912 64.2246 76.4451 64.7708 75.7696 64.7708ZM54.9938 62.3268H74.5472V50.3102L70.8501 44.6516C69.5816 42.7104 67.4208 41.5516 65.0726 41.5516H54.9938V62.3268Z" fill="#2C597B"/>
<path d="M53.7713 63.5491H10.998V62.3428C10.998 59.6345 13.1938 57.4387 15.9021 57.4387H53.7713V63.5491Z" fill="#9DC1E4"/>
<path d="M53.7729 64.7707H10.9997C10.3249 64.7707 9.77734 64.2246 9.77734 63.5491V62.3421C9.77734 58.9645 12.5255 56.2163 15.9031 56.2163H53.7729C54.4485 56.2163 54.9946 56.7632 54.9946 57.4387V63.5491C54.9946 64.2246 54.4485 64.7707 53.7729 64.7707ZM12.2213 62.3267H52.5506V58.6603H15.9031C13.8787 58.6603 12.2297 60.3037 12.2213 62.3267Z" fill="#2C597B"/>
<path d="M70.6103 63.2434C70.6103 66.3 68.1327 68.7775 65.0762 68.7775C62.0203 68.7775 59.542 66.3 59.542 63.2434C59.542 60.1868 62.0203 57.7092 65.0762 57.7092C68.1327 57.7092 70.6103 60.1868 70.6103 63.2434Z" fill="#478AAE"/>
<path d="M65.0771 70.0001C61.3527 70.0001 58.3213 66.9687 58.3213 63.2436C58.3213 59.5192 61.3527 56.4878 65.0771 56.4878C68.8015 56.4878 71.8329 59.5192 71.8329 63.2436C71.8329 66.968 68.8015 70.0001 65.0771 70.0001ZM65.0771 58.9318C62.7002 58.9318 60.7653 60.866 60.7653 63.2436C60.7653 65.6205 62.7002 67.5554 65.0771 67.5554C67.4547 67.5554 69.3889 65.6205 69.3889 63.2436C69.3889 60.866 67.4547 58.9318 65.0771 58.9318Z" fill="#2C597B"/>
<path d="M31.7742 41.5516H1.22235C0.546842 41.5516 0 41.0048 0 40.3293C0 39.6538 0.546842 39.1069 1.22235 39.1069H31.7742C32.449 39.1069 32.9965 39.6538 32.9965 40.3293C32.9965 41.0048 32.449 41.5516 31.7742 41.5516Z" fill="#2C597B"/>
<path d="M67.0747 63.2434C67.0747 64.3476 66.1796 65.2427 65.0754 65.2427C63.9713 65.2427 63.0762 64.3476 63.0762 63.2434C63.0762 62.1392 63.9713 61.2441 65.0754 61.2441C66.1796 61.2441 67.0747 62.1392 67.0747 63.2434Z" fill="#2C597B"/>
<path d="M33.9485 63.2434C33.9485 66.3 31.4709 68.7775 28.4143 68.7775C25.3584 68.7775 22.8809 66.3 22.8809 63.2434C22.8809 60.1868 25.3584 57.7092 28.4143 57.7092C31.4709 57.7092 33.9485 60.1868 33.9485 63.2434Z" fill="#478AAE"/>
<path d="M28.413 69.9999C24.6879 69.9999 21.6572 66.9685 21.6572 63.2434C21.6572 59.519 24.6879 56.4875 28.413 56.4875C32.1388 56.4875 35.1695 59.519 35.1695 63.2434C35.1695 66.9685 32.1388 69.9999 28.413 69.9999ZM28.413 58.9316C26.0362 58.9316 24.1012 60.8658 24.1012 63.2434C24.1012 65.6202 26.0362 67.5552 28.413 67.5552C30.7906 67.5552 32.7248 65.6202 32.7248 63.2434C32.7248 60.8658 30.7906 58.9316 28.413 58.9316Z" fill="#2C597B"/>
<path d="M30.4129 63.2434C30.4129 64.3476 29.5178 65.2426 28.4136 65.2426C27.3101 65.2426 26.415 64.3476 26.415 63.2434C26.415 62.1392 27.3101 61.2441 28.4136 61.2441C29.5178 61.2441 30.4129 62.1392 30.4129 63.2434Z" fill="#2C597B"/>
<path d="M28.704 29.1407C28.704 35.0818 23.888 39.8978 17.9469 39.8978C12.0064 39.8978 7.19043 35.0818 7.19043 29.1407C7.19043 23.1995 12.0064 18.3835 17.9469 18.3835C23.888 18.3835 28.704 23.1995 28.704 29.1407Z" fill="white"/>
<path d="M17.9456 41.1194C11.3401 41.1194 5.9668 35.7454 5.9668 29.1406C5.9668 22.5359 11.3401 17.1619 17.9456 17.1619C24.5503 17.1619 29.9251 22.5359 29.9251 29.1406C29.9251 35.7454 24.5503 41.1194 17.9456 41.1194ZM17.9456 19.6059C12.6883 19.6059 8.4108 23.8834 8.4108 29.1406C8.4108 34.3979 12.6883 38.6754 17.9456 38.6754C23.2035 38.6754 27.4804 34.3979 27.4804 29.1406C27.4804 23.8834 23.2035 19.6059 17.9456 19.6059Z" fill="#2C597B"/>
<path d="M15.6 34.1056C15.3511 34.1056 15.0986 34.0287 14.8811 33.87C14.3357 33.4728 14.2161 32.7091 14.6133 32.1637L17.1084 28.7421V23.7946C17.1084 23.1191 17.6552 22.5723 18.33 22.5723C19.0055 22.5723 19.5524 23.1191 19.5524 23.7946V29.1407C19.5524 29.4001 19.4699 29.6519 19.3174 29.8602L16.5888 33.6028C16.3496 33.9315 15.9776 34.1056 15.6 34.1056Z" fill="#2C597B"/>
<path d="M62.3271 43.9956V52.55H70.5529C71.2445 52.55 71.6773 51.8031 71.3347 51.2032L68.4809 46.2095C67.6984 44.8403 66.2425 43.9956 64.6649 43.9956H62.3271Z" fill="#C1DBDC"/>
<path d="M70.5509 53.7723H62.3259C61.6504 53.7723 61.1035 53.2254 61.1035 52.5499V43.9955C61.1035 43.32 61.6504 42.7732 62.3259 42.7732H64.6636C66.6747 42.7732 68.5432 43.8585 69.5404 45.6032L72.3935 50.5975C72.7732 51.259 72.7718 52.0513 72.3879 52.7136C72.0033 53.3765 71.3173 53.7723 70.5509 53.7723ZM63.5482 51.3283H69.9963L67.4181 46.8151C66.8544 45.8298 65.7999 45.2172 64.6636 45.2172H63.5482V51.3283Z" fill="#2C597B"/>
<path d="M24.4415 46.4396H8.55369C7.87887 46.4396 7.33203 45.8928 7.33203 45.2173C7.33203 44.5417 7.87887 43.9956 8.55369 43.9956H24.4415C25.1163 43.9956 25.6631 44.5417 25.6631 45.2173C25.6631 45.8928 25.1163 46.4396 24.4415 46.4396Z" fill="#2C597B"/>
<path d="M18.3311 51.3283H1.22235C0.546842 51.3283 0 50.7814 0 50.1059C0 49.4304 0.546842 48.8835 1.22235 48.8835H18.3311C19.0066 48.8835 19.5535 49.4304 19.5535 50.1059C19.5535 50.7814 19.0066 51.3283 18.3311 51.3283Z" fill="#2C597B"/>
</svg>
