<svg width="57" height="60" viewBox="0 0 57 60" fill="none" xmlns="http://www.w3.org/2000/svg">
<path opacity="0.5" d="M56.993 28.1085C56.993 43.632 44.4087 56.2164 28.8852 56.2164C13.3617 56.2164 0.777344 43.632 0.777344 28.1085C0.777344 12.5844 13.3617 0 28.8852 0C44.4087 0 56.993 12.5844 56.993 28.1085Z" fill="#53A0C5"/>
<path d="M49.2877 28.374L50.2057 31.974L49.7018 32.1H7.76172L8.71579 28.374L9.20179 28.5H48.8017L49.2877 28.374Z" fill="#00448F"/>
<path d="M49.2868 28.374L48.8008 28.5H9.20084L8.71484 28.374L11.0008 19.5H14.6008V23.1H27.2008V19.5H30.8008V23.1H43.4008V19.5H47.0008L49.2868 28.374Z" fill="#DAEFF6"/>
<path d="M46.9981 6.8999V19.4999H43.398V14.9999H30.7981V19.4999H27.198V14.9999H14.5981V19.4999H10.998V6.8999H46.9981Z" fill="#9DC1E4"/>
<path d="M55.0985 51V59.1H2.89844V51L3.06951 50.3521L5.59844 51H26.2985H28.0985H29.8984H31.6985H52.3985L54.9275 50.3521L55.0985 51Z" fill="#168DE2"/>
<path d="M50.2033 31.9741L54.9283 50.3521L52.3993 51.0001H31.6993H29.8992H28.0993H26.2993H5.59924L3.07031 50.3521L7.75924 32.1002H49.6993L50.2033 31.9741Z" fill="#9DC1E4"/>
<path d="M43.4017 19.5V23.1H30.8018V19.5V15H43.4017V19.5Z" fill="#FF8585"/>
<path d="M27.2015 19.5V23.1H14.6016V19.5V15H27.2015V19.5Z" fill="#FF8585"/>
<path d="M2.89996 60H55.0999C55.5967 60 55.9999 59.5968 55.9999 59.1V51C55.9999 50.9244 55.99 50.8488 55.9711 50.7759L47.9 19.3866V6.89996C47.9 6.40321 47.4968 6 47 6H11C10.5032 6 10.1 6.40321 10.1 6.89996V19.3865L2.02879 50.7759C2.00991 50.8488 2 50.9244 2 51V59.1C2 59.5968 2.40321 60 2.89996 60ZM11.9 7.80004H46.1001V18.6H44.3V15C44.3 14.5032 43.8968 14.1 43.4001 14.1H30.8C30.3033 14.1 29.9001 14.5032 29.9001 15V18.5999H28.1V15C28.1 14.5032 27.6968 14.1 27.2001 14.1H14.6C14.1033 14.1 13.7001 14.5032 13.7001 15V18.5999H11.9V7.80004ZM42.5 15.9V22.2H31.7V15.9H42.5ZM26.3 15.9V22.2H15.5V15.9H26.3ZM11.6975 20.4H13.7001V23.1C13.7001 23.5967 14.1033 23.9999 14.6 23.9999H27.2001C27.6968 23.9999 28.1 23.5967 28.1 23.1V20.4H29.9001V23.1C29.9001 23.5967 30.3033 23.9999 30.8 23.9999H43.4001C43.8968 23.9999 44.3 23.5967 44.3 23.1V20.4H46.3026L48.1539 27.6H9.84624L11.6975 20.4ZM9.37996 29.4H48.6199L49.0825 31.2001H8.92096L9.37996 29.4ZM3.80003 51.1134L8.45753 33H49.5426L54.2001 51.1134V58.2H3.80003V51.1134Z" fill="#2B587A"/>
</svg>
