<svg width="57" height="62" viewBox="0 0 57 62" fill="none" xmlns="http://www.w3.org/2000/svg">
<path d="M56.993 28.1085C56.993 43.632 44.4087 56.2164 28.8852 56.2164C13.3617 56.2164 0.777344 43.632 0.777344 28.1085C0.777344 12.5844 13.3617 0 28.8852 0C44.4087 0 56.993 12.5844 56.993 28.1085Z" fill="#FFA6A6"/>
<path d="M20.5011 13.6658H13.3086L13.8344 12H20.5011V13.6658Z" fill="#2B587A"/>
<path d="M41.0284 13.6658H33.8359V12H40.5026L41.0284 13.6658Z" fill="#3C7097"/>
<path d="M3.83496 43.6667L13.835 12H17.1683L7.1683 43.6667H3.83496Z" fill="#3C7097"/>
<path d="M10.5843 32.845L17.1668 12H13.8335L7.43848 32.2517C8.45598 32.5317 9.50598 32.735 10.5843 32.845Z" fill="#2B587A"/>
<path d="M18.835 17L20.5016 12H33.835L35.5016 17H18.835Z" fill="#9DC1E4"/>
<path d="M31.81 13.6933C31.81 13.1225 31.78 12.5583 31.7316 12H20.5016L18.835 17H31.5216C31.7075 15.925 31.81 14.8217 31.81 13.6933Z" fill="#D2F1FF"/>
<path d="M18.835 17H35.5016V22H18.835V17Z" fill="#2B587A"/>
<path d="M31.5216 17H18.835V22H29.93C30.6775 20.4392 31.2166 18.76 31.5216 17Z" fill="#9DC1E4"/>
<path d="M17.165 27L18.8317 22H35.4984L37.165 27H17.165Z" fill="#9DC1E4"/>
<path d="M29.9267 22H18.8317L17.165 27H26.46C27.8634 25.5342 29.04 23.8508 29.9267 22Z" fill="#D2F1FF"/>
<path d="M17.165 27H37.165V32H17.165V27Z" fill="#2B587A"/>
<path d="M17.165 27V32H18.5142C21.57 31.0058 24.2884 29.2683 26.46 27H17.165Z" fill="#4479A2"/>
<path d="M15.5 37L17.1667 32H37.1667L38.8333 37H15.5Z" fill="#9DC1E4"/>
<path d="M13 47L15.5 42H38.8333L41.3333 47H13Z" fill="#9DC1E4"/>
<path d="M10.5 57L13 52H41.3333L43.8333 57H10.5Z" fill="#9DC1E4"/>
<path d="M15.5 37H38.8333V42H15.5V37Z" fill="#2B587A"/>
<path d="M13 47H41.3333V52H13V47Z" fill="#2B587A"/>
<path d="M10.5 57H43.8333V62H10.5V57Z" fill="#2B587A"/>
<path d="M50.4984 43.6667L40.4984 12H37.165L47.165 43.6667H50.4984Z" fill="#3C7097"/>
<path d="M50.4984 43.6667L40.4984 12H37.165L47.165 43.6667H50.4984Z" fill="#3C7097"/>
<path d="M3.83496 43.6665H7.1683V58.6665H3.83496V43.6665Z" fill="#2B587A"/>
<path d="M47.165 43.6665H50.4984V58.6665H47.165V43.6665Z" fill="#2B587A"/>
<path d="M43.835 58.6665H52.1683V61.9998H43.835V58.6665Z" fill="white"/>
<path d="M3 58.6665H11.3333V61.9998H3V58.6665Z" fill="white"/>
</svg>
