<svg width="168" height="74" viewBox="0 0 168 74" fill="none" xmlns="http://www.w3.org/2000/svg">
<g clip-path="url(#clip0)">
<path d="M23.9066 48.0108C22.4655 44.636 21.8506 39.3994 23.2168 33.383C23.302 41.432 23.6356 45.8123 28.1946 52.6412C26.4794 49.0602 25.1894 43.8127 28.2006 38.5937C30.832 34.036 33.4529 30.8699 35.3039 28.2421C34.0239 28.8511 32.4718 29.0311 30.616 28.2867C30.616 28.2867 31.6153 28.4881 33.1704 28.0183C35.3336 27.3649 36.9876 25.6132 37.5172 23.4176C38.0463 21.2199 37.3734 18.9053 35.7433 17.3395C35.7418 17.3388 35.7397 17.336 35.737 17.3339C30.1499 11.9767 16.6999 17.9974 15.0485 33.4446C14.2044 42.7894 19.8291 49.4605 24.6608 53.3116C28.369 59.4196 34.6637 63.4659 42.8497 63.2606C40.6971 62.8032 29.4531 60.9991 23.9066 48.0108Z" fill="white"/>
</g>
<path d="M52.92 51.568V58H51.972V53.896C51.972 53.728 51.976 53.552 51.984 53.368C52 53.184 52.016 53.004 52.032 52.828H51.996L49.896 58H49.008L46.968 52.828H46.932C46.956 53.188 46.968 53.556 46.968 53.932V58H46.02V51.568H47.424L49.452 56.74L51.516 51.568H52.92ZM57.7691 51.46C58.5531 51.46 59.1331 51.632 59.5091 51.976C59.8851 52.32 60.0731 52.868 60.0731 53.62V58H59.3051L59.1011 57.088H59.0531C58.7731 57.44 58.4771 57.7 58.1651 57.868C57.8611 58.036 57.4371 58.12 56.8931 58.12C56.3091 58.12 55.8251 57.968 55.4411 57.664C55.0571 57.352 54.8651 56.868 54.8651 56.212C54.8651 55.572 55.1171 55.08 55.6211 54.736C56.1251 54.384 56.9011 54.192 57.9491 54.16L59.0411 54.124V53.74C59.0411 53.204 58.9251 52.832 58.6931 52.624C58.4611 52.416 58.1331 52.312 57.7091 52.312C57.3731 52.312 57.0531 52.364 56.7491 52.468C56.4451 52.564 56.1611 52.676 55.8971 52.804L55.5731 52.012C55.8531 51.86 56.1851 51.732 56.5691 51.628C56.9531 51.516 57.3531 51.46 57.7691 51.46ZM58.0811 54.892C57.2811 54.924 56.7251 55.052 56.4131 55.276C56.1091 55.5 55.9571 55.816 55.9571 56.224C55.9571 56.584 56.0651 56.848 56.2811 57.016C56.5051 57.184 56.7891 57.268 57.1331 57.268C57.6771 57.268 58.1291 57.12 58.4891 56.824C58.8491 56.52 59.0291 56.056 59.0291 55.432V54.856L58.0811 54.892ZM66.8597 52.456H64.7597V58H63.7157V52.456H61.6397V51.568H66.8597V52.456ZM71.5467 51.448C72.3387 51.448 72.9747 51.724 73.4547 52.276C73.9427 52.828 74.1867 53.66 74.1867 54.772C74.1867 55.868 73.9427 56.7 73.4547 57.268C72.9747 57.836 72.3347 58.12 71.5347 58.12C71.0387 58.12 70.6267 58.028 70.2987 57.844C69.9787 57.652 69.7267 57.432 69.5427 57.184H69.4707C69.4867 57.32 69.5027 57.492 69.5187 57.7C69.5347 57.908 69.5427 58.088 69.5427 58.24V60.88H68.4867V51.568H69.3507L69.4947 52.444H69.5427C69.7347 52.164 69.9867 51.928 70.2987 51.736C70.6107 51.544 71.0267 51.448 71.5467 51.448ZM71.3547 52.336C70.6987 52.336 70.2347 52.52 69.9627 52.888C69.6987 53.256 69.5587 53.816 69.5427 54.568V54.772C69.5427 55.564 69.6707 56.176 69.9267 56.608C70.1907 57.032 70.6747 57.244 71.3787 57.244C71.7707 57.244 72.0907 57.136 72.3387 56.92C72.5947 56.704 72.7827 56.412 72.9027 56.044C73.0307 55.668 73.0947 55.24 73.0947 54.76C73.0947 54.024 72.9507 53.436 72.6627 52.996C72.3827 52.556 71.9467 52.336 71.3547 52.336ZM78.6655 51.46C79.4495 51.46 80.0295 51.632 80.4055 51.976C80.7815 52.32 80.9695 52.868 80.9695 53.62V58H80.2015L79.9975 57.088H79.9495C79.6695 57.44 79.3735 57.7 79.0615 57.868C78.7575 58.036 78.3335 58.12 77.7895 58.12C77.2055 58.12 76.7215 57.968 76.3375 57.664C75.9535 57.352 75.7615 56.868 75.7615 56.212C75.7615 55.572 76.0135 55.08 76.5175 54.736C77.0215 54.384 77.7975 54.192 78.8455 54.16L79.9375 54.124V53.74C79.9375 53.204 79.8215 52.832 79.5895 52.624C79.3575 52.416 79.0295 52.312 78.6055 52.312C78.2695 52.312 77.9495 52.364 77.6455 52.468C77.3415 52.564 77.0575 52.676 76.7935 52.804L76.4695 52.012C76.7495 51.86 77.0815 51.732 77.4655 51.628C77.8495 51.516 78.2495 51.46 78.6655 51.46ZM78.9775 54.892C78.1775 54.924 77.6215 55.052 77.3095 55.276C77.0055 55.5 76.8535 55.816 76.8535 56.224C76.8535 56.584 76.9615 56.848 77.1775 57.016C77.4015 57.184 77.6855 57.268 78.0295 57.268C78.5735 57.268 79.0255 57.12 79.3855 56.824C79.7455 56.52 79.9255 56.056 79.9255 55.432V54.856L78.9775 54.892ZM85.8961 58.12C85.3281 58.12 84.8201 58.004 84.3721 57.772C83.9321 57.54 83.5841 57.18 83.3281 56.692C83.0801 56.204 82.9561 55.58 82.9561 54.82C82.9561 54.028 83.0881 53.384 83.3521 52.888C83.6161 52.392 83.9721 52.028 84.4201 51.796C84.8761 51.564 85.3921 51.448 85.9681 51.448C86.2961 51.448 86.6121 51.484 86.9161 51.556C87.2201 51.62 87.4681 51.7 87.6601 51.796L87.3361 52.672C87.1441 52.6 86.9201 52.532 86.6641 52.468C86.4081 52.404 86.1681 52.372 85.9441 52.372C84.6801 52.372 84.0481 53.184 84.0481 54.808C84.0481 55.584 84.2001 56.18 84.5041 56.596C84.8161 57.004 85.2761 57.208 85.8841 57.208C86.2361 57.208 86.5441 57.172 86.8081 57.1C87.0801 57.028 87.3281 56.94 87.5521 56.836V57.772C87.3361 57.884 87.0961 57.968 86.8321 58.024C86.5761 58.088 86.2641 58.12 85.8961 58.12ZM89.4417 58V51.568H90.4977V54.208H92.1657C92.9977 54.208 93.6137 54.36 94.0137 54.664C94.4137 54.968 94.6137 55.424 94.6137 56.032C94.6137 56.632 94.4177 57.112 94.0257 57.472C93.6337 57.824 92.9977 58 92.1177 58H89.4417ZM95.6817 58V51.568H96.7377V58H95.6817ZM92.0217 57.148C92.4777 57.148 92.8497 57.072 93.1377 56.92C93.4257 56.76 93.5697 56.484 93.5697 56.092C93.5697 55.7 93.4377 55.436 93.1737 55.3C92.9097 55.156 92.5297 55.084 92.0337 55.084H90.4977V57.148H92.0217ZM103.626 55.492C103.626 55.588 103.622 55.732 103.614 55.924C103.606 56.116 103.594 56.308 103.578 56.5C103.57 56.692 103.562 56.844 103.554 56.956L106.998 51.568H108.294V58H107.31V54.208C107.31 54.08 107.31 53.912 107.31 53.704C107.318 53.496 107.326 53.292 107.334 53.092C107.342 52.884 107.35 52.728 107.358 52.624L103.938 58H102.63V51.568H103.626V55.492ZM117.994 51.568H119.146L116.398 54.664L119.374 58H118.15L115.246 54.736V58H114.19V51.568H115.246V54.688L117.994 51.568ZM123.962 51.448C124.754 51.448 125.39 51.724 125.87 52.276C126.358 52.828 126.602 53.66 126.602 54.772C126.602 55.868 126.358 56.7 125.87 57.268C125.39 57.836 124.75 58.12 123.95 58.12C123.454 58.12 123.042 58.028 122.714 57.844C122.394 57.652 122.142 57.432 121.958 57.184H121.886C121.902 57.32 121.918 57.492 121.934 57.7C121.95 57.908 121.958 58.088 121.958 58.24V60.88H120.902V51.568H121.766L121.91 52.444H121.958C122.15 52.164 122.402 51.928 122.714 51.736C123.026 51.544 123.442 51.448 123.962 51.448ZM123.77 52.336C123.114 52.336 122.65 52.52 122.378 52.888C122.114 53.256 121.974 53.816 121.958 54.568V54.772C121.958 55.564 122.086 56.176 122.342 56.608C122.606 57.032 123.09 57.244 123.794 57.244C124.186 57.244 124.506 57.136 124.754 56.92C125.01 56.704 125.198 56.412 125.318 56.044C125.446 55.668 125.51 55.24 125.51 54.76C125.51 54.024 125.366 53.436 125.078 52.996C124.798 52.556 124.362 52.336 123.77 52.336ZM134.237 54.772C134.237 55.836 133.965 56.66 133.421 57.244C132.885 57.828 132.157 58.12 131.237 58.12C130.669 58.12 130.161 57.992 129.713 57.736C129.273 57.472 128.925 57.092 128.669 56.596C128.413 56.092 128.285 55.484 128.285 54.772C128.285 53.708 128.553 52.888 129.089 52.312C129.625 51.736 130.353 51.448 131.273 51.448C131.857 51.448 132.369 51.58 132.809 51.844C133.257 52.1 133.605 52.476 133.853 52.972C134.109 53.46 134.237 54.06 134.237 54.772ZM129.377 54.772C129.377 55.532 129.525 56.136 129.821 56.584C130.125 57.024 130.605 57.244 131.261 57.244C131.909 57.244 132.385 57.024 132.689 56.584C132.993 56.136 133.145 55.532 133.145 54.772C133.145 54.012 132.993 53.416 132.689 52.984C132.385 52.552 131.905 52.336 131.249 52.336C130.593 52.336 130.117 52.552 129.821 52.984C129.525 53.416 129.377 54.012 129.377 54.772ZM141.442 53.188C141.442 53.588 141.322 53.9 141.082 54.124C140.842 54.348 140.534 54.5 140.158 54.58V54.628C140.558 54.684 140.906 54.828 141.202 55.06C141.498 55.284 141.646 55.636 141.646 56.116C141.646 56.66 141.442 57.112 141.034 57.472C140.634 57.824 139.97 58 139.042 58H136.27V51.568H139.03C139.486 51.568 139.894 51.62 140.254 51.724C140.622 51.82 140.91 51.988 141.118 52.228C141.334 52.46 141.442 52.78 141.442 53.188ZM140.374 53.32C140.374 53.016 140.262 52.796 140.038 52.66C139.822 52.516 139.466 52.444 138.97 52.444H137.326V54.208H138.778C139.842 54.208 140.374 53.912 140.374 53.32ZM140.554 56.116C140.554 55.748 140.414 55.484 140.134 55.324C139.854 55.164 139.442 55.084 138.898 55.084H137.326V57.148H138.922C139.45 57.148 139.854 57.072 140.134 56.92C140.414 56.76 140.554 56.492 140.554 56.116ZM145.98 51.46C146.764 51.46 147.344 51.632 147.72 51.976C148.096 52.32 148.284 52.868 148.284 53.62V58H147.516L147.312 57.088H147.264C146.984 57.44 146.688 57.7 146.376 57.868C146.072 58.036 145.648 58.12 145.104 58.12C144.52 58.12 144.036 57.968 143.652 57.664C143.268 57.352 143.076 56.868 143.076 56.212C143.076 55.572 143.328 55.08 143.832 54.736C144.336 54.384 145.112 54.192 146.16 54.16L147.252 54.124V53.74C147.252 53.204 147.136 52.832 146.904 52.624C146.672 52.416 146.344 52.312 145.92 52.312C145.584 52.312 145.264 52.364 144.96 52.468C144.656 52.564 144.372 52.676 144.108 52.804L143.784 52.012C144.064 51.86 144.396 51.732 144.78 51.628C145.164 51.516 145.564 51.46 145.98 51.46ZM146.292 54.892C145.492 54.924 144.936 55.052 144.624 55.276C144.32 55.5 144.168 55.816 144.168 56.224C144.168 56.584 144.276 56.848 144.492 57.016C144.716 57.184 145 57.268 145.344 57.268C145.888 57.268 146.34 57.12 146.7 56.824C147.06 56.52 147.24 56.056 147.24 55.432V54.856L146.292 54.892ZM155.071 52.456H152.971V58H151.927V52.456H149.851V51.568H155.071V52.456ZM157.694 55.492C157.694 55.588 157.69 55.732 157.682 55.924C157.674 56.116 157.662 56.308 157.646 56.5C157.638 56.692 157.63 56.844 157.622 56.956L161.066 51.568H162.362V58H161.378V54.208C161.378 54.08 161.378 53.912 161.378 53.704C161.386 53.496 161.394 53.292 161.402 53.092C161.41 52.884 161.418 52.728 161.426 52.624L158.006 58H156.698V51.568H157.694V55.492Z" fill="white"/>
<path d="M53.32 46.48C55.2933 46.48 57.0667 46.0533 58.64 45.2C60.2133 44.3467 61.4533 43.12 62.36 41.52C63.2933 39.8933 63.76 37.9467 63.76 35.68V16.8H60.08V29.24H60C59.3333 28.0133 58.3467 27.0267 57.04 26.28C55.7333 25.5067 54.2933 25.12 52.72 25.12C50.8533 25.12 49.16 25.5467 47.64 26.4C46.1467 27.2533 44.96 28.4667 44.08 30.04C43.2267 31.5867 42.8 33.4267 42.8 35.56C42.8 37.8 43.24 39.7467 44.12 41.4C45.0267 43.0267 46.2667 44.28 47.84 45.16C49.44 46.04 51.2667 46.48 53.32 46.48ZM53.32 43.32C52.0667 43.32 50.92 43.0133 49.88 42.4C48.8667 41.7867 48.0533 40.92 47.44 39.8C46.8267 38.68 46.52 37.3467 46.52 35.8C46.52 34.3067 46.8133 33 47.4 31.88C48.0133 30.76 48.8267 29.88 49.84 29.24C50.88 28.6 52.0267 28.28 53.28 28.28C54.5333 28.28 55.6667 28.5867 56.68 29.2C57.72 29.8133 58.5333 30.6933 59.12 31.84C59.7333 32.96 60.04 34.2933 60.04 35.84C60.04 37.36 59.7333 38.68 59.12 39.8C58.5333 40.92 57.7333 41.7867 56.72 42.4C55.7067 43.0133 54.5733 43.32 53.32 43.32ZM69.3469 46V31.4C69.3469 29.5867 69.8535 28.1733 70.8669 27.16C71.9069 26.12 73.3335 25.6 75.1469 25.6H79.3469V28.76H75.8269C74.9202 28.76 74.2269 29.0267 73.7469 29.56C73.2669 30.0667 73.0269 30.76 73.0269 31.64V46H69.3469ZM93.1081 46C90.8415 46 88.8415 45.5867 87.1081 44.76C85.4015 43.9067 84.0548 42.72 83.0681 41.2C82.1081 39.6533 81.6281 37.8533 81.6281 35.8C81.6281 33.7733 82.0415 31.96 82.8681 30.36C83.6948 28.7333 84.8415 27.4533 86.3081 26.52C87.7748 25.5867 89.4815 25.12 91.4281 25.12C93.5348 25.12 95.2815 25.5733 96.6681 26.48C98.0815 27.3867 99.1348 28.6133 99.8281 30.16C100.521 31.68 100.868 33.3867 100.868 35.28C100.868 35.92 100.828 36.5067 100.748 37.04H85.5481C85.6815 38.2933 86.0948 39.36 86.7881 40.24C87.4815 41.0933 88.3615 41.7467 89.4281 42.2C90.5215 42.6267 91.7215 42.84 93.0281 42.84H98.3481V46H93.1081ZM85.5081 34.44H97.1481C97.1481 33.56 96.9748 32.64 96.6281 31.68C96.2815 30.72 95.6948 29.9067 94.8681 29.24C94.0415 28.5467 92.8948 28.2 91.4281 28.2C90.2015 28.2 89.1481 28.52 88.2681 29.16C87.4148 29.7733 86.7481 30.56 86.2681 31.52C85.8148 32.4533 85.5615 33.4267 85.5081 34.44ZM105.561 46V33.72C105.561 32.1467 105.921 30.72 106.641 29.44C107.361 28.1333 108.401 27.0933 109.761 26.32C111.121 25.52 112.761 25.12 114.681 25.12C116.067 25.12 117.441 25.4267 118.801 26.04C120.187 26.6267 121.254 27.68 122.001 29.2H122.041C122.814 27.68 123.894 26.6267 125.281 26.04C126.667 25.4267 128.067 25.12 129.481 25.12C131.374 25.12 133.001 25.52 134.361 26.32C135.721 27.0933 136.761 28.1333 137.481 29.44C138.201 30.72 138.561 32.1467 138.561 33.72V46H134.881V33.72C134.881 32.7067 134.641 31.7867 134.161 30.96C133.681 30.1333 133.027 29.48 132.201 29C131.401 28.52 130.481 28.28 129.441 28.28C128.427 28.28 127.494 28.5333 126.641 29.04C125.787 29.52 125.107 30.1733 124.601 31C124.121 31.8267 123.881 32.7333 123.881 33.72V46H120.201V33.72C120.201 32.7333 119.947 31.8267 119.441 31C118.961 30.1733 118.294 29.52 117.441 29.04C116.614 28.5333 115.681 28.28 114.641 28.28C113.627 28.28 112.707 28.52 111.881 29C111.081 29.48 110.441 30.1333 109.961 30.96C109.481 31.7867 109.241 32.7067 109.241 33.72V46H105.561ZM152.869 46.48C150.869 46.48 149.149 46.0133 147.709 45.08C146.295 44.12 145.202 42.84 144.429 41.24C143.655 39.6133 143.269 37.8 143.269 35.8C143.269 33.8 143.695 32 144.549 30.4C145.402 28.7733 146.629 27.4933 148.229 26.56C149.829 25.6 151.749 25.12 153.989 25.12C156.122 25.12 157.962 25.5867 159.509 26.52C161.082 27.4533 162.282 28.72 163.109 30.32C163.962 31.92 164.389 33.7067 164.389 35.68V46H160.669V41.84H160.589C160.189 42.5867 159.642 43.32 158.949 44.04C158.255 44.76 157.402 45.3467 156.389 45.8C155.402 46.2533 154.229 46.48 152.869 46.48ZM153.829 43.32C155.162 43.32 156.335 42.9867 157.349 42.32C158.389 41.6533 159.189 40.7467 159.749 39.6C160.335 38.4533 160.629 37.16 160.629 35.72C160.629 34.3067 160.349 33.04 159.789 31.92C159.255 30.8 158.482 29.92 157.469 29.28C156.455 28.6133 155.269 28.28 153.909 28.28C152.469 28.28 151.229 28.6133 150.189 29.28C149.175 29.9467 148.389 30.8533 147.829 32C147.295 33.1467 147.029 34.4267 147.029 35.84C147.029 37.2267 147.295 38.4933 147.829 39.64C148.362 40.76 149.135 41.6533 150.149 42.32C151.162 42.9867 152.389 43.32 153.829 43.32Z" fill="white"/>
<circle cx="87.5" cy="20.5" r="2.5" fill="white"/>
<circle cx="95.5" cy="20.5" r="2.5" fill="white"/>
<defs>
<clipPath id="clip0">
<rect width="47.7809" height="47.7809" fill="white" transform="translate(37.8311 6.78418) rotate(52.3495)"/>
</clipPath>
</defs>
</svg>
