<svg width="26" height="26" viewBox="0 0 26 26" fill="none" xmlns="http://www.w3.org/2000/svg">
<g clip-path="url(#clip0)">
<path d="M18.1264 7.98682C18.0321 7.98686 17.9418 8.02435 17.8751 8.09102L11.6843 14.2819L8.12147 10.7189C8.05357 10.6546 7.96366 10.6188 7.8702 10.6188C7.77674 10.6188 7.68683 10.6546 7.61894 10.7189L6.18264 12.1554C6.11603 12.222 6.07861 12.3124 6.07861 12.4066C6.07861 12.5009 6.11603 12.5912 6.18264 12.6579L11.4336 17.9085C11.4666 17.9415 11.5058 17.9677 11.5489 17.9856C11.592 18.0035 11.6382 18.0127 11.6849 18.0127C11.7316 18.0127 11.7778 18.0035 11.8209 17.9856C11.864 17.9677 11.9032 17.9415 11.9362 17.9085L19.814 10.0301C19.8806 9.96336 19.918 9.87295 19.918 9.77869C19.918 9.68442 19.8806 9.59401 19.814 9.52732L18.3777 8.09102C18.311 8.02435 18.2206 7.98686 18.1264 7.98682ZM11.6843 17.1545L6.93664 12.4066L7.87101 11.4722L11.4336 15.0357C11.4666 15.0687 11.5058 15.0949 11.5489 15.1128C11.592 15.1307 11.6382 15.1399 11.6849 15.1399C11.7316 15.1399 11.7778 15.1307 11.8209 15.1128C11.864 15.0949 11.9032 15.0687 11.9362 15.0357L18.1264 8.84502L19.0608 9.7794L11.6843 17.1545Z" fill="black"/>
<path d="M12.9995 3.31738C11.0844 3.31738 9.21241 3.88526 7.62012 4.94919C6.02783 6.01312 4.78679 7.52533 4.05394 9.29459C3.32109 11.0638 3.12934 13.0107 3.50295 14.8889C3.87655 16.7672 4.79873 18.4924 6.15286 19.8466C7.50699 21.2007 9.23225 22.1229 11.1105 22.4965C12.9887 22.8701 14.9356 22.6783 16.7048 21.9455C18.4741 21.2126 19.9863 19.9716 21.0502 18.3793C22.1142 16.787 22.682 14.915 22.682 12.9999C22.6791 10.4329 21.6581 7.97175 19.8429 6.15655C18.0277 4.34134 15.5665 3.32029 12.9995 3.31738ZM12.9995 21.9716C11.225 21.9716 9.49047 21.4454 8.01509 20.4596C6.53972 19.4738 5.3898 18.0726 4.71076 16.4332C4.03172 14.7939 3.85405 12.99 4.20022 11.2497C4.5464 9.50934 5.40086 7.91075 6.65556 6.65605C7.91027 5.40134 9.50886 4.54688 11.2492 4.20071C12.9895 3.85454 14.7934 4.0322 16.4328 4.71124C18.0721 5.39029 19.4733 6.5402 20.4591 8.01558C21.4449 9.49095 21.9711 11.2255 21.9711 12.9999C21.9684 15.3785 21.0223 17.6589 19.3404 19.3409C17.6585 21.0228 15.3781 21.9689 12.9995 21.9716Z" fill="black"/>
<path d="M25.5984 14.1401C25.8594 13.8174 26.0018 13.415 26.0018 12.9999C26.0018 12.5849 25.8594 12.1825 25.5984 11.8598L25.0158 11.1326C24.9041 10.9931 24.8277 10.8287 24.793 10.6534C24.7582 10.478 24.7662 10.2969 24.8161 10.1253L25.0761 9.23339C25.1903 8.83457 25.166 8.40882 25.0072 8.02559C24.8483 7.64235 24.5643 7.32424 24.2015 7.12313L23.3876 6.67625C23.2308 6.59039 23.097 6.46804 22.9974 6.31955C22.8979 6.17106 22.8356 6.00078 22.8158 5.82313L22.7142 4.89789C22.6707 4.48495 22.4868 4.09945 22.1932 3.80585C21.8996 3.51224 21.5141 3.32834 21.1012 3.28488L20.176 3.18332C19.9983 3.16355 19.828 3.10129 19.6795 3.0018C19.531 2.9023 19.4087 2.76851 19.3228 2.61172L18.876 1.7976C18.6779 1.43179 18.3601 1.14521 17.9758 0.985956C17.5916 0.826698 17.1642 0.804449 16.7655 0.922941L15.8738 1.18274C15.7021 1.23263 15.5209 1.24051 15.3455 1.20573C15.1702 1.17094 15.0057 1.09451 14.8661 0.982863L14.1389 0.4003C13.8162 0.139398 13.4137 -0.00292969 12.9987 -0.00292969C12.5837 -0.00292969 12.1813 0.139398 11.8586 0.4003L11.1314 0.982863C10.9917 1.09427 10.8273 1.17055 10.6521 1.20529C10.4768 1.24003 10.2957 1.23223 10.1241 1.18253L9.23219 0.922535C8.83336 0.808281 8.40759 0.832559 8.02434 0.991408C7.64108 1.15026 7.32298 1.4343 7.12192 1.79719L6.67504 2.61111C6.58918 2.7679 6.46683 2.90171 6.31834 3.00124C6.16985 3.10076 5.99958 3.16308 5.82192 3.18291L4.89669 3.28447C4.48375 3.32793 4.09824 3.51184 3.80464 3.80544C3.51103 4.09905 3.32713 4.48455 3.28367 4.89749L3.18211 5.82272C3.16235 6.00037 3.10008 6.17065 3.00059 6.31915C2.9011 6.46765 2.7673 6.59 2.61051 6.67585L1.79639 7.12272C1.43066 7.32083 1.14415 7.63865 0.984909 8.02289C0.825663 8.40714 0.803358 8.83445 0.921732 9.23319L1.18194 10.1247C1.23183 10.2964 1.23971 10.4776 1.20493 10.6529C1.17014 10.8283 1.0937 10.9928 0.982061 11.1324L0.399498 11.8596C0.13849 12.1823 -0.00390625 12.5847 -0.00390625 12.9997C-0.00390625 13.4148 0.13849 13.8172 0.399498 14.1399L0.982061 14.8671C1.09373 15.0066 1.17016 15.171 1.20492 15.3463C1.23967 15.5216 1.23172 15.7028 1.18173 15.8744L0.921732 16.7663C0.807468 17.1651 0.831696 17.5909 0.990465 17.9741C1.14923 18.3574 1.43317 18.6756 1.79598 18.8768L2.6099 19.3236C2.76669 19.4095 2.90051 19.5318 3.00003 19.6803C3.09956 19.8288 3.16187 19.9991 3.1817 20.1768L3.28326 21.102C3.32672 21.5149 3.51063 21.9004 3.80423 22.194C4.09784 22.4876 4.48334 22.6715 4.89628 22.715L5.82151 22.8166C5.99917 22.8363 6.16945 22.8986 6.31794 22.9981C6.46644 23.0976 6.58879 23.2314 6.67464 23.3882L7.12151 24.2023C7.31954 24.5681 7.63734 24.8547 8.02162 25.0139C8.40589 25.1732 8.83325 25.1954 9.23198 25.0769L10.1235 24.8167C10.2952 24.767 10.4763 24.7592 10.6517 24.794C10.827 24.8288 10.9915 24.9051 11.1312 25.0166L11.8584 25.5992C12.1811 25.8602 12.5835 26.0026 12.9985 26.0026C13.4135 26.0026 13.816 25.8602 14.1387 25.5992L14.8659 25.0166C15.0054 24.905 15.1698 24.8286 15.3451 24.7938C15.5204 24.7591 15.7015 24.767 15.8732 24.8169L16.7651 25.0769C17.1638 25.1953 17.5911 25.173 17.9753 25.0137C18.3595 24.8545 18.6773 24.568 18.8753 24.2023L19.3222 23.3884C19.4081 23.2316 19.5304 23.0978 19.6789 22.9982C19.8274 22.8987 19.9977 22.8364 20.1753 22.8166L21.1006 22.715C21.5135 22.6715 21.899 22.4876 22.1926 22.194C22.4862 21.9004 22.6701 21.5149 22.7136 21.102L22.8152 20.1768C22.8349 19.9991 22.8972 19.8288 22.9967 19.6803C23.0962 19.5318 23.23 19.4095 23.3867 19.3236L24.2009 18.8768C24.5666 18.6786 24.8531 18.3608 25.0124 17.9766C25.1716 17.5923 25.1939 17.165 25.0755 16.7663L24.8153 15.8748C24.7654 15.7031 24.7576 15.5219 24.7923 15.3465C24.8271 15.1712 24.9036 15.0067 25.0152 14.8671L25.5984 14.1401ZM24.4609 14.423C24.2779 14.6518 24.1527 14.9212 24.0957 15.2086C24.0387 15.4959 24.0516 15.7927 24.1334 16.074L24.3938 16.9655C24.466 17.2088 24.4524 17.4696 24.3552 17.704C24.258 17.9384 24.0832 18.1323 23.86 18.2532L23.0457 18.7C22.7886 18.8409 22.5693 19.0417 22.4063 19.2854C22.2433 19.529 22.1414 19.8084 22.1093 20.0998L22.0077 21.025C21.9811 21.2769 21.8688 21.5121 21.6896 21.6913C21.5105 21.8704 21.2753 21.9827 21.0234 22.0093L20.098 22.1109C19.8066 22.1431 19.5273 22.2451 19.2837 22.4081C19.0401 22.5712 18.8393 22.7905 18.6984 23.0475L18.2515 23.8616C18.1306 24.0847 17.9367 24.2594 17.7024 24.3566C17.468 24.4537 17.2074 24.4675 16.9641 24.3955L16.0724 24.1353C15.7912 24.0533 15.4944 24.0403 15.207 24.0972C14.9197 24.1542 14.6503 24.2795 14.4216 24.4625L13.6944 25.045C13.4975 25.2044 13.2519 25.2914 12.9985 25.2914C12.7452 25.2914 12.4995 25.2044 12.3026 25.045L11.5754 24.4625C11.3467 24.2795 11.0773 24.1542 10.7899 24.0972C10.5026 24.0402 10.2057 24.0532 9.92444 24.135L9.03312 24.3953C8.78982 24.4672 8.5292 24.4534 8.29482 24.3563C8.06045 24.2591 7.86654 24.0844 7.74551 23.8614L7.29864 23.0471C7.15774 22.79 6.95696 22.5707 6.71331 22.4077C6.46965 22.2447 6.19029 22.1428 5.8989 22.1107L4.97367 22.0091C4.72173 21.9825 4.48656 21.8702 4.30742 21.6911C4.12827 21.5119 4.016 21.2767 3.98933 21.0248L3.88776 20.0994C3.85553 19.808 3.75358 19.5287 3.59055 19.2851C3.42752 19.0415 3.2082 18.8407 2.95115 18.6998L2.13703 18.253C1.91567 18.1303 1.74241 17.9362 1.64551 17.7024C1.5486 17.4686 1.53377 17.2089 1.60342 16.9655L1.86362 16.0738C1.9455 15.7926 1.95852 15.4958 1.90156 15.2085C1.84461 14.9212 1.71936 14.6518 1.53639 14.423L0.95342 13.6958C0.794125 13.4989 0.707221 13.2533 0.707221 12.9999C0.707221 12.7466 0.794125 12.501 0.95342 12.304L1.53598 11.5768C1.71894 11.3481 1.8442 11.0786 1.90119 10.7913C1.95817 10.504 1.94522 10.2071 1.86342 9.92585L1.60342 9.03433C1.53124 8.79104 1.54488 8.53033 1.64207 8.2959C1.73926 8.06147 1.91408 7.86758 2.13723 7.74672L2.95156 7.29985C3.20864 7.15895 3.42797 6.95817 3.59097 6.71451C3.75397 6.47086 3.85585 6.1915 3.88797 5.90011L3.98953 4.97488C4.01639 4.72283 4.12893 4.48763 4.30835 4.30859C4.48776 4.12954 4.72319 4.01748 4.9753 3.99114L5.90073 3.88958C6.19209 3.85735 6.47139 3.7554 6.715 3.59237C6.95861 3.42933 7.15936 3.21002 7.30026 2.95297L7.74714 2.13885C7.86979 1.91778 8.06359 1.74468 8.29706 1.6477C8.53053 1.55071 8.78994 1.53553 9.03312 1.60463L9.92484 1.86483C10.2061 1.94675 10.5029 1.95978 10.7902 1.90282C11.0775 1.84586 11.3469 1.7206 11.5756 1.5376L12.3028 0.954628C12.4998 0.795298 12.7454 0.708372 12.9987 0.708372C13.2521 0.708372 13.4977 0.795298 13.6946 0.954628L14.4218 1.53719C14.6507 1.72005 14.9201 1.84524 15.2074 1.90222C15.4947 1.9592 15.7915 1.94631 16.0728 1.86463L16.9643 1.60463C17.2076 1.53272 17.4683 1.5465 17.7026 1.64366C17.937 1.74082 18.1309 1.91548 18.252 2.13844L18.6988 2.95277C18.8397 3.20984 19.0405 3.42917 19.2842 3.59218C19.5278 3.75518 19.8072 3.85706 20.0986 3.88917L21.0238 3.99074C21.2757 4.01741 21.5109 4.12968 21.69 4.30883C21.8692 4.48797 21.9815 4.72314 22.0081 4.97508L22.1097 5.90052C22.1419 6.19187 22.2439 6.47117 22.4069 6.71478C22.5699 6.95839 22.7893 7.15915 23.0463 7.30005L23.8604 7.74693C24.0818 7.86961 24.2551 8.06367 24.352 8.29747C24.449 8.53126 24.4638 8.791 24.3942 9.03433L24.134 9.92605C24.0522 10.2073 24.0392 10.5041 24.0961 10.7914C24.1531 11.0787 24.2783 11.3481 24.4613 11.5768L25.0438 12.304C25.2031 12.501 25.29 12.7466 25.29 12.9999C25.29 13.2533 25.2031 13.4989 25.0438 13.6958L24.4609 14.423Z" fill="black"/>
</g>
<defs>
<clipPath id="clip0">
<rect width="26" height="26" fill="white"/>
</clipPath>
</defs>
</svg>
