<svg width="26" height="26" viewBox="0 0 26 26" fill="none" xmlns="http://www.w3.org/2000/svg">
<path d="M0.458247 25.6L3.34916 4.4H22.6508L25.5418 25.6H0.458247Z" stroke="black" stroke-width="0.8"/>
<path d="M12.7558 12.1602H11.2622L8.10956 15.5368V12.1602H7V19.0789H8.16291V17.1425L9.16044 16.033L11.4276 19.0202H12.8092L9.98728 15.1474L12.7558 12.1602Z" fill="black"/>
<path d="M18.619 15.7074V17.5851C18.1762 17.8625 17.6214 18.0279 16.9599 18.0279C16.2985 18.0279 15.7437 17.8092 15.3009 17.3664C14.8582 16.9237 14.6395 16.3156 14.6395 15.5954C14.6395 14.8753 14.8582 14.2671 15.3596 13.8244C15.8557 13.3816 16.4105 13.1629 17.1306 13.1629C17.4614 13.1629 17.7921 13.1629 18.0695 13.2749C18.3469 13.387 18.6243 13.5523 18.9017 13.771L19.5631 12.8855C18.9017 12.2774 18.0695 12 17.072 12C16.0744 12 15.2476 12.3894 14.5274 13.0509C13.8073 13.7124 13.4766 14.5445 13.4766 15.5954C13.4766 16.6463 13.866 17.4785 14.5274 18.1399C15.1889 18.8014 16.0744 19.1375 17.072 19.1375C18.2349 19.1375 19.1737 18.8067 19.8405 18.0866V15.7074H18.6776H18.619Z" fill="black"/>
<path d="M8.75569 4.35L7.47909 0.35H18.5209L17.2443 4.35H8.75569Z" stroke="black" stroke-width="0.7"/>
</svg>
