<?xml version="1.0" encoding="utf-8"?><svg viewBox="0 0 168 74" xmlns="http://www.w3.org/2000/svg" xmlns:xlink="http://www.w3.org/1999/xlink"><style>:root>svg{display:none}:root>svg:target{display:block}</style><svg fill="none" viewBox="0 0 22 22" id="accargion" xmlns="http://www.w3.org/2000/svg"><g clip-path="url(#aaclip0)"><path d="M22 17.874V4.124a4.125 4.125 0 00-4.125-4.125H4.125A4.125 4.125 0 000 4.124v13.75a4.125 4.125 0 004.125 4.125h13.75A4.125 4.125 0 0022 17.874z" fill="#D2F1FF"/><path d="M6.848 10.503l3.362 2.855a1.218 1.218 0 001.581 0l3.362-2.855a1.221 1.221 0 10-1.581-1.862L11 10.825 8.43 8.64a1.222 1.222 0 00-1.582 1.862z" fill="#54A2C7"/></g><defs><clipPath id="aaclip0"><path fill="#fff" transform="matrix(0 1 1 0 0 -.001)" d="M0 0h22v22H0z"/></clipPath></defs></svg><svg fill="none" viewBox="0 0 22 22" id="accargion-active" xmlns="http://www.w3.org/2000/svg"><g clip-path="url(#abclip0)"><path d="M22 4.125v13.75A4.125 4.125 0 0117.875 22H4.125A4.125 4.125 0 010 17.875V4.125A4.125 4.125 0 014.125 0h13.75A4.125 4.125 0 0122 4.125z" fill="#F5FCFF"/><path d="M6.848 11.496l3.362-2.855a1.218 1.218 0 011.581 0l3.362 2.855a1.221 1.221 0 11-1.581 1.862L11 11.174 8.43 13.358a1.222 1.222 0 01-1.582-1.862z" fill="#54A2C7"/><g clip-path="url(#abclip1)"><path d="M22 4.125v13.75A4.125 4.125 0 0117.875 22H4.125A4.125 4.125 0 010 17.875V4.125A4.125 4.125 0 014.125 0h13.75A4.125 4.125 0 0122 4.125z" fill="#54A2C7"/><path d="M6.848 11.496l3.362-2.855a1.218 1.218 0 011.581 0l3.362 2.855a1.221 1.221 0 11-1.581 1.862L11 11.174 8.43 13.358a1.222 1.222 0 01-1.582-1.862z" fill="#F5FCFF"/></g></g><defs><clipPath id="abclip0"><path fill="#fff" transform="rotate(-90 11 11)" d="M0 0h22v22H0z"/></clipPath><clipPath id="abclip1"><path fill="#fff" transform="rotate(-90 11 11)" d="M0 0h22v22H0z"/></clipPath></defs></svg><svg fill="none" viewBox="0 0 8 5" id="arrow-menu" xmlns="http://www.w3.org/2000/svg"><path d="M7.148 1.761L4.397 4.097a.997.997 0 01-1.294 0L.353 1.761A1 1 0 111.646.238L3.75 2.024 5.854.238A1 1 0 017.148 1.76z" fill="#fff"/></svg><svg fill="none" viewBox="0 0 8 5" id="arrow-menu__anim" xmlns="http://www.w3.org/2000/svg"><path d="M7.148 1.761L4.397 4.097a.997.997 0 01-1.294 0L.353 1.761A1 1 0 111.646.238L3.75 2.024 5.854.238A1 1 0 017.148 1.76z" fill="#90CFED"/></svg><svg fill="none" viewBox="0 0 8 5" id="arrow-menu__hover" xmlns="http://www.w3.org/2000/svg"><path d="M7.148 1.761L4.397 4.097a.997.997 0 01-1.294 0L.353 1.761A1 1 0 111.646.238L3.75 2.024 5.854.238A1 1 0 017.148 1.76z" fill="#90CFED"/></svg><svg fill="none" viewBox="0 0 8 5" id="arrow-select" xmlns="http://www.w3.org/2000/svg"><path d="M7.566 2.344L4.815 4.68a.997.997 0 01-1.294 0L.771 2.344A1 1 0 112.063.82l2.104 1.786L6.272.821a1 1 0 011.294 1.523z" fill="#2B587A"/></svg><svg fill="none" viewBox="0 0 8 5" id="arrow-select-focus" xmlns="http://www.w3.org/2000/svg"><path d="M7.565 2.344L4.814 4.68a.997.997 0 01-1.294 0L.77 2.344A1 1 0 112.063.82l2.104 1.786L6.271.821a1 1 0 011.294 1.523z" fill="#FA7272"/></svg><svg fill="none" viewBox="0 0 8 5" id="arrow-select-hide" xmlns="http://www.w3.org/2000/svg"><path d="M7.565 3.156L4.814.82a.997.997 0 00-1.294 0L.77 3.156A1 1 0 102.063 4.68l2.104-1.787L6.271 4.68a1 1 0 001.294-1.524z" fill="#2B587A"/></svg><svg fill="none" viewBox="0 0 46 40" id="basket" xmlns="http://www.w3.org/2000/svg"><path d="M17.522 40c-2.23 0-4.043-1.794-4.043-4s1.813-4 4.043-4c2.23 0 4.044 1.794 4.044 4s-1.814 4-4.044 4z" fill="#222"/><path d="M17.522 37.333A1.342 1.342 0 0116.174 36c0-.736.604-1.334 1.348-1.334.744 0 1.348.598 1.348 1.334 0 .736-.605 1.333-1.348 1.333z" fill="#2C597B"/><path d="M36.573 40c-2.23 0-4.044-1.794-4.044-4s1.814-4 4.044-4c2.23 0 4.044 1.794 4.044 4s-1.814 4-4.044 4z" fill="#222"/><path d="M36.573 37.333A1.342 1.342 0 0135.225 36c0-.736.604-1.334 1.348-1.334.743 0 1.347.598 1.347 1.334 0 .736-.604 1.333-1.347 1.333zM40.83 30.666c0 .747-.592 1.334-1.347 1.334H13.694c-2.238 0-4.044-1.787-4.044-4a3.97 3.97 0 013.505-3.947c.161-.053.35-.053.54-.053.322 0 .646.133.862.346l-.81 2.32h-.053c-.755 0-1.348.587-1.348 1.334 0 .746.593 1.333 1.348 1.333h25.79c.754 0 1.347.586 1.347 1.333zM8.945 5.336c.086.107 1.537.755 2.999 1.39.005-.115.02-.228-.007-.346l-1.186-5.333A1.343 1.343 0 009.435 0H1.348A1.34 1.34 0 000 1.333a1.34 1.34 0 001.348 1.334h7.004l.593 2.67z" fill="#2C597B"/><path d="M40.832 30.666c0 .747-.594 1.334-1.348 1.334h-12.68v-2.667h12.68c.754 0 1.348.586 1.348 1.333z" fill="#2C597B"/><path d="M45.737 5.867a1.333 1.333 0 00-1.078-.534H8.949l4.206 18.72.593 2.613h25.52c.592 0 1.131-.4 1.293-.96L45.953 7.04c.108-.4.027-.854-.216-1.173z" fill="#FA7272"/></svg><svg viewBox="0 0 60 60" id="bed" xmlns="http://www.w3.org/2000/svg"><g clip-path="url(#ajclip0)" fill="#222"><path d="M55.447 4.105C55.112 3.938 47.029 0 29 0 11.628 0 5.216 3.685 4.505 4.13 1.683 5.556 0 7.747 0 10v23a1 1 0 002 0V10c0-1.756 1.78-3.272 3.447-4.105.034-.018.072-.04.103-.06C5.609 5.797 11.644 2 29 2c17.487 0 25.476 3.856 25.553 3.895C56.219 6.728 58 8.244 58 10v23a1 1 0 002 0V10c0-2.266-1.702-4.469-4.553-5.895z"/><path d="M6 31v2a1 1 0 002 0v-2c0-1.654 1.346-3 3-3h12c1.654 0 3 1.346 3 3v2a1 1 0 002 0v-2c0-2.757-2.243-5-5-5H11c-2.757 0-5 2.243-5 5zM19 14a1 1 0 10-2 0 1 1 0 002 0zM53 58h-6a1 1 0 000 2h6a1 1 0 000-2zM13 58H7a1 1 0 000 2h6a1 1 0 000-2zM24 21a1 1 0 100-2 1 1 0 000 2zM59 36H1a1 1 0 00-1 1v6a1 1 0 001 1h54a1 1 0 000-2H2v-4h56v13c0 1.654-1.346 3-3 3H5c-1.654 0-3-1.346-3-3v-4a1 1 0 00-2 0v4c0 2.757 2.243 5 5 5h50c2.757 0 5-2.243 5-5V37a1 1 0 00-1-1zM13 20a1 1 0 10-2 0 1 1 0 002 0zM43 14a1 1 0 10-2 0 1 1 0 002 0zM32 31v2a1 1 0 002 0v-2c0-1.654 1.346-3 3-3h12c1.654 0 3 1.346 3 3v2a1 1 0 002 0v-2c0-2.757-2.243-5-5-5H37c-2.757 0-5 2.243-5 5zM49 20a1 1 0 10-2 0 1 1 0 002 0zM24 9a1 1 0 100-2 1 1 0 000 2zM36 9a1 1 0 100-2 1 1 0 000 2zM31 14a1 1 0 10-2 0 1 1 0 002 0zM36 21a1 1 0 100-2 1 1 0 000 2z"/></g><defs><clipPath id="ajclip0"><path fill="#fff" d="M0 0h60v60H0z"/></clipPath></defs></svg><svg fill="none" viewBox="0 0 23 16" id="car" xmlns="http://www.w3.org/2000/svg"><path d="M16.063 14.417H4.381a.367.367 0 01-.365-.37V4.889c0-1.072.86-1.944 1.918-1.944h8.576c1.058 0 1.918.872 1.918 1.944v9.158c0 .204-.163.37-.365.37zm-11.317-.74h10.952V4.889c0-.664-.533-1.204-1.188-1.204H5.934c-.655 0-1.188.54-1.188 1.204v8.788z" fill="#2B587A"/><path d="M22.636 14.046h-6.572v-7.03h3.376c.822 0 1.587.416 2.032 1.106l1.164 1.805v4.12z" fill="#fff"/><path d="M22.636 14.416h-6.572a.367.367 0 01-.365-.37v-7.03c0-.205.164-.371.365-.371h3.376c.95 0 1.823.476 2.337 1.274l1.164 1.806c.039.06.06.13.06.202v4.12c0 .204-.163.37-.365.37zm-6.207-.74h5.842v-3.639l-1.105-1.713a2.045 2.045 0 00-1.726-.939h-3.01v6.291z" fill="#2B587A"/><path d="M16.063 14.047H3.285v-.366c0-.82.656-1.485 1.465-1.485h11.313v1.85z" fill="#fff"/><path d="M16.063 14.417H3.285a.367.367 0 01-.365-.37v-.366c0-1.023.82-1.855 1.83-1.855h11.313c.202 0 .365.166.365.37v1.85c0 .205-.163.37-.365.37zm-12.413-.74h12.048v-1.11H4.75c-.605 0-1.097.497-1.1 1.11z" fill="#2B587A"/><path d="M21.094 13.954c0 .926-.74 1.676-1.654 1.676-.913 0-1.653-.75-1.653-1.676 0-.925.74-1.676 1.653-1.676s1.654.75 1.654 1.676z" fill="#fff"/><path d="M19.44 16c-1.113 0-2.018-.918-2.018-2.046 0-1.128.905-2.046 2.018-2.046 1.113 0 2.018.918 2.018 2.046 0 1.128-.905 2.046-2.018 2.046zm0-3.352c-.71 0-1.288.586-1.288 1.306 0 .72.578 1.306 1.288 1.306.71 0 1.288-.586 1.288-1.306 0-.72-.578-1.306-1.288-1.306zM9.492 7.385H.365A.368.368 0 010 7.015c0-.204.163-.37.365-.37h9.127c.202 0 .365.166.365.37 0 .205-.163.37-.365.37z" fill="#2B587A"/><path d="M20.038 13.954a.601.601 0 01-.597.605.601.601 0 01-.597-.605c0-.334.267-.605.597-.605.33 0 .597.27.597.605z" fill="#2B587A"/><path d="M10.142 13.954c0 .926-.74 1.676-1.653 1.676s-1.653-.75-1.653-1.676c0-.925.74-1.676 1.653-1.676s1.653.75 1.653 1.676z" fill="#fff"/><path d="M8.489 16c-1.113 0-2.018-.918-2.018-2.046 0-1.128.905-2.046 2.018-2.046 1.113 0 2.018.918 2.018 2.046 0 1.128-.905 2.046-2.018 2.046zm0-3.352c-.71 0-1.288.586-1.288 1.306 0 .72.578 1.306 1.288 1.306.71 0 1.288-.586 1.288-1.306 0-.72-.578-1.306-1.288-1.306z" fill="#2B587A"/><path d="M9.085 13.954a.601.601 0 01-.597.605.601.601 0 01-.597-.605c0-.334.267-.605.597-.605.33 0 .597.27.597.605z" fill="#2B587A"/><path d="M8.575 3.628c0 1.799-1.438 3.257-3.213 3.257-1.775 0-3.214-1.458-3.214-3.257 0-1.8 1.44-3.258 3.214-3.258 1.775 0 3.213 1.458 3.213 3.258z" fill="#fff"/><path d="M5.362 7.255c-1.974 0-3.579-1.628-3.579-3.628S3.388 0 5.362 0C7.335 0 8.94 1.627 8.94 3.627c0 2-1.605 3.628-3.578 3.628zm0-6.515c-1.57 0-2.849 1.295-2.849 2.887s1.278 2.888 2.849 2.888c1.57 0 2.848-1.296 2.848-2.888C8.21 2.035 6.932.74 5.362.74z" fill="#2B587A"/><path d="M4.66 5.13a.36.36 0 01-.215-.07.373.373 0 01-.08-.517l.745-1.037V2.008c0-.204.164-.37.365-.37.202 0 .365.166.365.37v1.62a.372.372 0 01-.07.217l-.815 1.133a.363.363 0 01-.295.153z" fill="#2B587A"/><path d="M18.62 8.125v2.59h2.456a.273.273 0 00.234-.407l-.852-1.512a1.31 1.31 0 00-1.14-.67h-.699z" fill="#fff"/><path d="M21.076 11.086H18.62a.368.368 0 01-.365-.37v-2.59c0-.205.163-.37.365-.37h.698c.601 0 1.16.328 1.457.856l.853 1.513a.643.643 0 01-.55.961zm-2.092-.74h1.926l-.77-1.367a.948.948 0 00-.823-.484h-.333v1.851zM7.303 8.866H2.556a.367.367 0 01-.365-.37c0-.205.164-.37.365-.37h4.747c.201 0 .365.165.365.37 0 .204-.164.37-.365.37zM5.476 10.346H.366A.368.368 0 010 9.976c0-.205.163-.37.365-.37h5.111c.202 0 .365.165.365.37 0 .204-.163.37-.365.37z" fill="#2B587A"/></svg><svg fill="none" viewBox="0 0 26 26" id="card-libra" xmlns="http://www.w3.org/2000/svg"><rect opacity=".7" width="26" height="26" rx="3" fill="#fff"/><path d="M10.296 18.89L9.59 21h6.822l-.708-2.11h-5.407zM5 14.143a2.4 2.4 0 002.409 2.391 2.4 2.4 0 002.409-2.391H5zM16.183 14.143a2.4 2.4 0 002.408 2.391 2.4 2.4 0 002.41-2.391h-4.818z" fill="#A6A5A5"/><path d="M7.409 10.221l1.214 2.867h1.145L8.205 9.396h4.268v8.44h1.055v-8.44h4.267l-1.563 3.692h1.146l1.213-2.867 1.214 2.867h1.146L18.94 8.34h-5.413V6.968a1.054 1.054 0 10-1.055 0v1.373H7.059l-2.01 4.747h1.146L7.41 10.22z" fill="#A6A5A5"/></svg><svg version="1.0" id="card-like" x="0" y="0" viewBox="0 0 26 26" xml:space="preserve" xmlns="http://www.w3.org/2000/svg"><style>.amst0{opacity:.7;fill:#fff;enable-background:new}.amst1{fill:none;stroke:#fa7272;stroke-width:2}</style><path class="amst0" d="M3 0h20c1.7 0 3 1.3 3 3v20c0 1.7-1.3 3-3 3H3c-1.7 0-3-1.3-3-3V3c0-1.7 1.3-3 3-3z"/><path class="amst1" d="M20.6 12.2c-.2.5-.5 1.1-.9 1.7m0-6.6c-1.4-1.4-3.9-1.7-5.6-.6-.3.2-.8.6-1.1.8-.3-.2-.8-.7-1.1-.8-1.7-1.1-4.1-.8-5.6.6-.4.4-.7.9-1 1.4m14.4-1.4c1.3 1.3 1.7 3.2 1 4.9M8.9 16.8c1.4 1.2 2.5 2.1 3.8 2.9l.3.2.3-.2c.1 0 1.9-1.2 3.8-2.9m-8.2 0c-1.1-1-2-2-2.6-3l2.6 3zm11.7-4.6l-.9 1.7m0-.1c-.6.9-1.5 1.9-2.6 3l2.6-3zM5.4 12.2c-.5-1.2-.5-2.3 0-3.5m.9 5.1c-.4-.6-.7-1.2-.9-1.7l.9 1.7z"/></svg><svg fill="none" viewBox="0 0 26 26" id="card-scale" xmlns="http://www.w3.org/2000/svg"><rect width="26" height="26" rx="3" fill="#fff"/><path d="M14.056 11.256h-1.54v-1.54a.636.636 0 00-.638-.638.636.636 0 00-.637.638v1.54H9.7a.636.636 0 00-.637.638c0 .353.284.637.637.637h1.54v1.54c0 .354.285.638.638.638a.636.636 0 00.638-.637v-1.54h1.54a.638.638 0 000-1.275z" fill="#A6A5A5"/><path d="M11.881 17.147a5.253 5.253 0 110-10.506 5.253 5.253 0 110 10.506zm8.588 2.437l-3.54-3.54a6.537 6.537 0 10-5.047 2.387 6.502 6.502 0 004.146-1.484l3.54 3.54c.163.166.66.247.904 0a.64.64 0 00-.003-.903z" fill="#A6A5A5"/></svg><svg fill="none" viewBox="0 0 20 20" id="catalog-btn" xmlns="http://www.w3.org/2000/svg"><g clip-path="url(#aoclip0)" fill="#2B587A"><path d="M7.708 8.333H3.125a.625.625 0 010-1.25h4.583a.625.625 0 010 1.25zM7.708 10.833H3.125a.625.625 0 010-1.25h4.583a.625.625 0 010 1.25zM7.708 13.333H3.125a.625.625 0 010-1.25h4.583a.625.625 0 010 1.25zM7.708 15.833H3.125a.625.625 0 010-1.25h4.583a.625.625 0 010 1.25z"/><path d="M17.708 19.167H2.292A2.294 2.294 0 010 16.875V3.125A2.294 2.294 0 012.292.833h15.416A2.294 2.294 0 0120 3.125v13.75a2.294 2.294 0 01-2.292 2.292zM2.292 2.083c-.574 0-1.042.468-1.042 1.042v13.75c0 .574.468 1.042 1.042 1.042h15.416c.575 0 1.042-.468 1.042-1.042V3.125c0-.574-.468-1.042-1.042-1.042H2.292z"/><path d="M19.375 5H.625a.625.625 0 010-1.25h18.75a.625.625 0 010 1.25zM10.625 15.125a.625.625 0 01-.442-1.068l1.284-1.283a1.464 1.464 0 012.066 0c.046.047.181.15.313-.015l.433-.542c.548-.699 1.723-.704 2.28.005l.803 1.004a.624.624 0 11-.975.781L15.58 13c-.112-.142-.218-.136-.32-.005l-.438.547c-.518.647-1.585.704-2.171.118a.216.216 0 00-.3 0l-1.284 1.284a.623.623 0 01-.441.182z"/><path d="M16.042 16.667h-4.584A1.46 1.46 0 0110 15.208V8.125a1.46 1.46 0 011.458-1.458h4.584A1.46 1.46 0 0117.5 8.125v7.083a1.46 1.46 0 01-1.458 1.459zm-4.584-8.75a.208.208 0 00-.208.208v7.083c0 .115.093.209.208.209h4.584a.208.208 0 00.208-.209V8.125a.208.208 0 00-.208-.208h-4.584z"/></g><defs><clipPath id="aoclip0"><path fill="#fff" d="M0 0h20v20H0z"/></clipPath></defs></svg><svg fill="none" viewBox="0 0 10 10" id="checkbox" xmlns="http://www.w3.org/2000/svg"><g clip-path="url(#apclip0)"><path d="M9.707 3.07L4.432 8.345c-.391.391-1.025.391-1.416 0L.293 5.622a1 1 0 011.415-1.416l2.016 2.016 4.568-4.567A1 1 0 019.707 3.07z" fill="#fff"/></g><defs><clipPath id="apclip0"><path fill="#fff" d="M0 0h10v10H0z"/></clipPath></defs></svg><svg fill="none" viewBox="0 0 26 26" id="compare-gray" xmlns="http://www.w3.org/2000/svg"><g clip-path="url(#aqclip0)"><g clip-path="url(#aqclip1)" fill="#A6A5A5"><path d="M8.844 22.062l-1.088 3.246H18.25l-1.088-3.246H8.844zM.695 14.758c0 2.032 1.66 3.68 3.706 3.68 2.047 0 3.706-1.648 3.706-3.68H.695zM17.898 14.758c0 2.032 1.66 3.68 3.706 3.68 2.047 0 3.706-1.648 3.706-3.68h-7.412z"/><path d="M4.401 8.725l1.867 4.41H8.03l-2.404-5.68h6.565v12.984h1.623V7.455h6.566l-2.405 5.68h1.763l1.867-4.41 1.867 4.41h1.762l-3.092-7.303h-8.328V3.72a1.622 1.622 0 00-.811-3.029 1.623 1.623 0 00-.812 3.029v2.11H3.863L.771 13.136h1.763L4.4 8.725z"/></g></g><defs><clipPath id="aqclip0"><path fill="#fff" transform="translate(.695 .692)" d="M0 0h24.615v24.615H0z"/></clipPath><clipPath id="aqclip1"><path fill="#fff" transform="translate(.695 .692)" d="M0 0h24.615v24.615H0z"/></clipPath></defs></svg><svg fill="none" viewBox="0 0 16 16" id="cur-blue" xmlns="http://www.w3.org/2000/svg"><g clip-path="url(#arclip0)" fill="#2B587A"><path d="M15.863 13.211l-2.703-2.703 1.326-1.326a.469.469 0 00-.184-.776L6.347 5.754a.469.469 0 00-.592.593l2.651 7.955a.469.469 0 00.776.183l1.326-1.326 2.704 2.704a.467.467 0 00.662 0l1.99-1.989a.469.469 0 000-.663zm-2.32 1.657l-2.703-2.703a.469.469 0 00-.663 0l-1.121 1.121L6.94 6.94l6.346 2.115-1.12 1.121a.469.469 0 000 .663l2.703 2.704-1.326 1.325zM6.094 3.75c.259 0 .468-.21.468-.469V.47a.469.469 0 00-.937 0V3.28c0 .26.21.469.469.469zM2.45 1.785a.469.469 0 10-.663.663l1.988 1.988a.469.469 0 10.663-.663L2.45 1.785zM3.775 7.751L1.787 9.74a.469.469 0 10.663.663l1.988-1.989a.469.469 0 10-.663-.663zM8.413 4.436l1.989-1.988a.469.469 0 10-.663-.663L7.75 3.773a.469.469 0 10.663.663zM3.75 6.094a.469.469 0 00-.469-.469H.47a.469.469 0 000 .938H3.28c.26 0 .469-.21.469-.47z"/></g><defs><clipPath id="arclip0"><path fill="#fff" d="M0 0h16v16H0z"/></clipPath></defs></svg><svg fill="none" viewBox="0 0 50 50" id="drop-menu-what" xmlns="http://www.w3.org/2000/svg"><rect width="50" height="50" rx="10" fill="#FFECEF"/><path d="M30.273 28.691a.586.586 0 00-.585.586v4.043a2.933 2.933 0 01-2.93 2.93h-6.326a.586.586 0 00-.586.586L19.845 38l-1.399-1.399a.586.586 0 00-.537-.352h-3.807a2.933 2.933 0 01-2.93-2.93v-9.023a2.933 2.933 0 012.93-2.93h5.918a.586.586 0 100-1.172h-5.918A4.106 4.106 0 0010 24.297v9.023a4.106 4.106 0 004.102 4.102h3.507l2.406 2.406a.586.586 0 001-.414l.002-1.992h5.74a4.106 4.106 0 004.102-4.102v-4.043a.586.586 0 00-.586-.586z" fill="#FF6C81"/><path d="M31.484 10H30c-4.696 0-8.517 3.82-8.517 8.516s3.82 8.517 8.517 8.517h1.483c.733 0 1.458-.093 2.161-.277l2.19 2.189a.586.586 0 001-.414v-3.39a8.598 8.598 0 002.24-2.76A8.425 8.425 0 0040 18.516C40 13.82 36.18 10 31.484 10zm4.413 14.387a.586.586 0 00-.233.468v2.262l-1.434-1.434a.586.586 0 00-.586-.145 7.347 7.347 0 01-2.16.323H30c-4.05 0-7.345-3.295-7.345-7.345s3.295-7.344 7.345-7.344h1.483c4.05 0 7.344 3.295 7.344 7.344a7.29 7.29 0 01-2.93 5.87z" fill="#FF6C81"/><path d="M33.381 16.412a2.486 2.486 0 00-2.3-2.3 2.461 2.461 0 00-1.867.66 2.49 2.49 0 00-.788 1.814.586.586 0 001.172 0c0-.366.147-.706.416-.957a1.31 1.31 0 111.18 2.234 1.109 1.109 0 00-.873 1.087v1.408a.586.586 0 001.171 0v-1.36a2.468 2.468 0 001.89-2.586zM31.32 22.261a.59.59 0 00-.414-.171.59.59 0 00-.586.585.59.59 0 001 .415.592.592 0 00.172-.415.59.59 0 00-.172-.414zM26.113 28.164H13.75a.586.586 0 100 1.172h12.363a.586.586 0 100-1.172zM26.527 31.617a.59.59 0 00-.414-.172.59.59 0 00-.586.586.59.59 0 00.586.586.59.59 0 00.586-.586.59.59 0 00-.172-.414zM23.809 31.445H13.75a.586.586 0 100 1.172h10.059a.586.586 0 100-1.172zM22.305 24.883H13.75a.586.586 0 000 1.172h8.555a.586.586 0 100-1.172z" fill="#FF6C81"/></svg><svg fill="none" viewBox="0 0 16 16" id="email" xmlns="http://www.w3.org/2000/svg"><path d="M14.595 1.906H1.407c-.216 0-.419.053-.602.141L7.97 9.212 9.576 7.67l5.621-5.622a1.39 1.39 0 00-.602-.14zM15.858 2.71L10.569 8l5.29 5.29a1.39 1.39 0 00.141-.602V3.312a1.39 1.39 0 00-.14-.602zM.14 2.71a1.39 1.39 0 00-.14.602v9.375c0 .217.053.42.14.603L5.43 8 .14 2.71z" fill="#FA7272"/><path d="M9.905 8.663L8.3 10.206a.467.467 0 01-.662 0L6.093 8.663l-5.29 5.29c.183.088.386.14.602.14h13.188c.216 0 .419-.053.602-.14l-5.29-5.29z" fill="#FA7272"/></svg><svg fill="none" viewBox="0 0 30 30" id="facebook" xmlns="http://www.w3.org/2000/svg"><path d="M15 30c8.284 0 15-6.716 15-15 0-8.284-6.716-15-15-15C6.716 0 0 6.716 0 15c0 8.284 6.716 15 15 15z" fill="#3B5998"/><path d="M18.772 15.587h-2.677v9.806H12.04v-9.806h-1.929v-3.446h1.929v-2.23c0-1.595.758-4.092 4.091-4.092l3.004.013v3.345h-2.18c-.357 0-.86.179-.86.94v2.027h3.031l-.354 3.443z" fill="#fff"/></svg><svg fill="none" viewBox="0 0 18 18" id="filter-arrow" xmlns="http://www.w3.org/2000/svg"><path d="M14.625 18H3.375A3.375 3.375 0 010 14.625V3.375A3.375 3.375 0 013.375 0h11.25A3.375 3.375 0 0118 3.375v11.25A3.375 3.375 0 0114.625 18z" fill="#D2F1FF"/><path d="M8.593 5.602l2.336 2.751a.997.997 0 010 1.294l-2.336 2.75a1 1 0 11-1.523-1.293L8.856 9 7.07 6.897a1 1 0 011.523-1.295z" fill="#54A2C7"/></svg><svg fill="none" viewBox="0 0 30 30" id="google-plus" xmlns="http://www.w3.org/2000/svg"><g clip-path="url(#awclip0)"><path d="M15 29.999c8.284 0 15-6.716 15-15 0-8.284-6.716-15-15-15-8.284 0-15 6.716-15 15 0 8.284 6.716 15 15 15z" fill="#DC4E41"/><path d="M5.223 15.672c-.054 2.58 1.724 5.044 4.17 5.847 2.302.774 5.134.195 6.667-1.778 1.12-1.382 1.373-3.224 1.252-4.946-1.972-.018-3.945-.012-5.914-.009-.004.703 0 1.403.003 2.106 1.18.032 2.362.017 3.543.041-.298 1.022-.977 1.973-2.008 2.342-1.99.877-4.53-.27-5.156-2.357-.756-2 .482-4.412 2.525-4.993 1.267-.446 2.572.056 3.656.714a27.993 27.993 0 001.568-1.618c-1.232-1.03-2.815-1.662-4.441-1.523-3.193.038-5.987 2.985-5.865 6.174zM21.152 13.013c-.006.588-.012 1.179-.015 1.766-.59.006-1.178.009-1.766.012v1.76c.588.003 1.178.006 1.766.012.006.588.006 1.175.012 1.766.584 0 1.172-.003 1.76 0 .003-.591.006-1.178.012-1.77l1.765-.008v-1.76c-.587-.003-1.178-.006-1.765-.012-.003-.587-.01-1.178-.012-1.765h-1.757z" fill="#DC4E41"/><path d="M5.223 15.671c-.122-3.189 2.672-6.136 5.864-6.174 1.627-.14 3.21.493 4.441 1.523a28.062 28.062 0 01-1.567 1.618c-1.084-.658-2.39-1.16-3.656-.714-2.044.582-3.281 2.994-2.525 4.993.626 2.088 3.165 3.234 5.156 2.357 1.03-.37 1.71-1.32 2.008-2.342-1.181-.023-2.363-.009-3.544-.041-.003-.703-.006-1.403-.003-2.106 1.97-.003 3.942-.009 5.915.01.121 1.72-.133 3.563-1.252 4.945-1.533 1.973-4.364 2.552-6.668 1.778-2.445-.803-4.223-3.266-4.17-5.847zM21.152 13.013h1.757l.012 1.766c.587.006 1.178.009 1.765.012v1.76l-1.765.009c-.006.59-.01 1.178-.012 1.768-.588-.003-1.176 0-1.76 0-.006-.59-.006-1.178-.012-1.765-.588-.007-1.178-.01-1.766-.012v-1.76c.588-.003 1.176-.006 1.766-.012.003-.587.009-1.178.015-1.766z" fill="#fff"/></g><defs><clipPath id="awclip0"><path fill="#fff" d="M0 0h30v30H0z"/></clipPath></defs></svg><svg fill="none" viewBox="0 0 60 60" id="krovat" xmlns="http://www.w3.org/2000/svg"><path d="M59.787 39.805L55.895 20.78V5.415A5.41 5.41 0 0052.558.412 5.384 5.384 0 0050.488 0H9.432a5.407 5.407 0 00-5.4 5.4v15.585a.762.762 0 000 .117L.234 39.775A4.393 4.393 0 000 40.8v18.469A.731.731 0 00.732 60h7.317a.732.732 0 00.732-.732v-6.585H51.22v6.585a.731.731 0 00.731.732h7.316a.729.729 0 00.518-.215.726.726 0 00.215-.516V41.21v-.322-.04-.009-.01a4.37 4.37 0 00-.213-1.024zm-2.025-2.547a4.6 4.6 0 00-2.387-.672H30.5V32.75h26.338l.924 4.508zM56.53 31.25H30.5v-3.5h25.312l.718 3.5zm-1.025-5H30.5v-3.5h24.287l.718 3.5zm-25.005-5v-4.121h19.9a3.954 3.954 0 013.848 2.993l.231 1.128H30.5zM5.495 5.4a3.938 3.938 0 013.937-3.936h41.057A3.94 3.94 0 0154.424 5.4v12.03a5.432 5.432 0 00-4.009-1.764h-.556c.002-.003.003-.007.006-.01H33.691l.019.032h-7.369l.017-.032H9.271a5.406 5.406 0 00-1.936.491 5.427 5.427 0 00-1.84 1.414V5.4zM29 17.129v4.121H5.519l.225-1.099A3.968 3.968 0 019.6 17.128H29v.001zM5.212 22.75H29v3.5H4.495l.717-3.5zm-1.024 5H29v3.5H3.47l.718-3.5zm-1.025 5H29v3.836H4.625a4.59 4.59 0 00-2.385.672l.923-4.508zm4.154 25.787H1.463v-5.854h5.854v5.854zm51.22 0h-5.854v-5.854h5.854v5.854zm0-7.317H1.463V41.21a3.165 3.165 0 013.161-3.161h50.75a3.17 3.17 0 013.162 3.161v10.01h.001z" fill="#222"/></svg><svg fill="none" viewBox="0 0 34 30" id="like" xmlns="http://www.w3.org/2000/svg"><mask id="aya" fill="#fff"><path d="M33.177 6.148a10.076 10.076 0 00-2.239-3.21A10.42 10.42 0 0027.632.787 10.582 10.582 0 0023.602 0c-1.94 0-3.833.523-5.478 1.512-.394.236-.768.496-1.122.779a10.257 10.257 0 00-1.122-.78A10.632 10.632 0 0010.402 0C9.005 0 7.65.264 6.372.787a10.398 10.398 0 00-3.306 2.151 10.015 10.015 0 00-2.24 3.21A9.811 9.811 0 000 10.098c0 1.29.268 2.636.799 4.004.445 1.144 1.082 2.33 1.897 3.528 1.29 1.895 3.066 3.872 5.27 5.876 3.652 3.322 7.269 5.617 7.422 5.71l.933.59c.413.259.945.259 1.358 0l.933-.59c.153-.097 3.766-2.388 7.422-5.71 2.204-2.004 3.98-3.98 5.27-5.876.815-1.198 1.456-2.384 1.897-3.528.531-1.368.799-2.713.799-4.004a9.742 9.742 0 00-.823-3.95z"/></mask><path d="M30.938 2.938l-1.39 1.44h.003l1.387-1.44zM27.632.787l-.757 1.851.002.001.755-1.852zM23.602 0v2h.005l-.005-2zm-5.478 1.512l1.03 1.714-1.03-1.714zm-1.122.779l-1.248 1.563 1.248.997 1.248-.997-1.248-1.563zm-1.122-.78l-1.03 1.715 1.03-1.714zM6.372.788l.755 1.852.002-.001L6.372.787zM3.066 2.938L4.452 4.38l.002-.002-1.388-1.44zm-2.24 3.21l-1.832-.801 1.832.8zM.8 14.102l-1.864.724v.001l1.864-.725zm1.897 3.528l-1.654 1.124v.001l1.654-1.125zm5.27 5.876l1.345-1.48-1.345 1.48zm7.422 5.71l1.068-1.69-.015-.01-.016-.01-1.037 1.71zm.933.59l-1.068 1.69.004.003 1.064-1.694zm1.358 0l1.064 1.693.004-.003-1.068-1.69zm.933-.59l-1.068-1.691 1.068 1.691zm7.422-5.71l1.345 1.48-1.345-1.48zm5.27-5.876l1.653 1.125-1.653-1.125zm1.897-3.528l-1.864-.724-.002.005 1.866.72zM34 10.098l-2-.006v.006h2zm1.01-4.753a12.077 12.077 0 00-2.684-3.847l-2.776 2.88a8.077 8.077 0 011.796 2.573l3.663-1.606zm-2.683-3.846a12.42 12.42 0 00-3.94-2.564l-1.51 3.704a8.42 8.42 0 012.672 1.738L32.327 1.5zM28.39-1.064A12.582 12.582 0 0023.598-2l.009 4a8.582 8.582 0 013.268.638l1.514-3.702zM23.602-2c-2.3 0-4.55.62-6.509 1.797l2.06 3.43A8.632 8.632 0 0123.603 2v-4zM17.094-.203c-.47.282-.916.592-1.34.931l2.496 3.126c.284-.227.585-.436.904-.628l-2.06-3.429zm1.156.931c-.424-.339-.871-.649-1.34-.93l-2.06 3.428c.319.192.62.4.904.628L18.25.728zm-1.34-.93A12.632 12.632 0 0010.402-2v4c1.58 0 3.117.426 4.448 1.226l2.06-3.429zM10.402-2c-1.653 0-3.264.313-4.788.936L7.13 2.638A8.582 8.582 0 0110.402 2v-4zm-4.785.935c-1.47.6-2.8 1.464-3.94 2.564l2.777 2.879a8.398 8.398 0 012.673-1.74l-1.51-3.703zM1.68 1.496a12.015 12.015 0 00-2.686 3.851l3.665 1.602A8.015 8.015 0 014.452 4.38L1.68 1.496zm-2.686 3.851A11.811 11.811 0 00-2 10.097h4c0-1.09.222-2.148.66-3.148l-3.666-1.602zM-2 10.097c0 1.57.325 3.16.935 4.73l3.728-1.449C2.21 12.21 2 11.111 2 10.098h-4zm.935 4.73c.508 1.307 1.222 2.626 2.107 3.927l3.308-2.25c-.745-1.093-1.306-2.146-1.687-3.127l-3.728 1.45zm2.108 3.928c1.401 2.058 3.29 4.152 5.577 6.23l2.691-2.959C7.19 20.097 5.53 18.237 4.35 16.504l-3.306 2.251zm5.577 6.23c3.774 3.433 7.503 5.803 7.732 5.941l2.073-3.42s-.224-.14-.634-.415c-.4-.268-.96-.654-1.628-1.138a57.434 57.434 0 01-4.852-3.926L6.62 24.986zm7.7 5.922l.933.59 2.136-3.383-.933-.589-2.136 3.382zm.937.592a3.28 3.28 0 003.486 0l-2.128-3.387a.72.72 0 01.77 0l-2.128 3.387zm3.49-.003l.933-.59-2.136-3.38-.933.588 2.136 3.382zm.932-.589c.193-.122 3.918-2.484 7.7-5.92l-2.69-2.961c-3.53 3.208-7.03 5.427-7.145 5.499l2.135 3.382zm7.7-5.921c2.287-2.08 4.177-4.173 5.578-6.23l-3.306-2.252c-1.18 1.733-2.84 3.593-4.962 5.522l2.69 2.96zm5.579-6.232c.883-1.297 1.603-2.619 2.11-3.933l-3.733-1.438c-.375.973-.938 2.024-1.685 3.122l3.308 2.25zm2.107-3.928c.61-1.569.935-3.16.935-4.728h-4c0 1.013-.21 2.112-.663 3.28l3.728 1.448zM36 10.104a11.743 11.743 0 00-.99-4.757L31.345 6.95c.437 1 .658 2.056.655 3.143l4 .012z" fill="#222" mask="url(#aya)"/></svg><svg fill="none" viewBox="0 0 168 74" id="logo" xmlns="http://www.w3.org/2000/svg"><g clip-path="url(#azclip0)"><path d="M23.907 48.01c-1.442-3.374-2.056-8.61-.69-14.627.085 8.049.419 12.429 4.978 19.258-1.716-3.581-3.006-8.828.006-14.048 2.631-4.557 5.252-7.723 7.103-10.351-1.28.609-2.832.789-4.688.044 0 0 1 .202 2.554-.268a6.365 6.365 0 002.573-10.679l-.006-.005c-5.587-5.358-19.037.663-20.689 16.11-.844 9.345 4.781 16.016 9.613 19.867 3.708 6.108 10.003 10.155 18.189 9.95-2.153-.458-13.397-2.262-18.943-15.25z" fill="#54A2C7"/></g><path d="M52.92 51.568V58h-.948v-4.104c0-.168.004-.344.012-.528l.048-.54h-.036L49.896 58h-.888l-2.04-5.172h-.036c.024.36.036.728.036 1.104V58h-.948v-6.432h1.404l2.028 5.172 2.064-5.172h1.404zm4.85-.108c.783 0 1.363.172 1.74.516.375.344.563.892.563 1.644V58h-.768l-.204-.912h-.048c-.28.352-.576.612-.888.78-.304.168-.728.252-1.272.252-.584 0-1.068-.152-1.452-.456-.384-.312-.576-.796-.576-1.452 0-.64.252-1.132.756-1.476.504-.352 1.28-.544 2.328-.576l1.092-.036v-.384c0-.536-.116-.908-.348-1.116-.232-.208-.56-.312-.984-.312-.336 0-.656.052-.96.156a6.297 6.297 0 00-.852.336l-.324-.792c.28-.152.612-.28.996-.384a4.264 4.264 0 011.2-.168zm.311 3.432c-.8.032-1.356.16-1.668.384-.304.224-.456.54-.456.948 0 .36.108.624.324.792.224.168.508.252.852.252.544 0 .996-.148 1.356-.444.36-.304.54-.768.54-1.392v-.576l-.948.036zm8.779-2.436h-2.1V58h-1.044v-5.544H61.64v-.888h5.22v.888zm4.687-1.008c.792 0 1.428.276 1.908.828.488.552.732 1.384.732 2.496 0 1.096-.244 1.928-.732 2.496-.48.568-1.12.852-1.92.852-.496 0-.908-.092-1.236-.276a2.57 2.57 0 01-.756-.66h-.072c.016.136.032.308.048.516.016.208.024.388.024.54v2.64h-1.056v-9.312h.864l.144.876h.048c.192-.28.444-.516.756-.708.312-.192.728-.288 1.248-.288zm-.192.888c-.656 0-1.12.184-1.392.552-.264.368-.404.928-.42 1.68v.204c0 .792.128 1.404.384 1.836.264.424.748.636 1.452.636.392 0 .712-.108.96-.324.256-.216.444-.508.564-.876.128-.376.192-.804.192-1.284 0-.736-.144-1.324-.432-1.764-.28-.44-.716-.66-1.308-.66zm7.31-.876c.784 0 1.364.172 1.74.516.376.344.564.892.564 1.644V58h-.767l-.204-.912h-.049c-.28.352-.575.612-.888.78-.304.168-.728.252-1.272.252-.584 0-1.067-.152-1.451-.456-.384-.312-.576-.796-.576-1.452 0-.64.251-1.132.755-1.476.505-.352 1.28-.544 2.329-.576l1.091-.036v-.384c0-.536-.115-.908-.347-1.116-.233-.208-.56-.312-.984-.312-.337 0-.656.052-.96.156a6.297 6.297 0 00-.853.336l-.324-.792c.28-.152.613-.28.997-.384a4.264 4.264 0 011.2-.168zm.313 3.432c-.8.032-1.356.16-1.668.384-.305.224-.457.54-.457.948 0 .36.109.624.325.792.224.168.508.252.852.252.543 0 .995-.148 1.355-.444.36-.304.54-.768.54-1.392v-.576l-.947.036zm6.918 3.228a3.265 3.265 0 01-1.524-.348c-.44-.232-.788-.592-1.044-1.08-.248-.488-.372-1.112-.372-1.872 0-.792.132-1.436.396-1.932s.62-.86 1.068-1.092a3.365 3.365 0 011.548-.348 4.1 4.1 0 01.948.108c.304.064.552.144.744.24l-.324.876a6.244 6.244 0 00-.672-.204 2.976 2.976 0 00-.72-.096c-1.264 0-1.896.812-1.896 2.436 0 .776.152 1.372.456 1.788.312.408.772.612 1.38.612.352 0 .66-.036.924-.108a4.5 4.5 0 00.744-.264v.936a2.834 2.834 0 01-.72.252 3.917 3.917 0 01-.936.096zm3.546-.12v-6.432h1.056v2.64h1.668c.832 0 1.448.152 1.848.456.4.304.6.76.6 1.368 0 .6-.196 1.08-.588 1.44-.392.352-1.028.528-1.908.528h-2.676zm6.24 0v-6.432h1.056V58h-1.056zm-3.66-.852c.456 0 .828-.076 1.116-.228.288-.16.432-.436.432-.828 0-.392-.132-.656-.396-.792-.264-.144-.644-.216-1.14-.216h-1.536v2.064h1.524zm11.604-1.656a13.907 13.907 0 01-.048 1.008c-.008.192-.016.344-.024.456l3.444-5.388h1.296V58h-.984v-3.792-.504l.024-.612c.008-.208.016-.364.024-.468L103.938 58h-1.308v-6.432h.996v3.924zm14.368-3.924h1.152l-2.748 3.096L119.374 58h-1.224l-2.904-3.264V58h-1.056v-6.432h1.056v3.12l2.748-3.12zm5.968-.12c.792 0 1.428.276 1.908.828.488.552.732 1.384.732 2.496 0 1.096-.244 1.928-.732 2.496-.48.568-1.12.852-1.92.852-.496 0-.908-.092-1.236-.276a2.57 2.57 0 01-.756-.66h-.072c.016.136.032.308.048.516.016.208.024.388.024.54v2.64h-1.056v-9.312h.864l.144.876h.048c.192-.28.444-.516.756-.708.312-.192.728-.288 1.248-.288zm-.192.888c-.656 0-1.12.184-1.392.552-.264.368-.404.928-.42 1.68v.204c0 .792.128 1.404.384 1.836.264.424.748.636 1.452.636.392 0 .712-.108.96-.324.256-.216.444-.508.564-.876.128-.376.192-.804.192-1.284 0-.736-.144-1.324-.432-1.764-.28-.44-.716-.66-1.308-.66zm10.467 2.436c0 1.064-.272 1.888-.816 2.472-.536.584-1.264.876-2.184.876a3.017 3.017 0 01-1.524-.384 2.778 2.778 0 01-1.044-1.14c-.256-.504-.384-1.112-.384-1.824 0-1.064.268-1.884.804-2.46.536-.576 1.264-.864 2.184-.864.584 0 1.096.132 1.536.396.448.256.796.632 1.044 1.128.256.488.384 1.088.384 1.8zm-4.86 0c0 .76.148 1.364.444 1.812.304.44.784.66 1.44.66.648 0 1.124-.22 1.428-.66.304-.448.456-1.052.456-1.812s-.152-1.356-.456-1.788c-.304-.432-.784-.648-1.44-.648-.656 0-1.132.216-1.428.648-.296.432-.444 1.028-.444 1.788zm12.065-1.584c0 .4-.12.712-.36.936-.24.224-.548.376-.924.456v.048c.4.056.748.2 1.044.432.296.224.444.576.444 1.056 0 .544-.204.996-.612 1.356-.4.352-1.064.528-1.992.528h-2.772v-6.432h2.76c.456 0 .864.052 1.224.156.368.096.656.264.864.504.216.232.324.552.324.96zm-1.068.132c0-.304-.112-.524-.336-.66-.216-.144-.572-.216-1.068-.216h-1.644v1.764h1.452c1.064 0 1.596-.296 1.596-.888zm.18 2.796c0-.368-.14-.632-.42-.792-.28-.16-.692-.24-1.236-.24h-1.572v2.064h1.596c.528 0 .932-.076 1.212-.228.28-.16.42-.428.42-.804zm5.426-4.656c.784 0 1.364.172 1.74.516.376.344.564.892.564 1.644V58h-.768l-.204-.912h-.048c-.28.352-.576.612-.888.78-.304.168-.728.252-1.272.252-.584 0-1.068-.152-1.452-.456-.384-.312-.576-.796-.576-1.452 0-.64.252-1.132.756-1.476.504-.352 1.28-.544 2.328-.576l1.092-.036v-.384c0-.536-.116-.908-.348-1.116-.232-.208-.56-.312-.984-.312-.336 0-.656.052-.96.156a6.297 6.297 0 00-.852.336l-.324-.792c.28-.152.612-.28.996-.384a4.264 4.264 0 011.2-.168zm.312 3.432c-.8.032-1.356.16-1.668.384-.304.224-.456.54-.456.948 0 .36.108.624.324.792.224.168.508.252.852.252.544 0 .996-.148 1.356-.444.36-.304.54-.768.54-1.392v-.576l-.948.036zm8.779-2.436h-2.1V58h-1.044v-5.544h-2.076v-.888h5.22v.888zm2.623 3.036a13.907 13.907 0 01-.048 1.008c-.008.192-.016.344-.024.456l3.444-5.388h1.296V58h-.984v-3.792-.504l.024-.612c.008-.208.016-.364.024-.468L158.006 58h-1.308v-6.432h.996v3.924z" fill="#9C9C9C"/><path d="M53.32 46.48c1.973 0 3.747-.427 5.32-1.28 1.573-.853 2.813-2.08 3.72-3.68.933-1.627 1.4-3.573 1.4-5.84V16.8h-3.68v12.44H60c-.667-1.227-1.653-2.213-2.96-2.96-1.307-.773-2.747-1.16-4.32-1.16-1.867 0-3.56.427-5.08 1.28-1.493.853-2.68 2.067-3.56 3.64-.853 1.547-1.28 3.387-1.28 5.52 0 2.24.44 4.187 1.32 5.84.907 1.627 2.147 2.88 3.72 3.76 1.6.88 3.427 1.32 5.48 1.32zm0-3.16c-1.253 0-2.4-.307-3.44-.92-1.013-.613-1.827-1.48-2.44-2.6s-.92-2.453-.92-4c0-1.493.293-2.8.88-3.92.613-1.12 1.427-2 2.44-2.64a6.436 6.436 0 013.44-.96c1.253 0 2.387.307 3.4.92 1.04.613 1.853 1.493 2.44 2.64.613 1.12.92 2.453.92 4 0 1.52-.307 2.84-.92 3.96-.587 1.12-1.387 1.987-2.4 2.6s-2.147.92-3.4.92zM69.347 46V31.4c0-1.813.507-3.227 1.52-4.24 1.04-1.04 2.466-1.56 4.28-1.56h4.2v3.16h-3.52c-.907 0-1.6.267-2.08.8-.48.507-.72 1.2-.72 2.08V46h-3.68zm23.761 0c-2.267 0-4.267-.413-6-1.24-1.707-.853-3.053-2.04-4.04-3.56-.96-1.547-1.44-3.347-1.44-5.4 0-2.027.413-3.84 1.24-5.44.827-1.627 1.974-2.907 3.44-3.84 1.467-.933 3.173-1.4 5.12-1.4 2.107 0 3.853.453 5.24 1.36a8.322 8.322 0 013.16 3.68c.693 1.52 1.04 3.227 1.04 5.12 0 .64-.04 1.227-.12 1.76h-15.2c.133 1.253.547 2.32 1.24 3.2.694.853 1.574 1.507 2.64 1.96 1.094.427 2.294.64 3.6.64h5.32V46h-5.24zm-7.6-11.56h11.64c0-.88-.173-1.8-.52-2.76a5.483 5.483 0 00-1.76-2.44c-.826-.693-1.973-1.04-3.44-1.04-1.227 0-2.28.32-3.16.96a6.363 6.363 0 00-2 2.36 7.53 7.53 0 00-.76 2.92zM105.561 46V33.72c0-1.573.36-3 1.08-4.28.72-1.307 1.76-2.347 3.12-3.12 1.36-.8 3-1.2 4.92-1.2 1.386 0 2.76.307 4.12.92 1.386.587 2.453 1.64 3.2 3.16h.04c.773-1.52 1.853-2.573 3.24-3.16 1.386-.613 2.786-.92 4.2-.92 1.893 0 3.52.4 4.88 1.2 1.36.773 2.4 1.813 3.12 3.12.72 1.28 1.08 2.707 1.08 4.28V46h-3.68V33.72c0-1.013-.24-1.933-.72-2.76a5.32 5.32 0 00-1.96-1.96c-.8-.48-1.72-.72-2.76-.72a5.382 5.382 0 00-2.8.76 5.524 5.524 0 00-2.04 1.96 5.32 5.32 0 00-.72 2.72V46h-3.68V33.72c0-.987-.254-1.893-.76-2.72a5.234 5.234 0 00-2-1.96c-.827-.507-1.76-.76-2.8-.76-1.014 0-1.934.24-2.76.72-.8.48-1.44 1.133-1.92 1.96s-.72 1.747-.72 2.76V46h-3.68zm47.308.48c-2 0-3.72-.467-5.16-1.4-1.414-.96-2.507-2.24-3.28-3.84-.774-1.627-1.16-3.44-1.16-5.44 0-2 .426-3.8 1.28-5.4a9.444 9.444 0 013.68-3.84c1.6-.96 3.52-1.44 5.76-1.44 2.133 0 3.973.467 5.52 1.4 1.573.933 2.773 2.2 3.6 3.8.853 1.6 1.28 3.387 1.28 5.36V46h-3.72v-4.16h-.08c-.4.747-.947 1.48-1.64 2.2-.694.72-1.547 1.307-2.56 1.76-.987.453-2.16.68-3.52.68zm.96-3.16c1.333 0 2.506-.333 3.52-1 1.04-.667 1.84-1.573 2.4-2.72.586-1.147.88-2.44.88-3.88 0-1.413-.28-2.68-.84-3.8-.534-1.12-1.307-2-2.32-2.64-1.014-.667-2.2-1-3.56-1-1.44 0-2.68.333-3.72 1-1.014.667-1.8 1.573-2.36 2.72-.534 1.147-.8 2.427-.8 3.84 0 1.387.266 2.653.8 3.8a6.466 6.466 0 002.32 2.68c1.013.667 2.24 1 3.68 1z" fill="#2B587A"/><circle cx="87.5" cy="20.5" r="2.5" fill="#2B587A"/><circle cx="95.5" cy="20.5" r="2.5" fill="#2B587A"/><defs><clipPath id="azclip0"><path fill="#fff" transform="rotate(52.349 12.014 41.875)" d="M0 0h47.781v47.781H0z"/></clipPath></defs></svg><svg fill="none" viewBox="0 0 20 20" id="look1" xmlns="http://www.w3.org/2000/svg"><g clip-path="url(#baclip0)" fill="#686868"><path d="M10 19.167a8.28 8.28 0 01-7.07-3.921.37.37 0 01-.025-.034 8.646 8.646 0 01-.535-1.016 8.359 8.359 0 01-.703-3.363c-.013-.052-.417-2.76-.417-4.166 0-4.023 3.576-4.515 4.41-4.575C6.108 1.694 7.72.417 10 .417c3.633 0 8.75 1.939 8.75 6.25 0 1.38-.404 4.112-.42 4.227a8.29 8.29 0 01-.697 3.304c-.185.41-.389.784-.608 1.121a.388.388 0 01-.055.068c-1.483 2.343-4.107 3.78-6.97 3.78zm-6.403-4.42c.009.011.017.022.024.034A7.452 7.452 0 0010 18.333a7.446 7.446 0 006.315-3.456.421.421 0 01.057-.071c.15-.243.333-.58.499-.945.417-.963.629-1.985.629-3.028.008-.088.417-2.846.417-4.166 0-3.736-4.63-5.417-7.917-5.417-2.3 0-3.857 1.53-3.872 1.545a.423.423 0 01-.294.122c-.153 0-3.75.058-3.75 3.75 0 1.345.408 4.077.412 4.105a7.665 7.665 0 00.636 3.086c.148.33.301.623.465.889z"/><path d="M17.74 12.916a.417.417 0 01-.4-.301l-.988-3.45c-6.028-.05-8.47-1.552-9.441-2.601-.63 1.617-2.555 2.322-3.242 2.526l-1.008 3.524a.417.417 0 01-.8-.23l1.072-3.75a.415.415 0 01.305-.29c.031-.007 3.041-.742 3.041-2.878 0-.211.158-.389.367-.414.21-.03.404.11.455.315.006.022.948 2.966 9.566 2.966.185 0 .349.123.4.302l1.073 3.75a.416.416 0 01-.4.531z"/><path d="M17.9 13.333c-.096 0-.194-.009-.29-.017a.417.417 0 01-.375-.456.423.423 0 01.455-.374c.07.007.14.014.21.014a1.251 1.251 0 00.151-2.495.416.416 0 01-.364-.463.415.415 0 01.463-.364 2.086 2.086 0 01-.25 4.155zM2.083 13.333A2.086 2.086 0 010 11.25c0-1.065.797-1.957 1.854-2.073a.417.417 0 01.092.829A1.264 1.264 0 00.833 11.25c0 .69.561 1.25 1.25 1.25.067 0 .13-.006.183-.017.224-.051.446.1.491.324a.416.416 0 01-.324.492 1.731 1.731 0 01-.35.034zM6.667 12.5c-.69 0-1.25-.56-1.25-1.25S5.977 10 6.667 10s1.25.56 1.25 1.25-.56 1.25-1.25 1.25zm0-1.667a.417.417 0 10.001.835.417.417 0 00-.001-.835zM13.333 12.5c-.69 0-1.25-.56-1.25-1.25s.56-1.25 1.25-1.25 1.25.56 1.25 1.25-.56 1.25-1.25 1.25zm0-1.667a.417.417 0 10.001.835.417.417 0 00-.001-.835zM10 15.852a3.324 3.324 0 01-2.358-.975.417.417 0 01.59-.589c.975.975 2.56.975 3.535 0a.417.417 0 01.59.59c-.65.65-1.504.974-2.357.974z"/></g><defs><clipPath id="baclip0"><path fill="#fff" d="M0 0h20v20H0z"/></clipPath></defs></svg><svg fill="none" viewBox="0 0 20 20" id="look2" xmlns="http://www.w3.org/2000/svg"><path d="M17.703 16.776H2.297a.353.353 0 01-.353-.353v-3.77a2.566 2.566 0 01.035-4.986 4.691 4.691 0 014.68-4.443h6.443a4.692 4.692 0 014.677 4.399A2.57 2.57 0 0120 10.165a2.567 2.567 0 01-1.944 2.489v3.769a.353.353 0 01-.353.353zm-2.128-.706h1.775v-3.71c0-.178.133-.329.31-.35a1.86 1.86 0 10-2.085-1.845v5.905zm-10.443 0h9.736v-3.303H5.132v3.303zm-2.482 0h1.775v-5.904a1.862 1.862 0 00-2.073-1.848 1.86 1.86 0 00-.012 3.692c.177.021.31.172.31.35v3.71zm2.482-4.01h9.736v-.17a.956.956 0 00-.954-.955H6.086a.956.956 0 00-.954.954v.172zm.954-1.832h7.828c.355 0 .684.113.954.303v-.365a2.57 2.57 0 012.203-2.54 3.985 3.985 0 00-3.97-3.696H6.66A3.985 3.985 0 002.69 7.603a2.569 2.569 0 012.44 2.563v.365c.27-.19.6-.303.955-.303z" fill="#686868"/></svg><svg fill="none" viewBox="0 0 20 20" id="look3" xmlns="http://www.w3.org/2000/svg"><g clip-path="url(#bcclip0)" fill="#686868"><path d="M18.495 11.875A1.274 1.274 0 0020 10.625c0-.34-.132-.659-.372-.898l-2.11-2.105v-4.52c.364-.153.62-.512.62-.93V1.67c0-.557-.453-1.01-1.01-1.01H14.82c-.557 0-1.01.453-1.01 1.01v.501c0 .419.255.778.62.931v1.439L10.275.396a.39.39 0 00-.552 0L.372 9.726c-.24.24-.372.56-.372.9a1.27 1.27 0 001.506 1.249v5.293h-.254a.73.73 0 00-.731.73v1.092a.73.73 0 00.73.728h6.995a.39.39 0 100-.78H1.302v-.988h17.396v.987h-6.944a.39.39 0 000 .781h6.996a.73.73 0 00.729-.728v-1.093a.73.73 0 00-.73-.729h-.254v-5.293zm-15.65-1.02h3.747v1.005H2.288v-.45l.557-.555zm5.304-5.292h3.703l.99.988h-2.01a1.518 1.518 0 00-1.664 0h-2.01l.99-.988zm.783-.782L10 3.715l1.069 1.066H8.932zm.324 3.046a.744.744 0 011.488 0 .744.744 0 01-1.488 0zm2.187-.494h2.183l.99.987h-3.173a1.512 1.512 0 000-.987zm-5.068 0h2.182a1.513 1.513 0 000 .987H5.385l.99-.987zM4.602 9.1h4.564a1.518 1.518 0 001.668 0h4.565l.974.972H3.628l.974-.972zm8.806 3.54h4.305v.988h-4.305v-.988zm0-.781v-1.005h3.748l.557.556v.449h-4.305zm-6.816 1.769H2.288v-.988h4.304v.988zm-4.304.78h4.304v.99H2.288v-.99zm5.085-3.554H9.61v2.774h-.348a.39.39 0 100 .78h.348v2.76H7.373v-6.314zm3.018 3.555h.349a.39.39 0 100-.781h-.35v-2.774h2.237v6.313H10.39V14.41zm3.017 0h4.305v.989h-4.305v-.99zm1.184-12.74c0-.124.105-.228.229-.228h2.306c.125 0 .23.104.23.228v.501a.232.232 0 01-.23.228h-2.306a.232.232 0 01-.23-.228V1.67zm.62 1.51h1.525v3.662L15.212 5.32V3.18zM.924 10.973a.485.485 0 01-.143-.346c0-.131.05-.254.143-.346L10 1.224l9.076 9.056a.485.485 0 01.143.346c0 .131-.051.254-.143.346a.494.494 0 01-.696 0l-8.104-8.085a.39.39 0 00-.552 0l-8.103 8.085a.494.494 0 01-.697 0zm1.364 5.208h4.304v.988H2.288v-.988zm11.12.988v-.988h4.305v.988h-4.305z"/><path d="M10 18.937a.39.39 0 100 .781h.002a.392.392 0 00-.002-.781z"/></g><defs><clipPath id="bcclip0"><path fill="#fff" d="M0 0h20v20H0z"/></clipPath></defs></svg><svg fill="none" viewBox="0 0 20 20" id="look4" xmlns="http://www.w3.org/2000/svg"><g clip-path="url(#bdclip0)" fill="#686868"><path d="M7.952 13.477l2.762-8.286a.586.586 0 00-1.112-.371L6.84 13.107a.586.586 0 001.112.37zM12.09 10.906a1.76 1.76 0 001.759-1.758 1.76 1.76 0 00-1.758-1.757 1.76 1.76 0 00-1.758 1.757c0 .97.789 1.758 1.758 1.758zm0-2.344a.587.587 0 110 1.174.587.587 0 010-1.174zM5.462 7.39a1.76 1.76 0 00-1.758 1.758c0 .97.789 1.758 1.758 1.758A1.76 1.76 0 007.22 9.148a1.76 1.76 0 00-1.758-1.757zm0 2.344a.587.587 0 11.001-1.173.587.587 0 01-.001 1.173z"/><path d="M19.883 7.266L17.84 4.542l.08-.558a.586.586 0 00-.167-.498l-1.242-1.243L17.753 1a.586.586 0 00-.828-.828l-1.243 1.243L14.439.172a.587.587 0 00-.497-.166l-5.8.829A.586.586 0 007.81 1L.628 8.182a2.15 2.15 0 000 3.038l6.077 6.077c.124.124.26.23.404.317v.238A2.15 2.15 0 009.258 20h8.594A2.15 2.15 0 0020 17.852V7.617a.586.586 0 00-.117-.351zM1.457 10.392c-.38-.381-.38-1 0-1.381L8.5 1.967l5.318-.76 1.035 1.036-.828.83-.415-.415a.586.586 0 00-.828.828l1.657 1.658a.584.584 0 00.829 0 .586.586 0 000-.829l-.415-.414.829-.829 1.036 1.036-.76 5.317-7.043 7.043a.97.97 0 01-.69.287.97.97 0 01-.691-.287l-6.077-6.076zm17.371 7.46a.978.978 0 01-.976.976H9.258a.978.978 0 01-.974-.904 2.14 2.14 0 001.46-.627l7.18-7.181a.586.586 0 00.167-.332l.514-3.602 1.223 1.63v10.04z"/></g><defs><clipPath id="bdclip0"><path fill="#fff" d="M0 0h20v20H0z"/></clipPath></defs></svg><svg fill="none" viewBox="0 0 17 16" id="masseng" xmlns="http://www.w3.org/2000/svg"><path d="M15.855 2.666H5.902L5.257.637c-.152-.472-.677-.74-1.175-.6l-1.428.4a.963.963 0 00-.414.239L.63 2.26a.885.885 0 00-.241.433c-.164.72-.617 3.33.457 6.706 1.074 3.377 2.972 5.327 3.53 5.844a.965.965 0 00.452.236l2.27.498a.998.998 0 00.483-.014l.79-.222.637-.178a.929.929 0 00.566-.435.843.843 0 00.073-.678l-.356-1.117h6.563c.62 0 1.122-.478 1.122-1.067V3.733c0-.59-.502-1.067-1.122-1.067zM11.44 7.92l4.942-4.365a.5.5 0 01.035.178v8.533a.506.506 0 01-.031.168L11.439 7.92zm4.416-4.72c.032 0 .064.003.095.009L10.08 8.39a.582.582 0 01-.763 0L5.28 4.836l.297-.083a.932.932 0 00.565-.435.842.842 0 00.072-.678l-.14-.44h9.781zm-11.29 7.794A6.388 6.388 0 013.3 8.707a5.731 5.731 0 01-.142-3.257.05.05 0 01.034-.03l1.46-.409L7.945 7.91l-3.38 3.085zm4.515 3.88a.377.377 0 01-.23.176l-.372.105-.683-2.149a.275.275 0 00-.204-.187.29.29 0 00-.271.078.257.257 0 00-.061.263l.683 2.146-.518.145a.412.412 0 01-.2.006l-2.269-.498a.398.398 0 01-.186-.097c-.533-.495-2.352-2.362-3.385-5.617C.35 5.991.78 3.493.938 2.805a.36.36 0 01.098-.175l1.607-1.584A.394.394 0 012.811.95l.522-.147.683 2.149c.035.112.144.19.268.19a.282.282 0 00.081-.012.265.265 0 00.187-.332L3.872.652 4.24.549a.392.392 0 01.482.243l.954 3.002c.029.09.019.188-.029.27a.38.38 0 01-.23.177l-.371.104-.11-.347a.283.283 0 00-.348-.171.265.265 0 00-.19.325l.11.344-1.474.413a.597.597 0 00-.417.4 6.247 6.247 0 00.147 3.551 6.57 6.57 0 001.948 3.046.633.633 0 00.579.12l1.478-.415.11.347a.274.274 0 00.204.187.29.29 0 00.271-.079.257.257 0 00.061-.263l-.109-.343.369-.103a.393.393 0 01.482.243l.953 3.002c.03.091.02.19-.029.272H9.08zm.043-2.075l-.43-1.352c-.153-.473-.678-.741-1.177-.6l-2.384.668a.058.058 0 01-.05-.008c-.039-.033-.084-.074-.135-.12l3.41-3.115.579.51a1.168 1.168 0 001.525 0l.567-.5 4.936 4.506a.587.587 0 01-.109.011H9.123z" fill="#2B587A"/><path d="M7.444 4.266h4.486c.155 0 .28-.12.28-.266a.274.274 0 00-.28-.267H7.444c-.154 0-.28.12-.28.267 0 .147.126.266.28.266zM15.575 5.866c-.155 0-.28.12-.28.267v3.733c0 .147.125.267.28.267.155 0 .28-.12.28-.267V6.133a.274.274 0 00-.28-.267z" fill="#2B587A"/></svg><svg fill="none" viewBox="0 0 39 39" id="mastercard" xmlns="http://www.w3.org/2000/svg"><path d="M39 19.5c0 6.438-5.2 11.7-11.7 11.7-6.439 0-11.7-5.262-11.7-11.7S20.8 7.8 27.238 7.8C33.8 7.8 39 13.062 39 19.5z" fill="#FFB600"/><path d="M27.3 7.8c6.438 0 11.7 5.262 11.7 11.7s-5.2 11.7-11.7 11.7c-6.439 0-11.7-5.262-11.7-11.7" fill="#F7981D"/><path d="M27.3 7.8C33.74 7.8 39 13.062 39 19.5s-5.2 11.7-11.7 11.7" fill="#FF8500"/><path d="M11.576 7.8C5.2 7.862 0 13.062 0 19.5s5.2 11.7 11.7 11.7c3.033 0 5.757-1.176 7.862-3.033.433-.372.805-.805 1.176-1.238h-2.414c-.31-.372-.62-.805-.867-1.177h4.148c.247-.371.495-.804.68-1.238h-5.509a7.384 7.384 0 01-.495-1.238h6.438c.371-1.176.62-2.414.62-3.714 0-.867-.125-1.672-.248-2.476h-7.182c.062-.434.186-.805.31-1.238h6.438a7.375 7.375 0 00-.495-1.238h-5.448c.186-.434.434-.805.681-1.239h4.148a5.888 5.888 0 00-.929-1.238h-2.29c.371-.433.743-.804 1.176-1.176-2.043-1.919-4.829-3.033-7.862-3.033 0-.124 0-.124-.062-.124z" fill="#FF5050"/><path d="M0 19.5c0 6.438 5.2 11.7 11.7 11.7 3.033 0 5.757-1.176 7.862-3.033.433-.372.805-.805 1.176-1.238h-2.414c-.31-.372-.62-.805-.867-1.177h4.148a7.93 7.93 0 00.68-1.238h-5.509a7.387 7.387 0 01-.495-1.238h6.438c.371-1.176.62-2.414.62-3.714 0-.867-.125-1.672-.248-2.476h-7.182c.062-.434.186-.805.31-1.238h6.438a7.382 7.382 0 00-.495-1.239h-5.448c.186-.433.434-.804.681-1.238h4.148a5.89 5.89 0 00-.929-1.238h-2.29c.371-.433.743-.804 1.176-1.176-2.043-1.919-4.829-3.033-7.862-3.033h-.062" fill="#E52836"/><path d="M11.7 31.2c3.033 0 5.757-1.176 7.862-3.033.433-.372.805-.805 1.176-1.238h-2.414c-.31-.372-.62-.805-.867-1.177h4.148c.247-.371.495-.804.68-1.238h-5.509a7.379 7.379 0 01-.495-1.238h6.438c.371-1.176.62-2.414.62-3.714 0-.867-.125-1.672-.248-2.476h-7.182c.062-.434.186-.805.31-1.238h6.438a7.382 7.382 0 00-.495-1.239h-5.448c.186-.433.434-.804.681-1.238h4.148a5.886 5.886 0 00-.929-1.238h-2.29c.371-.433.743-.804 1.176-1.176-2.043-1.919-4.829-3.033-7.862-3.033h-.062" fill="#CB2026"/><path d="M15.848 22.471l.186-1.052c-.062 0-.186.062-.31.062-.433 0-.495-.248-.433-.372l.371-2.166h.681l.186-1.177h-.62l.125-.742h-1.238s-.743 4.085-.743 4.58c0 .744.433 1.053.99 1.053a1.9 1.9 0 00.805-.186zM16.281 20.49c0 1.734 1.176 2.167 2.167 2.167.928 0 1.3-.186 1.3-.186l.247-1.176s-.68.31-1.3.31c-1.361 0-1.114-.99-1.114-.99h2.538s.186-.806.186-1.115c0-.805-.433-1.795-1.795-1.795-1.3-.124-2.229 1.238-2.229 2.785zm2.167-1.795c.68 0 .557.805.557.867h-1.362c0-.062.124-.867.805-.867zM26.311 22.471l.248-1.362s-.62.31-1.053.31c-.866 0-1.238-.681-1.238-1.424 0-1.486.743-2.29 1.61-2.29.619 0 1.114.371 1.114.371l.186-1.3s-.743-.31-1.424-.31c-1.424 0-2.848 1.239-2.848 3.591 0 1.548.743 2.6 2.229 2.6.495 0 1.176-.186 1.176-.186zM9.04 17.58c-.867 0-1.486.248-1.486.248l-.186 1.053s.558-.248 1.362-.248c.434 0 .805.062.805.434 0 .247-.062.309-.062.309h-.557c-1.052 0-2.229.433-2.229 1.857 0 1.114.743 1.362 1.177 1.362.866 0 1.238-.557 1.3-.557l-.062.495h1.114l.495-3.405c0-1.485-1.238-1.547-1.671-1.547zm.248 2.787c0 .185-.124 1.176-.867 1.176-.372 0-.495-.31-.495-.495 0-.31.185-.743 1.114-.743a.976.976 0 00.248.061zM11.887 22.595c.31 0 1.857.062 1.857-1.61 0-1.547-1.486-1.237-1.486-1.856 0-.31.248-.434.681-.434.186 0 .867.062.867.062l.186-1.114s-.434-.124-1.177-.124c-.928 0-1.857.372-1.857 1.61 0 1.423 1.548 1.3 1.548 1.857 0 .371-.434.433-.743.433-.557 0-1.114-.186-1.114-.186l-.186 1.115c.062.123.371.247 1.424.247zM36.587 16.59l-.248 1.672s-.495-.62-1.176-.62c-1.114 0-2.104 1.363-2.104 2.972 0 .99.495 2.043 1.547 2.043.743 0 1.176-.495 1.176-.495l-.061.433h1.238l.928-5.943-1.3-.062zm-.557 3.281c0 .681-.31 1.548-.99 1.548-.434 0-.681-.372-.681-.99 0-.991.433-1.61.99-1.61.433 0 .681.31.681 1.052zM2.291 22.533l.743-4.457.124 4.457h.867l1.61-4.457-.682 4.457h1.3l.99-5.943H5.202l-1.238 3.653L3.9 16.59H2.106l-.99 5.943H2.29zM21.481 22.533c.371-2.043.433-3.714 1.3-3.405.124-.804.31-1.114.433-1.423h-.247c-.557 0-.99.742-.99.742l.123-.68h-1.176l-.805 4.828h1.362v-.062zM29.159 17.58c-.867 0-1.486.248-1.486.248l-.185 1.053s.557-.248 1.361-.248c.434 0 .805.062.805.434 0 .247-.062.309-.062.309h-.557c-1.052 0-2.228.433-2.228 1.857 0 1.114.742 1.362 1.176 1.362.866 0 1.238-.557 1.3-.557l-.062.495h1.114l.495-3.405c.062-1.485-1.238-1.547-1.671-1.547zm.31 2.787c0 .185-.124 1.176-.867 1.176-.372 0-.495-.31-.495-.495 0-.31.185-.743 1.114-.743.186.061.186.061.248.061zM31.881 22.533c.372-2.043.434-3.714 1.3-3.405.124-.804.31-1.114.434-1.423h-.248c-.557 0-.99.742-.99.742l.123-.68h-1.176l-.805 4.828h1.362v-.062z" fill="#fff"/><path d="M13.93 21.605c0 .742.433 1.052.99 1.052.434 0 .805-.124.929-.186l.185-1.052c-.061 0-.185.062-.31.062-.432 0-.494-.248-.432-.372l.371-2.166h.681l.186-1.177h-.62l.124-.742M16.9 20.49c0 1.734.558 2.167 1.548 2.167.929 0 1.3-.186 1.3-.186l.248-1.176s-.681.31-1.3.31c-1.362 0-1.115-.99-1.115-.99h2.538s.186-.806.186-1.115c0-.805-.433-1.795-1.795-1.795-1.3-.124-1.61 1.238-1.61 2.785zm1.548-1.795c.681 0 .805.805.805.867h-1.61c0-.062.124-.867.805-.867zM26.311 22.471l.248-1.362s-.62.31-1.053.31c-.866 0-1.238-.681-1.238-1.424 0-1.486.743-2.29 1.61-2.29.619 0 1.114.371 1.114.371l.186-1.3s-.743-.31-1.424-.31c-1.424 0-2.229 1.239-2.229 3.591 0 1.548.124 2.6 1.61 2.6.495 0 1.176-.186 1.176-.186zM7.368 18.943s.558-.248 1.362-.248c.434 0 .805.062.805.433 0 .248-.062.31-.062.31h-.557c-1.052 0-2.229.433-2.229 1.857 0 1.114.743 1.362 1.177 1.362.866 0 1.238-.557 1.3-.557l-.062.495h1.114l.495-3.405c0-1.424-1.238-1.485-1.733-1.485l-1.61 1.238zm2.539 1.423c0 .186-.743 1.177-1.486 1.177-.372 0-.495-.31-.495-.496 0-.31.185-.742 1.114-.742.186.061.867.061.867.061zM10.525 22.471s.372.124 1.424.124c.31 0 1.857.062 1.857-1.61 0-1.547-1.485-1.237-1.485-1.856 0-.31.247-.434.68-.434.186 0 .867.062.867.062l.186-1.114s-.433-.124-1.176-.124c-.929 0-1.238.372-1.238 1.61 0 1.423.928 1.3.928 1.857 0 .371-.433.433-.743.433M36.338 18.262s-.495-.62-1.176-.62c-1.114 0-1.486 1.363-1.486 2.972 0 .99-.123 2.043.929 2.043.743 0 1.176-.495 1.176-.495l-.062.433h1.238l.929-5.943-1.548 1.61zm-.062 1.61c0 .68-.557 1.547-1.238 1.547-.433 0-.68-.371-.68-.99 0-.99.433-1.61.99-1.61.433 0 .928.31.928 1.052zM2.291 22.533l.743-4.457.124 4.457h.867l1.61-4.457-.682 4.457h1.3l.99-5.943H5.697l-1.733 3.653L3.9 16.59H3.22l-2.105 5.943h1.176zM20.182 22.533h1.3c.371-2.043.433-3.714 1.3-3.405.123-.804.31-1.114.433-1.423h-.248c-.557 0-.99.742-.99.742l.124-.68M27.488 18.943s.557-.248 1.361-.248c.434 0 .805.062.805.433 0 .248-.062.31-.062.31h-.557c-1.052 0-2.228.433-2.228 1.857 0 1.114.742 1.362 1.176 1.362.866 0 1.238-.557 1.3-.557l-.062.495h1.114l.495-3.405c0-1.424-1.238-1.485-1.733-1.485l-1.61 1.238zm2.538 1.423c0 .186-.743 1.177-1.486 1.177-.371 0-.495-.31-.495-.496 0-.31.185-.742 1.114-.742.248.061.867.061.867.061zM30.582 22.533h1.3c.372-2.043.433-3.714 1.3-3.405.124-.804.31-1.114.433-1.423h-.247c-.557 0-.99.742-.99.742l.123-.68" fill="#DCE5E5"/></svg><svg fill="none" viewBox="0 0 73 60" id="matras" xmlns="http://www.w3.org/2000/svg"><path d="M69.11 60H3.86a3.853 3.853 0 01-3.847-3.847v-13.4h1.744v13.4c0 1.16.943 2.102 2.103 2.102H69.11c1.16 0 2.103-.942 2.103-2.102v-13.4h1.744v13.4A3.853 3.853 0 0169.11 60z" fill="#222"/><path d="M72.818 41.969L61.844 2.679A3.659 3.659 0 0058.337 0h-8.078c-.69 0-1.326.262-1.797.698A2.642 2.642 0 0046.665 0H38.28c-.689 0-1.326.262-1.797.698A2.641 2.641 0 0034.687 0h-8.383c-.69 0-1.326.262-1.797.698A2.642 2.642 0 0022.71 0h-8.078c-1.631 0-3.07 1.1-3.507 2.67L.151 41.968c-.13.48-.174.968-.14 1.448.062.75.34 1.483.812 2.102.27.349.584.646.933.89a4.022 4.022 0 002.303.715h11.35c1.029 0 1.875.838 1.875 1.876h1.745c0-1.038.837-1.876 1.875-1.876h12.824c1.03 0 1.875.838 1.875 1.876h1.745c0-1.038.837-1.876 1.876-1.876h12.823c1.038 0 1.876.838 1.876 1.876h1.744c0-1.038.838-1.876 1.876-1.876h11.366c.838 0 1.64-.253 2.303-.715a4.049 4.049 0 001.745-2.992c.044-.48 0-.969-.14-1.448zm-1.605 1.352c-.044.41-.201.802-.463 1.143a2.297 2.297 0 01-1.84.916H57.542c-1.1 0-2.085.488-2.748 1.264a3.602 3.602 0 00-2.748-1.264H39.224c-1.1 0-2.085.488-2.748 1.264a3.602 3.602 0 00-2.748-1.264H20.904c-1.099 0-2.085.488-2.748 1.264a3.602 3.602 0 00-2.747-1.264H4.059a2.273 2.273 0 01-1.84-.916 2.261 2.261 0 01-.463-1.65 1.78 1.78 0 01.07-.374L12.8 3.14a1.905 1.905 0 011.832-1.395h8.078a.93.93 0 01.925.924h1.744a.93.93 0 01.925-.924h8.383a.93.93 0 01.925.924h1.745a.93.93 0 01.924-.924h8.384a.93.93 0 01.924.924h1.745a.93.93 0 01.925-.924h8.078c.854 0 1.605.575 1.832 1.395l10.974 39.3a2.458 2.458 0 01.07.881z" fill="#222"/><path d="M21.349 34.79c0 .67-.55 1.22-1.221 1.22-.672 0-1.222-.55-1.222-1.22 0-.673.55-1.222 1.222-1.222.671 0 1.22.55 1.22 1.221zM37.706 34.79c0 .67-.55 1.22-1.221 1.22-.672 0-1.221-.55-1.221-1.22 0-.673.55-1.222 1.221-1.222.672 0 1.221.55 1.221 1.221zM54.15 34.79c0 .67-.55 1.22-1.222 1.22-.671 0-1.221-.55-1.221-1.22 0-.673.55-1.222 1.221-1.222.672 0 1.222.55 1.222 1.221zM23.007 22.664c0 .671-.55 1.221-1.221 1.221-.672 0-1.222-.55-1.222-1.221 0-.672.55-1.222 1.222-1.222.671 0 1.221.55 1.221 1.222zM37.706 22.664c0 .671-.55 1.221-1.221 1.221-.672 0-1.221-.55-1.221-1.221 0-.672.55-1.222 1.221-1.222.672 0 1.221.55 1.221 1.222zM52.491 22.664c0 .671-.55 1.221-1.22 1.221-.673 0-1.222-.55-1.222-1.221 0-.672.55-1.222 1.221-1.222.672 0 1.221.55 1.221 1.222zM24.577 11.061c0 .672-.55 1.222-1.22 1.222-.673 0-1.222-.55-1.222-1.222 0-.671.55-1.22 1.221-1.22.672 0 1.221.549 1.221 1.22zM37.706 11.061c0 .672-.55 1.222-1.221 1.222-.672 0-1.221-.55-1.221-1.222 0-.671.55-1.22 1.221-1.22.672 0 1.221.549 1.221 1.22zM50.921 11.061c0 .672-.55 1.222-1.221 1.222-.672 0-1.222-.55-1.222-1.222 0-.671.55-1.22 1.222-1.22.671 0 1.221.549 1.221 1.22z" fill="#222"/></svg><svg fill="none" viewBox="0 0 46 60" id="namat" xmlns="http://www.w3.org/2000/svg"><path d="M38.804 53.935h-1.956v.652h1.956v-.652zM34.892 53.935h-1.957v.652h1.957v-.652zM30.978 53.935h-1.957v.652h1.957v-.652zM27.066 53.935h-1.957v.652h1.957v-.652zM23.152 53.935h-1.957v.652h1.957v-.652zM19.24 53.935h-1.957v.652h1.957v-.652zM41.217 48.587h-.652v1.956h.652v-1.956zM41.217 44.674h-.652v1.956h.652v-1.956zM41.217 40.761h-.652v1.956h.652v-1.956zM4.695 37.891h-.652v1.957h.652V37.89zM41.217 36.848h-.652v1.956h.652v-1.956zM4.695 33.978h-.652v1.957h.652v-1.957zM41.217 32.935h-.652v1.956h.652v-1.956zM4.695 30.065h-.652v1.957h.652v-1.957zM41.217 29.022h-.652v1.956h.652v-1.956zM4.695 26.152h-.652v1.957h.652v-1.957zM41.217 25.109h-.652v1.956h.652V25.11zM4.695 22.239h-.652v1.956h.652V22.24zM41.217 21.196h-.652v1.956h.652v-1.956zM4.695 18.326h-.652v1.957h.652v-1.957zM41.217 17.283h-.652v1.956h.652v-1.956zM4.695 14.413h-.652v1.957h.652v-1.957zM41.217 13.37h-.652v1.956h.652V13.37zM4.695 10.5h-.652v1.957h.652V10.5zM41.217 9.457h-.652v1.956h.652V9.457zM4.695 6.587h-.652v1.956h.652V6.587zM38.74 5.413h-1.957v.652h1.957v-.652zM34.826 5.413h-1.957v.652h1.957v-.652zM30.914 5.413h-1.957v.652h1.957v-.652zM27 5.413h-1.957v.652H27v-.652zM23.087 5.413h-1.956v.652h1.956v-.652zM19.173 5.413h-1.956v.652h1.956v-.652zM15.261 5.413h-1.956v.652h1.956v-.652zM11.347 5.413H9.391v.652h1.956v-.652zM7.435 5.413H5.479v.652h1.956v-.652zM17.348 58.043s-.718-.26-1.826-.847l.26-.587c1.044.521 1.761.782 1.761.782l-.195.652zM13.76 56.282a23.802 23.802 0 01-1.695-1.043l.39-.522c.522.326 1.11.718 1.631 1.044l-.326.521zM10.5 54.13c-.521-.39-1.043-.847-1.564-1.239l.456-.521c.457.39.978.848 1.5 1.239l-.391.521zM7.5 51.522c-.456-.457-.913-.979-1.37-1.435l.523-.457c.39.457.847.979 1.304 1.435l-.457.457zM4.956 48.522a24.032 24.032 0 01-1.108-1.63l.587-.327c.326.522.652 1.109 1.043 1.63l-.522.327zM2.935 45.065c-.26-.587-.522-1.239-.783-1.826l.587-.195c.196.586.457 1.173.718 1.76l-.522.261zM40.61 5.524l.55.348 1.046-1.653-.55-.349-1.047 1.654zM2.92 4.372l1.158 1.576.526-.386-1.159-1.576-.526.386z" fill="#222"/><path d="M43.435 0H1.826A1.823 1.823 0 000 1.826V32.61C0 56.413 1.63 59.935 26.348 60H43.5a1.823 1.823 0 001.826-1.826V1.89A1.893 1.893 0 0043.435 0zM5.478 54.978l2.74-2.739-.457-.456-2.74 2.739C2.284 51.717 1.5 47.087 1.305 39.456c3.392 8.674 12.261 16.11 19.37 19.11-7.696-.196-12.391-1.11-15.196-3.588zm38.544 3.196v.065l-.718-1.109-.521.326.782 1.174H26.283C18.39 58.565 1.239 45.522 1.239 32.543V2.023l.522.652.522-.391-.718-1.044c.065-.065.196-.065.261-.065H43.37l-.587.978.521.326.652-1.043c.066.065.066.13.066.26v56.479z" fill="#222"/><path d="M40.604 54.176l1.046 1.654.552-.35-1.047-1.652-.551.348z" fill="#222"/></svg><svg fill="none" viewBox="0 0 30 30" id="notification" xmlns="http://www.w3.org/2000/svg"><path d="M20.273 18.691a.586.586 0 00-.585.586v4.043a2.933 2.933 0 01-2.93 2.93h-6.326a.586.586 0 00-.586.585L9.845 28l-1.399-1.398a.586.586 0 00-.537-.352H4.102a2.933 2.933 0 01-2.93-2.93v-9.023a2.933 2.933 0 012.93-2.93h5.918a.586.586 0 100-1.172H4.102A4.106 4.106 0 000 14.297v9.023a4.106 4.106 0 004.102 4.102h3.507l2.406 2.406a.586.586 0 001-.413l.002-1.993h5.74a4.106 4.106 0 004.102-4.102v-4.043a.586.586 0 00-.586-.586z" fill="#FF6C81"/><path d="M21.484 0H20c-4.696 0-8.517 3.82-8.517 8.516s3.82 8.517 8.517 8.517h1.483c.733 0 1.458-.093 2.161-.277l2.19 2.189a.586.586 0 001-.414v-3.39a8.598 8.598 0 002.24-2.76A8.425 8.425 0 0030 8.516C30 3.82 26.18 0 21.484 0zm4.413 14.387a.586.586 0 00-.233.468v2.262l-1.434-1.434a.586.586 0 00-.586-.145 7.347 7.347 0 01-2.16.323H20c-4.05 0-7.345-3.295-7.345-7.345s3.295-7.344 7.345-7.344h1.483c4.05 0 7.344 3.295 7.344 7.344a7.29 7.29 0 01-2.93 5.87z" fill="#FF6C81"/><path d="M23.381 6.412a2.486 2.486 0 00-2.3-2.3 2.462 2.462 0 00-1.867.66 2.49 2.49 0 00-.788 1.814.586.586 0 001.172 0c0-.366.147-.706.416-.957a1.31 1.31 0 111.18 2.234 1.109 1.109 0 00-.873 1.087v1.408a.586.586 0 001.171 0v-1.36a2.468 2.468 0 001.89-2.586zM21.32 12.261a.59.59 0 00-.414-.171.59.59 0 00-.586.585.59.59 0 001 .415.592.592 0 00.172-.415.59.59 0 00-.172-.414zM16.113 18.164H3.75a.586.586 0 000 1.172h12.363a.586.586 0 100-1.172zM16.527 21.617a.59.59 0 00-.414-.172.59.59 0 00-.586.586.59.59 0 00.586.586.59.59 0 00.586-.586.59.59 0 00-.172-.414zM13.809 21.445H3.75a.586.586 0 000 1.172h10.059a.586.586 0 100-1.172zM12.305 14.883H3.75a.586.586 0 000 1.172h8.555a.586.586 0 100-1.172z" fill="#FF6C81"/></svg><svg fill="none" viewBox="0 0 30 30" id="odnoklassniki" xmlns="http://www.w3.org/2000/svg"><path d="M15.014 12.432A2.568 2.568 0 0017.58 9.84 2.573 2.573 0 0015 7.26a2.577 2.577 0 00-2.588 2.61 2.574 2.574 0 002.601 2.56z" fill="#E49226"/><path d="M15 0C6.716 0 0 6.716 0 15c0 8.284 6.716 15 15 15 8.284 0 15-6.716 15-15 0-8.284-6.716-15-15-15zm.021 4.562c2.922.008 5.267 2.397 5.252 5.351-.014 2.886-2.398 5.225-5.315 5.215-2.887-.01-5.255-2.403-5.237-5.295a5.292 5.292 0 015.3-5.271zm5.918 12.642c-.646.663-1.424 1.143-2.287 1.478-.817.317-1.711.476-2.597.582.134.146.197.217.28.3 1.203 1.209 2.41 2.411 3.608 3.623.408.413.493.925.269 1.404-.246.525-.796.87-1.336.833-.342-.024-.608-.193-.845-.432-.907-.913-1.832-1.809-2.72-2.739-.26-.27-.383-.219-.612.016-.912.94-1.84 1.865-2.772 2.784-.42.413-.918.488-1.404.252-.516-.25-.845-.777-.82-1.308.018-.358.194-.632.44-.877 1.19-1.188 2.377-2.379 3.563-3.569.079-.079.152-.163.267-.285-1.619-.17-3.078-.568-4.328-1.545-.155-.121-.315-.238-.456-.375-.547-.525-.602-1.127-.17-1.746.37-.53.992-.672 1.638-.367.125.058.244.133.358.211 2.329 1.6 5.527 1.644 7.865.072.231-.177.479-.323.766-.396.557-.144 1.078.062 1.376.55.343.557.339 1.101-.083 1.534z" fill="#E49226"/></svg><svg fill="none" viewBox="0 0 20 20" id="pay" xmlns="http://www.w3.org/2000/svg"><g clip-path="url(#bkclip0)" fill="#2B587A"><path d="M6.957 15.309a.416.416 0 00-.103-.2.37.37 0 00-.194-.107.361.361 0 00-.285.058.37.37 0 00-.14.175.386.386 0 00-.02.226.374.374 0 00.056.14.372.372 0 00.583.06.372.372 0 00.082-.127.402.402 0 00.021-.225z"/><path d="M17.857 15.429a.233.233 0 00-.005-.012c-.349-.841-1.168-1.152-2.136-.811l-2.642.752c-.153-.476-.534-.882-1.072-1.088-.004 0-.007-.002-.01-.003l-2.904-1.015c-.242-.322-.999-1.146-2.417-1.146-.99 0-1.867.7-2.368 1.463H.793c-.21 0-.379.175-.379.391v4.925c0 .216.17.39.38.39h2.254c.21 0 .379-.174.379-.39v-.337h1.057c.21 0 .38-.175.38-.391v-.112c.616.055.819.175 1.385.512a22.708 22.708 0 002.294 1.205c.228.092.672.237 1.22.237.382 0 .813-.07 1.257-.277l5.839-2.154a.343.343 0 00.03-.013c.559-.264 1.39-1.01.968-2.126zM2.669 18.494H1.172v-4.143H2.67v4.143zm1.436-.728h-.678v-3.415h.678v3.415zm12.482-.927L10.75 18.99a.435.435 0 00-.033.014c-.812.385-1.585.155-1.888.033a21.742 21.742 0 01-2.202-1.158c-.62-.369-.919-.546-1.763-.618v-3.146c.359-.607 1.056-1.229 1.807-1.229 1.29 0 1.835.864 1.857.899a.381.381 0 00.2.165l3.014 1.054c.482.186.736.61.62 1.034a.753.753 0 01-.352.456.715.715 0 01-.556.07l-3.398-1.11a.377.377 0 00-.476.255.393.393 0 00.247.49l3.403 1.11a1.46 1.46 0 001.15-.133 1.525 1.525 0 00.734-1.02l2.847-.812c.411-.145.951-.197 1.191.373.249.67-.398 1.038-.566 1.12zM14.029 5.138a.383.383 0 00-.057-.14.366.366 0 00-.17-.144.366.366 0 00-.355.036.367.367 0 00-.14.175.39.39 0 00-.022.226.377.377 0 00.057.14.377.377 0 00.39.166.395.395 0 00.136-.058.366.366 0 00.139-.175.371.371 0 00.03-.15.398.398 0 00-.008-.076z"/><path d="M19.45 1.324h-2.254c-.21 0-.38.175-.38.39v.338H15.76c-.21 0-.38.175-.38.39v.113c-.615-.056-.818-.176-1.384-.512A22.712 22.712 0 0011.7.837c-.386-.156-1.396-.464-2.476.04l-1.526.563L6.412.115a.371.371 0 00-.536 0l-4.223 4.35a.396.396 0 000 .553l7.216 7.433c.115.119.385.155.536 0L13.26 8.48c.1.008.204.013.312.013.99 0 1.867-.7 2.368-1.463h3.51c.21 0 .38-.175.38-.39V1.715c0-.216-.17-.391-.38-.391zM6.144.944l.864.89a1.601 1.601 0 01-.864.252 1.6 1.6 0 01-.865-.252l.865-.89zM3.322 5.632l-.865-.89.865-.89c.159.264.244.57.244.89 0 .32-.085.625-.244.89zm5.815 5.99l-.864-.89a1.61 1.61 0 011.728 0l-.864.89zm1.41-1.453a2.353 2.353 0 00-2.82 0L3.867 6.195a2.51 2.51 0 00.456-1.454c0-.53-.16-1.033-.456-1.453l.865-.89c.407.304.897.469 1.41.469a2.34 2.34 0 001.411-.47l.82.845a1.513 1.513 0 00-1.128.852 2.141 2.141 0 00-1.134.615 2.277 2.277 0 000 3.149 2.123 2.123 0 003.057 0c.274-.283.466-.63.562-1.008l1.28.447a2.554 2.554 0 00.402 1.98l-.866.892zM8.242 6.33a.429.429 0 00.01.004l.758.265a1.452 1.452 0 01-.378.707 1.376 1.376 0 01-1.984 0 1.478 1.478 0 010-2.044 1.4 1.4 0 01.457-.314c.07.6.49 1.135 1.137 1.382zm3.717 2.385a1.747 1.747 0 01-.242-.812c.182.135.404.268.669.373l-.427.44zm3.42-2.23c-.359.607-1.056 1.228-1.807 1.228-.14 0-.272-.01-.396-.029h-.001c-.819-.122-1.26-.602-1.405-.792l-.045-.063a.38.38 0 00-.21-.18L8.502 5.596c-.481-.186-.736-.61-.619-1.034V4.56a.753.753 0 01.351-.456.715.715 0 01.557-.069l3.397 1.11c.2.064.413-.05.476-.255a.393.393 0 00-.247-.49l-2.702-.883-.023-.024H9.69L8.291 2.05l1.203-.443a.402.402 0 00.013-.005L9.51 1.6a.372.372 0 00.015-.007c.813-.385 1.585-.154 1.888-.033 1.145.53 1.756.893 2.202 1.159.62.368.92.546 1.764.618v3.146zm1.437-.235h-.678V2.833h.678V6.25zm2.255 0h-1.496V2.105h1.496V6.25z"/></g><defs><clipPath id="bkclip0"><path fill="#fff" transform="translate(.414)" d="M0 0h19.415v20H0z"/></clipPath></defs></svg><svg fill="none" viewBox="0 0 50 50" id="paypal" xmlns="http://www.w3.org/2000/svg"><path d="M39.034 20.5c-1.227 0-2.21.327-3.027.49l-.246 1.882c.41-.163 1.555-.49 2.537-.573.982 0 1.555.164 1.391 1.064-2.946 0-4.91.573-5.32 2.537-.572 3.274 3.029 3.355 4.42 1.882l-.164.9h2.619l1.145-5.319c.41-2.21-1.554-2.946-3.355-2.864zm.164 5.482c-.164.655-.736.9-1.391.982-.573 0-1.064-.327-.737-.982.328-.491 1.064-.491 1.637-.491h.655c-.082-.082-.164.245-.164.491z" fill="#32A6CE"/><path d="M35.761 22.872c.41-.163 1.555-.49 2.537-.573.982 0 1.555.164 1.39 1.064-2.945 0-4.909.573-5.318 2.537-.573 3.274 3.028 3.355 4.419 1.882l-.164.9h2.619l1.145-5.319c.491-2.21-1.554-2.782-3.355-2.782l-3.273 2.291zm3.437 3.11c-.164.655-.736.9-1.391.982-.573 0-1.064-.327-.737-.982.328-.491 1.064-.491 1.637-.491h.655c-.082-.082-.164.245-.164.491z" fill="#1A80AD"/><path d="M44.598 18.044l-2.127 10.639h2.618l2.21-10.639h-2.7z" fill="#32A6CE"/><path d="M46.48 18.044l-4.01 10.639h2.62l2.209-10.639h-2.7 1.882z" fill="#1A80AD"/><path d="M32.405 18.044h-4.828l-2.128 10.639h2.864l.737-3.274h2.046c1.964 0 3.6-1.145 4.01-3.191.409-2.373-1.31-4.174-2.701-4.174zm-.082 3.683c-.163.736-.9 1.227-1.637 1.227h-1.309l.573-2.455h1.391c.737 0 1.146.491.982 1.228z" fill="#32A6CE"/><path d="M32.407 18.044h-3.273l-3.765 10.639h2.864l.737-3.274h2.046c1.964 0 3.6-1.145 4.01-3.191.49-2.373-1.228-4.174-2.62-4.174zm-.082 3.683c-.164.736-.9 1.227-1.637 1.227H29.38l.573-2.455h1.39c.737 0 1.147.491.983 1.228z" fill="#1A80AD"/><path d="M13.503 20.5c-1.228 0-2.21.327-2.946.49l-.246 1.882c.328-.163 1.555-.49 2.537-.573.982 0 1.555.164 1.391 1.064-2.864 0-4.828.573-5.237 2.537-.573 3.274 2.946 3.355 4.337 1.882l-.164.9h2.62l1.145-5.319c.409-2.21-1.637-2.946-3.437-2.864zm.245 5.482c-.163.655-.736.9-1.39.982-.574 0-1.065-.327-.656-.982.328-.491 1.064-.491 1.555-.491h.655c-.082-.082-.164.245-.164.491z" fill="#21789E"/><path d="M10.393 22.872c.328-.163 1.555-.49 2.537-.573.982 0 1.555.164 1.391 1.064-2.864 0-4.828.573-5.237 2.537-.573 3.274 2.946 3.355 4.337 1.882l-.245.9h2.618l1.146-5.319c.49-2.21-1.555-2.782-3.355-2.782l-3.192 2.291zm3.355 3.11c-.163.655-.736.9-1.39.982-.574 0-1.065-.327-.655-.982.327-.491 1.063-.491 1.554-.491h.655c-.082-.082-.164.245-.164.491z" fill="#1A5B80"/><path d="M18.004 20.5h2.618l.41 4.582 2.618-4.583h2.7l-6.219 11.457h-2.945l1.882-3.437-1.064-8.02z" fill="#21789E"/><path d="M20.622 20.663l.41 4.5L23.65 20.5h2.7l-6.219 11.457h-2.945l1.882-3.355" fill="#1A5B80"/><path d="M7.038 18.044h-4.91L0 28.683h2.864l.737-3.274h2.045c1.964 0 3.601-1.145 4.01-3.191.491-2.373-1.227-4.174-2.618-4.174zm-.082 3.683c-.164.736-.9 1.227-1.637 1.227H4.01l.574-2.455h1.39c.737 0 1.146.491.983 1.228z" fill="#21789E"/><path d="M7.038 18.044h-2.21L0 28.683h2.864l.737-3.274h2.045c1.964 0 3.601-1.145 4.01-3.191.491-2.373-1.227-4.174-2.618-4.174zm-.082 3.683c-.164.736-.9 1.227-1.637 1.227H4.01l.574-2.455h1.39c.737 0 1.146.491.983 1.228z" fill="#1A5B80"/><path d="M13.012 23.363c-2.21.164-3.683.819-4.01 2.456-.573 3.273 2.946 3.355 4.337 1.882l-.164.982h2.62l.408-1.964-3.191-3.356zm.736 2.62c-.163.654-.736.9-1.39.981-.574 0-1.065-.327-.656-.982.328-.49 1.064-.49 1.555-.49h.655c-.082-.083-.164.245-.164.49zM21.195 25l-.164.246 1.719 1.636 3.6-6.383h-2.7L21.195 25zM2.865 28.683l.736-3.274-3.355 3.274h2.619z" fill="#06435E"/><path d="M28.232 28.683l.736-3.437v.082l-3.355 3.355h2.619zM38.462 23.363c-2.21.164-3.683.819-4.01 2.456-.573 3.273 3.028 3.355 4.419 1.882l-.246.982h2.619l.41-1.964-3.192-3.356zm.736 2.62c-.163.654-.736.9-1.391.981-.573 0-1.064-.327-.736-.982.327-.49 1.063-.49 1.636-.49h.655c-.082-.083-.164.245-.164.49zM44.353 23.855l-1.882 4.828h2.618l.737-3.274-1.473-1.554z" fill="#2273AA"/><path d="M47.872 19.762v-1.145h-.41v-.164h1.065v.164h-.41v1.145h-.245zM48.69 19.762v-1.309h.245l.327.9c0 .082.082.164.082.164 0-.082 0-.082.082-.245l.327-.9H50v1.309h-.164v-1.146l-.409 1.146h-.245l-.41-1.146v1.146h-.081v.081z" fill="#32A6CE"/></svg><svg fill="none" viewBox="0 0 16 16" id="phone-call" xmlns="http://www.w3.org/2000/svg"><g clip-path="url(#bmclip0)"><path d="M15.565 11.742L13.333 9.51c-.798-.798-2.154-.479-2.473.558-.239.718-1.036 1.116-1.754.957-1.595-.399-3.748-2.472-4.147-4.147-.239-.718.24-1.515.957-1.754 1.037-.32 1.356-1.675.558-2.472L4.242.419c-.638-.559-1.595-.559-2.154 0L.573 1.934c-1.515 1.595.16 5.821 3.908 9.57 3.748 3.747 7.974 5.502 9.57 3.907l1.514-1.515c.559-.639.559-1.595 0-2.154z" fill="#FA7272"/></g><defs><clipPath id="bmclip0"><path fill="#fff" d="M0 0h16v16H0z"/></clipPath></defs></svg><svg fill="none" viewBox="0 0 16 16" id="phone-location" xmlns="http://www.w3.org/2000/svg"><g clip-path="url(#bnclip0)"><path d="M8 0C4.692 0 2 2.71 2 6.043c0 4.736 5.436 9.625 5.667 9.83a.5.5 0 00.666.001C8.564 15.668 14 10.779 14 6.044 14 2.71 11.308 0 8 0zm0 9.333A3.337 3.337 0 014.667 6 3.337 3.337 0 018 2.667 3.337 3.337 0 0111.333 6 3.337 3.337 0 018 9.333z" fill="#FA7272"/></g><defs><clipPath id="bnclip0"><path fill="#fff" d="M0 0h16v16H0z"/></clipPath></defs></svg><svg fill="none" viewBox="0 0 60 60" id="pillow" xmlns="http://www.w3.org/2000/svg"><g clip-path="url(#boclip0)" fill="#222"><path d="M47.671 16.677a.879.879 0 00.953.798c.535-.047 1.066-.098 1.578-.15a.88.88 0 00.686-.46 2.958 2.958 0 012.612-1.568c3.073.033 4.088 4.1 1.392 5.571a.88.88 0 00-.46.685c-.35 3.401-.57 7.231-.654 11.383a.879.879 0 101.758.035c.078-3.927.28-7.559.6-10.803a4.71 4.71 0 002.082-3.912c-.033-4.645-6.024-6.46-8.63-2.636-.367.036-.742.071-1.118.104a.879.879 0 00-.799.953zM56.136 51.371c-.423-4.29-.638-9.2-.638-14.601-.039-1.162-1.717-1.165-1.758 0 0 5.644.233 10.763.692 15.216a.88.88 0 00.46.685 2.957 2.957 0 011.568 2.612c-.033 3.072-4.102 4.087-5.573 1.392a.878.878 0 00-.685-.46c-5.884-.631-14.172-.825-20.91-.607a.879.879 0 10.053 1.757c6.515-.21 14.513-.033 20.242.554A4.711 4.711 0 0053.5 60c4.645-.032 6.462-6.023 2.636-8.629zM25.223 55.785c-1.92.11-3.758.255-5.46.43a.88.88 0 00-.685.46 2.958 2.958 0 01-2.612 1.567c-3.073-.033-4.088-4.1-1.392-5.57a.879.879 0 00.46-.686c.152-1.481.282-3.07.385-4.723a.879.879 0 10-1.754-.11 118.502 118.502 0 01-.336 4.218 4.71 4.71 0 00-2.081 3.912c.033 4.645 6.024 6.462 8.63 2.637 1.552-.154 3.214-.28 4.945-.38a.879.879 0 00-.1-1.755z"/><path d="M39.622 44.38a4.71 4.71 0 003.912 2.08c4.646-.032 6.463-6.022 2.637-8.628-.85-8.333-.85-20.87 0-29.203a4.71 4.71 0 002.08-3.912c-.032-4.645-6.023-6.461-8.63-2.637-6.268.643-15.133.79-22.079.488-1.163-.011-1.234 1.668-.074 1.756 7.172.313 16.34.15 22.769-.539a.879.879 0 00.685-.46 2.958 2.958 0 012.612-1.567c3.073.033 4.088 4.1 1.392 5.57a.88.88 0 00-.46.686c-.92 8.639-.92 21.794 0 30.433a.88.88 0 00.46.685 2.957 2.957 0 011.568 2.612c-.033 3.072-4.102 4.087-5.572 1.391a.878.878 0 00-.685-.46c-8.643-.92-21.796-.92-30.439 0a.879.879 0 00-.685.46 2.958 2.958 0 01-2.612 1.568c-3.073-.033-4.088-4.1-1.392-5.571a.879.879 0 00.46-.685c.92-8.64.92-21.793 0-30.433a.88.88 0 00-.46-.685A2.957 2.957 0 013.54 4.717C3.574 1.645 7.643.63 9.113 3.325c.138.258.395.43.685.46 1.156.12 2.384.225 3.65.314 1.162.04 1.281-1.63.123-1.753-1.089-.077-2.15-.166-3.158-.266A4.71 4.71 0 006.501 0C1.856.032.038 6.023 3.864 8.629c.85 8.333.85 20.869 0 29.203a4.71 4.71 0 00-2.08 3.912c.032 4.645 6.023 6.461 8.629 2.636 8.336-.85 20.873-.85 29.209 0z"/><path d="M39.18 14.685a.879.879 0 00-1.217-.258c-1.423.925-2.151.544-4.048-.693-5.155-3.83-12.655-3.819-17.794 0-1.897 1.237-2.625 1.618-4.048.693a.879.879 0 10-.958 1.474c2.455 1.596 4.16.483 5.966-.695 4.644-3.452 11.237-3.447 15.874 0 1.974 1.353 3.753 2.177 5.966.695a.879.879 0 00.258-1.216zM10.857 31.776a.879.879 0 001.216.258c1.423-.925 2.151-.544 4.048.693 3.273 2.427 8.62 3.902 13.887 2.058a.879.879 0 10-.589-1.657c-4.719 1.617-9.324.345-12.337-1.873-1.806-1.178-3.512-2.291-5.967-.695a.879.879 0 00-.258 1.216zM32.421 32.648a.88.88 0 001.216.26l.277-.181c1.897-1.237 2.625-1.618 4.048-.693a.879.879 0 10.958-1.474c-2.455-1.596-4.16-.483-5.966.695l-.274.178a.88.88 0 00-.259 1.215zM25.896 23.23a.879.879 0 00-.879-.879c-1.163.04-1.163 1.718 0 1.758a.879.879 0 00.879-.879zM20.314 23.23a.879.879 0 00-.879-.879c-1.163.04-1.163 1.718 0 1.758a.879.879 0 00.879-.879zM14.732 23.23a.879.879 0 00-.879-.879c-1.163.04-1.163 1.718 0 1.758a.879.879 0 00.879-.879zM31.478 23.23a.879.879 0 00-.879-.879c-1.163.04-1.163 1.718 0 1.758a.879.879 0 00.879-.879zM37.06 23.23a.879.879 0 00-.879-.879c-1.163.04-1.163 1.718 0 1.758a.879.879 0 00.879-.879zM22.227 17.805a.879.879 0 00-.88.879c.04 1.163 1.718 1.163 1.758 0a.879.879 0 00-.878-.88zM16.645 17.805a.879.879 0 00-.88.879c.04 1.163 1.718 1.163 1.758 0a.879.879 0 00-.878-.88zM27.807 17.805a.879.879 0 00-.88.879c.04 1.163 1.719 1.163 1.759 0a.879.879 0 00-.88-.88zM33.39 17.805a.879.879 0 00-.878.879c.04 1.163 1.718 1.163 1.758 0a.879.879 0 00-.88-.88zM21.348 27.752c0 .486.393.88.879.88 1.163-.041 1.163-1.719 0-1.759a.879.879 0 00-.88.88zM15.766 27.752c0 .486.393.88.879.88 1.163-.041 1.163-1.719 0-1.759a.879.879 0 00-.88.88zM26.93 27.752c0 .486.393.88.879.88 1.163-.041 1.163-1.719 0-1.759a.879.879 0 00-.88.88zM32.512 27.752c0 .486.393.88.879.88 1.163-.041 1.163-1.719 0-1.759a.879.879 0 00-.88.88z"/></g><defs><clipPath id="boclip0"><path fill="#fff" d="M0 0h60v60H0z"/></clipPath></defs></svg><svg fill="none" viewBox="0 0 16 16" id="price" xmlns="http://www.w3.org/2000/svg"><path d="M14.79 4.662L12 1.867v11.2h3.733V6.93a3.2 3.2 0 00-.943-2.27z" fill="#fff"/><path d="M2.446 11.026L.337 5.55A1.067 1.067 0 01.95 4.172L10.903.338a1.066 1.066 0 011.379.612l2.108 5.475a1.066 1.066 0 01-.612 1.379l-9.953 3.834a1.067 1.067 0 01-1.379-.612z" fill="#fff"/><path d="M13.042 2.923L1.107 7.549l.795 2.063 11.936-4.624-.796-2.065z" fill="#fff"/><path d="M.268 7.2V1.333C.268.744.745.267 1.334.267h10.667c.589 0 1.067.477 1.067 1.066V7.2c0 .589-.478 1.067-1.067 1.067H1.334C.745 8.267.268 7.789.268 7.2z" fill="#fff"/><path d="M12 .267h-1.133l-8 8h9.134c.589 0 1.066-.478 1.066-1.067V1.333c0-.589-.477-1.066-1.066-1.066zM2.4 4.533H1.335v.534h1.067v-.534zM2.4 6.133H1.335v.534h1.067v-.534z" fill="#FA7272"/><path d="M7.2 6.133H6.132v.534h1.066v-.534zM4 4.533H2.934v.534H4v-.534zM5.6 4.533H4.533v.534H5.6v-.534zM7.2 4.533H6.132v.534h1.066v-.534zM11.733 1.333h-.534v.8h.534v-.8zM10.666 1.333h-.533v.8h.533v-.8zM9.6 1.333h-.534v.8H9.6v-.8zM8.533 1.333H8v.8h.533v-.8z" fill="#FA7272"/><path d="M15.734 13.067h-4.8v2.667h4.8v-2.667zM10.15 5.084a1.156 1.156 0 00-1.67 1.599l2.186 2.384a3.597 3.597 0 00.072 3.69l.194.31H14.4V9.334l-4.25-4.25z" fill="#fff"/><path d="M12.266 13.867h-.534v.533h.534v-.533z" fill="#6B962A"/><path d="M1.334 3.04V1.76c0-.236.19-.427.427-.427h1.28c.235 0 .426.191.426.427v1.28c0 .236-.19.427-.426.427H1.76a.427.427 0 01-.427-.427z" fill="#fff"/><path d="M2.134 2.133h-.8v.534h.8v-.534zM3.466 2.133h-.8v.534h.8v-.534z" fill="#AD7351"/><path d="M14.133 9.333a.266.266 0 01-.189-.078L12.878 8.19a.266.266 0 01.377-.377l1.066 1.066a.267.267 0 01-.188.455z" fill="#F2A46F"/><path d="M13.333 2.825V1.333C13.333.597 12.736.001 12 0H1.333C.597 0 .001.597 0 1.333V7.2a1.33 1.33 0 001.196 1.32l1.002 2.602a1.333 1.333 0 001.724.764l6.26-2.41a3.854 3.854 0 00.332 3.422l.153.245v2.59c0 .147.12.267.266.267h4.8c.147 0 .267-.12.267-.267V6.931a3.49 3.49 0 00-1.022-2.458l-1.645-1.648zm0 1.595l.81 2.1a.8.8 0 01-.46 1.035l-.462.178a1.33 1.33 0 00.112-.533V4.42zM.533 7.2V1.333a.8.8 0 01.8-.8H12a.8.8 0 01.8.8v1.695h-.002l.002.006V7.2a.803.803 0 01-.018.138l-2.443-2.443a1.422 1.422 0 00-2.053 1.968L9.327 8H1.333a.8.8 0 01-.8-.8zM3.95 8.533l-1.897.73-.28-.73H3.95zm-.22 2.856a.8.8 0 01-1.034-.46l-.45-1.169 3.183-1.227v-.001h4.387l.347.378-6.433 2.479zm11.737 4.078H11.2v-2.134h4.267v2.134zm0-2.667H11.08l-.115-.185a3.326 3.326 0 01-.068-3.415.267.267 0 00-.035-.313L8.678 6.503a.89.89 0 011.284-1.23l4.25 4.249.377-.377-.987-.987.273-.107a1.333 1.333 0 00.765-1.722l-.903-2.344.864.866c.552.551.863 1.3.866 2.08V12.8z" fill="#FA7272"/><path d="M3.04 3.734c.383 0 .693-.31.693-.694V1.76a.693.693 0 00-.693-.693H1.76a.693.693 0 00-.694.693v1.28c0 .383.31.694.694.694h1.28zM1.6 3.04v-.373h.533v-.533H1.6V1.76a.16.16 0 01.16-.16h1.28a.16.16 0 01.16.16v.374h-.534v.533H3.2v.373a.16.16 0 01-.16.16H1.76a.16.16 0 01-.16-.16zM2.4 4.533H1.335v.534h1.067v-.534zM2.4 6.133H1.335v.534h1.067v-.534zM7.2 6.133H6.132v.534h1.066v-.534zM4 4.533H2.934v.534H4v-.534zM5.6 4.533H4.533v.534H5.6v-.534zM7.2 4.533H6.132v.534h1.066v-.534zM11.733 1.333h-.534v.8h.534v-.8zM10.666 1.333h-.533v.8h.533v-.8zM9.6 1.333h-.534v.8H9.6v-.8zM8.533 1.333H8v.8h.533v-.8zM12.266 13.867h-.534v.533h.534v-.533z" fill="#FA7272"/></svg><svg fill="none" viewBox="0 0 16 16" id="red-hand" xmlns="http://www.w3.org/2000/svg"><path d="M14.79 4.662L12 1.867v11.2h3.733V6.93a3.2 3.2 0 00-.943-2.27z" fill="#fff"/><path d="M2.447 11.026L.338 5.55A1.067 1.067 0 01.95 4.173L10.904.338a1.067 1.067 0 011.379.612l2.109 5.475a1.067 1.067 0 01-.612 1.379l-9.954 3.834a1.067 1.067 0 01-1.379-.612z" fill="#fff"/><path d="M13.043 2.923L1.108 7.549l.795 2.063 11.935-4.624-.795-2.065z" fill="#fff"/><path d="M.267 7.2V1.333C.267.744.744.267 1.333.267H12c.589 0 1.067.477 1.067 1.066V7.2c0 .589-.478 1.067-1.067 1.067H1.333C.744 8.267.267 7.789.267 7.2z" fill="#fff"/><path d="M12 .267h-1.133l-8 8H12c.59 0 1.067-.478 1.067-1.067V1.333c0-.589-.478-1.066-1.067-1.066zM2.4 4.533H1.333v.534H2.4v-.534zM2.4 6.133H1.333v.534H2.4v-.534z" fill="#FA7272"/><path d="M7.2 6.133H6.133v.534H7.2v-.534zM4 4.533H2.933v.534H4v-.534zM5.6 4.533H4.533v.534H5.6v-.534zM7.2 4.533H6.133v.534H7.2v-.534zM11.733 1.333H11.2v.8h.534v-.8zM10.667 1.333h-.534v.8h.534v-.8zM9.6 1.333h-.533v.8H9.6v-.8zM8.533 1.333H8v.8h.533v-.8z" fill="#FA7272"/><path d="M15.733 13.067h-4.8v2.666h4.8v-2.666zM10.15 5.084a1.156 1.156 0 00-1.669 1.599l2.186 2.384a3.596 3.596 0 00.072 3.69l.194.31H14.4V9.333l-4.25-4.249z" fill="#fff"/><path d="M12.267 13.867h-.534v.533h.534v-.533z" fill="#6B962A"/><path d="M1.333 3.04V1.76c0-.236.191-.427.427-.427h1.28c.236 0 .427.191.427.427v1.28c0 .236-.191.427-.427.427H1.76a.427.427 0 01-.427-.427z" fill="#fff"/><path d="M2.134 2.133h-.8v.534h.8v-.534zM3.467 2.133h-.8v.534h.8v-.534z" fill="#AD7351"/><path d="M14.133 9.333a.266.266 0 01-.188-.078l-1.067-1.067a.266.266 0 01.377-.377l1.067 1.067a.267.267 0 01-.189.455z" fill="#F2A46F"/><path d="M13.333 2.825V1.333C13.333.597 12.736.001 12 0H1.333C.597 0 .001.597 0 1.333V7.2a1.33 1.33 0 001.196 1.32l1.002 2.602a1.333 1.333 0 001.724.764l6.26-2.41a3.854 3.854 0 00.332 3.422l.153.245v2.59c0 .147.12.267.266.267h4.8c.147 0 .267-.12.267-.267V6.931a3.49 3.49 0 00-1.022-2.458l-1.645-1.648zm0 1.595l.81 2.1a.8.8 0 01-.46 1.035l-.462.178a1.33 1.33 0 00.112-.533V4.42zM.533 7.2V1.333a.8.8 0 01.8-.8H12a.8.8 0 01.8.8v1.695h-.002l.002.006V7.2a.803.803 0 01-.018.138l-2.443-2.443a1.422 1.422 0 00-2.053 1.968L9.327 8H1.333a.8.8 0 01-.8-.8zM3.95 8.533l-1.897.73-.28-.73H3.95zm-.22 2.856a.8.8 0 01-1.034-.46l-.45-1.169 3.183-1.227v-.001h4.387l.347.378-6.433 2.479zm11.737 4.078H11.2v-2.134h4.267v2.134zm0-2.667H11.08l-.115-.185a3.326 3.326 0 01-.068-3.415.267.267 0 00-.035-.313L8.678 6.503a.89.89 0 011.284-1.23l4.25 4.249.377-.377-.987-.987.273-.107a1.333 1.333 0 00.765-1.722l-.903-2.344.864.866c.552.551.863 1.3.866 2.08V12.8z" fill="#FA7272"/><path d="M3.04 3.733c.383 0 .694-.31.694-.693V1.76a.693.693 0 00-.694-.693H1.76a.693.693 0 00-.693.693v1.28c0 .383.31.693.693.693h1.28zM1.6 3.04v-.373h.534v-.534H1.6V1.76a.16.16 0 01.16-.16h1.28a.16.16 0 01.16.16v.373h-.533v.534H3.2v.373a.16.16 0 01-.16.16H1.76a.16.16 0 01-.16-.16zM2.4 4.533H1.333v.534H2.4v-.534zM2.4 6.133H1.333v.534H2.4v-.534zM7.2 6.133H6.133v.534H7.2v-.534zM4 4.533H2.933v.534H4v-.534zM5.6 4.533H4.533v.534H5.6v-.534zM7.2 4.533H6.133v.534H7.2v-.534zM11.733 1.333H11.2v.8h.534v-.8zM10.667 1.333h-.534v.8h.534v-.8zM9.6 1.333h-.533v.8H9.6v-.8zM8.533 1.333H8v.8h.533v-.8zM12.267 13.867h-.534v.533h.534v-.533z" fill="#FA7272"/></svg><svg fill="none" viewBox="0 0 20 20" id="return-pay" xmlns="http://www.w3.org/2000/svg"><g clip-path="url(#brclip0)" fill="#2B587A"><path d="M16.775 2.99A8.802 8.802 0 0012.417.527 8.627 8.627 0 007.46.866a8.895 8.895 0 00-4.005 3.032A9.302 9.302 0 001.66 8.672h-.563a.445.445 0 00-.247.074.482.482 0 00-.096.703l2.124 2.5a.456.456 0 00.342.16.444.444 0 00.342-.16l2.124-2.5a.475.475 0 00.072-.502.465.465 0 00-.168-.2.445.445 0 00-.246-.075h-.481A5.906 5.906 0 016.754 5.04a5.585 5.585 0 013.747-1.446c3.136 0 5.687 2.628 5.687 5.859a5.949 5.949 0 01-2.798 5.04 4.336 4.336 0 00.235-3.255 4.252 4.252 0 00-.804-1.442 4.112 4.112 0 00-1.285-1.01 4 4 0 00-3.163-.184 4.073 4.073 0 00-1.387.856 4.213 4.213 0 00-.957 1.341c-.52.414-.937.95-1.215 1.564-.448.355-.82.803-1.091 1.314a4.338 4.338 0 00-.291 3.371c.18.552.47 1.06.85 1.491.38.432.842.777 1.358 1.016a3.994 3.994 0 003.285.028c.52-.23.988-.567 1.375-.992l.2.003c1.755 0 3.471-.536 4.93-1.54a9.087 9.087 0 003.268-4.103 9.397 9.397 0 00.505-5.281 9.229 9.229 0 00-2.428-4.68zm-6.38 13.809a3.096 3.096 0 01-1.848.622H8.53a3.114 3.114 0 01-1.51-.392 3.225 3.225 0 01-1.148-1.082A3.372 3.372 0 015.6 12.85l.004-.009.046-.105c.022.605.17 1.199.435 1.74.264.541.639 1.017 1.098 1.396.46.379.992.651 1.563.799a3.98 3.98 0 001.743.056 3.34 3.34 0 01-.093.073zm-.653-7.502c.63 0 1.246.192 1.77.553.524.36.932.873 1.173 1.472.241.6.304 1.26.181 1.896a3.313 3.313 0 01-.872 1.68 3.157 3.157 0 01-1.63.898 3.1 3.1 0 01-1.84-.186 3.208 3.208 0 01-1.43-1.209 3.352 3.352 0 01.397-4.142 3.142 3.142 0 012.251-.962zM4.13 15.703c0-.485.105-.963.307-1.401.041 1.09.49 2.12 1.253 2.877a4.038 4.038 0 002.839 1.18h.03c.241-.002.481-.026.718-.07a3.104 3.104 0 01-3.357.364 3.22 3.22 0 01-1.306-1.211 3.355 3.355 0 01-.484-1.739zm12.002-.45a7.801 7.801 0 01-5.18 2.39 4.27 4.27 0 00.078-.162c.49-.39.888-.888 1.165-1.459a6.6 6.6 0 003.534-2.427 6.941 6.941 0 001.37-4.142c0-3.748-2.96-6.797-6.598-6.797a6.504 6.504 0 00-4.547 1.876A6.895 6.895 0 003.91 9.118a.477.477 0 00.117.337.45.45 0 00.313.154l-1.121 1.32-1.12-1.32a.449.449 0 00.308-.135.475.475 0 00.135-.317A8.389 8.389 0 013.601 5.36a8.101 8.101 0 012.657-2.848 7.756 7.756 0 017.422-.579 7.996 7.996 0 013.044 2.403 8.319 8.319 0 011.6 3.59 8.442 8.442 0 01-.214 3.944 8.253 8.253 0 01-1.979 3.384z"/><path d="M9.4 13.047h.645c.12 0 .237.05.322.137a.476.476 0 01.133.332v.039a.476.476 0 01-.133.331.449.449 0 01-.322.137H9.09c-.102-.006-.14-.08-.132-.18a.482.482 0 00-.135-.34.455.455 0 00-.332-.136.446.446 0 00-.325.152.473.473 0 00-.119.348 1.103 1.103 0 00.3.772 1.042 1.042 0 00.743.322h.198v.156c0 .124.048.244.133.332a.448.448 0 00.644 0 .476.476 0 00.133-.332v-.165c.334-.039.642-.203.865-.46.224-.258.348-.592.348-.937v-.04c0-.372-.144-.73-.4-.993a1.347 1.347 0 00-.965-.413h-.644a.448.448 0 01-.322-.137.476.476 0 010-.663.448.448 0 01.322-.137h.94c.09.01.127.05.133.143a.477.477 0 00.12.337.45.45 0 00.643.028.475.475 0 00.146-.325 1.104 1.104 0 00-.288-.79 1.042 1.042 0 00-.754-.33h-.144v-.157a.476.476 0 00-.133-.331.448.448 0 00-.644 0 .476.476 0 00-.133.331v.162c-.351.03-.677.199-.91.47a1.432 1.432 0 00-.34.99c.015.362.165.705.419.956.254.25.593.39.945.39z"/></g><defs><clipPath id="brclip0"><path fill="#fff" transform="translate(.414)" d="M0 0h19.415v20H0z"/></clipPath></defs></svg><svg fill="none" viewBox="0 0 60 60" id="scale-zoom" xmlns="http://www.w3.org/2000/svg"><g opacity=".4" fill="#fff"><path d="M33.96 23.46h-5.776v-5.776a2.386 2.386 0 00-2.391-2.391 2.386 2.386 0 00-2.39 2.39v5.778h-5.778a2.386 2.386 0 00-2.39 2.39 2.386 2.386 0 002.39 2.391h5.777v5.777a2.386 2.386 0 002.391 2.391 2.386 2.386 0 002.39-2.39v-5.778h5.778a2.386 2.386 0 002.39-2.39 2.393 2.393 0 00-2.39-2.391z"/><path d="M25.805 45.55c-10.887 0-19.711-8.812-19.711-19.698 0-10.887 8.824-19.7 19.71-19.7 10.887 0 19.7 8.825 19.7 19.7S36.68 45.55 25.804 45.55zm32.203 9.141L44.73 41.414a24.427 24.427 0 005.579-15.562c0-13.536-10.97-24.516-24.516-24.516-13.547 0-24.504 10.98-24.504 24.516 0 13.535 10.969 24.515 24.516 24.515 5.906 0 11.32-2.086 15.55-5.566l13.278 13.277c.61.621 2.472.926 3.386 0a2.401 2.401 0 00-.011-3.387z"/></g></svg><svg fill="none" viewBox="0 0 30 30" id="scales" xmlns="http://www.w3.org/2000/svg"><path d="M9.93 26.044L8.604 30h12.79l-1.326-3.956H9.93zM0 17.143c0 2.476 2.022 4.484 4.516 4.484 2.495 0 4.517-2.008 4.517-4.484H0zM20.967 17.143c0 2.476 2.022 4.484 4.516 4.484 2.495 0 4.517-2.008 4.517-4.484h-9.033z" fill="#222"/><path d="M4.517 9.79l2.276 5.375H8.94L6.01 8.242h8.002v15.824h1.978V8.242h8.002l-2.931 6.923h2.148l2.275-5.375 2.276 5.375h2.148L26.14 6.264H15.99V3.69A1.977 1.977 0 0015 0a1.978 1.978 0 00-.988 3.69v2.574H3.862l-3.768 8.9h2.148L4.517 9.79z" fill="#222"/></svg><svg fill="none" viewBox="0 0 20 20" id="search" xmlns="http://www.w3.org/2000/svg"><g clip-path="url(#buclip0)" fill="#fff"><path d="M8.246 16.472C3.704 16.472.01 12.777.01 8.236S3.704 0 8.246 0c4.54 0 8.236 3.695 8.236 8.236s-3.695 8.236-8.236 8.236zm0-14.91A6.682 6.682 0 001.57 8.235a6.682 6.682 0 006.675 6.675 6.682 6.682 0 006.674-6.675A6.682 6.682 0 008.246 1.56zM19.212 20c-.2 0-.4-.076-.552-.229l-3.494-3.493a.78.78 0 011.104-1.104l3.494 3.493A.78.78 0 0119.212 20z"/></g><defs><clipPath id="buclip0"><path fill="#fff" d="M0 0h20v20H0z"/></clipPath></defs></svg><svg fill="none" viewBox="0 0 40 40" id="slider-left" xmlns="http://www.w3.org/2000/svg"><circle cx="20" cy="20" r="19.5" fill="#fff" stroke="#BDC5DC"/><g clip-path="url(#bvclip0)"><path d="M20.078 23.736l-2.855-3.362a1.218 1.218 0 010-1.581l2.855-3.362a1.221 1.221 0 111.862 1.581l-2.184 2.572 2.184 2.57a1.222 1.222 0 01-1.862 1.582z" fill="#BDC5DC"/></g><defs><clipPath id="bvclip0"><path fill="#fff" transform="rotate(90 4.583 19.583)" d="M0 0h9.167v9.167H0z"/></clipPath></defs></svg><svg fill="none" viewBox="0 0 40 40" id="slider-left__active" xmlns="http://www.w3.org/2000/svg"><circle cx="20" cy="20" r="20" transform="rotate(-180 20 20)" fill="#FA7272"/><g clip-path="url(#bwclip0)"><path d="M19.912 24.57l-2.855-3.363a1.218 1.218 0 010-1.58l2.855-3.363a1.221 1.221 0 111.862 1.581l-2.184 2.572 2.184 2.57a1.222 1.222 0 01-1.862 1.582z" fill="#fff"/></g><defs><clipPath id="bwclip0"><path fill="#fff" transform="rotate(90 4.083 19.917)" d="M0 0h9.167v9.167H0z"/></clipPath></defs></svg><svg fill="none" viewBox="0 0 40 40" id="slider-right" xmlns="http://www.w3.org/2000/svg"><circle cx="20" cy="20" r="19.5" transform="rotate(-180 20 20)" fill="#fff" stroke="#BDC5DC"/><g clip-path="url(#bxclip0)"><path d="M19.922 16.264l2.855 3.362a1.218 1.218 0 010 1.581l-2.855 3.362a1.221 1.221 0 11-1.862-1.581l2.184-2.572-2.184-2.57a1.222 1.222 0 011.862-1.582z" fill="#BDC5DC"/></g><defs><clipPath id="bxclip0"><path fill="#fff" transform="rotate(-90 20.417 4.583)" d="M0 0h9.167v9.167H0z"/></clipPath></defs></svg><svg fill="none" viewBox="0 0 40 40" id="slider-right__active" xmlns="http://www.w3.org/2000/svg"><circle cx="20" cy="20" r="20" fill="#FA7272"/><g clip-path="url(#byclip0)"><path d="M20.088 15.43l2.855 3.363a1.218 1.218 0 010 1.58l-2.855 3.363a1.221 1.221 0 11-1.862-1.581l2.184-2.572-2.184-2.57a1.222 1.222 0 011.862-1.582z" fill="#fff"/></g><defs><clipPath id="byclip0"><path fill="#fff" transform="rotate(-90 20.083 4.083)" d="M0 0h9.167v9.167H0z"/></clipPath></defs></svg><svg fill="none" viewBox="0 0 16 16" id="star" xmlns="http://www.w3.org/2000/svg"><path d="M15.46 5.569a1.544 1.544 0 00-.797-.366l-3.647-.527L9.385 1.39A1.535 1.535 0 007.999.532a1.535 1.535 0 00-1.385.857L4.983 4.676l-3.647.527A1.544 1.544 0 00.089 6.25a1.532 1.532 0 00.39 1.575l2.64 2.559-.623 3.613c-.077.447.046.903.34 1.249a1.548 1.548 0 001.901.37L8 13.91l3.262 1.706a1.548 1.548 0 001.902-.371c.293-.346.417-.801.34-1.25l-.623-3.612 2.64-2.559a1.53 1.53 0 00-.06-2.255zm-.736 1.444L11.81 9.84a.403.403 0 00-.117.358l.688 3.99a.406.406 0 01-.59.427L8.19 12.73a.409.409 0 00-.379 0l-3.602 1.883a.406.406 0 01-.59-.426l.688-3.99a.403.403 0 00-.117-.358L1.274 7.013a.404.404 0 01.226-.69l4.027-.581a.406.406 0 00.306-.222l1.802-3.63a.402.402 0 01.364-.225c.145 0 .29.075.365.225l1.801 3.63c.06.12.174.202.306.222l4.028.582a.404.404 0 01.226.69z" fill="#54A2C7"/></svg><svg fill="none" viewBox="0 0 16 16" id="star-active" xmlns="http://www.w3.org/2000/svg"><path d="M15.447 5.569a1.544 1.544 0 00-.798-.366l-3.647-.527-1.63-3.287A1.535 1.535 0 007.985.532 1.535 1.535 0 006.6 1.39L4.968 4.676l-3.647.527A1.544 1.544 0 00.075 6.25a1.532 1.532 0 00.391 1.575l2.639 2.559-.623 3.613c-.077.447.047.903.34 1.249a1.548 1.548 0 001.902.37l3.262-1.705 3.262 1.706a1.548 1.548 0 001.902-.371c.293-.346.417-.801.34-1.25l-.624-3.612 2.64-2.559a1.53 1.53 0 00-.059-2.255z" fill="#54A2C7"/></svg><svg fill="none" viewBox="0 0 12 12" id="stars" xmlns="http://www.w3.org/2000/svg"><path d="M11.478 4.186l-3.305-.312a.572.572 0 01-.473-.35L6.516.654a.567.567 0 00-1.051 0l-1.174 2.87a.56.56 0 01-.474.35l-3.304.312c-.493.048-.692.663-.322.995l2.49 2.187c.161.142.227.35.18.559l-.748 3.068c-.114.482.407.88.843.625L5.71 10a.573.573 0 01.578 0l2.755 1.62a.57.57 0 00.843-.625l-.739-3.068a.566.566 0 01.18-.559l2.49-2.187c.36-.332.152-.947-.34-.995z" fill="#FA7272"/></svg><svg fill="none" viewBox="0 0 30 30" id="twitter" xmlns="http://www.w3.org/2000/svg"><g clip-path="url(#ccclip0)"><path d="M15.002 30c8.284 0 15-6.716 15-15 0-8.284-6.716-15-15-15-8.284 0-15 6.716-15 15 0 8.284 6.716 15 15 15z" fill="#55ACEE"/><path d="M24.189 10.78a7.155 7.155 0 01-2.06.564 3.595 3.595 0 001.577-1.983c-.693.41-1.46.709-2.277.87a3.586 3.586 0 00-6.11 3.27 10.178 10.178 0 01-7.39-3.746 3.585 3.585 0 001.11 4.787 3.56 3.56 0 01-1.624-.45v.046a3.587 3.587 0 002.876 3.515 3.571 3.571 0 01-1.62.062 3.59 3.59 0 003.35 2.49 7.194 7.194 0 01-5.308 1.485 10.141 10.141 0 005.496 1.61c6.594 0 10.2-5.462 10.2-10.2 0-.156-.003-.31-.01-.464a7.27 7.27 0 001.79-1.856z" fill="#fff"/></g><defs><clipPath id="ccclip0"><path fill="#fff" d="M0 0h30v30H0z"/></clipPath></defs></svg><svg fill="none" viewBox="0 0 40 40" id="visa" xmlns="http://www.w3.org/2000/svg"><g clip-path="url(#cdclip0)"><path d="M14.666 25.746l2.032-11.428h3.174l-1.968 11.428h-3.238z" fill="#3C58BF"/><path d="M14.666 25.746l2.603-11.428h2.603l-1.968 11.428h-3.238z" fill="#293688"/><path d="M29.396 14.444c-.635-.254-1.65-.508-2.92-.508-3.175 0-5.461 1.588-5.461 3.873 0 1.715 1.587 2.604 2.857 3.175 1.27.572 1.65.952 1.65 1.46 0 .762-1.015 1.143-1.904 1.143-1.27 0-1.968-.19-3.047-.635l-.445-.19-.444 2.603c.762.318 2.158.635 3.619.635 3.365 0 5.587-1.587 5.587-4 0-1.333-.825-2.35-2.73-3.175-1.143-.571-1.841-.889-1.841-1.46 0-.508.571-1.016 1.84-1.016 1.08 0 1.842.19 2.413.445l.318.127.508-2.476z" fill="#3C58BF"/><path d="M29.396 14.444c-.635-.254-1.65-.508-2.92-.508-3.175 0-4.89 1.588-4.89 3.873 0 1.715 1.016 2.604 2.286 3.175 1.27.572 1.65.952 1.65 1.46 0 .762-1.015 1.143-1.904 1.143-1.27 0-1.968-.19-3.047-.635l-.445-.19-.444 2.603c.762.318 2.158.635 3.619.635 3.365 0 5.587-1.587 5.587-4 0-1.333-.825-2.35-2.73-3.175-1.143-.571-1.841-.889-1.841-1.46 0-.508.571-1.016 1.84-1.016 1.08 0 1.842.19 2.413.445l.318.127.508-2.476z" fill="#293688"/><path d="M34.858 14.318c-.762 0-1.333.063-1.65.825l-4.763 10.603h3.429l.635-1.905h4.063l.381 1.905h3.048l-2.667-11.428h-2.476zm-1.46 7.619c.19-.572 1.27-3.365 1.27-3.365s.254-.699.444-1.143l.19 1.08s.635 2.856.762 3.491h-2.666v-.063z" fill="#3C58BF"/><path d="M35.62 14.318c-.762 0-1.333.063-1.65.825l-5.525 10.603h3.429l.635-1.905h4.063l.381 1.905h3.048l-2.667-11.428H35.62zm-2.222 7.619a313.03 313.03 0 001.27-3.365s.254-.699.444-1.143l.19 1.08s.635 2.856.762 3.491h-2.666v-.063z" fill="#293688"/><path d="M8.824 22.317l-.317-1.65c-.571-1.905-2.413-4-4.444-5.016L6.92 25.809h3.428l5.143-11.428h-3.428l-3.239 7.936z" fill="#3C58BF"/><path d="M8.824 22.317l-.317-1.65c-.571-1.905-2.413-4-4.444-5.016L6.92 25.809h3.428l5.143-11.428h-2.794l-3.873 7.936z" fill="#293688"/><path d="M0 14.318l.571.127c4.064.952 6.858 3.365 7.937 6.222L7.365 15.27c-.19-.762-.762-.952-1.46-.952H0z" fill="#FFBC00"/><path d="M0 14.318c4.063.952 7.429 3.428 8.508 6.285l-1.08-4.508a1.55 1.55 0 00-1.523-1.206L0 14.318z" fill="#F7981D"/><path d="M0 14.318c4.063.952 7.429 3.428 8.508 6.285l-.762-2.476c-.19-.762-.444-1.524-1.333-1.841L0 14.318z" fill="#ED7C00"/><path d="M12 21.937l-2.159-2.16-1.016 2.414-.254-1.588c-.571-1.905-2.412-4-4.444-5.016l2.857 10.16h3.429L12 21.936zM17.904 25.746l-2.73-2.793-.508 2.793h3.238zM25.206 21.81c.253.254.38.444.317.698 0 .762-1.016 1.143-1.905 1.143-1.27 0-1.968-.19-3.047-.635l-.445-.19-.444 2.603c.762.317 2.158.635 3.619.635 2.031 0 3.682-.572 4.635-1.587l-2.73-2.667zM28.889 25.746h2.984l.635-1.905h4.063l.381 1.905H40l-1.08-4.635-3.81-3.682.191 1.016s.635 2.857.762 3.492h-2.666c.254-.635 1.27-3.365 1.27-3.365s.253-.699.444-1.143" fill="#051244"/></g><defs><clipPath id="cdclip0"><path fill="#fff" d="M0 0h40v40H0z"/></clipPath></defs></svg><svg fill="none" viewBox="0 0 30 30" id="vk" xmlns="http://www.w3.org/2000/svg"><path d="M15 30c8.284 0 15-6.716 15-15 0-8.284-6.716-15-15-15C6.716 0 0 6.716 0 15c0 8.284 6.716 15 15 15z" fill="#4D76A1"/><path fill-rule="evenodd" clip-rule="evenodd" d="M14.433 21.579h1.178s.355-.04.537-.235c.167-.18.162-.517.162-.517s-.023-1.58.71-1.813c.723-.229 1.65 1.527 2.634 2.202.744.511 1.31.4 1.31.4l2.63-.037s1.376-.085.723-1.167c-.053-.088-.38-.8-1.955-2.263-1.65-1.53-1.429-1.283.558-3.931 1.21-1.613 1.694-2.597 1.543-3.019-.144-.401-1.034-.295-1.034-.295l-2.962.018s-.22-.03-.382.068c-.16.095-.262.317-.262.317s-.468 1.248-1.094 2.31c-1.318 2.24-1.846 2.357-2.061 2.218-.502-.324-.377-1.302-.377-1.996 0-2.17.33-3.075-.64-3.31-.322-.077-.56-.129-1.383-.137-1.056-.011-1.95.003-2.457.251-.337.165-.597.533-.439.554.196.026.64.12.874.44.304.412.293 1.34.293 1.34s.175 2.554-.407 2.872c-.4.218-.947-.227-2.123-2.258C9.407 12.55 8.952 11.4 8.952 11.4s-.087-.216-.244-.33c-.19-.14-.455-.184-.455-.184l-2.814.018s-.423.012-.578.196c-.138.163-.01.501-.01.501s2.202 5.155 4.697 7.752c2.288 2.382 4.885 2.226 4.885 2.226z" fill="#fff"/></svg><svg fill="none" viewBox="0 0 25 32" id="yandex-pay" xmlns="http://www.w3.org/2000/svg"><path fill-rule="evenodd" clip-rule="evenodd" d="M0 15.873c0-1.796.151-2.937 3.872-5.714C6.952 7.859 16.828 0 16.828 0v13.119h7.51V32H2.345A2.353 2.353 0 010 29.654v-13.78z" fill="#FFCF01"/><path fill-rule="evenodd" clip-rule="evenodd" d="M16.829 13.12v7.6l-13.8 9.401 17.447-5.676V13.119H16.83z" fill="#D3AC06"/><path fill-rule="evenodd" clip-rule="evenodd" d="M10.521 12.725c.807-.961 1.986-1.3 2.633-.758.647.543.518 1.763-.29 2.725-.806.961-1.985 1.3-2.632.757s-.517-1.762.29-2.724z" fill="#231F20"/></svg></svg>