<svg width="136" height="29" viewBox="0 0 136 29" fill="none" xmlns="http://www.w3.org/2000/svg">
<path fill-rule="evenodd" clip-rule="evenodd" d="M26.0315 10.4278C25.225 10.4321 24.4378 10.6745 23.7693 11.1245C23.1008 11.5745 22.581 12.2118 22.2754 12.9561C21.9697 13.7004 21.892 14.5183 22.052 15.3065C22.212 16.0948 22.6026 16.8182 23.1744 17.3854C23.7462 17.9525 24.4737 18.3381 25.265 18.4934C26.0564 18.6488 26.8761 18.5669 27.6208 18.2581C28.3655 17.9493 29.0019 17.4275 29.4495 16.7585C29.8971 16.0895 30.136 15.3032 30.136 14.4989C30.1346 13.9629 30.0273 13.4323 29.8202 12.9376C29.6132 12.4429 29.3104 11.9937 28.9293 11.6156C28.5481 11.2376 28.0961 10.9381 27.5989 10.7343C27.1016 10.5305 26.5691 10.4263 26.0315 10.4278ZM22.3708 9.01446C22.9872 9.00927 23.5882 8.82226 24.0982 8.47699C24.6082 8.13171 25.0043 7.64363 25.2366 7.07425C25.4689 6.50487 25.527 5.87967 25.4035 5.27742C25.2801 4.67518 24.9806 4.12284 24.5429 3.69002C24.1052 3.25719 23.5489 2.96325 22.9439 2.84522C22.339 2.7272 21.7125 2.79037 21.1435 3.02679C20.5745 3.26321 20.0884 3.66229 19.7465 4.17374C19.4045 4.68519 19.222 5.28612 19.222 5.90082C19.2235 6.31152 19.3061 6.71791 19.4652 7.09674C19.6242 7.47557 19.8566 7.81941 20.1491 8.1086C20.4415 8.39778 20.7883 8.62664 21.1695 8.78208C21.5507 8.93751 21.9589 9.01648 22.3708 9.01446ZM22.3708 20.0426C21.7543 20.0473 21.153 20.234 20.6427 20.579C20.1324 20.924 19.736 21.412 19.5034 21.9813C19.2707 22.5506 19.2123 23.1759 19.3355 23.7783C19.4587 24.3807 19.758 24.9332 20.1956 25.3663C20.6332 25.7993 21.1896 26.0935 21.7946 26.2117C22.3996 26.3299 23.0262 26.2668 23.5953 26.0305C24.1645 25.7941 24.6507 25.3951 24.9927 24.8835C25.3348 24.372 25.5173 23.771 25.5173 23.1562C25.5132 22.3275 25.1796 21.5343 24.5897 20.9505C23.9998 20.3668 23.2018 20.0403 22.3708 20.0426ZM13.7068 24.3723C13.2486 24.3758 12.8018 24.5144 12.4225 24.7708C12.0432 25.0271 11.7486 25.3897 11.5756 25.8128C11.4027 26.2359 11.3593 26.7006 11.4508 27.1483C11.5423 27.5959 11.7646 28.0066 12.0898 28.3284C12.415 28.6503 12.8285 28.8689 13.2781 28.9568C13.7277 29.0447 14.1934 28.9978 14.6163 28.8222C15.0393 28.6466 15.4007 28.35 15.6549 27.9699C15.9091 27.5897 16.0447 27.1431 16.0447 26.6862C16.0436 26.3812 15.9822 26.0794 15.8641 25.798C15.746 25.5167 15.5734 25.2613 15.3563 25.0464C15.1392 24.8315 14.8818 24.6614 14.5988 24.5458C14.3158 24.4301 14.0127 24.3712 13.7068 24.3723ZM13.7068 1.66008e-05C13.2486 0.00347789 12.8018 0.14212 12.4225 0.398466C12.0432 0.654813 11.7486 1.01739 11.5756 1.44048C11.4027 1.86358 11.3593 2.32826 11.4508 2.77595C11.5423 3.22363 11.7646 3.63428 12.0898 3.95613C12.415 4.27798 12.8285 4.49662 13.2781 4.58449C13.7277 4.67236 14.1934 4.62553 14.6163 4.44989C15.0393 4.27426 15.4007 3.97769 15.6549 3.59756C15.9091 3.21744 16.0447 2.77078 16.0447 2.31389C16.0436 2.00887 15.9822 1.70707 15.8641 1.42572C15.746 1.14436 15.5734 0.888961 15.3563 0.674098C15.1392 0.459235 14.8818 0.289117 14.5988 0.173458C14.3158 0.0577989 14.0127 -0.00113656 13.7068 1.66008e-05ZM4.98569 21.4734C4.65067 21.476 4.32392 21.5775 4.04665 21.765C3.76939 21.9526 3.55402 22.2178 3.42772 22.5272C3.30141 22.8367 3.26982 23.1765 3.33693 23.5038C3.40405 23.8311 3.56685 24.1313 3.80482 24.3665C4.04279 24.6016 4.34527 24.7613 4.6741 24.8252C5.00294 24.8892 5.3434 24.8546 5.65255 24.7259C5.96171 24.5971 6.22571 24.38 6.41126 24.1018C6.59682 23.8236 6.69561 23.4969 6.69519 23.1628C6.6949 22.9394 6.65042 22.7183 6.5643 22.5121C6.47818 22.3059 6.35211 22.1187 6.19331 21.9611C6.03451 21.8036 5.8461 21.6788 5.63888 21.594C5.43165 21.5092 5.20968 21.466 4.98569 21.4668V21.4734ZM4.98569 4.27717C4.65129 4.2802 4.32528 4.38184 4.04871 4.56931C3.77214 4.75677 3.5574 5.02166 3.43153 5.33061C3.30566 5.63956 3.2743 5.97875 3.34139 6.30544C3.40849 6.63213 3.57104 6.93172 3.80857 7.16645C4.0461 7.40118 4.34798 7.56056 4.67618 7.62452C5.00438 7.68847 5.34422 7.65413 5.65288 7.52582C5.96155 7.39752 6.22523 7.18099 6.41071 6.90351C6.59619 6.62604 6.69518 6.30003 6.69519 5.96655C6.6949 5.74318 6.65042 5.52206 6.5643 5.31585C6.47818 5.10965 6.35211 4.92241 6.19331 4.76487C6.03451 4.60733 5.8461 4.48257 5.63888 4.39776C5.43165 4.31294 5.20968 4.26973 4.98569 4.27059V4.27717ZM1.35794 13.1645C1.08767 13.1667 0.824088 13.2486 0.60042 13.3999C0.376752 13.5512 0.203005 13.7651 0.101077 14.0148C-0.000850497 14.2644 -0.0263971 14.5385 0.0276572 14.8026C0.0817115 15.0667 0.212948 15.3089 0.404825 15.4987C0.596702 15.6885 0.840633 15.8174 1.10587 15.8692C1.37111 15.921 1.64579 15.8934 1.89529 15.7897C2.14479 15.6861 2.35794 15.5111 2.50788 15.2869C2.65782 15.0626 2.73783 14.7991 2.73784 14.5296C2.73727 14.3496 2.7011 14.1714 2.63142 14.0054C2.56173 13.8393 2.45989 13.6885 2.33173 13.5618C2.20356 13.435 2.05158 13.3346 1.88449 13.2665C1.7174 13.1983 1.53847 13.1637 1.35794 13.1645ZM101.116 13.7978V13.0002L101.098 12.8446L101.083 12.689L101.065 12.5422L101.05 12.3889L101.034 12.242L101.008 12.1018L100.993 11.9572L100.968 11.817L100.944 11.6789L100.92 11.5409L100.887 11.4028L100.863 11.2714L100.83 11.1333L100.806 11.004L100.773 10.8813L100.74 10.7499L100.7 10.6272L100.617 10.4913L100.575 10.3686L100.542 10.2547L100.503 10.132L100.461 10.018L100.421 9.90408L100.371 9.79014L100.331 9.67619L100.283 9.57102L100.241 9.45708L100.193 9.34971L100.144 9.24454L100.094 9.14593L100.039 9.04076L99.9884 8.94215L99.94 8.84574L99.8829 8.74714L99.8258 8.65073L99.7686 8.56089L99.7115 8.46229L99.6544 8.37245L99.5972 8.28261L99.5401 8.19278L99.4742 8.1117L99.4193 8.02187L99.3533 7.94079L99.2984 7.86191L99.2325 7.78084L99.1688 7.69976L99.1029 7.62527L99.0391 7.54419L98.9732 7.46969L98.9073 7.39738L98.8348 7.32508L98.7601 7.25934L98.6964 7.18484L98.6217 7.1213L98.4766 6.98983L98.3294 6.86055L98.1822 6.73784L98.0284 6.6239L97.8724 6.50996L97.7098 6.4026L97.556 6.30619L97.3912 6.20758L97.2286 6.11774L97.0572 6.02791L96.8946 5.94683L96.7232 5.87233L96.5518 5.80003L96.3826 5.72772L96.2024 5.67075L96.031 5.60501L95.8508 5.54804L95.6729 5.49984L95.5015 5.44944L95.3213 5.40123L95.1433 5.3596L94.9565 5.32674L94.7764 5.29606L94.5962 5.26319L94.4182 5.2369L94.2292 5.21279L94.0513 5.19746L93.8711 5.18212L93.6931 5.16459H92.2429L92.0627 5.18212L91.8825 5.19746L91.7045 5.21279L91.5156 5.2369L91.3376 5.26319L91.1574 5.29606L90.9794 5.32674L90.7905 5.3596L90.6125 5.40123L90.4323 5.44944L90.2609 5.49984L90.0829 5.54804L89.9027 5.60501L89.7313 5.67075L89.5534 5.72772L89.382 5.80003L89.2106 5.87233L89.0392 5.94683L88.8766 6.02791L88.7052 6.11774L88.5426 6.20758L88.38 6.30619L88.224 6.4026L88.0614 6.50996L87.9076 6.6239L87.7516 6.73784L87.6044 6.86055L87.4571 6.98983L87.3121 7.1213L87.2374 7.18484L87.1737 7.25934L87.099 7.32508L87.0353 7.39738L86.9605 7.46969L86.8968 7.54419L86.8309 7.62527L86.765 7.69976L86.7013 7.78084L86.6353 7.86191L86.5694 7.94298L86.5057 8.02406L86.4486 8.11389L86.3827 8.19497L86.3255 8.28481L86.2684 8.37464L86.2113 8.46448L86.1541 8.56308L86.097 8.65292L86.0399 8.74933L85.9915 8.84793L85.9344 8.94435L85.8861 9.04295L85.8289 9.14812L85.7806 9.24673L85.7301 9.3519L85.6905 9.45927L85.6422 9.57321L85.5916 9.67839L85.5521 9.79233L85.5103 9.90627L85.462 10.0202L85.4202 10.1341L85.3895 10.2569L85.3477 10.3708L85.306 10.4935L85.2752 10.6228L85.2423 10.7455L85.2005 10.877L85.1763 10.9997L85.1434 11.1289L85.1126 11.267L85.0863 11.3984L85.0533 11.5365L85.0291 11.6745L85.005 11.8126L84.9808 11.9528L84.9654 12.0974L84.9412 12.2377L84.9236 12.3845L84.9083 12.5379L84.8907 12.6847L84.8753 12.8402V12.9958L84.8599 13.1492V15.439L84.8753 15.5945V15.7479L84.8907 15.9035L84.9083 16.0503L84.9324 16.2059L84.9478 16.3527L84.972 16.4907L84.9896 16.6375L85.0137 16.7756L85.0379 16.9136L85.0709 17.0517L85.095 17.1919L85.128 17.3212L85.161 17.4526L85.1851 17.5819L85.2247 17.7134L85.2576 17.8339L85.2906 17.9654L85.3323 18.0881L85.3719 18.2086L85.4049 18.3247L85.4532 18.4452L85.4949 18.5592L85.5345 18.6731L85.585 18.7871L85.6246 18.9032L85.6729 19.0084L85.7235 19.1135L85.7718 19.2209L85.8201 19.3261L85.8685 19.4313L85.9256 19.5299L85.9762 19.6263L86.0333 19.7249L86.0904 19.8235L86.1453 19.9199L86.2047 20.0097L86.2596 20.1083L86.3167 20.1982L86.3827 20.288L86.4398 20.3691L86.5057 20.4589L86.5694 20.54L86.6353 20.6211L86.7013 20.7021L86.765 20.7854L86.8309 20.8665L86.8968 20.9388L86.9605 21.0133L87.0353 21.0856L87.099 21.1601L87.1737 21.2324L87.2462 21.3069L87.3187 21.3704L87.3934 21.4362L87.5406 21.5676L87.6857 21.6969L87.8417 21.8109L87.9955 21.9248L88.1515 22.0387L88.3141 22.1439L88.4767 22.2425L88.6393 22.3411L88.8019 22.431L88.9667 22.512L89.1381 22.5931L89.3073 22.6676L89.4787 22.7399L89.65 22.8056L89.8214 22.8692L89.9928 22.9262L90.173 22.9853L90.3422 23.0423L90.5224 23.0817L90.7026 23.1299L90.8717 23.1628L91.0519 23.2044L91.2321 23.2373L91.4035 23.2614L91.5815 23.2943L91.7529 23.3096L91.9331 23.3337L92.1022 23.3512H93.8315L94.0029 23.3337L94.1809 23.3096L94.3523 23.2943L94.5325 23.2614L94.7038 23.2373L94.8818 23.2044L95.062 23.1628L95.2334 23.1299L95.4114 23.0817L95.5916 23.0423L95.763 22.9853L95.9409 22.9262L96.1123 22.8692L96.2837 22.8056L96.4551 22.7399L96.6265 22.6676L96.7979 22.5931L96.9693 22.512L97.1319 22.431L97.2945 22.3411L97.4659 22.2425L97.6197 22.1439L97.7823 22.0387L97.9383 21.9248L98.0921 21.8109L98.2481 21.6969L98.3953 21.5676L98.5403 21.4362L98.6151 21.3704L98.6876 21.3069L98.7601 21.2324L98.8348 21.1601L98.9007 21.0856L98.9732 21.0133L99.0391 20.9388L99.1029 20.8665L99.1776 20.7854L99.2413 20.7021L99.3072 20.6211L99.3643 20.54L99.4303 20.4589L99.494 20.3691L99.5511 20.288L99.617 20.1982L99.6742 20.1083L99.7313 20.0097L99.7884 19.9199L99.8455 19.8235L99.9027 19.7249L99.9598 19.6263L100.008 19.5299L100.065 19.4313L100.114 19.3261L100.162 19.2209L100.212 19.1135L100.261 19.0084L100.309 18.9032L100.358 18.7871L100.399 18.6731L100.439 18.5592L100.489 18.4452L100.529 18.3247L100.571 18.2086L100.604 18.0881L100.643 17.9654L100.676 17.8339L100.718 17.7134L100.749 17.5819L100.782 17.4526L100.806 17.3212L100.839 17.1919L100.863 17.0517L100.896 16.9136L100.92 16.7756L100.944 16.6375L100.968 16.4907L100.986 16.3527L101.01 16.2059L101.025 16.0503L101.043 15.9035L101.056 15.7501V15.5967L101.072 15.4411V13.9577L101.116 13.7978ZM96.7737 14.4989V15.3754L96.7583 15.5792V15.783L96.743 15.978L96.7188 16.1664L96.7012 16.3527L96.677 16.5411L96.6529 16.712L96.6287 16.8829L96.6045 17.0538L96.5716 17.2182L96.5386 17.3716L96.5056 17.5271L96.4727 17.6739L96.4331 17.8207L96.3914 17.9588L96.3518 18.0881L96.3101 18.2195L96.2705 18.3488L96.22 18.4715L96.1716 18.5855L96.1233 18.6994L96.0662 18.8133L96.0178 18.9207L95.9607 19.0171L95.9036 19.1157L95.8465 19.2143L95.7805 19.302L95.7168 19.3852L95.6597 19.4751L95.585 19.5474L95.5212 19.6285L95.4553 19.703L95.3806 19.7665L95.3081 19.8322L95.2356 19.898L95.1609 19.9549L95.0796 20.0119L94.9983 20.0601L94.917 20.1171L94.8357 20.1587L94.7544 20.2069L94.6731 20.2486L94.583 20.2814L94.4929 20.3209L94.4028 20.3537L94.3149 20.3778L94.2248 20.4107L94.126 20.4348L94.0293 20.4611L93.9392 20.4764L93.8337 20.4918L93.7348 20.5093L93.6382 20.5246H92.3659L92.2692 20.5093L92.1704 20.4918L92.0649 20.4764L91.9748 20.4611L91.8781 20.4348L91.7792 20.4107L91.6913 20.3778L91.6013 20.3537L91.5112 20.3209L91.4211 20.2814L91.331 20.2486L91.2497 20.2069L91.1684 20.1587L91.0871 20.1171L91.0058 20.0601L90.9245 20.0119L90.852 19.9549L90.7289 19.9133L90.6564 19.8476L90.5839 19.7818L90.518 19.7183L90.4455 19.6438L90.3796 19.5627L90.3136 19.4904L90.2499 19.4006L90.184 19.3173L90.1269 19.2297L90.0609 19.1311L90.0038 19.0325L89.9467 18.9361L89.8983 18.8287L89.8412 18.7147L89.7929 18.6008L89.7445 18.4869L89.7028 18.3642L89.6544 18.2349L89.6127 18.1034L89.5731 17.9741L89.5314 17.8361L89.4918 17.6893L89.4589 17.5425L89.4259 17.3869L89.393 17.2335L89.36 17.0692L89.3358 16.8983L89.3117 16.7274L89.2875 16.5477L89.2633 16.368L89.2479 16.1818L89.2304 15.9933L89.215 15.7983L89.1974 15.5945V15.3754L89.1798 15.1563V13.3771L89.1974 13.158V12.9388L89.215 12.7351L89.2304 12.5379L89.2479 12.3516L89.2633 12.1632L89.2875 11.9835L89.3117 11.806L89.3358 11.6351L89.36 11.462L89.393 11.3086L89.4259 11.1443L89.4589 10.9909L89.4918 10.8441L89.5314 10.706L89.5731 10.5658L89.6127 10.4278L89.6544 10.2985L89.7028 10.167L89.7445 10.0443L89.7929 9.93037L89.8412 9.81643L89.8983 9.71125L89.9467 9.60608L90.0038 9.49871L90.0609 9.4023L90.1269 9.31246L90.184 9.21386L90.2499 9.13279L90.3136 9.05171L90.3796 8.97064L90.4455 8.89614L90.518 8.82383L90.5839 8.74933L90.6564 8.68579L90.7289 8.62005L90.8124 8.56308L90.8849 8.50611L90.9662 8.45572L91.0475 8.40751L91.1288 8.35931L91.2101 8.31767L91.2914 8.27823L91.3815 8.2366L91.4716 8.20373L91.5617 8.16429L91.6518 8.138L91.7397 8.10513L91.8276 8.08103L91.9243 8.06569L92.0144 8.04159L92.1198 8.02406L92.2187 8.00872L92.3154 7.99119H93.5942L93.6909 8.00872L93.7898 8.02406L93.8952 8.04159L93.9853 8.06569L94.082 8.08103L94.1809 8.10513L94.271 8.138L94.3589 8.16429L94.449 8.20373L94.5391 8.2366L94.6291 8.27823L94.7104 8.31767L94.7917 8.35931L94.873 8.40751L94.9543 8.45572L95.0356 8.50611L95.1169 8.56308L95.1917 8.62005L95.2642 8.68579L95.3367 8.74933L95.4114 8.82383L95.4773 8.89614L95.541 8.97064L95.6157 9.05171L95.6729 9.13279L95.7366 9.21386L95.8025 9.31246L95.8596 9.4023L95.9168 9.49871L95.9739 9.60608L96.0222 9.71125L96.0794 9.81643L96.1277 9.93037L96.176 10.0443L96.2266 10.167L96.2661 10.2985L96.3079 10.4278L96.3474 10.5658L96.3892 10.706L96.4287 10.8441L96.4617 10.9997L96.4947 11.1443L96.5606 11.4708L96.5847 11.6351L96.6089 11.806L96.6331 11.9835L96.6573 12.1632L96.6748 12.3516L96.699 12.5379L96.7144 12.7416V12.9388L96.7298 13.158V14.0344L96.7737 14.4989ZM83.9129 5.55242H79.0063L73.4493 12.9016H73.3922V6.93724L73.3768 6.85617L73.3526 6.77509L73.3263 6.69402L73.2933 6.61076L73.2538 6.52968L73.212 6.43985L73.1725 6.35877L73.1153 6.2777L73.0582 6.18786L73.0011 6.10679L72.9286 6.02572L72.8626 5.95122L72.7813 5.87014L72.7 5.79564L72.6495 5.7562L72.6099 5.72334L72.5616 5.6817L72.5133 5.64884L72.4627 5.61816L72.4144 5.58529L72.3573 5.55242L72.3089 5.51956L72.2518 5.49545L72.1947 5.46259L72.1375 5.42972L72.0804 5.40562L72.0145 5.38151L71.9574 5.35741L71.8936 5.33112L71.8277 5.30701L71.7618 5.29168L71.6893 5.26757L71.6234 5.25004L71.5508 5.23471L71.4761 5.21718L71.4036 5.20184H71.3223L71.2498 5.1865H69.8479L69.7337 5.20184H69.6194L69.5052 5.21718H69.3997L69.2942 5.23251L69.2437 5.25004H69.1953V22.9327H73.4164V13.8788H73.4735L79.9446 22.9568H84.761L77.8747 13.4143L83.9129 5.55242ZM66.7278 18.1253V17.7747L66.7124 17.6608V17.5534L66.697 17.4482L66.6794 17.3431L66.6553 17.2357L66.6399 17.1305L66.6157 17.0319L66.5915 16.9355L66.5674 16.8369L66.5344 16.7383L66.508 16.6507L66.4773 16.5608L66.4443 16.4622L66.4026 16.3812L66.3696 16.2913L66.33 16.2015L66.2971 16.1204L66.2575 16.0393L66.2158 15.9561L66.174 15.875L66.1345 15.7939L66.0862 15.7128L66.0444 15.6384L65.9961 15.566L65.9477 15.4915L65.8972 15.4192L65.8488 15.3469L65.7434 15.2067L65.6379 15.0774L65.5302 14.9547L65.4182 14.832L65.3039 14.7115L65.1809 14.6041L65.0578 14.4902L64.9282 14.3916L64.8051 14.2952L64.6755 14.1966L64.5458 14.1067L64.414 14.0257L64.2932 13.9446L64.1613 13.8635L64.0317 13.789L63.902 13.7167L63.7702 13.651L63.6405 13.5852L63.5175 13.5283L63.3879 13.4647L63.267 13.4143L63.144 13.3573L63.0143 13.3091L62.8913 13.2609L62.777 13.2193L62.6627 13.1777L62.5485 13.1382L62.443 13.0966L62.3441 13.0572L62.2475 13.0243L62.1574 12.9914L62.0673 12.9586L61.7267 12.8359L61.3839 12.7131L60.6984 12.4787L60.349 12.356L59.9667 12.2442L59.2811 11.9988L59.0614 11.9265L58.8416 11.852L58.6219 11.7709L58.4022 11.6811L58.2967 11.6417L58.1912 11.5913L58.0924 11.5518L58.0023 11.4949L57.9056 11.4445L57.8155 11.3875L57.7254 11.3393L57.6441 11.2736L57.5628 11.2166L57.4815 11.1508L57.409 11.0873L57.3431 11.0216L57.2772 10.9558L57.2134 10.8835L57.1563 10.8025L57.0992 10.728L57.0728 10.6885L57.0486 10.6469L57.0245 10.6052L57.0091 10.557L56.9915 10.5154L56.9673 10.476L56.952 10.4256V10.3774L56.9366 10.3292V9.78356L56.952 9.68496L56.9695 9.58636L56.9849 9.49871L57.0091 9.40887L57.042 9.31027L57.075 9.22043L57.1146 9.13936L57.1651 9.04952L57.2134 8.96845L57.2618 8.88738L57.3277 8.81288L57.3936 8.7318L57.4661 8.65949L57.5386 8.59376L57.5804 8.56089L57.6199 8.52802L57.6617 8.49516L57.71 8.46229L57.7518 8.42942L57.8001 8.39875L57.8484 8.37245L57.899 8.34178L57.9473 8.31548L57.9891 8.30014L58.0374 8.27604L58.0946 8.25194L58.1517 8.22784L58.2088 8.20373L58.2659 8.1862L58.3319 8.1621L58.389 8.14676L58.4527 8.12047L58.5098 8.10513L58.5758 8.08979H58.6483L58.7142 8.07226H58.7867L58.8526 8.05473H60.2062L60.3841 8.07007H60.5643L60.7423 8.08541L60.9313 8.1117L61.1093 8.12704L61.2806 8.15114L61.4608 8.18401L61.6388 8.20811L61.8102 8.24098L61.9816 8.26509L62.153 8.29795L62.3244 8.33959L62.4958 8.37245L62.6584 8.41189L62.821 8.44476L62.9836 8.48639L63.1396 8.52583L63.2934 8.57623L63.4494 8.61567L63.5944 8.6573L63.7416 8.70551L63.8888 8.74714L64.0273 8.79535L64.1657 8.84355L64.2953 8.89395L64.4272 8.94215L64.5568 8.9816L64.6799 9.03199L65.7631 6.97011H65.7456L65.7214 6.95477H65.6972L65.6731 6.93067L65.6401 6.91314L65.6071 6.88903L65.5764 6.8737L65.5346 6.84959L65.4863 6.81673L65.4358 6.79262L65.3874 6.75976L65.3391 6.73565L65.2819 6.70279L65.216 6.66992L65.1589 6.62829L65.0864 6.59542L65.0205 6.55598L64.9479 6.52311L64.8732 6.48148L64.7919 6.44204L64.7106 6.40917L64.6293 6.36754L64.5392 6.3281L64.4514 6.28646L64.3525 6.24483L64.2624 6.19663L64.1569 6.15499L64.0602 6.11555L63.9526 6.07392L63.8471 6.03448L63.7328 5.99285L63.6274 5.95122L63.5131 5.91178L63.3923 5.87014L63.2692 5.8307L63.1462 5.78907L63.0253 5.74963L62.8935 5.708L62.7638 5.67513L62.6342 5.6335L62.4958 5.60282L62.3551 5.56995L62.2167 5.53709L62.0717 5.50422L61.9332 5.47135L61.786 5.43848L61.63 5.41438L61.485 5.39028L61.329 5.36618L61.1752 5.34207L61.0126 5.31578L60.8456 5.23251L60.683 5.21718L60.5204 5.19965L60.349 5.18431H58.1737L58.066 5.20184L57.9517 5.21718H57.8463L57.732 5.24128L57.6111 5.25881L57.4969 5.27415L57.3826 5.29825L57.2596 5.32235L57.1453 5.34646L57.0245 5.37932L56.8904 5.45163L56.7432 5.49326L56.5982 5.5349L56.4598 5.5831L56.3125 5.62473L56.1741 5.67294L56.0357 5.72114L55.8972 5.77811L55.7654 5.82851L55.627 5.88329L55.4973 5.94903L55.3743 6.006L55.2446 6.07173L55.1216 6.13747L55.0007 6.2032L54.8777 6.27551L54.7568 6.35001L54.6426 6.42232L54.5283 6.50339L54.4207 6.57789L54.3152 6.65896L54.2097 6.7488L54.1042 6.82987L54.0054 6.91971L53.9087 7.00955L53.8186 7.10596L53.7285 7.1958L53.6384 7.2944L53.5571 7.39958L53.4758 7.49818L53.3945 7.60335L53.322 7.71072L53.2473 7.8159L53.1836 7.92984L53.1177 8.04378L53.0605 8.15772L53.0034 8.27166L52.9463 8.39436L52.9067 8.51707L52.865 8.63758L52.8254 8.76905L52.7925 8.89833L52.7595 9.0298L52.7353 9.15908L52.7177 9.29931L52.7024 9.43736V10.5373L52.7199 10.6425L52.7353 10.7477L52.7529 10.855L52.7771 10.9515L52.8012 11.0501L52.8254 11.1487L52.8496 11.2451L52.8738 11.3437L52.9067 11.4335L52.9397 11.5233L52.9792 11.6132L53.0122 11.703L53.0539 11.7907L53.0935 11.8827L53.1352 11.9638L53.1748 12.0448L53.2165 12.1259L53.2583 12.207L53.3066 12.2881L53.355 12.3713L53.4033 12.4436L53.4516 12.5247L53.5022 12.5992L53.5593 12.6715L53.6077 12.746L53.6648 12.8183L53.779 12.9564L53.8933 13.0878L54.0142 13.2171L54.1372 13.3398L54.2668 13.4625L54.3899 13.5765L54.4624 13.6334L54.5283 13.6816L54.5942 13.7386L54.658 13.789L54.7964 13.8854L54.9348 13.984L55.082 14.0804L55.2205 14.1703L55.3589 14.2513L55.4973 14.3412L55.6446 14.4157L55.783 14.4968L55.9214 14.5691L56.0686 14.6436L56.2071 14.7093L56.3367 14.7728L56.4751 14.832L56.6136 14.889L56.7454 14.9459L56.875 15.0029L57.0047 15.0511L57.1365 15.0993L57.2508 15.141L57.365 15.1804L57.4793 15.222L57.5848 15.2637L57.6815 15.2943L57.7803 15.3272L57.9429 15.4017L58.1143 15.4674L58.2769 15.531L58.4395 15.5967L58.6109 15.6537L58.7735 15.7107L58.9361 15.7676L59.1009 15.8246L59.2635 15.8816L59.4349 15.9385L59.5975 15.9955L59.7601 16.0612L59.9315 16.127L60.0941 16.184L60.2567 16.2563L60.4281 16.322L60.5182 16.3549L60.6083 16.3877L60.6896 16.4272L60.7797 16.4688L60.8675 16.5017L60.9576 16.5499L61.0477 16.5915L61.1378 16.6397L61.2279 16.6879L61.3158 16.7383L61.3971 16.7865L61.4784 16.8347L61.5619 16.8917L61.6344 16.9487L61.7157 17.0056L61.7904 17.0714L61.8629 17.1283L61.9267 17.1941L61.9926 17.2598L62.0497 17.3321L62.1068 17.4066L62.164 17.4789L62.2123 17.5534L62.2628 17.6345L62.2782 17.6739L62.3024 17.7156L62.3178 17.7638L62.3354 17.8054L62.3507 17.8449L62.3683 17.8952L62.3837 17.9347V18.7673L62.3683 18.8309V18.8966L62.3529 18.9536L62.3354 19.0106L62.32 19.0675L62.2958 19.1245L62.2782 19.1815L62.2541 19.2384L62.2299 19.2888L62.2057 19.337L62.1728 19.394L62.1486 19.4422L62.1156 19.4926L62.0827 19.532L62.0497 19.5803L62.0189 19.6219L61.986 19.6701L61.9442 19.7117L61.9047 19.7534L61.8717 19.7928L61.83 19.8344L61.7904 19.8673L61.7421 19.9067L61.7003 19.9396L61.6608 19.9725L61.6102 20.0053L61.5619 20.0382L61.5136 20.0711L61.463 20.0952L61.4147 20.128L61.3663 20.1521L61.3092 20.185L61.2521 20.2091L61.2037 20.2332L61.1466 20.2573L61.0895 20.2749L61.0323 20.299L60.9664 20.3143L60.9093 20.3384L60.8456 20.3559L60.7797 20.3713L60.7137 20.3888L60.5929 20.4129L60.461 20.437L60.3314 20.4611L60.2018 20.4786H60.0633L59.9249 20.4962H58.2132L58.0814 20.4808H57.9605L57.8375 20.4655L57.7166 20.448L57.6024 20.4326L57.4793 20.4151L57.365 20.3997L57.2508 20.3844L57.1453 20.3581L57.0311 20.3428L56.9256 20.3187L56.8201 20.2946L56.7124 20.277L56.607 20.2529L56.5103 20.2288L56.4048 20.2047L56.3059 20.1806L56.2071 20.1543L56.1192 20.1237L56.0203 20.0974L55.9302 20.0733L55.8423 20.0404L55.7522 20.0163L55.6621 19.9834L55.4907 19.9265L55.3281 19.8629L55.1655 19.8059L55.0095 19.7402L54.8645 19.6745L54.7173 19.6087L54.5789 19.5452L54.447 19.4795L54.3174 19.405L54.1877 19.3414L54.0735 19.2757L53.9504 19.2099L53.845 19.1442L53.7307 19.0807L53.6252 19.0149V19.0478L53.5945 19.0368L53.5769 19.0522L53.5461 19.1026L53.5198 19.1267L53.5044 19.1508L53.4802 19.1837L53.456 19.2165L53.4319 19.2494L53.4077 19.2823L53.3813 19.3129L53.3242 19.3874L53.2693 19.4685L53.2034 19.5496L53.1462 19.6306L53.0803 19.7205L52.9419 19.8914L52.8122 20.0711L52.7463 20.1521L52.6826 20.2354L52.6255 20.3165L52.5683 20.3976L52.5112 20.4721L52.4848 20.5027L52.4541 20.5356L52.4299 20.5685L52.4123 20.6013L52.3881 20.6342L52.364 20.6583L52.3464 20.6824L52.331 20.7065L52.3156 20.7306L52.2981 20.7569L52.2827 20.7722L52.2761 20.7898V20.8051L52.3025 20.8205L52.3266 20.8446L52.3596 20.8774L52.3903 20.9015L52.4233 20.9344L52.4651 20.9673L52.5046 21.0001L52.5464 21.033L52.5947 21.0746L52.6518 21.1141L52.7002 21.1557L52.7573 21.1951L52.8232 21.2368L52.8891 21.285L52.9529 21.3354L53.0276 21.3748L53.1001 21.423L53.1726 21.48L53.2539 21.5304L53.3374 21.5786L53.4187 21.6268L53.5066 21.6838L53.5967 21.7342L53.6955 21.7911L53.7922 21.8481L53.8911 21.8963L53.9878 21.9533L54.0933 22.0103L54.2075 22.0585L54.3152 22.1154L54.4294 22.1746L54.5503 22.2228L54.6646 22.2798L54.7876 22.3367L54.9172 22.3849L55.0403 22.4419L55.1699 22.4923L55.3084 22.5405L55.438 22.5887L55.5764 22.6391L55.7237 22.6873L55.8621 22.7355L56.0093 22.7837L56.1631 22.8254L56.3103 22.8736L56.4664 22.9152L56.6202 22.9568L56.7828 22.9875L56.9476 23.0291L57.1102 23.062L57.2728 23.1015L57.4441 23.1277L57.6155 23.1606L57.7869 23.1847L57.9649 23.2088L58.1451 23.2329L58.3231 23.257L58.5033 23.2746L58.69 23.2899L58.879 23.3052H60.3204L60.5401 23.2899L60.7599 23.2746L60.9796 23.2483L61.1993 23.2242L61.4037 23.1913L61.608 23.1606L61.8124 23.119L62.0145 23.0774L62.2101 23.0291L62.3991 22.9809L62.5858 22.924L62.7726 22.867L62.9528 22.8013L63.0429 22.7684L63.1308 22.7355L63.3263 22.6632L63.5153 22.5887L63.7021 22.5076L63.8888 22.4178L64.069 22.328L64.2404 22.2381L64.4118 22.1417L64.4931 22.0913L64.5832 22.0344L64.6953 21.9533L64.8183 21.8722L64.9326 21.7911L65.0468 21.7013L65.1523 21.6115L65.2578 21.5216L65.3654 21.4318L65.4621 21.3354L65.561 21.2368L65.6577 21.1316L65.7478 21.033L65.8379 20.9278L65.9192 20.8205L66.0092 20.7065L66.0817 20.5926L66.1631 20.4786L66.2356 20.3647L66.3015 20.242L66.3674 20.1193L66.4245 19.9988L66.4817 19.8673L66.53 19.738L66.5718 19.6065L66.6113 19.4773L66.6443 19.337L66.6772 19.199L66.7014 19.0609L66.7256 18.9229L66.7409 18.7761V18.2064L66.7278 18.1253ZM135.993 10.3686L135.978 10.1955L135.963 10.0246L135.945 9.86244L135.912 9.7003L135.888 9.53596L135.848 9.38258L135.815 9.22701L135.765 9.0802L135.717 8.93339L135.659 8.78658L135.602 8.64854L135.545 8.5105L135.473 8.37026L135.398 8.24098L135.325 8.10951L135.244 7.98023L135.163 7.85753L135.073 7.74359L134.983 7.62088L134.895 7.50694L134.796 7.393L134.699 7.28783L134.6 7.18265L134.495 7.08405L134.381 6.97887L134.275 6.88027L134.161 6.79043L134.038 6.70059L133.917 6.61076L133.794 6.52968L133.664 6.44861L133.541 6.36754L133.403 6.29304L133.273 6.21197L133.133 6.14623L132.994 6.07392L132.856 6.00819L132.717 5.94245L132.572 5.88548L132.425 5.82851L132.269 5.77154L132.124 5.72334L131.968 5.66637L131.805 5.62473L131.652 5.57653L131.487 5.5349L131.342 5.50422L131.194 5.47135L131.038 5.43848L130.885 5.40562L130.729 5.37275L130.566 5.34865L130.403 5.32454L130.241 5.30044L130.069 5.28291L129.898 5.26757L129.72 5.25004L129.54 5.23471H128.026L127.846 5.25004L127.666 5.26757L127.494 5.28291L127.325 5.30044L127.145 5.32454L126.973 5.34865L126.811 5.38151L126.639 5.40562L126.477 5.43848L126.314 5.47135L126.158 5.50422L125.996 5.54366L125.842 5.57653L125.686 5.61816L125.539 5.6576L125.385 5.69923L125.238 5.73867L125.099 5.78907L124.952 5.82851L124.814 5.87672L124.684 5.91835L124.545 5.96655L124.416 6.01695L124.284 6.06516L124.163 6.11336L124.04 6.16376L123.917 6.21197L123.805 6.26017L123.691 6.31057L123.576 6.35877L123.469 6.40698L123.363 6.45738L123.258 6.50558L123.161 6.54721L123.062 6.59542L122.972 6.64362L122.882 6.69402L122.794 6.73346L122.713 6.77509L122.638 6.8233L122.557 6.86493L122.484 6.90437L122.418 6.93724L122.353 6.97887L122.289 7.01174L122.232 7.05118L122.183 7.08405L122.126 7.10815L122.084 7.14102L122.036 7.16512L122.003 7.18922L121.961 7.21333L121.931 7.23743L121.904 7.25496L121.88 7.2703H121.865L121.849 7.28783L123.047 9.25987L123.17 9.21167L123.291 9.1547L123.423 9.1043L123.561 9.0561L123.691 8.99912L123.838 8.95092L123.985 8.90052L124.13 8.84355L124.286 8.79535L124.449 8.74714L124.611 8.69674L124.774 8.64854L124.945 8.60033L125.117 8.54994L125.297 8.50173L125.475 8.46229L125.664 8.42066L125.851 8.37903L126.046 8.33959L126.233 8.29795L126.437 8.26509L126.633 8.23222L126.837 8.19935L127.039 8.17525L127.259 8.15114L127.479 8.12704L127.699 8.1117L127.918 8.09417L128.138 8.07884H128.936L129.074 8.09417L129.206 8.1117L129.344 8.12704L129.474 8.15334L129.604 8.17744L129.727 8.20811L129.848 8.24098L129.922 8.26728L129.995 8.29138L130.069 8.31548L130.142 8.34835L130.208 8.38122L130.272 8.40532L130.346 8.44476L130.41 8.47763L130.467 8.5105L130.533 8.55213L130.599 8.59157L130.656 8.6332L130.713 8.68141L130.77 8.72304L130.828 8.77124L130.876 8.81945L130.933 8.86985L130.981 8.91805L131.03 8.96626L131.08 9.02323L131.129 9.0802L131.177 9.13717L131.219 9.2029L131.267 9.25987L131.307 9.32561L131.348 9.39134L131.381 9.46365L131.421 9.52939L131.454 9.6017L131.487 9.67619L131.52 9.7485L131.553 9.823L131.583 9.90408L131.61 9.98515L131.634 10.0662L131.658 10.1495L131.682 10.2306L131.698 10.3204L131.724 10.408L131.739 10.4979V10.5965L131.755 10.6863V11.9243H128.698L128.479 11.9397L128.259 11.9572L128.039 11.9725L127.819 11.9879L127.6 12.0142L127.145 12.0777L126.925 12.1106L126.705 12.1522L126.486 12.1938L126.266 12.242L126.046 12.2903L125.826 12.3472L125.607 12.4042L125.387 12.4699L125.167 12.5422L124.948 12.6167L124.833 12.6562L124.726 12.6978L124.62 12.746L124.515 12.7876L124.409 12.8359L124.304 12.8862L124.196 12.9345L124.091 12.9827L123.994 13.0309L123.886 13.0878L123.79 13.1382L123.691 13.1952L123.594 13.2609L123.495 13.3179L123.398 13.3815L123.308 13.4384L123.218 13.5042L123.122 13.5787L123.032 13.6422L122.941 13.7167L122.86 13.789L122.77 13.8635L122.689 13.9358L122.607 14.0169L122.526 14.1002L122.445 14.1812L122.372 14.2623L122.298 14.3434L122.225 14.4332L122.15 14.523L122.087 14.6217L122.012 14.7115L121.948 14.8079L121.882 14.9065L121.825 15.0029L121.768 15.1103L121.711 15.2155L121.654 15.3206L121.597 15.428L121.548 15.5419L121.5 15.6559L121.458 15.7698L121.419 15.8925L121.377 16.013L121.337 16.1357L121.304 16.2584L121.263 16.3899L121.238 16.5192L121.206 16.6507L121.181 16.7887L121.166 16.9268L121.142 17.0648L121.124 17.2028V17.3496L121.052 17.503V18.7345L121.069 18.8309L121.085 18.9382V19.0347L121.1 19.1333L121.124 19.2319L121.142 19.3283L121.157 19.4181L121.181 19.5079L121.206 19.6065L121.23 19.6964L121.256 19.7775L121.28 19.8673L121.313 19.9484L121.344 20.0382L121.37 20.1193L121.401 20.2004L121.434 20.2814L121.476 20.3559L121.507 20.437L121.54 20.5093L121.581 20.5838L121.621 20.6561L121.654 20.7306L121.696 20.8029L121.735 20.8687L121.786 20.941L121.825 21.0067L121.915 21.1382L122.005 21.2587L122.102 21.3814L122.201 21.5041L122.306 21.6093L122.403 21.7166L122.511 21.8218L122.625 21.9204L122.73 22.0168L122.845 22.1067L122.959 22.1877L123.073 22.271L123.194 22.3521L123.308 22.4244L123.431 22.4989L123.552 22.5624L123.667 22.6282L123.79 22.6939L123.913 22.7509L124.033 22.7991L124.157 22.8495L124.28 22.8977L124.392 22.9459L124.515 22.9875L124.638 23.027L124.752 23.0598L124.866 23.0927L124.978 23.1256L125.093 23.1584L125.207 23.1825L125.312 23.2066L125.42 23.2307L125.525 23.2483L125.631 23.2724L125.73 23.2877H125.826L125.917 23.3052H128.158L128.239 23.2899H128.411L128.492 23.2746L128.582 23.257L128.76 23.2242L128.85 23.2088L128.94 23.1847L129.039 23.1672L129.136 23.1431L129.234 23.119L129.331 23.0861L129.428 23.062L129.527 23.0291L129.632 22.9963L129.738 22.9634L129.837 22.9305L129.942 22.8911L130.056 22.8495L130.162 22.81L130.28 22.7618L130.392 22.7224L130.5 22.6742L130.614 22.615L130.726 22.5668L130.841 22.5098L130.955 22.4529L131.078 22.3871L131.192 22.3236L131.313 22.2579L131.427 22.1921L131.55 22.1198L131.674 22.0453L131.794 21.9642L131.917 21.8832L132.04 21.8021L132.071 21.8744L132.122 21.9489L132.161 22.0212L132.212 22.0935L132.26 22.1593L132.309 22.2338L132.366 22.3061L132.423 22.3718L132.486 22.4441L132.552 22.5098L132.627 22.5756L132.7 22.6413L132.781 22.6983L132.853 22.7618L132.944 22.8188L133.034 22.8758L133.124 22.9262L133.22 22.9831L133.326 23.0313L133.434 23.073L133.539 23.1212L133.653 23.154L133.776 23.1957L133.897 23.2263L134.029 23.2592L134.159 23.2833L134.231 23.3008H135.519L135.633 23.2855H135.756L135.877 23.2702L136 23.2526V10.5395L135.993 10.3686ZM131.781 19.2253L131.625 19.3217L131.471 19.4115L131.315 19.4926L131.17 19.5737L131.023 19.6482L130.876 19.7205L130.729 19.7862L130.584 19.852L130.445 19.9089L130.298 19.9571L130.16 20.0075L130.03 20.0557L129.891 20.0952L129.76 20.128L129.63 20.1697L129.507 20.2025L129.386 20.2266L129.263 20.2507L129.14 20.2749L129.026 20.2924L128.911 20.3165L128.799 20.3318H128.692L128.586 20.3472H127.461L127.356 20.3318L127.257 20.3143L127.151 20.2902L127.037 20.2661L126.932 20.2332L126.826 20.1938L126.721 20.1521L126.613 20.1039L126.508 20.0535L126.459 20.0207L126.402 19.99L126.354 19.9571L126.303 19.9243L126.255 19.8914L126.207 19.8498L126.158 19.8169L126.108 19.7775L126.059 19.7358L126.02 19.6876L125.969 19.646L125.93 19.5978L125.881 19.5496L125.84 19.4926L125.798 19.4422L125.758 19.3852L125.725 19.3283L125.684 19.2713L125.653 19.2078L125.611 19.1508L125.578 19.0851L125.545 19.0106L125.521 18.947L125.49 18.8725L125.464 18.8002L125.44 18.7257L125.416 18.6446L125.391 18.5636L125.376 18.4825L125.358 18.3926L125.343 18.3028L125.325 18.213L125.31 18.1231V17.1371L125.325 17.0648V16.9903L125.341 16.918L125.358 16.8435V16.7778L125.383 16.7054L125.398 16.6397L125.413 16.5674L125.44 16.5017L125.464 16.4359L125.488 16.3724L125.512 16.3132L125.536 16.2497L125.569 16.1927L125.594 16.127L125.627 16.07L125.659 16.013L125.692 15.9561L125.725 15.8991L125.756 15.8509L125.831 15.7435L125.912 15.6384L125.993 15.5397L126.084 15.4499L126.171 15.3601L126.262 15.2702L126.36 15.1892L126.466 15.1081L126.563 15.0358L126.67 14.9613L126.785 14.889L126.897 14.8232L127.011 14.7575L127.125 14.7005L127.248 14.6436L127.371 14.5866L127.492 14.5384L127.624 14.4902L127.745 14.4398L127.877 14.4003L128.006 14.3587L128.136 14.3171L128.268 14.2864L128.406 14.2535L128.536 14.2207L128.674 14.1878L128.804 14.1637L128.942 14.1396L129.074 14.1133L129.213 14.0892L129.351 14.0739L129.481 14.0563L129.612 14.041L129.751 14.0257L129.88 14.0081H130.01L130.142 13.9928H131.755L131.781 19.2253ZM50.103 10.3686L50.0854 10.1955L50.07 10.0246L50.0458 9.86244L50.0217 9.7003L49.9975 9.53596L49.9557 9.38258L49.9162 9.22701L49.8744 9.0802L49.8261 8.93339L49.769 8.78658L49.7118 8.64854L49.6393 8.51926L49.5734 8.37903L49.5009 8.24975L49.4284 8.11828L49.3471 7.989L49.2658 7.86629L49.1757 7.75235L49.0856 7.62965L48.9955 7.51571L48.8988 7.40177L48.7999 7.29659L48.6945 7.19142L48.589 7.09281L48.4813 6.98764L48.3693 6.88903L48.255 6.7992L48.1408 6.70936L48.0177 6.61952L47.8947 6.53845L47.765 6.45738L47.6354 6.3763L47.5035 6.3018L47.3739 6.22073L47.2355 6.15499L47.097 6.08269L46.9586 6.01695L46.8114 5.95122L46.673 5.89425L46.5191 5.83728L46.3719 5.78031L46.2181 5.7321L46.0621 5.67513L45.9083 5.6335L45.7523 5.58529L45.5897 5.54366L45.4425 5.51298L45.2952 5.48012L45.1414 5.44725L44.9854 5.41438L44.8316 5.38151L44.669 5.35741L44.5064 5.33331L44.3416 5.30921L44.1724 5.29168L44.001 5.27634L43.8209 5.25881L43.6429 5.24347H42.1421L41.9641 5.25881L41.784 5.27634L41.6126 5.29168L41.4324 5.30921L41.2632 5.33331L41.0918 5.35741L40.9292 5.39028L40.7578 5.41438L40.593 5.44725L40.4304 5.48012L40.2678 5.51298L40.114 5.55242L39.958 5.58529L39.8042 5.62692L39.6482 5.66637L39.5032 5.708L39.3559 5.74744L39.2087 5.79783L39.0703 5.83728L38.9319 5.88548L38.7934 5.92711L38.6638 5.97532L38.5319 6.02572L38.4023 6.07392L38.2793 6.12213L38.1584 6.17252L38.0354 6.22073L37.9123 6.26894L37.798 6.31933L37.6926 6.36754L37.5783 6.41574L37.4816 6.46614L37.3762 6.51435L37.2773 6.55598L37.1806 6.60418L37.0905 6.65239L37.0004 6.70279L36.9103 6.74223L36.829 6.78386L36.7477 6.83206L36.6752 6.8737L36.6005 6.91314L36.5368 6.946L36.4709 6.98764L36.405 7.0205L36.3478 7.05995L36.2907 7.09281L36.2424 7.11692L36.194 7.14978L36.1523 7.17389L36.1127 7.19799L36.0798 7.22209L36.0468 7.24619L36.0226 7.26372L35.9985 7.27906H35.9809L35.9655 7.29659L37.163 9.26864L37.2839 9.22043L37.4069 9.16346L37.5366 9.11307L37.6684 9.06486L37.8068 9.00789L37.9519 8.95968L38.0991 8.90929L38.2463 8.85232L38.4001 8.80411L38.5649 8.75591L38.7275 8.70551L38.8901 8.6573L39.0615 8.6091L39.2329 8.5587L39.4109 8.5105L39.591 8.47106L39.7778 8.42942L39.9668 8.38779L40.1536 8.34835L40.3491 8.30672L40.5447 8.27385L40.749 8.24098L40.9512 8.20811L41.1555 8.18401L41.3753 8.15991L41.595 8.13581L41.8147 8.12047L42.0344 8.10294L42.2542 8.0876H43.0606L43.199 8.10294L43.3287 8.12047L43.4671 8.13581L43.5989 8.1621L43.7198 8.1862L43.8516 8.21688L43.9725 8.24975L44.045 8.27604L44.1197 8.30014L44.1922 8.32425L44.2581 8.35711L44.3306 8.38998L44.3965 8.41408L44.4625 8.45353L44.5262 8.48639L44.5921 8.51926L44.658 8.56089L44.7152 8.60033L44.7701 8.64196L44.836 8.69017L44.8931 8.7318L44.9415 8.78001L44.9986 8.82821L45.0557 8.87861L45.1063 8.92682L45.1546 8.97502L45.203 9.03199L45.2513 9.08896L45.3018 9.14593L45.3414 9.21167L45.3831 9.26864L45.4227 9.33437L45.4644 9.40011L45.504 9.47242L45.537 9.53815L45.5787 9.61046L45.6117 9.68496L45.6424 9.75727L45.6754 9.83177L45.6996 9.91284L45.7325 9.99391L45.7567 10.075L45.7809 10.1583L45.8072 10.2393L45.8226 10.3292L45.838 10.4168L45.8556 10.5066L45.8709 10.6052L45.8885 10.6951V11.9331H42.8255L42.6057 11.9484L42.386 11.966L42.1663 11.9813L41.9466 11.9966L41.7268 12.0229L41.5071 12.0558L41.2874 12.0865L41.0676 12.1193L40.8479 12.161L40.6282 12.2026L40.4084 12.2508L40.1887 12.299L39.969 12.356L39.7493 12.413L39.5295 12.4787L39.3098 12.551L39.0901 12.6255L38.9846 12.6649L38.8791 12.7066L38.7649 12.7548L38.6594 12.7964L38.5539 12.8446L38.4462 12.895L38.3496 12.9432L38.2441 12.9914L38.1364 13.0396L38.0397 13.0966L37.9409 13.147L37.8442 13.204L37.7453 13.2697L37.6486 13.3267L37.5497 13.3902L37.4619 13.4472L37.363 13.5129L37.2729 13.5874L37.185 13.651L37.0949 13.7255L37.0048 13.7978L36.9235 13.8723L36.8422 13.9446L36.7609 14.0257L36.6796 14.1089L36.5983 14.19L36.5236 14.2711L36.4423 14.3521L36.3698 14.442L36.3039 14.5318L36.2314 14.6304L36.1654 14.7203L36.0995 14.8167L36.0358 14.9153L35.9787 15.0117L35.9128 15.119L35.8556 15.2242L35.8073 15.3294L35.7502 15.4368L35.7018 15.5507L35.6513 15.6646L35.6029 15.7786L35.5612 15.9013L35.5216 16.0218L35.4799 16.1445L35.4491 16.2672L35.4162 16.3987L35.3832 16.528L35.359 16.6594L35.3349 16.7975L35.3107 16.9355L35.2931 17.0736L35.2777 17.2116L35.2602 17.3584V18.7367L35.2755 18.8331V18.9404L35.2909 19.0368L35.3085 19.1354L35.3239 19.234L35.348 19.3305L35.3656 19.4203L35.3898 19.5101L35.414 19.6087L35.4381 19.6986L35.4623 19.7796L35.4865 19.8695L35.5194 19.9506L35.5436 20.0404L35.5766 20.1215L35.6095 20.2025L35.6425 20.2836L35.6754 20.3581L35.715 20.4392L35.748 20.5115L35.7875 20.586L35.8205 20.6583L35.8622 20.7328L35.9018 20.8051L35.9435 20.8708L35.9853 20.9432L36.0336 21.0089L36.1237 21.1404L36.2116 21.2609L36.3105 21.3836L36.4072 21.5063L36.506 21.6115L36.6115 21.7188L36.717 21.824L36.8246 21.9226L36.9367 22.019L37.051 22.1089L37.1652 22.1899L37.2795 22.2732L37.3937 22.3543L37.5168 22.4266L37.6376 22.5011L37.7519 22.5646L37.875 22.6304L37.9958 22.6961L38.1189 22.7531L38.2419 22.8013L38.3628 22.8517L38.477 22.8999L38.6001 22.9481L38.7231 22.9897L38.8352 23.0291L38.9582 23.062L39.0725 23.0949L39.2922 23.1606L39.4065 23.1847L39.5119 23.2088L39.6174 23.2329L39.7251 23.2505L39.8306 23.2746L39.9272 23.2899H40.0261L40.1162 23.3074H42.3223L42.4058 23.2921H42.5684L42.6585 23.2767L42.7464 23.2592L42.8277 23.2439L42.9178 23.2263L43.0166 23.211L43.1067 23.1869L43.2034 23.1694L43.2935 23.1453L43.3902 23.1212L43.4891 23.0883L43.5945 23.0642L43.6934 23.0313L43.7989 22.9985L43.8956 22.9656L44.0032 22.9327L44.1087 22.8933L44.2142 22.8517L44.3284 22.8122L44.4339 22.7618L44.5394 22.7224L44.6536 22.6742L44.7679 22.615L44.8822 22.5668L44.9964 22.5098L45.1107 22.4529L45.2249 22.3871L45.3458 22.3236L45.46 22.2579L45.5831 22.1921L45.7061 22.1198L45.8204 22.0453L45.9413 21.9642L46.0643 21.8832L46.1874 21.8021L46.2269 21.8744L46.2687 21.9489L46.317 22.0212L46.3565 22.0935L46.4071 22.1593L46.462 22.2338L46.5213 22.3061L46.5763 22.3718L46.6422 22.4441L46.7081 22.5098L46.7806 22.5756L46.8553 22.6413L46.9278 22.6983L47.0091 22.7618L47.0992 22.8188L47.1893 22.8758L47.2772 22.9262L47.3761 22.9831L47.4728 23.0313L47.5804 23.073L47.6925 23.1212L47.8068 23.154L47.9298 23.1957L48.0529 23.2263L48.1825 23.2592L48.3121 23.2833L48.3781 23.3008H49.6393L49.7536 23.2855H49.8744L49.9975 23.2702L50.1205 23.2526V10.5329L50.103 10.3686ZM45.8907 19.2253L45.7347 19.3217L45.5809 19.4115L45.4249 19.4926L45.2777 19.5737L45.1239 19.6482L44.9766 19.7205L44.8294 19.7862L44.691 19.852L44.546 19.9089L44.4075 19.9571L44.2669 20.0075L44.1285 20.0557L43.9988 20.0952L43.8692 20.128L43.7374 20.1697L43.6165 20.2025L43.4847 20.2266L43.3638 20.2507L43.2496 20.2749L43.1265 20.2924L43.0122 20.3165L42.9068 20.3318H42.8013L42.6958 20.3472H41.5752L41.4675 20.3318L41.3621 20.3143L41.2566 20.2902L41.1511 20.2661L41.0457 20.2332L40.938 20.1938L40.8325 20.1521L40.7271 20.1039L40.6216 20.0535L40.571 20.0207L40.5139 19.99L40.4656 19.9571L40.4172 19.9243L40.3689 19.8914L40.3205 19.8498L40.27 19.8169L40.2217 19.7775L40.1733 19.7358L40.1316 19.6876L40.0832 19.646L40.0415 19.5978L39.9932 19.5496L39.9536 19.4926L39.9118 19.4422L39.8701 19.3852L39.8393 19.3283L39.7976 19.2713L39.7646 19.2078L39.7251 19.1508L39.6921 19.0851L39.6592 19.0106L39.635 18.947L39.602 18.8725L39.5779 18.8002L39.5537 18.7257L39.5295 18.6446L39.5054 18.5636L39.4878 18.4825L39.4724 18.3926L39.4548 18.3028L39.4394 18.213L39.424 18.1231V17.1371L39.4394 17.0648V16.9903L39.4548 16.918L39.4702 16.8435V16.7778L39.4944 16.7054L39.5119 16.6397L39.5273 16.5674L39.5515 16.5017L39.5757 16.4359L39.5998 16.3724L39.6262 16.3132L39.6504 16.2497L39.6833 16.1927L39.7075 16.127L39.7405 16.07L39.7712 16.013L39.8042 15.9561L39.8371 15.8991L39.8701 15.8509L39.9426 15.7435L40.0239 15.6384L40.1052 15.5397L40.1953 15.4499L40.2854 15.3601L40.3755 15.2702L40.4722 15.1892L40.571 15.1081L40.6765 15.0358L40.782 14.9613L40.8962 14.889L41.0105 14.8232L41.1248 14.7575L41.239 14.7005L41.3621 14.6436L41.4829 14.5866L41.606 14.5384L41.7268 14.4902L41.8587 14.4398L41.9883 14.4003L42.1201 14.3587L42.2498 14.3171L42.3794 14.2864L42.5091 14.2535L42.6497 14.2207L42.7793 14.1878L42.9178 14.1637L43.0562 14.1396L43.1858 14.1133L43.3243 14.0892L43.4561 14.0739L43.5945 14.0563L43.7242 14.041L43.8626 14.0257L43.9922 14.0081H44.1241L44.2537 13.9928H45.86L45.8907 19.2253ZM118.791 10.7827L118.775 10.5965L118.749 10.4168L118.725 10.2459L118.701 10.0662L118.668 9.89531L118.628 9.73097L118.586 9.56006L118.547 9.40668L118.498 9.24234L118.441 9.08896L118.391 8.93339L118.327 8.78658L118.27 8.63977L118.195 8.49297L118.132 8.35492L118.057 8.21688L117.976 8.08103L117.903 7.94298L117.822 7.82028L117.732 7.691L117.642 7.5683L117.551 7.44559L117.455 7.33165L117.365 7.21771L117.259 7.11253L117.16 6.99859L117.055 6.89999L116.949 6.79481L116.844 6.69621L116.73 6.59761L116.615 6.50996L116.501 6.42013L116.378 6.33029L116.264 6.24922L116.143 6.16595L116.02 6.09364L115.89 6.02133L115.767 5.94683L115.638 5.8811L115.506 5.81756L115.376 5.75182L115.246 5.69485L115.115 5.63788L114.976 5.58091L114.847 5.53051L114.708 5.48231L114.57 5.44068L114.431 5.40123L114.293 5.3596L114.154 5.32674L114.016 5.29606L113.869 5.26976L113.73 5.2369L113.581 5.23251L113.442 5.20841L113.295 5.19307L113.157 5.17554H111.821L111.682 5.19307H111.544L111.406 5.2106L111.258 5.22594L111.111 5.24128L110.957 5.26757L110.81 5.29168L110.647 5.32454L110.494 5.35741L110.338 5.39685L110.175 5.43848L110.012 5.47793L109.841 5.52832L109.678 5.58529L109.507 5.64226L109.336 5.70581L109.156 5.77154L108.986 5.84604L108.806 5.92711L108.626 6.00819L108.538 6.04982L108.448 6.09802L108.349 6.14623L108.259 6.19663L108.171 6.24483L108.081 6.29304L107.982 6.35001L107.894 6.40698L107.795 6.45738L107.705 6.52092L107.609 6.57789L107.519 6.64362L107.47 6.57789L107.428 6.52092L107.38 6.45738L107.323 6.39821L107.275 6.34344L107.218 6.28427L107.152 6.2273L107.094 6.1791L107.029 6.12213L106.965 6.07392L106.89 6.01695L106.818 5.96655L106.745 5.91835L106.664 5.87672L106.582 5.82851L106.499 5.78907L106.411 5.74744L106.321 5.70581L106.231 5.67513L106.132 5.6335L106.027 5.60063L105.93 5.57653L105.824 5.54366L105.71 5.51956L105.596 5.50422L105.482 5.47793L105.359 5.46259L105.231 5.45163H104.012L103.889 5.46697L103.766 5.4845V22.9371H107.978V9.07143L108.116 9.01446L108.255 8.95749L108.384 8.90929L108.514 8.86766L108.646 8.81945L108.784 8.77782L108.914 8.73838L109.052 8.69674L109.191 8.6573L109.323 8.62444L109.461 8.5828L109.591 8.54994L109.729 8.51707L109.859 8.49297L109.991 8.46886L110.12 8.44476L110.25 8.42066L110.382 8.40313L110.511 8.38779L110.641 8.37026L110.764 8.35492H112.01L112.091 8.37026L112.181 8.38779H112.263L112.344 8.40532L112.427 8.42942L112.509 8.44476L112.59 8.47106L112.662 8.49516L112.737 8.51926L112.816 8.54336L112.882 8.56747L112.957 8.60033L113.029 8.6332L113.095 8.66607L113.159 8.69894L113.225 8.73838L113.291 8.78001L113.355 8.81945L113.412 8.86108L113.478 8.90929L113.535 8.95968L113.592 9.00789L113.649 9.0561L113.697 9.11307L113.754 9.16346L113.803 9.22043L113.853 9.28398L113.902 9.34095L113.95 9.40668L113.992 9.47242L114.031 9.53815L114.073 9.61046L114.113 9.68496L114.154 9.75727L114.194 9.83177L114.227 9.91284L114.26 9.99391L114.293 10.075L114.326 10.1648L114.35 10.2547L114.374 10.3445L114.407 10.4343L114.431 10.5307L114.447 10.6294L114.471 10.7258L114.488 10.8331L114.504 10.9383L114.521 11.0457L114.537 11.1508V11.2648L114.552 11.3787V22.9327H118.773V10.9536L118.791 10.7827Z" fill="black" fill-opacity="0.3"/>
</svg>
